<?xml version="1.0" encoding="UTF-8" standalone="no"?>
<!-- Created with Inkscape (http://www.inkscape.org/) -->

<svg
   xmlns:dc="http://purl.org/dc/elements/1.1/"
   xmlns:cc="http://creativecommons.org/ns#"
   xmlns:rdf="http://www.w3.org/1999/02/22-rdf-syntax-ns#"
   xmlns:svg="http://www.w3.org/2000/svg"
   xmlns="http://www.w3.org/2000/svg"
   xmlns:xlink="http://www.w3.org/1999/xlink"
   xmlns:sodipodi="http://sodipodi.sourceforge.net/DTD/sodipodi-0.dtd"
   xmlns:inkscape="http://www.inkscape.org/namespaces/inkscape"
   sodipodi:docname="always-run-fast.svg"
   inkscape:version="0.92.1 unknown"
   version="1.1"
   id="svg5312"
   viewBox="0 0 1920.0001 1080.0001"
   height="1152.0001"
   width="2048"
   inkscape:export-filename="/home/manjit/github/wallpapers/general/always-run-fast.png"
   inkscape:export-xdpi="95.999992"
   inkscape:export-ydpi="95.999992">
  <defs
     id="defs5314">
    <inkscape:path-effect
       nr_y="10"
       nr_x="10"
       is_visible="true"
       id="path-effect8547"
       effect="construct_grid" />
    <inkscape:path-effect
       effect="construct_grid"
       id="path-effect8531"
       is_visible="true"
       nr_x="10"
       nr_y="10" />
    <inkscape:path-effect
       effect="bounding_box"
       id="path-effect8529"
       is_visible="true"
       linkedpath=""
       visualbounds="true" />
    <inkscape:perspective
       sodipodi:type="inkscape:persp3d"
       inkscape:vp_x="0 : 540.00005 : 1"
       inkscape:vp_y="0 : 1000 : 0"
       inkscape:vp_z="1920.0001 : 540.00005 : 1"
       inkscape:persp3d-origin="960.00005 : 360.00003 : 1"
       id="perspective7652" />
    <linearGradient
       id="linearGradient5066"
       inkscape:collect="always">
      <stop
         id="stop5062"
         offset="0"
         style="stop-color:#36fc20;stop-opacity:0.24886878" />
      <stop
         id="stop5064"
         offset="1"
         style="stop-color:#fcc01b;stop-opacity:0" />
    </linearGradient>
    <linearGradient
       inkscape:collect="always"
       id="linearGradient5054">
      <stop
         style="stop-color:#fce520;stop-opacity:1;"
         offset="0"
         id="stop5050" />
      <stop
         style="stop-color:#fcc01b;stop-opacity:1"
         offset="1"
         id="stop5052" />
    </linearGradient>
    <linearGradient
       inkscape:collect="always"
       xlink:href="#linearGradient5054"
       id="linearGradient5056"
       x1="2.4960828"
       y1="513.20825"
       x2="1916.9916"
       y2="513.20825"
       gradientUnits="userSpaceOnUse" />
    <linearGradient
       inkscape:collect="always"
       xlink:href="#linearGradient5066"
       id="linearGradient5060"
       gradientUnits="userSpaceOnUse"
       x1="983.45667"
       y1="-23.449583"
       x2="983.45667"
       y2="518.20038"
       spreadMethod="reflect" />
  </defs>
  <sodipodi:namedview
     fit-margin-bottom="0"
     fit-margin-right="0"
     fit-margin-left="0"
     fit-margin-top="0"
     inkscape:window-maximized="1"
     inkscape:window-y="24"
     inkscape:window-x="0"
     inkscape:window-height="1015"
     inkscape:window-width="1920"
     units="px"
     showgrid="false"
     inkscape:current-layer="layer2"
     inkscape:document-units="px"
     inkscape:cy="663.67078"
     inkscape:cx="779.01375"
     inkscape:zoom="0.53116235"
     inkscape:pageshadow="2"
     inkscape:pageopacity="0.0"
     borderopacity="1.0"
     bordercolor="#666666"
     pagecolor="#ffffff"
     id="base"
     inkscape:measure-start="0,0"
     inkscape:measure-end="0,0"
     inkscape:snap-global="false" />
  <metadata
     id="metadata5317">
    <rdf:RDF>
      <cc:Work
         rdf:about="">
        <dc:format>image/svg+xml</dc:format>
        <dc:type
           rdf:resource="http://purl.org/dc/dcmitype/StillImage" />
        <dc:title></dc:title>
      </cc:Work>
    </rdf:RDF>
  </metadata>
  <g
     inkscape:label="BG"
     inkscape:groupmode="layer"
     id="layer1"
     transform="translate(0,27.638008)">
    <rect
       style="opacity:1;fill:url(#linearGradient5056);fill-opacity:1;fill-rule:nonzero;stroke:none;stroke-width:3;stroke-linecap:round;stroke-miterlimit:4;stroke-dasharray:none;stroke-dashoffset:0;stroke-opacity:1"
       id="rect5860"
       width="1920"
       height="1080.0001"
       x="0"
       y="-27.638008" />
    <rect
       y="-27.638008"
       x="0"
       height="1080.0001"
       width="1920"
       id="rect5058"
       style="opacity:0.99;fill:url(#linearGradient5060);fill-opacity:1;fill-rule:nonzero;stroke:none;stroke-width:3;stroke-linecap:round;stroke-miterlimit:4;stroke-dasharray:none;stroke-dashoffset:0;stroke-opacity:1" />
    <g
       id="logogroup"
       transform="matrix(0.93750002,0,0,0.93750002,1762.7851,900.56633)"
       style="fill:#000000;fill-opacity:0.09502264">
      <path
         d="M 46,0.182 A 50,50 0 0 0 0,50 50,50 0 0 0 50,100 50,50 0 0 0 69,96.207 V 49 h -9 v 29 c 0.28,6.224 -7.21,9.656 -12,5 L 12,47 C 6.517,41 12,35 16,35 H 46 Z M 60,1.014 V 35 h 16 c 3.893,0.096 6.692,3.226 7,7 V 87.48 A 50,50 0 0 0 100,50 50,50 0 0 0 60,1.014 Z M 34,49 46,61 V 49 Z"
         class="bg-target"
         id="logopath"
         inkscape:connector-curvature="0"
         style="fill:#000000;fill-opacity:0.09502264;stroke-width:5;stroke-linecap:round" />
    </g>
  </g>
  <g
     inkscape:groupmode="layer"
     id="layer2"
     inkscape:label="Layer 1">
    <path
       transform="translate(0,27.638008)"
       inkscape:connector-curvature="0"
       id="path7094"
       d="m -497.44931,459.39067 c -4.13373,4.65598 -6.91406,9.66147 -4.48398,16.01133 -6.86364,-0.19644 -13.13668,3.52903 -19.37149,7.52458 l 13.76755,5.28449 c -2.85018,3.94709 -3.06803,8.18567 -4.16068,12.32798 l 3.84123,-2.07846 -1.9207,17.13139 c -1.20542,15.29436 9.37552,21.31698 23.69762,21.93477 l 0.47724,10.0879 -7.36301,3.67961 c -3.93322,-1.12099 -9.90223,0.0205 -15.69188,0.96219 0,0 -1.43942,3.52326 -0.63889,5.28451 0.54037,-0.19049 -8.48686,-0.093 -8.32511,1.12003 0.37556,-9.40463 -0.8796,-14.27969 -2.40171,-18.41305 4.5521,0.20219 7.05821,-0.85928 3.72847,-5.53633 1.18869,-0.28655 2.35889,-0.63507 2.51438,-4.38996 -1.8e-4,-3.5872 -1.49427,-4.85045 -3.52158,-5.28449 -3.60482,-0.21947 -7.19685,-0.25748 -10.72693,0.64271 -3.0536,1.12775 -3.34744,5.78985 -1.92437,11.04632 l 0.64269,30.25993 c 0.87757,9.04589 6.44186,8.08996 11.20795,7.52458 l 8.00568,-0.95841 -0.16175,2.94668 4.00287,-0.38711 c -2.34831,7.31179 -3.73365,14.62671 -4.16066,21.93853 -6.7224,0.47125 -14.49654,-0.89833 -19.69473,2.24009 l 3.20225,5.28448 -5.92346,0.72164 c -8.84532,6.41049 -18.21897,12.55654 -28.98201,15.77078 l -4.00285,-4.00281 -4.8034,-7.36672 c -1.51018,-2.08737 -3.35041,-3.18706 -5.28449,-4.00285 -1.13592,-0.81647 -2.44037,-0.62264 -4.00285,1.12005 -1.00767,1.85936 -1.99003,3.75353 -1.12003,8.32515 l 4.32232,8.64837 5.60395,15.36865 c 1.05244,4.13584 3.71083,5.72039 9.44896,2.40169 5.90714,-2.56666 7.25391,-6.43488 8.80624,-10.24576 12.06152,-3.94973 20.7953,-10.78018 36.18341,-11.84688 l 9.60681,13.44803 c 8.55805,-2.67295 16.58113,-6.23983 23.85908,-11.04634 l 7.20522,9.12573 9.92646,-5.92346 15.04907,7.84407 c 2.89876,1.96928 5.91186,3.05512 9.4451,0.16155 l 11.68907,-8.00568 2.08222,0.63895 c 3.98626,2.30949 7.22006,6.49903 9.92626,12.00851 9.3058,4.394 5.0629,-9.40837 -0.3194,-24.73865 0.507,-3.65591 -2.4512,-8.073 -7.12622,-6.96457 -9.88909,0.84176 -10.20171,4.52831 -12.88803,9.60681 l -9.12571,4.00283 -4.00269,-2.88277 2.08202,-1.92063 -9.92995,-10.0879 c 2.73394,-2.44199 4.8453,-5.00779 4.40501,-8.0846 6.19965,-6.16446 11.51932,-12.988 16.89071,-19.77361 3.80666,-5.19362 2.41639,-8.94338 -1.43932,-12.00851 l -6.88564,-5.92346 1.92046,-3.20225 c -6.75263,-4.08463 -15.87937,-11.83838 -20.25461,-12.24908 l -6.16413,-0.56001 -0.47745,-7.68618 5.12323,-1.60113 c 26.37995,-15.43031 39.97984,-44.61652 10.40739,-55.23915 -3.06421,-7.16668 -8.21064,-13.59146 -14.25264,-19.69471 l -11.68533,11.68903 z m 39.3781,111.28256 4.46885,0.45479 c 2.76329,0.43562 1.57131,2.13119 1.19157,3.56686 0,0 -5.77516,14.71603 -6.22798,14.37638 -1.61174,-3.73332 -8.47865,-1.02758 -7.52833,1.75523 -3.81879,1.29976 -6.24059,3.79181 -6.17152,-2.7738 l 9.39625,-16.01887 3.90518,0.11269 z"
       style="fill:#000000;fill-opacity:0.82805433;fill-rule:evenodd;stroke:none;stroke-width:0.9375px;stroke-linecap:butt;stroke-linejoin:miter;stroke-opacity:1" />
    <path
       transform="translate(0,27.638008)"
       inkscape:connector-curvature="0"
       id="path7097"
       d="m -645.24368,773.39973 c 24.0454,0 43.4032,19.35778 43.4032,43.40318 v 118.29712 c 0,24.04541 -19.3578,43.40318 -43.4032,43.40318 h -118.2972 c -24.04528,0 -43.40314,-19.35777 -43.40314,-43.40318 V 816.80291 c 0,-24.0454 19.35786,-43.40318 43.40314,-43.40318 z m -49.5318,36.04603 -11.138,8.43648 -8.20877,-8.21263 c -4.24492,4.28794 -7.86081,8.80187 -10.01363,13.83694 -20.77669,7.46311 -11.22163,27.96848 7.31211,38.80931 l 3.59946,1.12434 -0.33577,5.40048 -4.33143,0.39366 c -3.07393,0.28854 -9.48516,5.73525 -14.22933,8.60499 l 1.34948,2.24998 -4.83822,4.16163 c -2.70896,2.15346 -3.6856,4.7876 -1.01121,8.43647 3.77376,4.76736 7.51171,9.56259 11.86742,13.89354 -0.30937,2.16167 1.17307,3.96398 3.09384,5.67964 l -6.97637,7.08699 1.46275,1.34948 -2.81217,2.02485 -6.41163,-2.81216 c -1.88731,-3.56799 -2.10623,-6.15726 -9.05392,-6.74866 -3.2845,-0.77874 -5.36299,2.32381 -5.00685,4.89234 -3.78141,10.77056 -6.76185,20.46817 -0.2239,17.38108 1.90135,-3.87079 4.17318,-6.8139 6.97381,-8.43646 l 1.46268,-0.44898 8.21267,5.62431 c 2.48231,2.03293 4.59886,1.27035 6.63544,-0.11323 l 10.57325,-5.51111 6.97379,4.16164 5.06214,-6.41162 c 5.11324,3.3769 10.74969,5.88316 16.76231,7.76109 l 6.74994,-9.4489 c 10.81118,0.74943 16.94731,5.54832 25.42131,8.32326 1.0906,2.67741 2.0363,5.39567 6.1865,7.19892 4.0314,2.33161 5.8986,1.21789 6.6381,-1.68781 l 3.9378,-10.79709 3.0359,-6.07585 c 0.6112,-3.21187 -0.078,-4.54311 -0.786,-5.84944 -1.0978,-1.22435 -2.014,-1.36092 -2.8122,-0.78729 -1.3588,0.57313 -2.6516,1.34563 -3.7127,2.81215 l -3.3755,5.17663 -2.8122,2.81216 c -7.5617,-2.25823 -14.1473,-6.5763 -20.36176,-11.0801 l -4.16162,-0.50686 2.24998,-3.71267 c -3.65208,-2.20496 -9.114,-1.24352 -13.83694,-1.57459 -0.3,-5.13707 -1.27293,-10.27582 -2.9228,-15.41284 l 2.81217,0.27143 -0.11323,-2.06987 5.62431,0.6728 c 3.34849,0.39722 7.25774,1.06938 7.87429,-5.28597 l 0.45154,-21.2597 c 0.9998,-3.69303 0.79332,-6.96877 -1.35204,-7.7611 -2.48013,-0.63244 -5.00333,-0.60574 -7.53596,-0.45154 -1.42434,0.30495 -2.47499,1.19242 -2.47511,3.71267 0.10919,2.63806 0.93115,2.88357 1.76627,3.08488 -2.33937,3.28594 -0.57767,4.03096 2.62048,3.88891 -1.06938,2.90396 -1.95166,6.32905 -1.68781,12.93643 0.10636,-0.79754 -5.4392,-0.90788 -5.84044,-0.80916 0.54059,-1.24455 -0.45669,-3.68952 -0.45669,-3.68952 -4.06761,-0.6616 -8.26142,-1.46424 -11.02477,-0.67667 l -5.17407,-2.58445 0.33576,-7.08829 c 10.06225,-0.43403 17.496,-4.66493 16.64911,-15.41025 l -1.34948,-12.03593 2.69895,1.46012 c -0.76766,-2.91027 -0.92035,-5.88851 -2.9228,-8.66161 l 9.67275,-3.71267 c -4.38038,-2.80714 -8.78836,-5.42399 -13.61053,-5.28597 1.7073,-4.46121 -0.24626,-7.97749 -3.15049,-11.24864 z m -27.66488,78.18336 0.67795,1.03431 2.74397,-0.0785 6.60201,11.25378 c 0.0485,4.61279 -1.65363,2.86213 -4.33658,1.94896 0.66765,-1.95511 -4.15618,-3.85661 -5.28854,-1.2337 -0.31813,0.23863 -4.37651,-10.09983 -4.37651,-10.09983 -0.26676,-1.00865 -1.10391,-2.19994 0.83747,-2.50599 z"
       style="opacity:1;fill:#000000;fill-opacity:1;fill-rule:nonzero;stroke:none;stroke-width:2.8125;stroke-linecap:butt;stroke-linejoin:round;stroke-miterlimit:4;stroke-dasharray:none;stroke-dashoffset:0;stroke-opacity:1" />
    <path
       transform="translate(0,27.638008)"
       sodipodi:nodetypes="cccccccccccccccccccccccccccccccccccccccccccccccccccccccccccc"
       inkscape:connector-curvature="0"
       id="path7599"
       d="m -491.83015,780.37711 c 16.69176,-1.58796 32.25754,0.8786 44.7735,11.15437 11.90567,2.56147 26.36678,5.31499 36.5052,3.82213 -5.91237,-13.79377 1.11012,-21.62318 10.21834,-26.52088 12.06323,-4.06034 22.22329,-1.42152 29.09496,12.79242 4.52463,-6.56322 10.01005,-14.25707 17.16058,-15.36651 19.48766,-68.35618 57.90468,-90.30916 76.13052,-87.28489 3.54888,9.35984 2.92229,21.30449 0.31201,34.47714 -32.37419,21.24238 -69.65118,44.09085 -69.2663,54.60181 3.47659,2.51113 5.58348,7.76166 6.70822,14.9765 60.21701,-56.46604 88.66489,-62.05369 110.13966,-56.47388 1.44898,13.67015 -7.16194,28.75221 -22.46475,44.77349 -23.70245,-0.31583 -47.55673,0.38306 -88.8394,25.42885 -1.63937,3.58812 -3.0683,7.17624 -5.54373,10.76436 7.04999,7.75373 29.704,1.66518 54.75782,-6.55222 l 36.78262,-12.22519 c 10.35987,-2.51828 20.71975,-4.55684 31.07963,-2.4393 l 2.73143,1.61447 c 13.658,-12.82615 23.94401,-39.10847 31.71936,-78.70062 4.42766,-17.92888 10.77716,-5.17322 11.06893,10.97404 0.8238,18.67412 -11.62179,44.13488 -37.27264,73.98719 13.45128,16.5313 10.00538,39.91042 -11.8352,51.40689 l -13.10443,4.68015 c -1.75676,7.32664 -4.67616,13.57925 -22.30874,6.24021 -5.52711,2.686 -15.97097,6.49316 -25.18011,1.44325 8.46891,5.67209 19.2989,20.00147 29.39225,31.62985 -6.48186,-10.74308 3.18927,-10.63338 15.2885,-8.89229 13.89454,3.22895 18.00082,10.16558 12.48042,20.74868 2.38421,0.94547 4.44763,2.27589 2.49608,8.42428 -3.59485,6.10285 -6.4762,4.71399 -9.51632,4.99217 -6.82649,6.07997 -14.00173,10.78549 -25.74085,-2.49608 -4.56554,-5.97724 -4.06484,-12.56912 -2.93851,-18.15174 l -16.56214,-16.94943 -17.58613,-17.2663 c 0.65838,5.44986 -7.39015,3.38012 -12.67887,3.69385 2.27379,9.06716 3.70461,20.19486 15.11357,33.8296 2.69381,-4.11352 5.39237,-8.21819 14.11618,-1.13313 13.36463,15.08595 15.01826,24.93278 6.02742,30.01761 -2.60616,7.07844 -7.179,9.43688 -14.19647,5.92819 -8.87184,4.06255 -14.90202,-5.8e-4 -18.48108,-14.46278 -0.92377,-3.60123 0.0768,-6.87561 3.81659,-10.65404 -8.57273,-22.94146 -16.67577,-34.80257 -23.21017,-44.05809 6.3399,46.03146 -0.46862,60.41818 -12.82703,64.96278 -15.00187,3.85236 -24.96084,-5.81942 -33.54111,-19.18864 l 15.44451,3.12011 2.96411,-0.78003 -0.78003,-24.33681 c -15.87207,-3.24347 -28.95661,13.50913 -41.03262,8.06657 -7.1478,-4.17245 -10.56785,-7.65582 -2.33683,-15.71082 4.85973,-4.11989 18.3649,-6.70216 41.34138,-3.43211 -3.325,-13.32047 -7.51721,-20.78725 -12.0124,-26.20888 l -6.5433,-1.68154 c -4.23507,2.91461 -4.01871,7.88373 -4.61735,12.47669 -2.90092,-4.10845 -6.31575,-7.8957 -6.98057,-13.40171 l -17.3068,2.49411 c -3.83365,3.10076 -3.91087,7.93525 -4.01455,12.75754 -3.29116,-3.43487 -7.77396,-6.15475 -8.35207,-11.21745 -21.94429,2.31477 -39.29679,-0.76703 -51.5339,-9.92438 -12.46902,-8.87001 -22.38331,-19.7661 -22.3355,-37.36878 -16.11613,-9.00941 -8.27796,-21.74432 3.27611,-23.40078 z"
       style="fill:#a52424;fill-opacity:0.73303169;fill-rule:evenodd;stroke:none;stroke-width:0.9375px;stroke-linecap:butt;stroke-linejoin:miter;stroke-opacity:1" />
    <path
       style="opacity:1;fill:#000000;fill-opacity:1;fill-rule:nonzero;stroke:none;stroke-width:2.8125;stroke-linecap:butt;stroke-linejoin:round;stroke-miterlimit:4;stroke-dasharray:none;stroke-dashoffset:0;stroke-opacity:1"
       d="m 1149.1788,444.5007 c 24.0454,0 40.4047,19.35778 36.6802,43.40319 l -18.324,118.29712 c -3.7245,24.0454 -26.0808,43.40318 -50.1262,43.40318 H 999.11161 c -24.04548,0 -40.40483,-19.35777 -36.68027,-43.40318 l 18.32385,-118.29712 c 3.72457,-24.04541 26.08111,-43.40319 50.12641,-43.40319 z m -55.1152,36.04604 -12.4448,8.43648 -6.9366,-8.21263 c -4.9092,4.28794 -9.2243,8.80187 -12.157,13.83694 -21.9327,7.46311 -15.5539,27.96848 1.3006,38.80931 l 3.4253,1.12434 -1.1723,5.40048 -4.3924,0.39366 c -3.1185,0.28854 -10.3735,5.73525 -15.5622,8.60499 l 1.0009,2.24998 -5.4828,4.16163 c -3.0425,2.15346 -4.4272,4.7876 -2.318,8.43647 3.0353,4.76736 6.0305,9.56259 9.7154,13.89354 -0.6442,2.16167 0.5591,3.96398 2.2141,5.67964 l -8.0741,7.08699 1.2537,1.34948 -3.1258,2.02485 -5.9761,-2.81216 c -1.3346,-3.56799 -1.1524,-6.15726 -8.0085,-6.74866 -3.1639,-0.77874 -5.723,2.32381 -5.7647,4.89234 -5.4497,10.77056 -9.9323,20.46817 -2.9162,17.38108 2.501,-3.87079 5.2287,-6.8139 8.2806,-8.43646 l 1.5322,-0.44898 7.3415,5.62431 c 2.1675,2.03293 4.402,1.27035 6.653,-0.11323 l 11.4269,-5.51111 6.3292,4.16164 6.0552,-6.41162 c 4.5902,3.3769 9.8385,5.88316 15.5602,7.76109 l 8.2135,-9.4489 c 10.6951,0.74943 16.0879,5.54832 24.1321,8.32326 0.6759,2.67741 1.2005,5.39567 5.0714,7.19892 3.6703,2.33161 5.71,1.21789 6.8995,-1.68781 l 5.6103,-10.79709 3.977,-6.07585 c 1.1087,-3.21187 0.6257,-4.54311 0.1201,-5.84944 -0.9082,-1.22435 -1.8032,-1.36092 -2.6903,-0.78729 -1.4476,0.57313 -2.8601,1.34563 -4.1483,2.81215 l -4.1773,5.17663 -3.2478,2.81216 c -7.2119,-2.25823 -13.1287,-6.5763 -18.6455,-11.0801 l -4.0831,-0.50686 2.8251,-3.71267 c -3.3106,-2.20496 -8.9214,-1.24352 -13.5931,-1.57459 0.4957,-5.13707 0.3188,-10.27582 -0.5354,-15.41284 l 2.7702,0.27143 0.2075,-2.06987 5.52,0.6728 c 3.287,0.39722 7.0921,1.06938 8.6931,-5.28597 l 3.7446,-21.2597 c 1.5719,-3.69303 1.8728,-6.96877 -0.1499,-7.7611 -2.3821,-0.63244 -4.9095,-0.60574 -7.466,-0.45154 -1.4716,0.30495 -2.6597,1.19242 -3.0502,3.71267 -0.2994,2.63806 0.4845,2.88357 1.2884,3.08488 -2.8483,3.28594 -1.202,4.03096 2.0181,3.88891 -1.5191,2.90396 -2.932,6.32905 -3.6916,12.93643 0.2299,-0.79754 -5.2986,-0.90788 -5.7151,-0.80916 0.7334,-1.24455 0.1148,-3.68952 0.1148,-3.68952 -3.9651,-0.6616 -8.0346,-1.46424 -10.9199,-0.67667 l -4.7738,-2.58445 1.4337,-7.08829 c 10.1295,-0.43403 18.2187,-4.66493 19.0362,-15.41025 l 0.5148,-12.03593 2.4728,1.46012 c -0.3169,-2.91027 -0.01,-5.88851 -1.5811,-8.66161 l 10.2478,-3.71267 c -3.9456,-2.80714 -7.9482,-5.42399 -12.7917,-5.28597 2.3983,-4.46121 0.9894,-7.97749 -1.4081,-11.24864 z m -39.7753,78.18336 0.5178,1.03431 2.7561,-0.0785 4.8588,11.25378 c -0.666,4.61279 -2.097,2.86213 -4.6384,1.94896 0.9704,-1.95511 -3.5588,-3.85661 -5.0975,-1.2337 -0.3551,0.23863 -2.8121,-10.09983 -2.8121,-10.09983 -0.1105,-1.00865 -0.7632,-2.19994 1.2256,-2.50599 z"
       id="rect7092"
       inkscape:connector-curvature="0" />
    <path
       style="fill:#000000;fill-opacity:0.82805433;fill-rule:evenodd;stroke:none;stroke-width:0.93749988px;stroke-linecap:butt;stroke-linejoin:miter;stroke-opacity:1"
       d="m 835.82975,755.5951 c 8.82572,-1.58654 16.32273,-3.29218 18.70338,-5.45589 8.0512,0.067 18.66231,-1.20254 29.45261,-2.56403 l -12.0761,-1.8007 c 6.699,-1.34498 10.4903,-2.78929 15.2484,-4.20079 l -6.3287,0.70824 16.5685,-5.83757 c 14.1821,-5.21159 6.5348,-7.26381 -10.0922,-7.47433 l 7.8315,-3.43747 11.8775,-1.25384 c 3.7738,0.38198 11.869,-0.007 19.5825,-0.32787 0,0 4.6575,-1.20056 5.1663,-1.8007 -0.8054,0.0649 10.0803,0.0316 10.897,-0.38165 -8.2831,3.20464 -10.8416,4.86583 -12.4627,6.27428 -5.2799,-0.0688 -9.1634,0.29281 -9.074,1.88653 -1.6614,0.0977 -3.3522,0.21639 -6.6659,1.49588 -2.9878,1.22235 -2.2518,1.6528 -0.1869,1.80071 4.1317,0.0748 8.3992,0.0877 13.374,-0.21901 4.594,-0.38429 8.829,-1.97291 11.5042,-3.76406 l 24.43585,-10.31115 c 6.4845,-3.08241 -0.9715,-2.75667 -7.14665,-2.56402 l -10.38,0.32659 2.648,-1.0041 -5.1133,0.13191 c 8.901,-2.49151 16.65195,-4.98409 23.25345,-7.47561 8.4383,-0.16058 16.6022,0.30611 25.4378,-0.76331 l 0.5691,-1.8007 7.69061,-0.2459 c 15.9263,-2.1844 32.2646,-4.27868 47.8238,-5.37394 l 1.4568,1.36396 -0.3872,2.51023 c 0.069,0.71128 1.3553,1.086 2.9905,1.36398 0.6796,0.27822 2.4022,0.21218 5.7238,-0.38165 2.7549,-0.63358 5.5083,-1.27902 8.2751,-2.83683 l 2.0305,-2.94695 6.0943,-5.2369 c 2.1852,-1.4093 0.3233,-1.94924 -9.3087,-0.81837 -9.208,0.87458 -14.042,2.19269 -19.0741,3.49126 -17.7259,1.34587 -33.8685,3.67338 -53.17441,4.03686 l -0.2965,-4.58245 c -12.4692,0.9108 -25.0429,2.12624 -37.75705,3.76406 l -1.0224,-3.10962 -16.8146,2.01844 -11.4779,-2.67288 c -1.8291,-0.67104 -4.5309,-1.04104 -11.1698,-0.0551 l -20.6586,2.72796 -1.9599,-0.21772 c -2.8473,-0.78697 -3.228,-2.21456 -1.8778,-4.09194 -7.4778,-1.49726 -13.8964,3.20593 -20.2239,8.42976 -3.65199,1.24577 -3.79068,2.7509 2.7279,2.3732 12.5371,-0.28683 15.9819,-1.54304 23.4272,-3.27355 l 14.2564,-1.36396 2.3895,0.9823 -4.0917,0.65446 3.482,3.43747 c -5.3062,0.83211 -9.9704,1.70642 -12.0062,2.75485 -12.5549,2.10056 -24.6055,4.4257 -36.68639,6.73792 -8.88205,1.76973 -10.34148,3.04747 -8.27984,4.09192 l 3.30719,2.01843 -4.96585,1.09118 c 4.67968,1.39185 9.14459,4.03396 14.03905,4.17391 l 6.91114,0.19083 -5.8308,2.61908 -7.46545,0.54559 c -44.42582,5.25791 -85.01375,15.20319 -58.46777,18.82288 -2.30208,2.44206 -1.49408,4.63133 0.65364,6.71103 l 23.72213,-3.98308 z m 45.56299,-37.91981 -4.9698,-0.15498 c -2.9444,-0.14844 -0.1054,-0.72621 1.5449,-1.21542 0,0 19.1699,-5.01453 19.4289,-4.89877 -1.1806,1.27212 9.2918,0.35014 10.4724,-0.59812 5.6532,-0.44289 10.6275,-1.29206 5.076,0.94519 l -24.589,5.45847 -4.58,-0.0384 z"
       id="path7117"
       inkscape:connector-curvature="0" />
    <path
       style="opacity:1;fill:#d90000;fill-opacity:1;fill-rule:nonzero;stroke:none;stroke-width:2.81250024;stroke-linecap:butt;stroke-linejoin:round;stroke-miterlimit:4;stroke-dasharray:none;stroke-dashoffset:0;stroke-opacity:1"
       d="m 845.39227,493.36917 a 71.854842,79.343098 46.419401 0 0 -82.99417,75.50594 71.854842,79.343098 46.419401 0 0 68.01767,75.5063 71.854842,79.343098 46.419401 0 0 82.99456,-75.5063 71.854842,79.343098 46.419401 0 0 -68.01806,-75.50594 z m -20.2967,29.09035 c 6.74951,0.0596 18.15325,8.21091 22.32141,30.6305 2.4631,0.38813 4.11518,3.07987 5.47039,5.376 2.89716,-4.97271 6.54306,-5.8958 10.62236,-4.4753 3.0166,1.71345 5.2019,4.4522 2.6548,9.27792 3.4951,0.52227 8.6499,-0.44101 12.9039,-1.33714 4.7353,-3.59495 10.2662,-4.45783 16.0507,-3.90229 3.9848,0.57951 6.2853,5.03492 0.3345,8.18684 -0.5937,6.15825 -4.4408,9.97018 -9.1107,13.07333 -4.5989,3.20368 -10.7764,4.28198 -18.3733,3.47217 -0.3778,1.77117 -2.0404,2.72252 -3.3109,3.92419 0.1313,-1.68707 0.272,-3.37826 -0.9621,-4.46305 l -5.9682,-0.87249 c -0.4236,1.92625 -1.7495,3.25099 -2.90689,4.68832 -0.0501,-1.60685 0.1979,-3.34505 -1.1826,-4.36471 l -2.34739,0.58822 c -1.76074,1.89675 -3.48646,4.50906 -5.11187,9.16918 8.15172,-1.14401 12.78685,-0.24076 14.34405,1.20056 2.6001,2.81803 1.2828,4.03652 -1.3626,5.49625 -4.4136,1.90407 -8.40997,-3.95669 -14.07531,-2.82197 l -1.11715,8.51416 1.00985,0.27277 5.51133,-1.09145 c -3.46564,4.67718 -7.28541,8.06087 -12.40011,6.71313 -4.16588,-1.58992 -6.04868,-6.62321 -2.2336,-22.7272 -2.60716,3.23802 -5.85354,7.38759 -9.64866,15.41359 1.17726,1.32187 1.41373,2.46762 0.96561,3.7275 -1.7539,5.05956 -4.00456,6.48107 -6.9674,5.0598 -2.57678,1.22751 -4.09442,0.4022 -4.76058,-2.07417 -2.969,-1.77891 -2.04884,-5.22371 3.15016,-10.50149 3.29782,-2.47869 4.09944,-1.04274 4.89914,0.39635 4.46446,-4.77008 5.35095,-8.66279 6.46102,-11.83491 -1.83936,-0.10976 -4.72681,0.61401 -4.3074,-1.2926 l -6.75145,6.04067 -6.38232,5.9297 c 0.20035,1.95306 0.14683,4.25943 -1.6578,6.35055 -4.56771,4.64652 -6.91484,3.0003 -9.09212,0.87324 -1.05393,-0.0973 -2.11018,0.38859 -3.15609,-1.74648 -0.46941,-2.151 0.29861,-2.61664 1.16555,-2.94741 -1.56411,-3.70247 0.11306,-6.12903 5.08606,-7.25867 4.29329,-0.60912 7.6808,-0.64774 5.0404,3.1107 3.9346,-4.06816 8.22033,-9.08122 11.37996,-11.06559 -3.39701,1.7667 -6.9187,0.43497 -8.75914,-0.50472 -6.42336,2.56754 -7.22767,0.37993 -7.58807,-2.18328 l -4.42202,-1.63737 c -7.24198,-4.02201 -7.6364,-12.20125 -2.35693,-17.98469 -7.93814,-10.44375 -11.40904,-19.35082 -10.47293,-25.88391 0.66233,-5.64908 3.32641,-10.11157 4.25336,-3.8392 1.3465,13.85121 4.03298,23.04596 8.36619,27.53315 l 1.01165,-0.56484 c 3.69783,-0.74081 7.25173,-0.0278 10.78873,0.8532 l 12.44392,4.27712 c 8.47991,2.87484 16.1943,5.00464 18.92974,2.29202 -0.74153,-1.25529 -1.11696,-2.51043 -1.566,-3.76572 -13.57364,-8.76221 -21.89482,-9.00654 -30.19802,-8.89604 -4.79778,-5.60501 -7.28689,-10.88164 -6.30568,-15.6641 7.7065,-1.95208 17.46488,0.003 36.57256,19.75714 0.6438,-2.52409 1.56316,-4.36091 2.86655,-5.23942 0.49934,-3.67724 -11.74937,-11.67054 -22.33837,-19.10213 -0.45617,-4.60842 -0.26101,-8.78715 1.30531,-12.06166 0.40507,-0.0661 0.83453,-0.0982 1.2845,-0.0943 z"
       id="path7601"
       inkscape:connector-curvature="0" />
    <path
       style="fill:#060101;fill-opacity:0.83257919;fill-rule:evenodd;stroke:none;stroke-width:0.9375px;stroke-linecap:butt;stroke-linejoin:miter;stroke-opacity:1"
       d="m 768.62085,697.24044 c -7.20268,0.34707 -11.94873,-0.19203 -11.62484,-2.43794 -3.29313,-0.55984 -7.47171,-1.16166 -12.11033,-0.83538 -4.61616,3.01482 -11.22177,4.72604 -17.16466,5.7965 -6.6596,0.88744 -9.24378,0.31069 -4.78624,-2.79596 -5.01424,1.43449 -10.96191,3.11608 -14.26171,3.35856 -41.61065,14.94017 -67.32349,19.7383 -72.81261,19.0773 3.31012,-2.04572 9.51415,-4.65639 17.09303,-7.53545 23.03753,-4.64281 48.75965,-9.63665 53.85949,-11.93396 -0.0814,-0.54884 1.73089,-1.69642 4.90101,-3.27332 -51.31514,12.34142 -65.02921,13.56268 -70.49011,12.34313 6.26845,-2.9878 17.10495,-6.28418 30.98015,-9.78585 8.94442,0.069 18.45375,-0.0837 46.81113,-5.55782 2.42093,-0.78423 4.76105,-1.56847 7.50303,-2.3527 1.16378,-1.69468 -10.57544,-0.36395 -24.29906,1.43208 l -20.22856,2.67198 c -5.23561,0.5504 -10.23171,0.99596 -13.15288,0.53314 l -0.24287,-0.35286 c -11.6484,2.80332 -28.71993,8.54768 -51.47232,17.20108 -10.65135,3.91861 -6.72135,1.13068 1.22819,-2.39852 9.00678,-4.08148 26.49746,-9.64628 51.25166,-16.17091 3.08783,-3.61313 16.08322,-8.72296 30.20999,-11.23567 l 7.36889,-1.0229 c 4.33247,-1.60134 8.57521,-2.96793 11.68234,-1.36389 3.46349,-0.58706 9.37483,-1.41917 10.3901,-0.31544 -0.42038,-1.23971 2.57474,-4.37159 4.50425,-6.91313 -2.8744,2.34804 -6.53348,2.32406 -10.31052,1.94353 -3.72366,-0.70573 -1.83739,-2.22183 5.56619,-4.53491 -0.44355,-0.20664 -0.57172,-0.49743 3.24731,-1.84124 4.42735,-1.33386 4.84044,-1.0303 6.14678,-1.09111 5.65693,-1.32885 10.76158,-2.35731 8.6387,0.54556 -1.23092,1.3064 -4.71423,2.74715 -7.93389,3.9673 l -2.10196,3.70453 -1.86693,3.77379 c 2.46804,-1.19114 4.52547,-0.73877 6.71305,-0.80735 3.65364,-1.98175 8.65974,-4.41385 11.08572,-7.39391 -3.08816,0.89907 -6.17371,1.7962 -5.98655,0.24766 2.3995,-3.29724 6.68055,-5.4494 12.67179,-6.56076 4.53475,-1.54709 7.46825,-2.06255 8.41134,-1.29568 5.43516,-0.88793 5.72231,1.3e-4 -0.12359,3.16103 -1.44319,0.7871 -3.46217,1.50276 -6.7847,2.32859 -8.16156,5.01417 -10.97157,7.60657 -13.08312,9.62949 20.54677,-10.0608 30.34397,-13.20521 37.3587,-14.19849 7.68425,-0.84199 6.67998,1.27191 3.30029,4.19393 l -4.37319,-0.68194 -1.5277,0.17049 -11.85071,5.31914 c 4.4758,0.7089 17.86427,-2.95261 19.78442,-1.76306 0.66175,0.91194 0.23602,1.67328 -6.94631,3.43381 -3.92308,0.90046 -10.39848,1.46485 -17.58921,0.75014 -5.37345,2.91137 -7.4914,4.54333 -8.47194,5.7283 l 1.6732,0.36753 c 3.08147,-0.63703 5.47923,-1.7231 8.00217,-2.72696 -0.93716,0.89796 -1.51662,1.72572 -4.01021,2.92913 l 7.89127,-0.54512 c 3.02025,-0.67771 5.46354,-1.73436 7.91091,-2.78834 -0.45102,0.75074 -0.0875,1.34521 -2.39304,2.45173 9.5826,-0.50592 14.70762,0.16765 14.83501,2.16911 0.35991,1.93866 -1.27277,4.32015 -10.07934,8.16745 1.69086,1.96913 -7.67707,4.75252 -12.94101,5.11456 z"
       id="path7604"
       inkscape:connector-curvature="0"
       sodipodi:nodetypes="cccccccccccccccccccccccccccccccccccccccccccccccccccccccccccc" />
    <path
       transform="translate(0,27.638008)"
       inkscape:connector-curvature="0"
       id="path7606"
       d="m -1030.013,367.45039 c 24.0454,0 41.73736,19.35778 39.66816,43.40318 l -10.17996,118.29712 c -2.0692,24.04541 -23.0928,43.40318 -47.1382,43.40318 h -118.2972 c -24.0453,0 -41.7373,-19.35777 -39.6681,-43.40318 l 10.1799,-118.29712 c 2.0692,-24.0454 23.0929,-43.40318 47.1382,-43.40318 z m -52.6337,36.04603 -11.864,8.43648 -7.502,-8.21263 c -4.614,4.28794 -8.6183,8.80187 -11.2044,13.83694 -21.4189,7.46311 -13.6284,27.96848 3.9724,38.80931 l 3.5027,1.12434 -0.8005,5.40048 -4.3653,0.39366 c -3.0987,0.28854 -9.9787,5.73525 -14.9698,8.60499 l 1.1558,2.24998 -5.1963,4.16163 c -2.8943,2.15346 -4.0976,4.7876 -1.7372,8.43647 3.3635,4.76736 6.6888,9.56259 10.6718,13.89354 -0.4954,2.16167 0.832,3.96398 2.6051,5.67964 l -7.5862,7.08699 1.3466,1.34948 -2.9864,2.02485 -6.1697,-2.81216 c -1.5802,-3.56799 -1.5763,-6.15726 -8.4731,-6.74866 -3.2175,-0.77874 -5.563,2.32381 -5.4279,4.89234 -4.7082,10.77056 -8.5232,20.46817 -1.7196,17.38108 2.2345,-3.87079 4.7596,-6.8139 7.6998,-8.43646 l 1.5013,-0.44898 7.7287,5.62431 c 2.3074,2.03293 4.4895,1.27035 6.6452,-0.11323 l 11.0475,-5.51111 6.6157,4.16164 5.6138,-6.41162 c 4.8227,3.3769 10.2435,5.88316 16.0945,7.76109 l 7.563,-9.4489 c 10.7467,0.74943 16.4699,5.54832 24.7051,8.32326 0.8602,2.67741 1.572,5.39567 5.567,7.19892 3.8308,2.33161 5.7938,1.21789 6.7833,-1.68781 l 4.867,-10.79709 3.5587,-6.07585 c 0.8876,-3.21187 0.313,-4.54311 -0.2826,-5.84944 -0.9925,-1.22435 -1.8969,-1.36092 -2.7445,-0.78729 -1.4081,0.57313 -2.7674,1.34563 -3.9547,2.81215 l -3.8209,5.17663 -3.0542,2.81216 c -7.3674,-2.25823 -13.5814,-6.5763 -19.4083,-11.0801 l -4.118,-0.50686 2.5695,-3.71267 c -3.4624,-2.20496 -9.007,-1.24352 -13.7015,-1.57459 0.1421,-5.13707 -0.3886,-10.27582 -1.5964,-15.41284 l 2.7888,0.27143 0.065,-2.06987 5.5664,0.6728 c 3.3143,0.39722 7.1657,1.06938 8.3292,-5.28597 l 2.281,-21.2597 c 1.3176,-3.69303 1.393,-6.96877 -0.6842,-7.7611 -2.4257,-0.63244 -4.9512,-0.60574 -7.4971,-0.45154 -1.4506,0.30495 -2.5776,1.19242 -2.7946,3.71267 -0.1178,2.63806 0.683,2.88357 1.5008,3.08488 -2.6221,3.28594 -0.9245,4.03096 2.2858,3.88891 -1.3192,2.90396 -2.4963,6.32905 -2.801,12.93643 0.175,-0.79754 -5.3611,-0.90788 -5.7708,-0.80916 0.6477,-1.24455 -0.1392,-3.68952 -0.1392,-3.68952 -4.0107,-0.6616 -8.1354,-1.46424 -10.9665,-0.67667 l -4.9517,-2.58445 0.9457,-7.08829 c 10.0996,-0.43403 17.8975,-4.66493 17.9753,-15.41025 l -0.3138,-12.03593 2.5733,1.46012 c -0.5172,-2.91027 -0.4136,-5.88851 -2.1774,-8.66161 l 9.9922,-3.71267 c -4.1388,-2.80714 -8.3216,-5.42399 -13.1556,-5.28597 2.0912,-4.46121 0.4402,-7.97749 -2.1825,-11.24864 z m -34.3929,78.18336 0.589,1.03431 2.7507,-0.0785 5.6336,11.25378 c -0.3485,4.61279 -1.9,2.86213 -4.5043,1.94896 0.8359,-1.95511 -3.8243,-3.85661 -5.1824,-1.2337 -0.3387,0.23863 -3.5074,-10.09983 -3.5074,-10.09983 -0.1799,-1.00865 -0.9146,-2.19994 1.0531,-2.50599 z"
       style="opacity:1;fill:#000000;fill-opacity:1;fill-rule:nonzero;stroke:none;stroke-width:2.8125;stroke-linecap:butt;stroke-linejoin:round;stroke-miterlimit:4;stroke-dasharray:none;stroke-dashoffset:0;stroke-opacity:1" />
    <path
       transform="translate(0,27.638008)"
       inkscape:connector-curvature="0"
       id="path7608"
       d="m -1329.7482,673.1687 c 8.8257,-1.58653 16.3227,-3.29217 18.7033,-5.45589 8.0512,0.067 18.6624,-1.20254 29.4527,-2.56403 l -12.0761,-1.8007 c 6.699,-1.34498 10.4903,-2.78929 15.2484,-4.20079 l -6.3287,0.70824 16.5685,-5.83757 c 14.1821,-5.21159 6.5348,-7.26381 -10.0922,-7.47433 l 7.8315,-3.43747 11.8775,-1.25384 c 3.7738,0.38198 11.869,-0.007 19.5825,-0.32787 0,0 4.6575,-1.20056 5.1663,-1.8007 -0.8054,0.0649 10.0803,0.0316 10.897,-0.38165 -8.2831,3.20464 -10.8416,4.86583 -12.4627,6.27428 -5.2799,-0.0688 -9.1634,0.29281 -9.074,1.88653 -1.6614,0.0977 -3.3522,0.21639 -6.6659,1.49588 -2.9878,1.22235 -2.2518,1.6528 -0.1869,1.80071 4.1317,0.0748 8.3992,0.0877 13.374,-0.21901 4.594,-0.38429 8.829,-1.97291 11.5042,-3.76406 l 24.4359,-10.31115 c 6.4845,-3.08241 -0.9715,-2.75667 -7.1467,-2.56402 l -10.38,0.32659 2.648,-1.0041 -5.1133,0.13191 c 8.901,-2.49151 16.652,-4.98409 23.2535,-7.47561 8.4383,-0.16058 16.6021,0.30611 25.4377,-0.76331 l 0.5691,-1.8007 7.6906,-0.2459 c 15.9263,-2.1844 32.2646,-4.27868 47.8238,-5.37394 l 1.4568,1.36396 -0.3872,2.51023 c 0.069,0.71128 1.3553,1.086 2.9905,1.36398 0.6796,0.27822 2.4022,0.21218 5.7238,-0.38165 2.7549,-0.63358 5.5083,-1.27902 8.2751,-2.83683 l 2.0305,-2.94695 6.0943,-5.2369 c 2.1852,-1.4093 0.3233,-1.94924 -9.3087,-0.81837 -9.208,0.87458 -14.042,2.19269 -19.0741,3.49126 -17.7259,1.34587 -33.8685,3.67338 -53.1744,4.03686 l -0.2965,-4.58245 c -12.4692,0.9108 -25.0428,2.12624 -37.757,3.76406 l -1.0224,-3.10962 -16.8146,2.01844 -11.4779,-2.67288 c -1.8291,-0.67104 -4.5309,-1.04104 -11.1698,-0.0551 l -20.6586,2.72796 -1.9599,-0.21772 c -2.8473,-0.78697 -3.228,-2.21456 -1.8778,-4.09194 -7.4778,-1.49726 -13.8964,3.20593 -20.2239,8.42976 -3.652,1.24577 -3.7907,2.7509 2.7279,2.3732 12.5371,-0.28683 15.9819,-1.54304 23.4272,-3.27355 l 14.2564,-1.36396 2.3895,0.9823 -4.0917,0.65446 3.482,3.43747 c -5.3062,0.83211 -9.9704,1.70642 -12.0062,2.75485 -12.5549,2.10056 -24.6055,4.4257 -36.6864,6.73792 -8.8821,1.76973 -10.3415,3.04747 -8.2799,4.09192 l 3.3072,2.01843 -4.9658,1.09118 c 4.6796,1.39185 9.1446,4.03396 14.039,4.17391 l 6.9112,0.19083 -5.8308,2.61908 -7.4655,0.54559 c -44.4258,5.25791 -85.0137,15.20319 -58.4678,18.82288 -2.302,2.44206 -1.494,4.63133 0.6537,6.71103 l 23.7221,-3.98308 z m 45.563,-37.91981 -4.9698,-0.15497 c -2.9444,-0.14844 -0.1054,-0.72621 1.5449,-1.21542 0,0 19.1699,-5.01453 19.4289,-4.89878 -1.1806,1.27213 9.2918,0.35015 10.4724,-0.59811 5.6532,-0.44289 10.6275,-1.29206 5.076,0.94518 l -24.589,5.45847 -4.58,-0.0384 z"
       style="fill:#000000;fill-opacity:0.82805433;fill-rule:evenodd;stroke:none;stroke-width:0.93749988px;stroke-linecap:butt;stroke-linejoin:miter;stroke-opacity:1" />
    <path
       transform="translate(0,27.638008)"
       inkscape:connector-curvature="0"
       id="path7610"
       d="m -1307.7053,397.21432 a 71.854842,79.343098 46.419401 0 0 -82.9942,75.50594 71.854842,79.343098 46.419401 0 0 68.0177,75.50631 71.854842,79.343098 46.419401 0 0 82.9946,-75.50631 71.854842,79.343098 46.419401 0 0 -68.0181,-75.50594 z m -20.2967,29.09036 c 6.7495,0.0596 18.1532,8.21091 22.3214,30.6305 2.4631,0.38813 4.1152,3.07987 5.4704,5.376 2.8972,-4.97271 6.5431,-5.8958 10.6224,-4.4753 3.0166,1.71345 5.2019,4.4522 2.6548,9.27792 3.4951,0.52227 8.6499,-0.44101 12.9039,-1.33714 4.7353,-3.59495 10.2662,-4.45783 16.0507,-3.90229 3.9848,0.57951 6.2853,5.03492 0.3345,8.18684 -0.5937,6.15825 -4.4408,9.97018 -9.1107,13.07333 -4.5989,3.20368 -10.7764,4.28198 -18.3733,3.47217 -0.3778,1.77117 -2.0404,2.72251 -3.3109,3.92419 0.1313,-1.68707 0.272,-3.37826 -0.9621,-4.46305 l -5.9682,-0.8725 c -0.4236,1.92626 -1.7495,3.25099 -2.9069,4.68832 -0.05,-1.60684 0.1979,-3.34504 -1.1826,-4.36471 l -2.3474,0.58822 c -1.7608,1.89675 -3.4865,4.50906 -5.1119,9.16919 8.1517,-1.14402 12.7869,-0.24077 14.3441,1.20056 2.6001,2.81802 1.2828,4.03652 -1.3626,5.49624 -4.4136,1.90407 -8.41,-3.95669 -14.0754,-2.82197 l -1.1171,8.51416 1.0098,0.27277 5.5114,-1.09145 c -3.4657,4.67718 -7.2854,8.06087 -12.4001,6.71313 -4.1659,-1.58992 -6.0487,-6.62321 -2.2336,-22.7272 -2.6072,3.23802 -5.8536,7.38759 -9.6487,15.4136 1.1773,1.32187 1.4137,2.46761 0.9656,3.7275 -1.7539,5.05956 -4.0045,6.48107 -6.9674,5.0598 -2.5768,1.22751 -4.0944,0.4022 -4.7606,-2.07417 -2.969,-1.77891 -2.0488,-5.22371 3.1502,-10.50149 3.2978,-2.47869 4.0994,-1.04275 4.8991,0.39635 4.4645,-4.77008 5.351,-8.66279 6.4611,-11.83491 -1.8394,-0.10976 -4.7269,0.61401 -4.3074,-1.2926 l -6.7515,6.04067 -6.3823,5.9297 c 0.2003,1.95306 0.1468,4.25943 -1.6578,6.35055 -4.5677,4.64652 -6.9149,3.0003 -9.0921,0.87324 -1.054,-0.0973 -2.1102,0.38859 -3.1561,-1.74648 -0.4694,-2.151 0.2986,-2.61664 1.1655,-2.94741 -1.5641,-3.70247 0.1131,-6.12903 5.0861,-7.25867 4.2933,-0.60912 7.6808,-0.64774 5.0404,3.1107 3.9346,-4.06816 8.2203,-9.08122 11.3799,-11.06559 -3.397,1.7667 -6.9187,0.43497 -8.7591,-0.50472 -6.4234,2.56754 -7.2277,0.37993 -7.5881,-2.18328 l -4.422,-1.63737 c -7.242,-4.02201 -7.6364,-12.20125 -2.3569,-17.98469 -7.9382,-10.44375 -11.4091,-19.35082 -10.4729,-25.88391 0.6623,-5.64908 3.3264,-10.11157 4.2533,-3.8392 1.3465,13.85121 4.033,23.04596 8.3662,27.53315 l 1.0117,-0.56484 c 3.6978,-0.74081 7.2517,-0.0278 10.7887,0.8532 l 12.4439,4.27712 c 8.4799,2.87484 16.1943,5.00464 18.9297,2.29202 -0.7415,-1.25529 -1.1169,-2.51043 -1.566,-3.76572 -13.5736,-8.76221 -21.8948,-9.00654 -30.198,-8.89604 -4.7978,-5.60501 -7.2869,-10.88164 -6.3057,-15.6641 7.7065,-1.95208 17.4649,0.003 36.5726,19.75714 0.6438,-2.52409 1.5632,-4.36091 2.8666,-5.23942 0.4993,-3.67724 -11.7494,-11.67054 -22.3384,-19.10213 -0.4562,-4.60842 -0.261,-8.78715 1.3053,-12.06166 0.4051,-0.0661 0.8345,-0.0982 1.2845,-0.0943 z"
       style="opacity:1;fill:#d90000;fill-opacity:1;fill-rule:nonzero;stroke:none;stroke-width:2.81250024;stroke-linecap:butt;stroke-linejoin:round;stroke-miterlimit:4;stroke-dasharray:none;stroke-dashoffset:0;stroke-opacity:1" />
    <path
       transform="translate(0,27.638008)"
       sodipodi:nodetypes="cccccccccccccccccccccccccccccccccccccccccccccccccccccccccccc"
       inkscape:connector-curvature="0"
       id="path7612"
       d="m -1370.4822,598.92907 c -7.2027,0.34707 -11.9487,-0.19203 -11.6248,-2.43794 -3.2931,-0.55984 -7.4717,-1.16166 -12.1103,-0.83538 -4.6162,3.01482 -11.2218,4.72604 -17.1647,5.7965 -6.6596,0.88744 -9.2438,0.31069 -4.7862,-2.79596 -5.0143,1.43449 -10.962,3.11608 -14.2618,3.35856 -41.6106,14.94017 -67.3234,19.7383 -72.8126,19.0773 3.3102,-2.04572 9.5142,-4.65639 17.0931,-7.53545 23.0375,-4.64281 48.7596,-9.63665 53.8595,-11.93396 -0.081,-0.54884 1.7308,-1.69642 4.901,-3.27332 -51.3152,12.34142 -65.0292,13.56268 -70.4901,12.34313 6.2684,-2.9878 17.1049,-6.28418 30.9801,-9.78585 8.9444,0.069 18.4538,-0.0837 46.8111,-5.55782 2.421,-0.78423 4.7611,-1.56847 7.5031,-2.3527 1.1637,-1.69468 -10.5755,-0.36395 -24.2991,1.43208 l -20.2286,2.67198 c -5.2356,0.5504 -10.2317,0.99596 -13.1528,0.53314 l -0.2429,-0.35286 c -11.6484,2.80332 -28.7199,8.54768 -51.4723,17.20108 -10.6514,3.91861 -6.7214,1.13068 1.2282,-2.39852 9.0067,-4.08148 26.4974,-9.64628 51.2516,-16.17091 3.0879,-3.61313 16.0832,-8.72296 30.21,-11.23567 l 7.3689,-1.0229 c 4.3325,-1.60134 8.5752,-2.96793 11.6823,-1.36389 3.4635,-0.58706 9.3749,-1.41917 10.3901,-0.31544 -0.4203,-1.23971 2.5748,-4.37159 4.5043,-6.91313 -2.8744,2.34804 -6.5335,2.32406 -10.3105,1.94353 -3.7237,-0.70573 -1.8374,-2.22183 5.5662,-4.53491 -0.4436,-0.20664 -0.5718,-0.49743 3.2473,-1.84124 4.4273,-1.33386 4.8404,-1.0303 6.1468,-1.09111 5.6569,-1.32885 10.7615,-2.35731 8.6387,0.54556 -1.231,1.3064 -4.7143,2.74715 -7.9339,3.9673 l -2.102,3.70453 -1.8669,3.77379 c 2.468,-1.19114 4.5254,-0.73877 6.713,-0.80735 3.6537,-1.98175 8.6598,-4.41385 11.0857,-7.39391 -3.0881,0.89907 -6.1737,1.7962 -5.9865,0.24766 2.3995,-3.29724 6.6805,-5.4494 12.6718,-6.56076 4.5347,-1.54709 7.4682,-2.06255 8.4113,-1.29568 5.4352,-0.88793 5.7223,1.3e-4 -0.1236,3.16103 -1.4432,0.7871 -3.4621,1.50276 -6.7847,2.32859 -8.1615,5.01417 -10.9715,7.60657 -13.0831,9.62949 20.5468,-10.0608 30.344,-13.20521 37.3587,-14.19849 7.6843,-0.84199 6.68,1.27191 3.3003,4.19393 l -4.3732,-0.68194 -1.5277,0.17049 -11.8507,5.31914 c 4.4758,0.7089 17.8643,-2.95261 19.7844,-1.76306 0.6618,0.91194 0.236,1.67328 -6.9463,3.43381 -3.9231,0.90046 -10.3985,1.46485 -17.5892,0.75014 -5.3734,2.91137 -7.4914,4.54333 -8.4719,5.7283 l 1.6732,0.36753 c 3.0814,-0.63703 5.4792,-1.7231 8.0021,-2.72696 -0.9371,0.89796 -1.5166,1.72572 -4.0102,2.92913 l 7.8913,-0.54512 c 3.0202,-0.67771 5.4635,-1.73436 7.9109,-2.78834 -0.451,0.75074 -0.087,1.34521 -2.393,2.45173 9.5826,-0.50592 14.7076,0.16765 14.835,2.16911 0.3599,1.93866 -1.2728,4.32015 -10.0794,8.16745 1.6909,1.96913 -7.677,4.75252 -12.941,5.11456 z"
       style="fill:#060101;fill-opacity:0.83257919;fill-rule:evenodd;stroke:none;stroke-width:0.9375px;stroke-linecap:butt;stroke-linejoin:miter;stroke-opacity:1" />
    <g
       id="g8908"
       transform="translate(-54.913823,56.161865)">
      <g
         style="fill:#000eca;fill-opacity:1;stroke-width:0.840967"
         inkscape:transform-center-y="-38.699619"
         inkscape:transform-center-x="-29.016494"
         transform="matrix(0.73250848,-0.93670038,0.93670038,0.73250848,-60.167388,944.07014)"
         id="g8846">
        <path
           inkscape:connector-curvature="0"
           id="path8732"
           style="font-style:normal;font-variant:normal;font-weight:normal;font-stretch:condensed;font-size:15px;line-height:125%;font-family:Impact;-inkscape-font-specification:'Impact, Condensed';font-variant-ligatures:normal;font-variant-caps:normal;font-variant-numeric:normal;font-feature-settings:normal;text-align:start;letter-spacing:0px;word-spacing:0px;writing-mode:lr-tb;text-anchor:start;fill:#000eca;fill-opacity:1;stroke:none;stroke-width:0.78840661px;stroke-linecap:butt;stroke-linejoin:miter;stroke-opacity:1"
           d="m 857.48667,388.59146 -2.77577,-0.0237 0.006,-0.65184 q 0.01,-1.12788 0.27116,-1.73358 0.26891,-0.61297 1.05657,-1.07501 0.78767,-0.46204 2.04007,-0.45135 1.50141,0.0128 2.25853,0.55397 0.75719,0.53382 0.90437,1.31148 0.1472,0.77034 0.12666,3.1799 l -0.0416,4.87776 -2.87831,-0.0246 0.007,-0.86423 q -0.27543,0.51768 -0.70979,0.77766 -0.42697,0.25271 -1.02022,0.24761 -0.77634,-0.007 -1.42448,-0.44431 -0.64076,-0.44493 -0.62819,-1.91704 l 0.007,-0.79832 q 0.009,-1.09127 0.35692,-1.48382 0.3476,-0.39256 1.71435,-0.90825 1.46234,-0.55883 1.56657,-0.75571 0.10422,-0.19686 0.10941,-0.80476 0.007,-0.76169 -0.10874,-0.98973 -0.1079,-0.23529 -0.37152,-0.23755 -0.30028,-0.003 -0.37521,0.19455 -0.0748,0.1898 -0.0818,1.00277 z m 0.92609,1.34095 q -0.71486,0.51393 -0.83504,0.86449 -0.11286,0.35061 -0.11849,1.00976 -0.006,0.75437 0.0869,0.9749 0.10069,0.22059 0.39361,0.22311 0.2783,0.002 0.36033,-0.16536 0.0894,-0.17503 0.0956,-0.90742 z" />
        <path
           inkscape:connector-curvature="0"
           id="path8734"
           style="font-style:normal;font-variant:normal;font-weight:normal;font-stretch:condensed;font-size:17.5px;line-height:125%;font-family:Impact;-inkscape-font-specification:'Impact, Condensed';font-variant-ligatures:normal;font-variant-caps:normal;font-variant-numeric:normal;font-feature-settings:normal;text-align:start;letter-spacing:0px;word-spacing:0px;writing-mode:lr-tb;text-anchor:start;fill:#000eca;fill-opacity:1;stroke:none;stroke-width:0.78840661px;stroke-linecap:butt;stroke-linejoin:miter;stroke-opacity:1"
           d="m 866.36463,380.88191 -0.11809,13.83372 -3.55456,-0.0303 0.11808,-13.83372 z" />
        <path
           inkscape:connector-curvature="0"
           id="path8736"
           style="font-style:normal;font-variant:normal;font-weight:normal;font-stretch:condensed;font-size:22.5px;line-height:125%;font-family:Impact;-inkscape-font-specification:'Impact, Condensed';font-variant-ligatures:normal;font-variant-caps:normal;font-variant-numeric:normal;font-feature-settings:normal;text-align:start;letter-spacing:0px;word-spacing:0px;writing-mode:lr-tb;text-anchor:start;fill:#000eca;fill-opacity:1;stroke:none;stroke-width:0.78840661px;stroke-linecap:butt;stroke-linejoin:miter;stroke-opacity:1"
           d="m 882.34933,380.15239 -1.89317,14.56324 -4.82283,-0.0412 q -0.3727,-2.67296 -0.85181,-7.03878 -0.19209,1.91005 -0.52738,3.86281 l -0.52136,3.15975 -4.82283,-0.0412 -1.75415,-14.59437 3.8231,0.0326 q 0.039,0.57164 0.89558,8.34657 0.0727,-0.79042 1.05991,-8.32989 l 3.68028,0.0314 0.82968,8.34599 q 0.23987,-3.64553 1.08188,-8.32968 z" />
        <path
           inkscape:connector-curvature="0"
           id="path8738"
           style="font-style:normal;font-variant:normal;font-weight:normal;font-stretch:condensed;font-size:28.04842567px;line-height:125%;font-family:Impact;-inkscape-font-specification:'Impact, Condensed';font-variant-ligatures:normal;font-variant-caps:normal;font-variant-numeric:normal;font-feature-settings:normal;text-align:start;letter-spacing:0px;word-spacing:0px;writing-mode:lr-tb;text-anchor:start;fill:#000eca;fill-opacity:1;stroke:none;stroke-width:0.78840661px;stroke-linecap:butt;stroke-linejoin:miter;stroke-opacity:1"
           d="m 888.25691,383.26386 -5.19042,-0.0443 0.0104,-1.21885 q 0.018,-2.10904 0.50704,-3.24163 0.50283,-1.14617 1.97568,-2.01015 1.47285,-0.86397 3.8147,-0.84399 2.80748,0.024 4.22323,1.03586 1.41586,0.9982 1.69107,2.45233 0.27531,1.44043 0.23685,5.9461 l -0.0779,9.12088 -5.38214,-0.0459 0.0138,-1.61601 q -0.51501,0.96801 -1.32723,1.45415 -0.7984,0.47253 -1.90768,0.4631 -1.45168,-0.0124 -2.66363,-0.8308 -1.19816,-0.83199 -1.17466,-3.58468 l 0.0127,-1.49276 q 0.0174,-2.04056 0.66739,-2.7746 0.64998,-0.73403 3.20567,-1.69834 2.73444,-1.04495 2.92933,-1.41306 0.19487,-0.36813 0.20458,-1.50482 0.0122,-1.42429 -0.20334,-1.85071 -0.20167,-0.43998 -0.69471,-0.44419 -0.56148,-0.005 -0.7016,0.36381 -0.13998,0.35489 -0.15296,1.87504 z m 1.73168,2.50745 q -1.33671,0.96102 -1.56144,1.6165 -0.21104,0.65562 -0.22156,1.88816 -0.012,1.41058 0.16248,1.82297 0.18822,0.41247 0.73603,0.41715 0.52042,0.004 0.67375,-0.30926 0.16714,-0.32728 0.17883,-1.69678 z" />
        <path
           inkscape:connector-curvature="0"
           id="path8740"
           style="font-style:normal;font-variant:normal;font-weight:normal;font-stretch:condensed;font-size:30px;line-height:125%;font-family:Impact;-inkscape-font-specification:'Impact, Condensed';font-variant-ligatures:normal;font-variant-caps:normal;font-variant-numeric:normal;font-feature-settings:normal;text-align:start;letter-spacing:0px;word-spacing:0px;writing-mode:lr-tb;text-anchor:start;fill:#000eca;fill-opacity:1;stroke:none;stroke-width:0.78840661px;stroke-linecap:butt;stroke-linejoin:miter;stroke-opacity:1"
           d="m 909.52691,372.62561 -1.81919,14.04749 q -0.424,3.33635 -0.71269,4.54974 -0.27404,1.21353 -0.91065,1.99915 -0.63662,0.78561 -1.76762,1.14217 -1.11651,0.37133 -3.57735,0.35035 l -3.58873,-0.0306 0.0265,-3.10536 q 1.3769,0.0118 1.77352,-0.1167 0.39675,-0.14308 0.40087,-0.62649 0.002,-0.23435 -0.34881,-2.03918 l -3.0984,-16.2868 5.37578,0.0459 1.82161,13.12638 1.04938,-13.10187 z" />
        <path
           inkscape:connector-curvature="0"
           id="path8742"
           style="font-style:normal;font-variant:normal;font-weight:normal;font-stretch:condensed;font-size:28.04842567px;line-height:125%;font-family:Impact;-inkscape-font-specification:'Impact, Condensed';font-variant-ligatures:normal;font-variant-caps:normal;font-variant-numeric:normal;font-feature-settings:normal;text-align:start;letter-spacing:0px;word-spacing:0px;writing-mode:lr-tb;text-anchor:start;fill:#000eca;fill-opacity:1;stroke:none;stroke-width:0.78840661px;stroke-linecap:butt;stroke-linejoin:miter;stroke-opacity:1"
           d="m 926.55959,375.74128 -6.39925,-0.0546 0.0168,-1.96396 q 0.0117,-1.37478 -0.23056,-1.7533 -0.24228,-0.37854 -0.81511,-0.38342 -0.62192,-0.005 -0.95357,0.49927 -0.3153,0.50469 -0.32411,1.53578 -0.0113,1.32568 0.34302,1.99978 0.33797,0.67394 1.93378,1.63689 4.57563,2.77247 5.75543,4.53387 1.17981,1.7614 1.14656,5.65661 -0.0242,2.8314 -0.70665,4.16773 -0.66611,1.33645 -2.57244,2.23677 -1.90619,0.88394 -4.42662,0.86242 -2.76593,-0.0236 -4.72097,-1.08782 -1.93866,-1.06407 -2.53038,-2.68953 -0.59173,-1.62544 -0.56629,-4.60413 l 0.0148,-1.73485 6.39928,0.0546 -0.0275,3.2242 q -0.0127,1.48933 0.24552,1.9171 0.27458,0.4279 0.96198,0.43377 0.68738,0.006 1.01932,-0.53143 0.34831,-0.53716 0.35739,-1.60098 0.02,-2.3404 -0.61218,-3.06597 -0.6485,-0.72572 -3.20363,-2.43339 -2.555,-1.72404 -3.38313,-2.50039 -0.82813,-0.77635 -1.37298,-2.13951 -0.5285,-1.36302 -0.51047,-3.4743 0.026,-3.04415 0.80722,-4.4451 0.79759,-1.40081 2.53915,-2.17159 1.74168,-0.78714 4.19665,-0.76619 2.68408,0.0229 4.55883,0.90639 1.8911,0.88364 2.48534,2.21448 0.61075,1.31463 0.58378,4.47335 z" />
      </g>
      <g
         style="fill:#000eca;fill-opacity:1;stroke-width:0.840967"
         transform="matrix(0.83185728,-0.84969979,0.84969979,0.83185728,-63.437857,671.72706)"
         id="g8832">
        <path
           inkscape:connector-curvature="0"
           id="path8810"
           style="font-style:normal;font-variant:normal;font-weight:normal;font-stretch:condensed;font-size:15px;line-height:125%;font-family:Impact;-inkscape-font-specification:'Impact, Condensed';font-variant-ligatures:normal;font-variant-caps:normal;font-variant-numeric:normal;font-feature-settings:normal;text-align:start;letter-spacing:0px;word-spacing:0px;writing-mode:lr-tb;text-anchor:start;fill:#000eca;fill-opacity:1;stroke:none;stroke-width:0.78840661px;stroke-linecap:butt;stroke-linejoin:miter;stroke-opacity:1"
           d="m 736.4638,475.90807 -0.11719,1.27441 q 0.64453,-1.36963 1.86768,-1.45019 v 3.42041 q -0.81299,0 -1.19385,0.21972 -0.38086,0.21973 -0.46875,0.61524 -0.0879,0.38818 -0.0879,1.80176 v 3.83789 h -2.95898 v -9.71924 z" />
        <path
           inkscape:connector-curvature="0"
           id="path8812"
           style="font-style:normal;font-variant:normal;font-weight:normal;font-stretch:condensed;font-size:28.04842567px;line-height:125%;font-family:Impact;-inkscape-font-specification:'Impact, Condensed';font-variant-ligatures:normal;font-variant-caps:normal;font-variant-numeric:normal;font-feature-settings:normal;text-align:start;letter-spacing:0px;word-spacing:0px;writing-mode:lr-tb;text-anchor:start;fill:#000eca;fill-opacity:1;stroke:none;stroke-width:0.78840661px;stroke-linecap:butt;stroke-linejoin:miter;stroke-opacity:1"
           d="m 752.69525,471.58749 v 18.17396 h -5.62885 l 0.0959,-1.50651 q -0.57521,0.9176 -1.42433,1.38325 -0.83543,0.45195 -1.93107,0.45195 -1.24629,0 -2.06802,-0.43826 -0.82173,-0.43825 -1.2189,-1.16412 -0.38348,-0.72586 -0.47935,-1.5065 -0.0959,-0.79434 -0.0959,-3.13628 v -12.25749 h 5.53299 v 12.36706 q 0,2.1228 0.12326,2.51997 0.13695,0.39717 0.71216,0.39717 0.6163,0 0.72586,-0.41086 0.12326,-0.41087 0.12326,-2.64324 v -12.2301 z" />
        <path
           inkscape:connector-curvature="0"
           id="path8814"
           style="font-style:normal;font-variant:normal;font-weight:normal;font-stretch:condensed;font-size:28.04842567px;line-height:125%;font-family:Impact;-inkscape-font-specification:'Impact, Condensed';font-variant-ligatures:normal;font-variant-caps:normal;font-variant-numeric:normal;font-feature-settings:normal;text-align:start;letter-spacing:0px;word-spacing:0px;writing-mode:lr-tb;text-anchor:start;fill:#000eca;fill-opacity:1;stroke:none;stroke-width:0.78840661px;stroke-linecap:butt;stroke-linejoin:miter;stroke-opacity:1"
           d="m 766.8106,469.53846 v 22.17305 h -5.05364 l -2.99932,-10.07991 v 10.07991 h -4.82083 v -22.17305 h 4.82083 l 3.23214,9.98403 v -9.98403 z" />
      </g>
      <g
         style="fill:#000eca;fill-opacity:1;stroke-width:0.840967"
         inkscape:transform-center-y="-6.1804815"
         inkscape:transform-center-x="-25.360619"
         transform="matrix(0.95539181,-0.70795676,0.70795676,0.95539181,-150.00274,467.27102)"
         id="g8856">
        <path
           inkscape:connector-curvature="0"
           id="path8817"
           style="font-style:normal;font-variant:normal;font-weight:normal;font-stretch:condensed;font-size:15px;line-height:125%;font-family:Impact;-inkscape-font-specification:'Impact, Condensed';font-variant-ligatures:normal;font-variant-caps:normal;font-variant-numeric:normal;font-feature-settings:normal;text-align:start;letter-spacing:0px;word-spacing:0px;writing-mode:lr-tb;text-anchor:start;fill:#000eca;fill-opacity:1;stroke:none;stroke-width:0.78840661px;stroke-linecap:butt;stroke-linejoin:miter;stroke-opacity:1"
           d="m 759.89667,558.37951 0.0112,1.50142 q -0.9155,0.007 -1.0833,0.096 -0.16052,0.0818 -0.15757,0.47727 l 0.002,0.30761 1.24509,-0.009 0.0115,1.53804 -0.70311,0.005 0.0594,7.94656 -2.9589,0.0221 -0.0594,-7.94656 -0.60789,0.005 -0.0115,-1.53805 0.60789,-0.005 q -0.007,-0.95945 0.0563,-1.2822 0.0635,-0.32274 0.31798,-0.57367 0.26174,-0.25832 0.72949,-0.39366 0.46775,-0.13533 1.4565,-0.14272 z"
           inkscape:transform-center-x="-2.9555409"
           inkscape:transform-center-y="-18.856792" />
        <path
           inkscape:connector-curvature="0"
           id="path8819"
           style="font-style:normal;font-variant:normal;font-weight:normal;font-stretch:condensed;font-size:20px;line-height:125%;font-family:Impact;-inkscape-font-specification:'Impact, Condensed';font-variant-ligatures:normal;font-variant-caps:normal;font-variant-numeric:normal;font-feature-settings:normal;text-align:start;letter-spacing:0px;word-spacing:0px;writing-mode:lr-tb;text-anchor:start;fill:#000eca;fill-opacity:1;stroke:none;stroke-width:0.78840661px;stroke-linecap:butt;stroke-linejoin:miter;stroke-opacity:1"
           d="m 764.19097,563.63917 -3.70106,0.0277 -0.006,-0.86912 q -0.0113,-1.50386 0.32449,-2.31694 0.34541,-0.82291 1.38563,-1.45571 1.04023,-0.63279 2.7101,-0.64528 2.0019,-0.015 3.02283,0.69031 1.02085,0.69551 1.23366,1.72911 0.21274,1.02382 0.23676,4.23662 l 0.0486,6.50373 -3.83779,0.0287 -0.009,-1.15232 q -0.35614,0.69604 -0.92966,1.0519 -0.56384,0.34602 -1.35484,0.35194 -1.03512,0.008 -1.90854,-0.56192 -0.86374,-0.5795 -0.87842,-2.54233 l -0.008,-1.06442 q -0.0109,-1.45504 0.44416,-1.9858 0.45503,-0.53077 2.26613,-1.24745 1.93761,-0.77623 2.07235,-1.04091 0.13474,-0.26469 0.12868,-1.07521 -0.008,-1.0156 -0.1661,-1.31716 -0.14882,-0.31139 -0.50037,-0.30876 -0.40037,0.003 -0.49606,0.26738 -0.0958,0.25463 -0.0877,1.33858 z m 1.26326,1.76795 q -0.94205,0.70042 -1.09479,1.17033 -0.14299,0.46983 -0.13642,1.34871 0.008,1.00583 0.13667,1.29784 0.13891,0.29194 0.52952,0.28902 0.37108,-0.003 0.47682,-0.22818 0.11543,-0.23525 0.10813,-1.21178 z"
           inkscape:transform-center-x="-10.135412"
           inkscape:transform-center-y="-18.079088" />
        <path
           inkscape:connector-curvature="0"
           id="path8821"
           style="font-style:normal;font-variant:normal;font-weight:normal;font-stretch:condensed;font-size:28.04842567px;line-height:125%;font-family:Impact;-inkscape-font-specification:'Impact, Condensed';font-variant-ligatures:normal;font-variant-caps:normal;font-variant-numeric:normal;font-feature-settings:normal;text-align:start;letter-spacing:0px;word-spacing:0px;writing-mode:lr-tb;text-anchor:start;fill:#000eca;fill-opacity:1;stroke:none;stroke-width:0.78840661px;stroke-linecap:butt;stroke-linejoin:miter;stroke-opacity:1"
           d="m 782.29186,564.47058 -4.90286,0.0367 -0.007,-0.98606 q -0.009,-1.25994 -0.16252,-1.58751 -0.13952,-0.34134 -0.71471,-0.33704 -0.46564,0.003 -0.6961,0.3202 -0.23056,0.30303 -0.22595,0.91932 0.006,0.8354 0.11877,1.23174 0.12612,0.38254 0.7048,0.84388 0.59237,0.46123 2.40679,1.3379 2.41915,1.15976 3.18016,2.19496 0.76102,1.0352 0.77586,3.02099 0.0166,2.21862 -0.55011,3.35961 -0.5668,1.12731 -1.91801,1.75373 -1.33761,0.61261 -3.24124,0.62685 -2.10905,0.0158 -3.62043,-0.63034 -1.49769,-0.6462 -2.06759,-1.76501 -0.56989,-1.11881 -0.58688,-3.39219 l -0.007,-0.8765 4.90286,-0.0367 0.009,1.15039 q 0.0109,1.46538 0.19226,1.90229 0.19502,0.43681 0.74282,0.43272 0.58889,-0.004 0.81956,-0.29374 0.23057,-0.30304 0.2235,-1.248 -0.01,-1.30104 -0.31347,-1.62747 -0.31745,-0.32633 -3.2329,-1.92065 -2.44797,-1.35128 -2.99038,-2.4566 -0.54251,-1.11901 -0.55397,-2.65286 -0.0163,-2.17753 0.55123,-3.20896 0.56741,-1.04514 1.93273,-1.61688 1.37901,-0.57183 3.20046,-0.58545 1.80776,-0.0135 3.07119,0.4427 1.27703,0.44241 1.95372,1.19062 0.69039,0.74812 0.83215,1.39076 0.15547,0.64255 0.16571,2.01207 z"
           inkscape:transform-center-x="-21.84377"
           inkscape:transform-center-y="-15.385932" />
        <path
           inkscape:connector-curvature="0"
           id="path8823"
           style="font-style:normal;font-variant:normal;font-weight:normal;font-stretch:condensed;font-size:28.04842567px;line-height:125%;font-family:Impact;-inkscape-font-specification:'Impact, Condensed';font-variant-ligatures:normal;font-variant-caps:normal;font-variant-numeric:normal;font-feature-settings:normal;text-align:start;letter-spacing:0px;word-spacing:0px;writing-mode:lr-tb;text-anchor:start;fill:#000eca;fill-opacity:1;stroke:none;stroke-width:0.78840661px;stroke-linecap:butt;stroke-linejoin:miter;stroke-opacity:1"
           d="m 795.89999,558.37951 0.0332,4.43723 -3.42378,0.0256 0.1326,17.7352 -5.76566,0.0431 -0.1326,-17.7352 -3.41008,0.0255 -0.0332,-4.43722 z"
           inkscape:transform-center-x="-34.787482"
           inkscape:transform-center-y="-13.678727" />
      </g>
    </g>
  </g>
</svg>
