<svg xmlns="http://www.w3.org/2000/svg" width="1920" height="1080" xmlns:xlink="http://www.w3.org/1999/xlink"><defs><linearGradient id="o"><stop offset="0" stop-opacity="0"/><stop offset=".763" stop-opacity="0"/><stop offset="1" stop-opacity=".209"/></linearGradient><linearGradient id="n"><stop offset="0" stop-color="#fff" stop-opacity=".073"/><stop offset=".747" stop-opacity="0"/><stop offset="1" stop-opacity=".209"/></linearGradient><linearGradient id="m"><stop offset="0" stop-color="#bdbcbc"/><stop offset=".216" stop-color="#b7c5b3"/><stop offset=".449" stop-color="#cab6ae"/><stop offset="1" stop-color="#c7c2b2"/></linearGradient><pattern id="t" xlink:href="#a" patternTransform="translate(646.733 -59.304)"/><pattern id="s" xlink:href="#b" patternTransform="translate(482.23 -59.304)"/><pattern id="r" xlink:href="#c" patternTransform="translate(317.726 -59.304)"/><pattern id="q" xlink:href="#d" patternTransform="translate(153.223 -59.304)"/><pattern id="B" xlink:href="#a" patternTransform="translate(1962.758 -59.304)"/><pattern id="A" xlink:href="#b" patternTransform="translate(1798.255 -59.304)"/><pattern id="z" xlink:href="#c" patternTransform="translate(1633.752 -59.304)"/><pattern id="y" xlink:href="#d" patternTransform="translate(1469.248 -59.304)"/><pattern id="x" xlink:href="#e" patternTransform="translate(1304.745 -59.304)"/><pattern id="w" xlink:href="#b" patternTransform="translate(1140.242 -59.304)"/><pattern id="v" xlink:href="#c" patternTransform="translate(975.74 -59.304)"/><pattern id="u" xlink:href="#d" patternTransform="translate(811.236 -59.304)"/><pattern id="a" xlink:href="#e" patternTransform="translate(647.485 -59.304)"/><pattern id="b" xlink:href="#d" patternTransform="translate(480.537 -59.304)"/><pattern id="c" xlink:href="#e" patternTransform="translate(315.846 -59.304)"/><pattern id="d" xlink:href="#e" patternTransform="translate(153.41 -59.304)"/><pattern id="e" xlink:href="#f" patternTransform="translate(-11.28 -59.304)"/><pattern id="f" width="151.719" height="69.373" patternUnits="userSpaceOnUse" patternTransform="translate(-36.097 -48.023)"><rect width="151.719" height="69.373" fill="#c62825" stroke-width="5" rx="3.095" ry="3.095" stroke-linecap="round"/></pattern><pattern id="C" patternTransform="translate(-38.635 27.272)" xlink:href="#g"/><pattern id="O" xlink:href="#h" patternTransform="translate(1935.404 27.272)"/><pattern id="h" xlink:href="#g" patternTransform="translate(647.485 -59.304)"/><pattern id="g" xlink:href="#i" patternTransform="translate(-11.28 -59.304)"/><pattern id="i" width="151.719" height="69.373" patternUnits="userSpaceOnUse" patternTransform="translate(-36.097 -48.023)"><rect width="151.719" height="69.373" fill="#c62825" stroke-width="5" rx="3.095" ry="3.095" stroke-linecap="round"/></pattern><pattern id="N" xlink:href="#j" patternTransform="translate(1770.9 27.272)"/><pattern id="j" xlink:href="#k" patternTransform="translate(480.537 -59.304)"/><pattern id="k" xlink:href="#g" patternTransform="translate(153.41 -59.304)"/><pattern id="M" xlink:href="#l" patternTransform="translate(1606.397 27.272)"/><pattern id="l" xlink:href="#g" patternTransform="translate(315.846 -59.304)"/><pattern id="L" xlink:href="#k" patternTransform="translate(1441.894 27.272)"/><pattern id="K" xlink:href="#g" patternTransform="translate(1277.39 27.272)"/><pattern id="J" xlink:href="#j" patternTransform="translate(1112.888 27.272)"/><pattern id="I" xlink:href="#l" patternTransform="translate(948.385 27.272)"/><pattern id="H" xlink:href="#k" patternTransform="translate(783.88 27.272)"/><pattern id="G" xlink:href="#h" patternTransform="translate(619.378 27.272)"/><pattern id="F" xlink:href="#j" patternTransform="translate(454.875 27.272)"/><pattern id="E" xlink:href="#l" patternTransform="translate(290.372 27.272)"/><pattern id="D" xlink:href="#k" patternTransform="translate(125.87 27.272)"/><linearGradient id="p" x1="117.314" x2="1798.067" y1="86.775" y2="973.401" xlink:href="#m" gradientUnits="userSpaceOnUse"/><linearGradient id="P" x1="994.717" x2="1927.419" y1="499.19" y2="499.19" xlink:href="#n" gradientUnits="userSpaceOnUse" spreadMethod="reflect"/><linearGradient id="Q" x1="994.717" x2="1927.419" y1="499.19" y2="499.19" xlink:href="#o" gradientUnits="userSpaceOnUse" spreadMethod="reflect" gradientTransform="matrix(.5622 0 0 1.7787 -1080 49.16)"/></defs><rect width="1921" height="1080" y="-27.638" fill="url(#p)" ry="1.685" transform="translate(0 27.638)"/><g fill="#6b4d42"><path d="M1399.03 55.28h151.718v69.372h-151.72zM1892.54 55.28v69.372H1921V55.28h-28.46zM186.876 137.71h151.72v69.374h-151.72zM1173.895 137.71h151.72v69.374h-151.72zM1338.398 137.71h151.72v69.374h-151.72zM1291.21 220.144h151.718v69.373h-151.72zM1455.712 220.144h151.72v69.373h-151.72zM1784.72 220.145v69.373H1921v-69.373h-136.28zM1221.272 302.576h151.72v69.373h-151.72zM1879.285 302.576v69.373H1921v-69.374h-41.715zM153.223 385.008h151.72v69.373h-151.72zM317.726 385.008h151.72v69.373h-151.72zM975.74 385.008h151.718v69.373h-151.72zM198.156 549.873h151.72v69.373h-151.72zM1514.18 549.873h151.72v69.373h-151.72zM1626.983 632.305h151.72v69.373h-151.72zM1559.302 714.738h151.72v69.373H1559.3zM1469.248 797.17h151.72v69.373h-151.72z"/></g><g fill="#d64415"><path d="M315.47 0v42.22h151.72V0H315.47zM479.973 0v42.22H631.69V0H479.974zM644.477 0v42.22h151.718V0H644.477zM412.01 55.28h151.72v69.372H412.01zM1020.672 549.873h151.72v69.373h-151.72zM1185.175 549.873h151.72v69.373h-151.72zM968.97 632.305h151.72v69.373H968.97zM1133.474 632.305h151.72v69.373h-151.72zM78.774 714.738h151.72v69.373H78.773zM901.29 714.738h151.718v69.373h-151.72zM1065.793 714.738h151.72v69.373h-151.72zM153.223 797.17h151.72v69.373h-151.72zM317.726 797.17h151.72v69.373h-151.72zM243.277 879.603h151.72v69.373h-151.72zM407.78 879.603H559.5v69.373H407.78z"/></g><g fill="#5c3f37"><path d="M962.203 220.144h151.72v69.373h-151.72zM1126.706 220.144h151.72v69.373h-151.72zM1056.768 302.576h151.72v69.373h-151.72zM252.3 467.44h151.72v69.374H252.3zM804.468 632.305h151.72v69.373h-151.72zM0 797.17v69.373h140.44V797.17H0zM0 879.604v69.373h65.99v-69.373H0zM78.774 879.603h151.72v69.373H78.773zM736.786 879.603h151.72v69.373h-151.72zM804.468 962.035h151.72v69.373h-151.72zM968.97 962.035h151.72v69.373H968.97zM885.498 1044.467V1080h151.72v-35.533h-151.72z"/></g><g fill="#c62825"><path d="M0 0v42.22h138.184V0H0zM150.967 0v42.22h151.72V0h-151.72zM808.98 0v42.22H960.7V0H808.98zM973.482 0v42.22h151.72V0H973.48zM1137.986 0v42.22h151.72V0h-151.72zM1302.488 0v42.22h151.72V0h-151.72zM1466.992 0v42.22h151.72V0h-151.72zM1631.496 0v42.22h151.72V0h-151.72zM1795.998 0v42.22H1921V0h-125.002zM0 55.28v69.372h70.22V55.28H0zM83.004 55.28h151.72v69.372H83.003zM247.507 55.28h151.72v69.372h-151.72zM576.513 55.28h151.72v69.372h-151.72zM741.017 55.28h151.72v69.372h-151.72zM905.52 55.28h151.72v69.372H905.52zM1070.023 55.28h151.72v69.372h-151.72zM1234.526 55.28h151.72v69.372h-151.72zM1563.532 55.28h151.72v69.372h-151.72zM1728.036 55.28h151.72v69.372h-151.72zM0 137.71v69.374h9.588V137.71H0zM22.372 137.71h151.72v69.374H22.37zM351.38 137.71h151.718v69.374h-151.72zM515.882 137.71h151.72v69.374H515.88zM680.385 137.71h151.72v69.374h-151.72zM844.888 137.71h151.72v69.374h-151.72zM1009.39 137.71h151.72v69.374h-151.72zM1502.9 137.71h151.72v69.374H1502.9zM1667.404 137.71h151.72v69.374h-151.72zM1831.908 137.71v69.374H1921V137.71h-89.092zM0 220.145v69.373h126.902v-69.373H0zM139.687 220.144h151.72v69.373h-151.72zM304.19 220.144h151.72v69.373H304.19zM468.693 220.144h151.72v69.373h-151.72zM633.196 220.144h151.72v69.373h-151.72zM797.7 220.144h151.72v69.373H797.7zM1620.215 220.144h151.72v69.373h-151.72zM0 302.576v69.373h56.965v-69.374H0zM69.75 302.576h151.718v69.373H69.748zM234.253 302.576h151.72v69.373h-151.72zM398.756 302.576h151.72v69.373h-151.72zM563.26 302.576h151.718v69.373h-151.72zM727.762 302.576h151.72v69.373H727.76zM892.265 302.576h151.72v69.373h-151.72zM1385.775 302.576h151.72v69.373h-151.72zM1550.278 302.576h151.72v69.373h-151.72zM1714.78 302.576h151.72v69.373h-151.72zM0 385.008v69.373h140.44V385.01H0zM482.23 385.008h151.718v69.373h-151.72zM646.733 385.008h151.72v69.373h-151.72zM811.236 385.008h151.72v69.373h-151.72zM1140.242 385.008h151.72v69.373h-151.72zM1304.745 385.008h151.72v69.373h-151.72zM1469.248 385.008h151.72v69.373h-151.72zM1633.752 385.008h151.72v69.373h-151.72zM1798.254 385.008v69.373H1921V385.01h-122.746zM0 467.44v69.374h75.014V467.44H0zM87.798 467.44h151.72v69.374H87.797zM416.804 467.44h151.72v69.374h-151.72zM581.307 467.44h151.72v69.374h-151.72zM745.81 467.44h151.72v69.374H745.81zM910.314 467.44h151.72v69.374h-151.72zM1074.817 467.44h151.72v69.374h-151.72zM1239.32 467.44h151.72v69.374h-151.72zM1403.823 467.44h151.72v69.374h-151.72zM1568.326 467.44h151.72v69.374h-151.72zM1732.83 467.44h151.72v69.374h-151.72zM1897.332 467.44v69.374H1921V467.44h-23.668zM0 549.873v69.373h20.87v-69.373H0zM33.653 549.873h151.72v69.373H33.652zM362.66 549.873h151.718v69.373h-151.72zM527.162 549.873h151.72v69.373H527.16zM691.665 549.873h151.72v69.373h-151.72zM856.17 549.873h151.718v69.373h-151.72zM1349.678 549.873h151.72v69.373h-151.72zM1678.684 549.873h151.72v69.373h-151.72zM1843.188 549.873v69.373H1921v-69.373h-77.813zM0 632.305v69.375h133.67v-69.375H0zM146.455 632.305h151.72v69.373h-151.72zM310.958 632.305h151.72v69.373h-151.72zM475.46 632.305h151.72v69.373H475.46zM639.964 632.305h151.72v69.373h-151.72zM1297.977 632.305h151.72v69.373h-151.72zM1462.48 632.305h151.72v69.373h-151.72zM1791.486 632.305v69.375H1921v-69.375h-129.514zM0 714.738v69.373h65.99V714.74H0zM243.277 714.738h151.72v69.373h-151.72zM407.78 714.738H559.5v69.373H407.78zM572.283 714.738h151.72v69.373h-151.72zM736.786 714.738h151.72v69.373h-151.72zM1230.296 714.738h151.72v69.373h-151.72zM1394.8 714.738h151.718v69.373h-151.72zM1723.805 714.738h151.72v69.373h-151.72zM1888.31 714.738v69.373H1921V714.74h-32.69zM482.23 797.17h151.718v69.373h-151.72zM646.733 797.17h151.72v69.373h-151.72zM811.236 797.17h151.72v69.373h-151.72zM975.74 797.17h151.718v69.373h-151.72zM1140.242 797.17h151.72v69.373h-151.72zM1304.745 797.17h151.72v69.373h-151.72zM1633.752 797.17h151.72v69.373h-151.72zM1798.254 797.17v69.373H1921V797.17h-122.746zM572.283 879.603h151.72v69.373h-151.72zM901.29 879.603h151.718v69.373h-151.72zM1065.793 879.603h151.72v69.373h-151.72zM1230.296 879.603h151.72v69.373h-151.72zM1394.8 879.603h151.718v69.373h-151.72zM1559.302 879.603h151.72v69.373H1559.3zM1723.805 879.603h151.72v69.373h-151.72zM1888.31 879.604v69.373H1921v-69.373h-32.69zM0 962.035v69.373h133.67v-69.373H0zM146.455 962.035h151.72v69.373h-151.72zM310.958 962.035h151.72v69.373h-151.72zM475.46 962.035h151.72v69.373H475.46zM639.964 962.035h151.72v69.373h-151.72zM1133.474 962.035h151.72v69.373h-151.72zM1297.977 962.035h151.72v69.373h-151.72zM1462.48 962.035h151.72v69.373h-151.72zM1626.983 962.035h151.72v69.373h-151.72zM1791.486 962.035v69.373H1921v-69.373h-129.514zM0 1044.467V1080h50.197v-35.533H0zM62.98 1044.467V1080H214.7v-35.533H62.98zM227.484 1044.467V1080h151.72v-35.533h-151.72zM391.988 1044.467V1080h151.72v-35.533h-151.72zM556.49 1044.467V1080h151.72v-35.533H556.49zM720.994 1044.467V1080h151.72v-35.533h-151.72zM1050 1044.467V1080h151.72v-35.533H1050zM1214.504 1044.467V1080h151.72v-35.533h-151.72zM1379.006 1044.467V1080h151.72v-35.533h-151.72zM1543.51 1044.467V1080h151.72v-35.533h-151.72zM1708.014 1044.467V1080h151.718v-35.533h-151.718zM1872.516 1044.467V1080H1921v-35.533h-48.484z"/></g><g fill="#5c3f37"><path d="M1474.33 63.592a26.835 26.835 0 0 0-24.687 26.738 26.835 26.835 0 0 0 26.835 26.835 26.835 26.835 0 0 0 10.198-2.036V89.792h-4.83v15.565c.15 3.34-3.87 5.182-6.44 2.683l-19.323-19.32c-2.943-3.22 0-6.44 2.147-6.44h16.1V63.59zm7.515.447v18.24h8.588c2.09.05 3.59 1.73 3.757 3.756v24.41a26.835 26.835 0 0 0 9.124-20.116 26.835 26.835 0 0 0-21.47-26.29zm-13.954 25.753l6.44 6.44v-6.44h-6.44z"/></g><g><rect width="1080" height="1921" x="-1080" fill="#ffb841" fill-opacity=".068" transform="rotate(-90)" ry="2.998"/></g><g><rect width="1921" height="1080" y="-27.638" fill="url(#P)" transform="translate(0 27.638)" ry="1.685"/></g><g><rect width="1080" height="1921" x="-1080" fill="url(#Q)" ry="2.998" transform="rotate(-90)"/></g></svg>