<svg xmlns="http://www.w3.org/2000/svg" width="1920" height="1080" xmlns:xlink="http://www.w3.org/1999/xlink"><defs><linearGradient id="I"><stop offset="0" stop-color="#bdbcbc"/><stop offset=".216" stop-color="#b7c5b3"/><stop offset=".449" stop-color="#cab6ae"/><stop offset="1" stop-color="#c7c2b2"/></linearGradient><pattern id="K" xlink:href="#a" patternTransform="translate(-13.536 -27.154)"/><pattern id="L" xlink:href="#b" patternTransform="translate(-81.5 55.28)"/><pattern id="M" xlink:href="#c" patternTransform="translate(83.004 55.28)"/><pattern id="N" xlink:href="#d" patternTransform="translate(247.507 55.28)"/><pattern id="O" xlink:href="#e" patternTransform="translate(576.513 55.28)"/><pattern id="P" xlink:href="#f" patternTransform="translate(741.017 55.28)"/><pattern id="Q" xlink:href="#g" patternTransform="translate(905.52 55.28)"/><pattern id="R" xlink:href="#h" patternTransform="translate(1070.023 55.28)"/><pattern id="S" xlink:href="#i" patternTransform="translate(1234.526 55.28)"/><pattern id="T" xlink:href="#j" patternTransform="translate(1563.532 55.28)"/><pattern id="U" xlink:href="#k" patternTransform="translate(1728.036 55.28)"/><pattern id="V" xlink:href="#a" patternTransform="translate(-142.13 137.71)"/><pattern id="W" xlink:href="#l" patternTransform="translate(22.372 137.71)"/><pattern id="X" xlink:href="#m" patternTransform="translate(351.38 137.71)"/><pattern id="Y" xlink:href="#n" patternTransform="translate(515.882 137.71)"/><pattern id="Z" xlink:href="#o" patternTransform="translate(680.385 137.71)"/><pattern id="aa" xlink:href="#p" patternTransform="translate(844.888 137.71)"/><pattern id="ab" xlink:href="#q" patternTransform="translate(1009.39 137.71)"/><pattern id="ac" xlink:href="#r" patternTransform="translate(1502.9 137.71)"/><pattern id="ad" xlink:href="#s" patternTransform="translate(1667.404 137.71)"/><pattern id="ae" xlink:href="#t" patternTransform="translate(1831.907 137.71)"/><pattern id="af" xlink:href="#a" patternTransform="translate(-24.816 220.144)"/><pattern id="ag" xlink:href="#l" patternTransform="translate(139.687 220.144)"/><pattern id="ah" xlink:href="#u" patternTransform="translate(304.19 220.144)"/><pattern id="ai" xlink:href="#m" patternTransform="translate(468.693 220.144)"/><pattern id="aj" xlink:href="#n" patternTransform="translate(633.196 220.144)"/><pattern id="ak" xlink:href="#o" patternTransform="translate(797.7 220.144)"/><pattern id="al" xlink:href="#r" patternTransform="translate(1620.215 220.144)"/><pattern id="am" xlink:href="#a" patternTransform="translate(-94.754 302.576)"/><pattern id="an" xlink:href="#l" patternTransform="translate(69.75 302.576)"/><pattern id="ao" xlink:href="#u" patternTransform="translate(234.253 302.576)"/><pattern id="ap" xlink:href="#m" patternTransform="translate(398.756 302.576)"/><pattern id="aq" xlink:href="#n" patternTransform="translate(563.26 302.576)"/><pattern id="ar" xlink:href="#o" patternTransform="translate(727.762 302.576)"/><pattern id="as" xlink:href="#p" patternTransform="translate(892.265 302.576)"/><pattern id="at" xlink:href="#v" patternTransform="translate(1385.775 302.576)"/><pattern id="au" xlink:href="#r" patternTransform="translate(1550.278 302.576)"/><pattern id="av" xlink:href="#s" patternTransform="translate(1714.78 302.576)"/><pattern id="aw" xlink:href="#a" patternTransform="translate(-11.28 385.008)"/><pattern id="ax" xlink:href="#m" patternTransform="translate(482.23 385.008)"/><pattern id="ay" xlink:href="#n" patternTransform="translate(646.733 385.008)"/><pattern id="az" xlink:href="#o" patternTransform="translate(811.236 385.008)"/><pattern id="aA" xlink:href="#q" patternTransform="translate(1140.242 385.008)"/><pattern id="aB" xlink:href="#w" patternTransform="translate(1304.745 385.008)"/><pattern id="aC" xlink:href="#v" patternTransform="translate(1469.248 385.008)"/><pattern id="aD" xlink:href="#r" patternTransform="translate(1633.752 385.008)"/><pattern id="aE" xlink:href="#s" patternTransform="translate(1798.255 385.008)"/><pattern id="aF" xlink:href="#a" patternTransform="translate(-76.706 467.44)"/><pattern id="aG" xlink:href="#l" patternTransform="translate(87.798 467.44)"/><pattern id="aH" xlink:href="#m" patternTransform="translate(416.804 467.44)"/><pattern id="aI" xlink:href="#n" patternTransform="translate(581.307 467.44)"/><pattern id="aJ" xlink:href="#o" patternTransform="translate(745.81 467.44)"/><pattern id="aK" xlink:href="#p" patternTransform="translate(910.314 467.44)"/><pattern id="aL" xlink:href="#q" patternTransform="translate(1074.817 467.44)"/><pattern id="aM" xlink:href="#w" patternTransform="translate(1239.32 467.44)"/><pattern id="aN" xlink:href="#v" patternTransform="translate(1403.823 467.44)"/><pattern id="aO" xlink:href="#r" patternTransform="translate(1568.326 467.44)"/><pattern id="aP" xlink:href="#s" patternTransform="translate(1732.83 467.44)"/><pattern id="aQ" xlink:href="#t" patternTransform="translate(1897.333 467.44)"/><pattern id="aR" xlink:href="#a" patternTransform="translate(-130.85 549.873)"/><pattern id="aS" xlink:href="#l" patternTransform="translate(33.653 549.873)"/><pattern id="aT" xlink:href="#m" patternTransform="translate(362.66 549.873)"/><pattern id="aU" xlink:href="#n" patternTransform="translate(527.162 549.873)"/><pattern id="aV" xlink:href="#o" patternTransform="translate(691.665 549.873)"/><pattern id="aW" xlink:href="#p" patternTransform="translate(856.17 549.873)"/><pattern id="aX" xlink:href="#v" patternTransform="translate(1349.678 549.873)"/><pattern id="aY" xlink:href="#s" patternTransform="translate(1678.685 549.873)"/><pattern id="aZ" xlink:href="#t" patternTransform="translate(1843.188 549.873)"/><pattern id="ba" xlink:href="#a" patternTransform="translate(-18.048 632.305)"/><pattern id="bb" xlink:href="#l" patternTransform="translate(146.455 632.305)"/><pattern id="bc" xlink:href="#u" patternTransform="translate(310.958 632.305)"/><pattern id="bd" xlink:href="#m" patternTransform="translate(475.46 632.305)"/><pattern id="be" xlink:href="#n" patternTransform="translate(639.965 632.305)"/><pattern id="bf" xlink:href="#w" patternTransform="translate(1297.977 632.305)"/><pattern id="bg" xlink:href="#v" patternTransform="translate(1462.48 632.305)"/><pattern id="bh" xlink:href="#s" patternTransform="translate(1791.487 632.305)"/><pattern id="bi" xlink:href="#a" patternTransform="translate(-85.73 714.738)"/><pattern id="bj" xlink:href="#u" patternTransform="translate(243.277 714.738)"/><pattern id="bk" xlink:href="#m" patternTransform="translate(407.78 714.738)"/><pattern id="bl" xlink:href="#n" patternTransform="translate(572.283 714.738)"/><pattern id="bm" xlink:href="#o" patternTransform="translate(736.786 714.738)"/><pattern id="bn" xlink:href="#w" patternTransform="translate(1230.296 714.738)"/><pattern id="bo" xlink:href="#v" patternTransform="translate(1394.8 714.738)"/><pattern id="bp" xlink:href="#s" patternTransform="translate(1723.805 714.738)"/><pattern id="bq" xlink:href="#t" patternTransform="translate(1888.308 714.738)"/><pattern id="br" xlink:href="#m" patternTransform="translate(482.23 797.17)"/><pattern id="bs" xlink:href="#n" patternTransform="translate(646.733 797.17)"/><pattern id="bt" xlink:href="#o" patternTransform="translate(811.236 797.17)"/><pattern id="bu" xlink:href="#p" patternTransform="translate(975.74 797.17)"/><pattern id="bv" xlink:href="#q" patternTransform="translate(1140.242 797.17)"/><pattern id="bw" xlink:href="#w" patternTransform="translate(1304.745 797.17)"/><pattern id="bx" xlink:href="#r" patternTransform="translate(1633.752 797.17)"/><pattern id="by" xlink:href="#s" patternTransform="translate(1798.255 797.17)"/><pattern id="bz" xlink:href="#n" patternTransform="translate(572.283 879.603)"/><pattern id="bA" xlink:href="#p" patternTransform="translate(901.29 879.603)"/><pattern id="bB" xlink:href="#q" patternTransform="translate(1065.793 879.603)"/><pattern id="bC" xlink:href="#w" patternTransform="translate(1230.296 879.603)"/><pattern id="bD" xlink:href="#v" patternTransform="translate(1394.8 879.603)"/><pattern id="bE" xlink:href="#r" patternTransform="translate(1559.302 879.603)"/><pattern id="bF" xlink:href="#s" patternTransform="translate(1723.805 879.603)"/><pattern id="bG" xlink:href="#t" patternTransform="translate(1888.308 879.603)"/><pattern id="bH" xlink:href="#a" patternTransform="translate(-18.048 962.035)"/><pattern id="bI" xlink:href="#l" patternTransform="translate(146.455 962.035)"/><pattern id="bJ" xlink:href="#u" patternTransform="translate(310.958 962.035)"/><pattern id="bK" xlink:href="#m" patternTransform="translate(475.46 962.035)"/><pattern id="bL" xlink:href="#n" patternTransform="translate(639.965 962.035)"/><pattern id="bM" xlink:href="#q" patternTransform="translate(1133.474 962.035)"/><pattern id="bN" xlink:href="#w" patternTransform="translate(1297.977 962.035)"/><pattern id="bO" xlink:href="#v" patternTransform="translate(1462.48 962.035)"/><pattern id="bP" xlink:href="#r" patternTransform="translate(1626.984 962.035)"/><pattern id="bQ" xlink:href="#s" patternTransform="translate(1791.487 962.035)"/><pattern id="bR" xlink:href="#a" patternTransform="translate(-101.522 1044.467)"/><pattern id="bS" xlink:href="#l" patternTransform="translate(62.98 1044.467)"/><pattern id="bT" xlink:href="#u" patternTransform="translate(227.484 1044.467)"/><pattern id="bU" xlink:href="#m" patternTransform="translate(391.988 1044.467)"/><pattern id="bV" xlink:href="#n" patternTransform="translate(556.49 1044.467)"/><pattern id="bW" xlink:href="#o" patternTransform="translate(720.994 1044.467)"/><pattern id="bX" xlink:href="#q" patternTransform="translate(1050 1044.467)"/><pattern id="bY" xlink:href="#w" patternTransform="translate(1214.503 1044.467)"/><pattern id="bZ" xlink:href="#v" patternTransform="translate(1379.007 1044.467)"/><pattern id="ca" xlink:href="#r" patternTransform="translate(1543.51 1044.467)"/><pattern id="cb" xlink:href="#s" patternTransform="translate(1708.013 1044.467)"/><pattern id="cc" xlink:href="#t" patternTransform="translate(1872.516 1044.467)"/><pattern id="n" xlink:href="#x" patternTransform="translate(646.733 -59.304)"/><pattern id="m" xlink:href="#y" patternTransform="translate(482.23 -59.304)"/><pattern id="u" xlink:href="#z" patternTransform="translate(317.726 -59.304)"/><pattern id="l" xlink:href="#A" patternTransform="translate(153.223 -59.304)"/><pattern id="t" xlink:href="#x" patternTransform="translate(1962.758 -59.304)"/><pattern id="s" xlink:href="#y" patternTransform="translate(1798.255 -59.304)"/><pattern id="r" xlink:href="#z" patternTransform="translate(1633.752 -59.304)"/><pattern id="v" xlink:href="#A" patternTransform="translate(1469.248 -59.304)"/><pattern id="w" xlink:href="#a" patternTransform="translate(1304.745 -59.304)"/><pattern id="q" xlink:href="#y" patternTransform="translate(1140.242 -59.304)"/><pattern id="p" xlink:href="#z" patternTransform="translate(975.74 -59.304)"/><pattern id="o" xlink:href="#A" patternTransform="translate(811.236 -59.304)"/><pattern id="x" xlink:href="#a" patternTransform="translate(647.485 -59.304)"/><pattern id="y" xlink:href="#A" patternTransform="translate(480.537 -59.304)"/><pattern id="z" xlink:href="#a" patternTransform="translate(315.846 -59.304)"/><pattern id="A" xlink:href="#a" patternTransform="translate(153.41 -59.304)"/><pattern id="a" xlink:href="#B" patternTransform="translate(-11.28 -59.304)"/><pattern id="B" width="151.719" height="69.373" patternUnits="userSpaceOnUse" patternTransform="translate(-36.097 -48.023)"><rect width="151.719" height="69.373" fill="#c62825" stroke-width="5" rx="3.095" ry="3.095" stroke-linecap="round"/></pattern><pattern id="b" patternTransform="translate(-38.635 27.272)" xlink:href="#C"/><pattern id="cf" xlink:href="#D" patternTransform="translate(1935.404 27.272)"/><pattern id="D" xlink:href="#C" patternTransform="translate(647.485 -59.304)"/><pattern id="C" xlink:href="#E" patternTransform="translate(-11.28 -59.304)"/><pattern id="E" width="151.719" height="69.373" patternUnits="userSpaceOnUse" patternTransform="translate(-36.097 -48.023)"><rect width="151.719" height="69.373" fill="#c62825" stroke-width="5" rx="3.095" ry="3.095" stroke-linecap="round"/></pattern><pattern id="k" xlink:href="#F" patternTransform="translate(1770.9 27.272)"/><pattern id="F" xlink:href="#G" patternTransform="translate(480.537 -59.304)"/><pattern id="G" xlink:href="#C" patternTransform="translate(153.41 -59.304)"/><pattern id="j" xlink:href="#H" patternTransform="translate(1606.397 27.272)"/><pattern id="H" xlink:href="#C" patternTransform="translate(315.846 -59.304)"/><pattern id="ce" xlink:href="#G" patternTransform="translate(1441.894 27.272)"/><pattern id="i" xlink:href="#C" patternTransform="translate(1277.39 27.272)"/><pattern id="h" xlink:href="#F" patternTransform="translate(1112.888 27.272)"/><pattern id="g" xlink:href="#H" patternTransform="translate(948.385 27.272)"/><pattern id="f" xlink:href="#G" patternTransform="translate(783.88 27.272)"/><pattern id="e" xlink:href="#D" patternTransform="translate(619.378 27.272)"/><pattern id="cd" xlink:href="#F" patternTransform="translate(454.875 27.272)"/><pattern id="d" xlink:href="#H" patternTransform="translate(290.372 27.272)"/><pattern id="c" xlink:href="#G" patternTransform="translate(125.87 27.272)"/><linearGradient id="J" x1="117.314" x2="1798.067" y1="86.775" y2="973.401" xlink:href="#I" gradientUnits="userSpaceOnUse"/></defs><rect width="1921" height="1080" y="-27.638" fill="url(#J)" ry="1.685" transform="translate(0 27.638)"/><path fill="url(#K)" d="M0 0v42.22h138.184V0H0zM150.967 0v42.22h151.72V0h-151.72z"/><path fill="#d64415" d="M315.47 0v42.22h151.72V0H315.47zM479.973 0v42.22H631.69V0H479.974zM644.477 0v42.22h151.718V0H644.477z"/><path fill="url(#K)" d="M808.98 0v42.22H960.7V0H808.98zM973.482 0v42.22h151.72V0H973.48zM1137.986 0v42.22h151.72V0h-151.72zM1302.488 0v42.22h151.72V0h-151.72zM1466.992 0v42.22h151.72V0h-151.72zM1631.496 0v42.22h151.72V0h-151.72zM1795.998 0v42.22H1921V0h-125.002z"/><path fill="url(#L)" d="M0 55.28v69.372h70.22V55.28H0z"/><path fill="url(#M)" d="M83.004 55.28h151.72v69.372H83.003z"/><path fill="url(#N)" d="M247.507 55.28h151.72v69.372h-151.72z"/><path fill="#d64415" d="M412.01 55.28h151.72v69.372H412.01z"/><path fill="url(#O)" d="M576.513 55.28h151.72v69.372h-151.72z"/><path fill="url(#P)" d="M741.017 55.28h151.72v69.372h-151.72z"/><path fill="url(#Q)" d="M905.52 55.28h151.72v69.372H905.52z"/><path fill="url(#R)" d="M1070.023 55.28h151.72v69.372h-151.72z"/><path fill="url(#S)" d="M1234.526 55.28h151.72v69.372h-151.72z"/><path fill="#6b4d42" d="M1399.03 55.28h151.718v69.372h-151.72z"/><path fill="url(#T)" d="M1563.532 55.28h151.72v69.372h-151.72z"/><path fill="url(#U)" d="M1728.036 55.28h151.72v69.372h-151.72z"/><path fill="#6b4d42" d="M1892.54 55.28v69.372H1921V55.28h-28.46z"/><path fill="url(#V)" d="M0 137.71v69.374h9.588V137.71H0z"/><path fill="url(#W)" d="M22.372 137.71h151.72v69.374H22.37z"/><path fill="#6b4d42" d="M186.876 137.71h151.72v69.374h-151.72z"/><path fill="url(#X)" d="M351.38 137.71h151.718v69.374h-151.72z"/><path fill="url(#Y)" d="M515.882 137.71h151.72v69.374H515.88z"/><path fill="url(#Z)" d="M680.385 137.71h151.72v69.374h-151.72z"/><path fill="url(#aa)" d="M844.888 137.71h151.72v69.374h-151.72z"/><path fill="url(#ab)" d="M1009.39 137.71h151.72v69.374h-151.72z"/><path fill="#6b4d42" d="M1173.895 137.71h151.72v69.374h-151.72zM1338.398 137.71h151.72v69.374h-151.72z"/><path fill="url(#ac)" d="M1502.9 137.71h151.72v69.374H1502.9z"/><path fill="url(#ad)" d="M1667.404 137.71h151.72v69.374h-151.72z"/><path fill="url(#ae)" d="M1831.908 137.71v69.374H1921V137.71h-89.092z"/><path fill="url(#af)" d="M0 220.145v69.373h126.902v-69.373H0z"/><path fill="url(#ag)" d="M139.687 220.144h151.72v69.373h-151.72z"/><path fill="url(#ah)" d="M304.19 220.144h151.72v69.373H304.19z"/><path fill="url(#ai)" d="M468.693 220.144h151.72v69.373h-151.72z"/><path fill="url(#aj)" d="M633.196 220.144h151.72v69.373h-151.72z"/><path fill="url(#ak)" d="M797.7 220.144h151.72v69.373H797.7z"/><path fill="#5c3f37" d="M962.203 220.144h151.72v69.373h-151.72zM1126.706 220.144h151.72v69.373h-151.72z"/><path fill="#6b4d42" d="M1291.21 220.144h151.718v69.373h-151.72zM1455.712 220.144h151.72v69.373h-151.72z"/><path fill="url(#al)" d="M1620.215 220.144h151.72v69.373h-151.72z"/><path fill="#6b4d42" d="M1784.72 220.145v69.373H1921v-69.373h-136.28z"/><path fill="url(#am)" d="M0 302.576v69.373h56.965v-69.374H0z"/><path fill="url(#an)" d="M69.75 302.576h151.718v69.373H69.748z"/><path fill="url(#ao)" d="M234.253 302.576h151.72v69.373h-151.72z"/><path fill="url(#ap)" d="M398.756 302.576h151.72v69.373h-151.72z"/><path fill="url(#aq)" d="M563.26 302.576h151.718v69.373h-151.72z"/><path fill="url(#ar)" d="M727.762 302.576h151.72v69.373H727.76z"/><path fill="url(#as)" d="M892.265 302.576h151.72v69.373h-151.72z"/><path fill="#5c3f37" d="M1056.768 302.576h151.72v69.373h-151.72z"/><path fill="#6b4d42" d="M1221.272 302.576h151.72v69.373h-151.72z"/><path fill="url(#at)" d="M1385.775 302.576h151.72v69.373h-151.72z"/><path fill="url(#au)" d="M1550.278 302.576h151.72v69.373h-151.72z"/><path fill="url(#av)" d="M1714.78 302.576h151.72v69.373h-151.72z"/><path fill="#6b4d42" d="M1879.285 302.576v69.373H1921v-69.374h-41.715z"/><path fill="url(#aw)" d="M0 385.008v69.373h140.44V385.01H0z"/><path fill="#6b4d42" d="M153.223 385.008h151.72v69.373h-151.72zM317.726 385.008h151.72v69.373h-151.72z"/><path fill="url(#ax)" d="M482.23 385.008h151.718v69.373h-151.72z"/><path fill="url(#ay)" d="M646.733 385.008h151.72v69.373h-151.72z"/><path fill="url(#az)" d="M811.236 385.008h151.72v69.373h-151.72z"/><path fill="#6b4d42" d="M975.74 385.008h151.718v69.373h-151.72z"/><path fill="url(#aA)" d="M1140.242 385.008h151.72v69.373h-151.72z"/><path fill="url(#aB)" d="M1304.745 385.008h151.72v69.373h-151.72z"/><path fill="url(#aC)" d="M1469.248 385.008h151.72v69.373h-151.72z"/><path fill="url(#aD)" d="M1633.752 385.008h151.72v69.373h-151.72z"/><path fill="url(#aE)" d="M1798.254 385.008v69.373H1921V385.01h-122.746z"/><path fill="url(#aF)" d="M0 467.44v69.374h75.014V467.44H0z"/><path fill="url(#aG)" d="M87.798 467.44h151.72v69.374H87.797z"/><path fill="#5c3f37" d="M252.3 467.44h151.72v69.374H252.3z"/><path fill="url(#aH)" d="M416.804 467.44h151.72v69.374h-151.72z"/><path fill="url(#aI)" d="M581.307 467.44h151.72v69.374h-151.72z"/><path fill="url(#aJ)" d="M745.81 467.44h151.72v69.374H745.81z"/><path fill="url(#aK)" d="M910.314 467.44h151.72v69.374h-151.72z"/><path fill="url(#aL)" d="M1074.817 467.44h151.72v69.374h-151.72z"/><path fill="url(#aM)" d="M1239.32 467.44h151.72v69.374h-151.72z"/><path fill="url(#aN)" d="M1403.823 467.44h151.72v69.374h-151.72z"/><path fill="url(#aO)" d="M1568.326 467.44h151.72v69.374h-151.72z"/><path fill="url(#aP)" d="M1732.83 467.44h151.72v69.374h-151.72z"/><path fill="url(#aQ)" d="M1897.332 467.44v69.374H1921V467.44h-23.668z"/><path fill="url(#aR)" d="M0 549.873v69.373h20.87v-69.373H0z"/><path fill="url(#aS)" d="M33.653 549.873h151.72v69.373H33.652z"/><path fill="#6b4d42" d="M198.156 549.873h151.72v69.373h-151.72z"/><path fill="url(#aT)" d="M362.66 549.873h151.718v69.373h-151.72z"/><path fill="url(#aU)" d="M527.162 549.873h151.72v69.373H527.16z"/><path fill="url(#aV)" d="M691.665 549.873h151.72v69.373h-151.72z"/><path fill="url(#aW)" d="M856.17 549.873h151.718v69.373h-151.72z"/><path fill="#d64415" d="M1020.672 549.873h151.72v69.373h-151.72zM1185.175 549.873h151.72v69.373h-151.72z"/><path fill="url(#aX)" d="M1349.678 549.873h151.72v69.373h-151.72z"/><path fill="#6b4d42" d="M1514.18 549.873h151.72v69.373h-151.72z"/><path fill="url(#aY)" d="M1678.684 549.873h151.72v69.373h-151.72z"/><path fill="url(#aZ)" d="M1843.188 549.873v69.373H1921v-69.373h-77.813z"/><path fill="url(#ba)" d="M0 632.305v69.375h133.67v-69.375H0z"/><path fill="url(#bb)" d="M146.455 632.305h151.72v69.373h-151.72z"/><path fill="url(#bc)" d="M310.958 632.305h151.72v69.373h-151.72z"/><path fill="url(#bd)" d="M475.46 632.305h151.72v69.373H475.46z"/><path fill="url(#be)" d="M639.964 632.305h151.72v69.373h-151.72z"/><path fill="#5c3f37" d="M804.468 632.305h151.72v69.373h-151.72z"/><path fill="#d64415" d="M968.97 632.305h151.72v69.373H968.97zM1133.474 632.305h151.72v69.373h-151.72z"/><path fill="url(#bf)" d="M1297.977 632.305h151.72v69.373h-151.72z"/><path fill="url(#bg)" d="M1462.48 632.305h151.72v69.373h-151.72z"/><path fill="#6b4d42" d="M1626.983 632.305h151.72v69.373h-151.72z"/><path fill="url(#bh)" d="M1791.486 632.305v69.375H1921v-69.375h-129.514z"/><path fill="url(#bi)" d="M0 714.738v69.373h65.99V714.74H0z"/><path fill="#d64415" d="M78.774 714.738h151.72v69.373H78.773z"/><path fill="url(#bj)" d="M243.277 714.738h151.72v69.373h-151.72z"/><path fill="url(#bk)" d="M407.78 714.738H559.5v69.373H407.78z"/><path fill="url(#bl)" d="M572.283 714.738h151.72v69.373h-151.72z"/><path fill="url(#bm)" d="M736.786 714.738h151.72v69.373h-151.72z"/><path fill="#d64415" d="M901.29 714.738h151.718v69.373h-151.72zM1065.793 714.738h151.72v69.373h-151.72z"/><path fill="url(#bn)" d="M1230.296 714.738h151.72v69.373h-151.72z"/><path fill="url(#bo)" d="M1394.8 714.738h151.718v69.373h-151.72z"/><path fill="#6b4d42" d="M1559.302 714.738h151.72v69.373H1559.3z"/><path fill="url(#bp)" d="M1723.805 714.738h151.72v69.373h-151.72z"/><path fill="url(#bq)" d="M1888.31 714.738v69.373H1921V714.74h-32.69z"/><path fill="#5c3f37" d="M0 797.17v69.373h140.44V797.17H0z"/><path fill="#d64415" d="M153.223 797.17h151.72v69.373h-151.72zM317.726 797.17h151.72v69.373h-151.72z"/><path fill="url(#br)" d="M482.23 797.17h151.718v69.373h-151.72z"/><path fill="url(#bs)" d="M646.733 797.17h151.72v69.373h-151.72z"/><path fill="url(#bt)" d="M811.236 797.17h151.72v69.373h-151.72z"/><path fill="url(#bu)" d="M975.74 797.17h151.718v69.373h-151.72z"/><path fill="url(#bv)" d="M1140.242 797.17h151.72v69.373h-151.72z"/><path fill="url(#bw)" d="M1304.745 797.17h151.72v69.373h-151.72z"/><path fill="#6b4d42" d="M1469.248 797.17h151.72v69.373h-151.72z"/><path fill="url(#bx)" d="M1633.752 797.17h151.72v69.373h-151.72z"/><path fill="url(#by)" d="M1798.254 797.17v69.373H1921V797.17h-122.746z"/><path fill="#5c3f37" d="M0 879.604v69.373h65.99v-69.373H0zM78.774 879.603h151.72v69.373H78.773z"/><path fill="#d64415" d="M243.277 879.603h151.72v69.373h-151.72zM407.78 879.603H559.5v69.373H407.78z"/><path fill="url(#bz)" d="M572.283 879.603h151.72v69.373h-151.72z"/><path fill="#5c3f37" d="M736.786 879.603h151.72v69.373h-151.72z"/><path fill="url(#bA)" d="M901.29 879.603h151.718v69.373h-151.72z"/><path fill="url(#bB)" d="M1065.793 879.603h151.72v69.373h-151.72z"/><path fill="url(#bC)" d="M1230.296 879.603h151.72v69.373h-151.72z"/><path fill="url(#bD)" d="M1394.8 879.603h151.718v69.373h-151.72z"/><path fill="url(#bE)" d="M1559.302 879.603h151.72v69.373H1559.3z"/><path fill="url(#bF)" d="M1723.805 879.603h151.72v69.373h-151.72z"/><path fill="url(#bG)" d="M1888.31 879.604v69.373H1921v-69.373h-32.69z"/><path fill="url(#bH)" d="M0 962.035v69.373h133.67v-69.373H0z"/><path fill="url(#bI)" d="M146.455 962.035h151.72v69.373h-151.72z"/><path fill="url(#bJ)" d="M310.958 962.035h151.72v69.373h-151.72z"/><path fill="url(#bK)" d="M475.46 962.035h151.72v69.373H475.46z"/><path fill="url(#bL)" d="M639.964 962.035h151.72v69.373h-151.72z"/><path fill="#5c3f37" d="M804.468 962.035h151.72v69.373h-151.72zM968.97 962.035h151.72v69.373H968.97z"/><path fill="url(#bM)" d="M1133.474 962.035h151.72v69.373h-151.72z"/><path fill="url(#bN)" d="M1297.977 962.035h151.72v69.373h-151.72z"/><path fill="url(#bO)" d="M1462.48 962.035h151.72v69.373h-151.72z"/><path fill="url(#bP)" d="M1626.983 962.035h151.72v69.373h-151.72z"/><path fill="url(#bQ)" d="M1791.486 962.035v69.373H1921v-69.373h-129.514z"/><path fill="url(#bR)" d="M0 1044.467V1080h50.197v-35.533H0z"/><path fill="url(#bS)" d="M62.98 1044.467V1080H214.7v-35.533H62.98z"/><path fill="url(#bT)" d="M227.484 1044.467V1080h151.72v-35.533h-151.72z"/><path fill="url(#bU)" d="M391.988 1044.467V1080h151.72v-35.533h-151.72z"/><path fill="url(#bV)" d="M556.49 1044.467V1080h151.72v-35.533H556.49z"/><path fill="url(#bW)" d="M720.994 1044.467V1080h151.72v-35.533h-151.72z"/><path fill="#5c3f37" d="M885.498 1044.467V1080h151.72v-35.533h-151.72z"/><path fill="url(#bX)" d="M1050 1044.467V1080h151.72v-35.533H1050z"/><path fill="url(#bY)" d="M1214.504 1044.467V1080h151.72v-35.533h-151.72z"/><path fill="url(#bZ)" d="M1379.006 1044.467V1080h151.72v-35.533h-151.72z"/><path fill="url(#ca)" d="M1543.51 1044.467V1080h151.72v-35.533h-151.72z"/><path fill="url(#cb)" d="M1708.014 1044.467V1080h151.718v-35.533h-151.718z"/><path fill="url(#cc)" d="M1872.516 1044.467V1080H1921v-35.533h-48.484z"/><g><g fill="#5c3f37"><path d="M1474.33 63.592a26.835 26.835 0 0 0-24.687 26.738 26.835 26.835 0 0 0 26.835 26.835 26.835 26.835 0 0 0 10.198-2.036V89.792h-4.83v15.565c.15 3.34-3.87 5.182-6.44 2.683l-19.323-19.32c-2.943-3.22 0-6.44 2.147-6.44h16.1V63.59zm7.515.447v18.24h8.588c2.09.05 3.59 1.73 3.757 3.756v24.41a26.835 26.835 0 0 0 9.124-20.116 26.835 26.835 0 0 0-21.47-26.29zm-13.954 25.753l6.44 6.44v-6.44h-6.44z"/></g></g></svg>