<svg xmlns="http://www.w3.org/2000/svg" width="1920" height="1080" xmlns:xlink="http://www.w3.org/1999/xlink"><defs><linearGradient id="g"><stop offset="0" stop-color="#253a0d"/><stop offset="1" stop-color="#222b09"/></linearGradient><linearGradient id="f"><stop offset="0" stop-color="#769118"/><stop offset="1" stop-color="#4c6d16"/></linearGradient><linearGradient id="e"><stop offset="0" stop-color="#445a20"/><stop offset="1" stop-color="#445a20" stop-opacity=".439"/></linearGradient><linearGradient id="d"><stop offset="0" stop-color="#f5ff17" stop-opacity=".901"/><stop offset=".625" stop-color="#f5ff17" stop-opacity=".235"/><stop offset="1" stop-color="#f5ff17" stop-opacity="0"/></linearGradient><linearGradient id="c"><stop offset="0" stop-color="#f5ff17" stop-opacity=".901"/><stop offset=".8" stop-color="#f5ff17" stop-opacity=".235"/><stop offset="1" stop-color="#f5ff17" stop-opacity="0"/></linearGradient><linearGradient id="b"><stop offset="0" stop-color="#445a20"/><stop offset="1" stop-color="#254c16"/></linearGradient><radialGradient id="a" cx="390.344" cy="512.362" r="960.5" xlink:href="#b" gradientUnits="userSpaceOnUse" gradientTransform="matrix(1.1251 0 0 .59613 -48.834 206.93)" fx="390.344" fy="512.362"/><clipPath id="ay"><path fill="none" stroke="#000" stroke-width=".636" stroke-miterlimit="10" d="M924.22 606.553c12.55 27.9 40.588 47.324 73.164 47.324s60.614-19.425 73.165-47.324H924.22z"/></clipPath><clipPath id="ax"><path fill="none" stroke="#000" stroke-width=".636" stroke-miterlimit="10" d="M924.22 606.553c12.55 27.9 40.588 47.324 73.164 47.324s60.614-19.425 73.165-47.324H924.22z"/></clipPath><clipPath id="aw"><path fill="none" stroke="#000" stroke-width=".636" stroke-miterlimit="10" d="M924.22 606.553c12.55 27.9 40.588 47.324 73.164 47.324s60.614-19.425 73.165-47.324H924.22z"/></clipPath><clipPath id="av"><path fill="none" stroke="#000" stroke-width=".636" stroke-miterlimit="10" d="M924.22 606.553c12.55 27.9 40.588 47.324 73.164 47.324s60.614-19.425 73.165-47.324H924.22z"/></clipPath><clipPath id="P"><path fill="none" stroke="#000" stroke-width=".636" stroke-miterlimit="10" d="M924.22 606.553c12.55 27.9 40.588 47.324 73.164 47.324s60.614-19.425 73.165-47.324H924.22z"/></clipPath><clipPath id="O"><path fill="none" stroke="#000" stroke-width=".636" stroke-miterlimit="10" d="M924.22 606.553c12.55 27.9 40.588 47.324 73.164 47.324s60.614-19.425 73.165-47.324H924.22z"/></clipPath><clipPath id="E"><path fill="none" stroke="#000" stroke-width=".636" stroke-miterlimit="10" d="M924.22 606.553c12.55 27.9 40.588 47.324 73.164 47.324s60.614-19.425 73.165-47.324H924.22z"/></clipPath><clipPath id="au"><path fill="none" stroke="#000" stroke-width=".636" stroke-miterlimit="10" d="M924.22 606.553c12.55 27.9 40.588 47.324 73.164 47.324s60.614-19.425 73.165-47.324H924.22z"/></clipPath><clipPath id="N"><path fill="none" stroke="#000" stroke-width=".636" stroke-miterlimit="10" d="M924.22 606.553c12.55 27.9 40.588 47.324 73.164 47.324s60.614-19.425 73.165-47.324H924.22z"/></clipPath><clipPath id="at"><path fill="none" stroke="#000" stroke-width=".636" stroke-miterlimit="10" d="M924.22 606.553c12.55 27.9 40.588 47.324 73.164 47.324s60.614-19.425 73.165-47.324H924.22z"/></clipPath><clipPath id="D"><path fill="none" stroke="#000" stroke-width=".636" stroke-miterlimit="10" d="M924.22 606.553c12.55 27.9 40.588 47.324 73.164 47.324s60.614-19.425 73.165-47.324H924.22z"/></clipPath><clipPath id="C"><path fill="none" stroke="#000" stroke-width=".636" stroke-miterlimit="10" d="M924.22 606.553c12.55 27.9 40.588 47.324 73.164 47.324s60.614-19.425 73.165-47.324H924.22z"/></clipPath><clipPath id="B"><path fill="none" stroke="#000" stroke-width=".636" stroke-miterlimit="10" d="M924.22 606.553c12.55 27.9 40.588 47.324 73.164 47.324s60.614-19.425 73.165-47.324H924.22z"/></clipPath><clipPath id="A"><path fill="none" stroke="#000" stroke-width=".636" stroke-miterlimit="10" d="M924.22 606.553c12.55 27.9 40.588 47.324 73.164 47.324s60.614-19.425 73.165-47.324H924.22z"/></clipPath><clipPath id="z"><path fill="none" stroke="#000" stroke-width=".636" stroke-miterlimit="10" d="M924.22 606.553c12.55 27.9 40.588 47.324 73.164 47.324s60.614-19.425 73.165-47.324H924.22z"/></clipPath><clipPath id="y"><path fill="none" stroke="#000" stroke-width=".636" stroke-miterlimit="10" d="M924.22 606.553c12.55 27.9 40.588 47.324 73.164 47.324s60.614-19.425 73.165-47.324H924.22z"/></clipPath><clipPath id="x"><path fill="none" stroke="#000" stroke-width=".636" stroke-miterlimit="10" d="M924.22 606.553c12.55 27.9 40.588 47.324 73.164 47.324s60.614-19.425 73.165-47.324H924.22z"/></clipPath><clipPath id="w"><path fill="none" stroke="#000" stroke-width=".636" stroke-miterlimit="10" d="M924.22 606.553c12.55 27.9 40.588 47.324 73.164 47.324s60.614-19.425 73.165-47.324H924.22z"/></clipPath><clipPath id="v"><path fill="none" stroke="#000" stroke-width=".636" stroke-miterlimit="10" d="M924.22 606.553c12.55 27.9 40.588 47.324 73.164 47.324s60.614-19.425 73.165-47.324H924.22z"/></clipPath><clipPath id="as"><path fill="none" stroke="#000" stroke-width=".636" stroke-miterlimit="10" d="M924.22 606.553c12.55 27.9 40.588 47.324 73.164 47.324s60.614-19.425 73.165-47.324H924.22z"/></clipPath><clipPath id="ar"><path fill="none" stroke="#000" stroke-width=".636" stroke-miterlimit="10" d="M924.22 606.553c12.55 27.9 40.588 47.324 73.164 47.324s60.614-19.425 73.165-47.324H924.22z"/></clipPath><clipPath id="aq"><path fill="none" stroke="#000" stroke-width=".636" stroke-miterlimit="10" d="M924.22 606.553c12.55 27.9 40.588 47.324 73.164 47.324s60.614-19.425 73.165-47.324H924.22z"/></clipPath><clipPath id="ap"><path fill="none" stroke="#000" stroke-width=".636" stroke-miterlimit="10" d="M924.22 606.553c12.55 27.9 40.588 47.324 73.164 47.324s60.614-19.425 73.165-47.324H924.22z"/></clipPath><clipPath id="u"><path fill="none" stroke="#000" stroke-width=".636" stroke-miterlimit="10" d="M924.22 606.553c12.55 27.9 40.588 47.324 73.164 47.324s60.614-19.425 73.165-47.324H924.22z"/></clipPath><clipPath id="t"><path fill="none" stroke="#000" stroke-width=".636" stroke-miterlimit="10" d="M924.22 606.553c12.55 27.9 40.588 47.324 73.164 47.324s60.614-19.425 73.165-47.324H924.22z"/></clipPath><clipPath id="s"><path fill="none" stroke="#000" stroke-width=".636" stroke-miterlimit="10" d="M924.22 606.553c12.55 27.9 40.588 47.324 73.164 47.324s60.614-19.425 73.165-47.324H924.22z"/></clipPath><clipPath id="r"><path fill="none" stroke="#000" stroke-width=".636" stroke-miterlimit="10" d="M924.22 606.553c12.55 27.9 40.588 47.324 73.164 47.324s60.614-19.425 73.165-47.324H924.22z"/></clipPath><clipPath id="q"><path fill="none" stroke="#000" stroke-width=".636" stroke-miterlimit="10" d="M924.22 606.553c12.55 27.9 40.588 47.324 73.164 47.324s60.614-19.425 73.165-47.324H924.22z"/></clipPath><clipPath id="p"><path fill="none" stroke="#000" stroke-width=".636" stroke-miterlimit="10" d="M924.22 606.553c12.55 27.9 40.588 47.324 73.164 47.324s60.614-19.425 73.165-47.324H924.22z"/></clipPath><clipPath id="o"><path fill="none" stroke="#000" stroke-width=".636" stroke-miterlimit="10" d="M924.22 606.553c12.55 27.9 40.588 47.324 73.164 47.324s60.614-19.425 73.165-47.324H924.22z"/></clipPath><clipPath id="Q"><path fill="none" stroke="#000" stroke-width=".636" stroke-miterlimit="10" d="M924.22 606.553c12.55 27.9 40.588 47.324 73.164 47.324s60.614-19.425 73.165-47.324H924.22z"/></clipPath><clipPath id="ao"><path fill="none" stroke="#000" stroke-width=".636" stroke-miterlimit="10" d="M924.22 606.553c12.55 27.9 40.588 47.324 73.164 47.324s60.614-19.425 73.165-47.324H924.22z"/></clipPath><clipPath id="M"><path fill="none" stroke="#000" stroke-width=".636" stroke-miterlimit="10" d="M924.22 606.553c12.55 27.9 40.588 47.324 73.164 47.324s60.614-19.425 73.165-47.324H924.22z"/></clipPath><clipPath id="an"><path fill="none" stroke="#000" stroke-width=".636" stroke-miterlimit="10" d="M924.22 606.553c12.55 27.9 40.588 47.324 73.164 47.324s60.614-19.425 73.165-47.324H924.22z"/></clipPath><clipPath id="am"><path fill="none" stroke="#000" stroke-width=".636" stroke-miterlimit="10" d="M924.22 606.553c12.55 27.9 40.588 47.324 73.164 47.324s60.614-19.425 73.165-47.324H924.22z"/></clipPath><clipPath id="al"><path fill="none" stroke="#000" stroke-width=".636" stroke-miterlimit="10" d="M924.22 606.553c12.55 27.9 40.588 47.324 73.164 47.324s60.614-19.425 73.165-47.324H924.22z"/></clipPath><clipPath id="ak"><path fill="none" stroke="#000" stroke-width=".636" stroke-miterlimit="10" d="M924.22 606.553c12.55 27.9 40.588 47.324 73.164 47.324s60.614-19.425 73.165-47.324H924.22z"/></clipPath><clipPath id="aj"><path fill="none" stroke="#000" stroke-width=".636" stroke-miterlimit="10" d="M924.22 606.553c12.55 27.9 40.588 47.324 73.164 47.324s60.614-19.425 73.165-47.324H924.22z"/></clipPath><clipPath id="ai"><path fill="none" stroke="#000" stroke-width=".636" stroke-miterlimit="10" d="M924.22 606.553c12.55 27.9 40.588 47.324 73.164 47.324s60.614-19.425 73.165-47.324H924.22z"/></clipPath><clipPath id="ah"><path fill="none" stroke="#000" stroke-width=".636" stroke-miterlimit="10" d="M924.22 606.553c12.55 27.9 40.588 47.324 73.164 47.324s60.614-19.425 73.165-47.324H924.22z"/></clipPath><clipPath id="ag"><path fill="none" stroke="#000" stroke-width=".636" stroke-miterlimit="10" d="M924.22 606.553c12.55 27.9 40.588 47.324 73.164 47.324s60.614-19.425 73.165-47.324H924.22z"/></clipPath><clipPath id="af"><path fill="none" stroke="#000" stroke-width=".636" stroke-miterlimit="10" d="M924.22 606.553c12.55 27.9 40.588 47.324 73.164 47.324s60.614-19.425 73.165-47.324H924.22z"/></clipPath><clipPath id="ae"><path fill="none" stroke="#000" stroke-width=".636" stroke-miterlimit="10" d="M924.22 606.553c12.55 27.9 40.588 47.324 73.164 47.324s60.614-19.425 73.165-47.324H924.22z"/></clipPath><clipPath id="ad"><path fill="none" stroke="#000" stroke-width=".636" stroke-miterlimit="10" d="M924.22 606.553c12.55 27.9 40.588 47.324 73.164 47.324s60.614-19.425 73.165-47.324H924.22z"/></clipPath><clipPath id="ac"><path fill="none" stroke="#000" stroke-width=".636" stroke-miterlimit="10" d="M924.22 606.553c12.55 27.9 40.588 47.324 73.164 47.324s60.614-19.425 73.165-47.324H924.22z"/></clipPath><clipPath id="ab"><path fill="none" stroke="#000" stroke-width=".636" stroke-miterlimit="10" d="M924.22 606.553c12.55 27.9 40.588 47.324 73.164 47.324s60.614-19.425 73.165-47.324H924.22z"/></clipPath><clipPath id="n"><path fill="none" stroke="#000" stroke-width=".636" stroke-miterlimit="10" d="M924.22 606.553c12.55 27.9 40.588 47.324 73.164 47.324s60.614-19.425 73.165-47.324H924.22z"/></clipPath><clipPath id="aa"><path fill="none" stroke="#000" stroke-width=".636" stroke-miterlimit="10" d="M924.22 606.553c12.55 27.9 40.588 47.324 73.164 47.324s60.614-19.425 73.165-47.324H924.22z"/></clipPath><clipPath id="L"><path fill="none" stroke="#000" stroke-width=".636" stroke-miterlimit="10" d="M924.22 606.553c12.55 27.9 40.588 47.324 73.164 47.324s60.614-19.425 73.165-47.324H924.22z"/></clipPath><clipPath id="K"><path fill="none" stroke="#000" stroke-width=".636" stroke-miterlimit="10" d="M924.22 606.553c12.55 27.9 40.588 47.324 73.164 47.324s60.614-19.425 73.165-47.324H924.22z"/></clipPath><clipPath id="Z"><path fill="none" stroke="#000" stroke-width=".636" stroke-miterlimit="10" d="M924.22 606.553c12.55 27.9 40.588 47.324 73.164 47.324s60.614-19.425 73.165-47.324H924.22z"/></clipPath><clipPath id="Y"><path fill="none" stroke="#000" stroke-width=".636" stroke-miterlimit="10" d="M924.22 606.553c12.55 27.9 40.588 47.324 73.164 47.324s60.614-19.425 73.165-47.324H924.22z"/></clipPath><clipPath id="X"><path fill="none" stroke="#000" stroke-width=".636" stroke-miterlimit="10" d="M924.22 606.553c12.55 27.9 40.588 47.324 73.164 47.324s60.614-19.425 73.165-47.324H924.22z"/></clipPath><clipPath id="W"><path fill="none" stroke="#000" stroke-width=".636" stroke-miterlimit="10" d="M924.22 606.553c12.55 27.9 40.588 47.324 73.164 47.324s60.614-19.425 73.165-47.324H924.22z"/></clipPath><clipPath id="V"><path fill="none" stroke="#000" stroke-width=".636" stroke-miterlimit="10" d="M924.22 606.553c12.55 27.9 40.588 47.324 73.164 47.324s60.614-19.425 73.165-47.324H924.22z"/></clipPath><clipPath id="U"><path fill="none" stroke="#000" stroke-width=".636" stroke-miterlimit="10" d="M924.22 606.553c12.55 27.9 40.588 47.324 73.164 47.324s60.614-19.425 73.165-47.324H924.22z"/></clipPath><clipPath id="T"><path fill="none" stroke="#000" stroke-width=".636" stroke-miterlimit="10" d="M924.22 606.553c12.55 27.9 40.588 47.324 73.164 47.324s60.614-19.425 73.165-47.324H924.22z"/></clipPath><clipPath id="S"><path fill="none" stroke="#000" stroke-width=".636" stroke-miterlimit="10" d="M924.22 606.553c12.55 27.9 40.588 47.324 73.164 47.324s60.614-19.425 73.165-47.324H924.22z"/></clipPath><clipPath id="R"><path fill="none" stroke="#000" stroke-width=".636" stroke-miterlimit="10" d="M924.22 606.553c12.55 27.9 40.588 47.324 73.164 47.324s60.614-19.425 73.165-47.324H924.22z"/></clipPath><clipPath id="I"><path fill="none" stroke="#000" stroke-width=".636" stroke-miterlimit="10" d="M924.22 606.553c12.55 27.9 40.588 47.324 73.164 47.324s60.614-19.425 73.165-47.324H924.22z"/></clipPath><clipPath id="H"><path fill="none" stroke="#000" stroke-width=".636" stroke-miterlimit="10" d="M924.22 606.553c12.55 27.9 40.588 47.324 73.164 47.324s60.614-19.425 73.165-47.324H924.22z"/></clipPath><clipPath id="G"><path fill="none" stroke="#000" stroke-width=".636" stroke-miterlimit="10" d="M924.22 606.553c12.55 27.9 40.588 47.324 73.164 47.324s60.614-19.425 73.165-47.324H924.22z"/></clipPath><clipPath id="F"><path fill="none" stroke="#000" stroke-width=".636" stroke-miterlimit="10" d="M924.22 606.553c12.55 27.9 40.588 47.324 73.164 47.324s60.614-19.425 73.165-47.324H924.22z"/></clipPath><clipPath id="bM"><path fill="#c3c4ca" d="M-59.36-27.607c10.04-22.32 32.47-37.86 58.532-37.86 26.06 0 48.49 15.54 58.532 37.86H-59.36z"/></clipPath><clipPath id="bL"><path fill="#c3c4ca" d="M-57.896 11.225c10.04-22.32 32.47-37.86 58.532-37.86 26.06 0 48.49 15.54 58.532 37.86H-57.896z"/></clipPath><clipPath id="bK"><path fill="#c3c4ca" d="M-57.194 26.507c10.04-22.32 32.47-37.86 58.532-37.86 26.06 0 48.49 15.54 58.532 37.86H-57.194z"/></clipPath><clipPath id="bJ"><path fill="#c3c4ca" d="M-55.504-21.023c10.04-22.32 32.47-37.86 58.532-37.86 26.06 0 48.49 15.54 58.532 37.86H-55.504z"/></clipPath><clipPath id="bd"><path fill="#c3c4ca" d="M-55.503 41.117c10.04-22.32 32.47-37.86 58.532-37.86 26.06 0 48.49 15.54 58.53 37.86H-55.502z"/></clipPath><clipPath id="bc"><path fill="#c3c4ca" d="M-87.712-6.01c10.04-22.32 32.47-37.86 58.532-37.86 26.06 0 48.49 15.54 58.532 37.86H-87.712z"/></clipPath><clipPath id="aQ"><path fill="#c3c4ca" d="M-59.97-26.79C-49.93-49.107-27.5-64.647-1.438-64.647c26.06 0 48.49 15.54 58.532 37.86H-59.97z"/></clipPath><clipPath id="bI"><path fill="#c3c4ca" d="M-58.567 10.115c10.04-22.32 32.47-37.86 58.532-37.86 26.06 0 48.49 15.54 58.532 37.86H-58.567z"/></clipPath><clipPath id="bb"><path fill="#c3c4ca" d="M-92.7-1.413c10.04-22.32 32.47-37.86 58.532-37.86 26.06 0 48.49 15.54 58.532 37.86H-92.7z"/></clipPath><clipPath id="bH"><path fill="#c3c4ca" d="M-58.567 2.037c10.04-22.32 32.47-37.86 58.532-37.86 26.06 0 48.49 15.54 58.532 37.86H-58.567z"/></clipPath><clipPath id="aP"><path fill="#c3c4ca" d="M-91.43-5.436c10.042-22.32 32.472-37.86 58.533-37.86 26.06 0 48.49 15.54 58.532 37.86H-91.43z"/></clipPath><clipPath id="aO"><path fill="#c3c4ca" d="M-58.163-2.958c10.04-22.32 32.47-37.86 58.532-37.86 26.06 0 48.49 15.54 58.53 37.86H-58.162z"/></clipPath><clipPath id="aN"><path fill="#c3c4ca" d="M-57.89-6.612c10.042-22.32 32.472-37.86 58.533-37.86 26.06 0 48.49 15.54 58.532 37.86H-57.89z"/></clipPath><clipPath id="aM"><path fill="#c3c4ca" d="M-57.388-11.7c10.04-22.318 32.47-37.858 58.532-37.858 26.06 0 48.49 15.54 58.532 37.86H-57.388z"/></clipPath><clipPath id="aL"><path fill="#c3c4ca" d="M-82.838-17.34c10.04-22.32 32.47-37.86 58.532-37.86 26.06 0 48.49 15.54 58.532 37.86H-82.838z"/></clipPath><clipPath id="aK"><path fill="#c3c4ca" d="M-77.96-21.054c10.04-22.32 32.47-37.86 58.532-37.86 26.06 0 48.49 15.54 58.532 37.86H-77.96z"/></clipPath><clipPath id="aJ"><path fill="#c3c4ca" d="M-88.605-10.46c10.04-22.318 32.47-37.858 58.532-37.858 26.06 0 48.49 15.54 58.532 37.86H-88.606z"/></clipPath><clipPath id="aI"><path fill="#c3c4ca" d="M-72.092-24.243c10.04-22.32 32.47-37.86 58.532-37.86 26.06 0 48.49 15.54 58.532 37.86H-72.092z"/></clipPath><clipPath id="aH"><path fill="#c3c4ca" d="M-50.802-25.46c10.04-22.318 32.47-37.858 58.532-37.858 26.06 0 48.49 15.54 58.532 37.86H-50.802z"/></clipPath><clipPath id="bG"><path fill="#c3c4ca" d="M-24.593 7.09c10.04-22.32 32.47-37.86 58.532-37.86 26.06 0 48.49 15.54 58.53 37.86H-24.592z"/></clipPath><clipPath id="bF"><path fill="#c3c4ca" d="M-52.537 7.766c10.04-22.32 32.47-37.86 58.532-37.86 26.06 0 48.49 15.54 58.532 37.86H-52.537z"/></clipPath><clipPath id="bE"><path fill="#c3c4ca" d="M-25.515.536c10.04-22.32 32.47-37.86 58.532-37.86 26.06 0 48.49 15.54 58.532 37.86H-25.516z"/></clipPath><clipPath id="bD"><path fill="#c3c4ca" d="M-52.537 1.787c10.04-22.32 32.47-37.86 58.532-37.86 26.06 0 48.49 15.54 58.532 37.86H-52.537z"/></clipPath><clipPath id="aG"><path fill="#c3c4ca" d="M-27.912-5.226c10.04-22.32 32.47-37.86 58.532-37.86 26.06 0 48.49 15.54 58.532 37.86H-27.912z"/></clipPath><clipPath id="aF"><path fill="#c3c4ca" d="M-52.848-3.215c10.04-22.32 32.47-37.86 58.532-37.86 26.06 0 48.49 15.54 58.532 37.86H-52.848z"/></clipPath><clipPath id="aE"><path fill="#c3c4ca" d="M-53.046-7.34c10.04-22.318 32.47-37.858 58.532-37.858 26.06 0 48.49 15.54 58.532 37.86H-53.046z"/></clipPath><clipPath id="aD"><path fill="#c3c4ca" d="M-53.452-12.434c10.04-22.32 32.47-37.86 58.532-37.86 26.06 0 48.49 15.54 58.532 37.86H-53.452z"/></clipPath><clipPath id="aC"><path fill="#c3c4ca" d="M-37.41-19.646c10.04-22.32 32.47-37.86 58.532-37.86 26.06 0 48.49 15.54 58.532 37.86H-37.41z"/></clipPath><clipPath id="aB"><path fill="#c3c4ca" d="M-31.938-12.178c10.04-22.32 32.47-37.86 58.532-37.86 26.06 0 48.49 15.54 58.532 37.86H-31.938z"/></clipPath><clipPath id="aA"><path fill="#c3c4ca" d="M-46.8-23.96c10.042-22.32 32.472-37.86 58.533-37.86 26.06 0 48.49 15.54 58.532 37.86H-46.8z"/></clipPath><clipPath id="bC"><path fill="#c3c4ca" d="M-57.474 36.994c10.04-22.32 32.47-37.86 58.532-37.86 26.06 0 48.49 15.54 58.532 37.86H-57.474z"/></clipPath><clipPath id="bB"><path fill="#c3c4ca" d="M-57.94 32.51C-47.9 10.19-25.47-5.35.592-5.35c26.06 0 48.49 15.54 58.532 37.86H-57.94z"/></clipPath><clipPath id="ba"><path fill="#c3c4ca" d="M-65.485 43.968c10.04-22.32 32.47-37.86 58.532-37.86 26.06 0 48.49 15.54 58.532 37.86H-65.486z"/></clipPath><clipPath id="bA"><path fill="#c3c4ca" d="M-70.354 13.254c10.04-22.32 32.47-37.86 58.532-37.86 26.06 0 48.49 15.54 58.532 37.86H-70.354z"/></clipPath><clipPath id="bz"><path fill="#c3c4ca" d="M-92.494 12.962c10.04-22.32 32.47-37.86 58.532-37.86 26.06 0 48.49 15.54 58.532 37.86H-92.494z"/></clipPath><clipPath id="by"><path fill="#c3c4ca" d="M-92.86 20.336c10.042-22.32 32.472-37.86 58.533-37.86 26.06 0 48.49 15.54 58.532 37.86H-92.86z"/></clipPath><clipPath id="bx"><path fill="#c3c4ca" d="M-63.774 16.715c10.04-22.32 32.47-37.86 58.532-37.86 26.06 0 48.49 15.54 58.532 37.86H-63.774z"/></clipPath><clipPath id="bw"><path fill="#c3c4ca" d="M-90.034 24.386c10.04-22.32 32.47-37.86 58.532-37.86 26.06 0 48.49 15.54 58.532 37.86H-90.034z"/></clipPath><clipPath id="bv"><path fill="#c3c4ca" d="M-59.065 21.85C-49.025-.47-26.595-16.01-.533-16.01c26.06 0 48.49 15.54 58.532 37.86H-59.066z"/></clipPath><clipPath id="bu"><path fill="#c3c4ca" d="M-59.023 18.957c10.04-22.32 32.47-37.86 58.532-37.86 26.06 0 48.49 15.54 58.53 37.86H-59.022z"/></clipPath><clipPath id="bt"><path fill="#c3c4ca" d="M-58.94 24.91C-48.9 2.59-26.47-12.95-.41-12.95c26.062 0 48.492 15.54 58.533 37.86H-58.94z"/></clipPath><clipPath id="bs"><path fill="#c3c4ca" d="M-58.237 27.326c10.04-22.32 32.47-37.86 58.532-37.86 26.06 0 48.49 15.54 58.532 37.86H-58.237z"/></clipPath><clipPath id="br"><path fill="#c3c4ca" d="M-78.44 38.787C-68.4 16.467-45.97.927-19.908.927c26.06 0 48.49 15.54 58.532 37.86H-78.44z"/></clipPath><clipPath id="bq"><path fill="#c3c4ca" d="M-81.025 36.77c10.04-22.318 32.47-37.858 58.532-37.858 26.06 0 48.49 15.54 58.532 37.86H-81.026z"/></clipPath><clipPath id="bp"><path fill="#c3c4ca" d="M-86.94 28.424c10.042-22.32 32.472-37.86 58.533-37.86 26.06 0 48.49 15.54 58.532 37.86H-86.94z"/></clipPath><clipPath id="bo"><path fill="#c3c4ca" d="M-85.424 32.363c10.04-22.32 32.47-37.86 58.532-37.86 26.06 0 48.49 15.54 58.532 37.86H-85.424z"/></clipPath><clipPath id="az"><path fill="#c3c4ca" d="M-62.076 43.908c10.04-22.32 32.47-37.86 58.532-37.86 26.06 0 48.49 15.54 58.532 37.86H-62.076z"/></clipPath><clipPath id="bn"><path fill="#c3c4ca" d="M-71.193 42.496c10.04-22.32 32.47-37.86 58.532-37.86 26.06 0 48.49 15.54 58.53 37.86H-71.192z"/></clipPath><clipPath id="aZ"><path fill="#c3c4ca" d="M-55.855 30.175c10.04-22.32 32.47-37.86 58.532-37.86 26.06 0 48.49 15.54 58.532 37.86H-55.856z"/></clipPath><clipPath id="aY"><path fill="#c3c4ca" d="M-50.802 43.99C-40.762 21.673-18.332 6.133 7.73 6.133c26.06 0 48.49 15.54 58.532 37.86H-50.802z"/></clipPath><clipPath id="bm"><path fill="#c3c4ca" d="M-25.567 18.087c10.04-22.32 32.47-37.86 58.532-37.86 26.06 0 48.49 15.54 58.532 37.86H-25.567z"/></clipPath><clipPath id="bl"><path fill="#c3c4ca" d="M-52.07 16.745c10.04-22.32 32.47-37.86 58.53-37.86 26.062 0 48.492 15.54 58.533 37.86H-52.07z"/></clipPath><clipPath id="bk"><path fill="#c3c4ca" d="M-27.912 23.758c10.04-22.32 32.47-37.86 58.532-37.86 26.06 0 48.49 15.54 58.532 37.86H-27.912z"/></clipPath><clipPath id="bj"><path fill="#c3c4ca" d="M-52.382 21.747c10.04-22.32 32.47-37.86 58.532-37.86 26.06 0 48.49 15.54 58.532 37.86H-52.382z"/></clipPath><clipPath id="bi"><path fill="#c3c4ca" d="M-52.157 25.725c10.04-22.32 32.47-37.86 58.532-37.86 26.06 0 48.49 15.54 58.532 37.86H-52.157z"/></clipPath><clipPath id="bh"><path fill="#c3c4ca" d="M-52.986 30.967c10.04-22.32 32.47-37.86 58.532-37.86 26.06 0 48.49 15.54 58.532 37.86H-52.986z"/></clipPath><clipPath id="bg"><path fill="#c3c4ca" d="M-38.342 37.713c10.04-22.32 32.47-37.86 58.532-37.86 26.06 0 48.49 15.54 58.532 37.86H-38.342z"/></clipPath><clipPath id="bf"><path fill="#c3c4ca" d="M-31.938 30.71C-21.898 8.39.532-7.15 26.594-7.15c26.06 0 48.49 15.54 58.532 37.86H-31.938z"/></clipPath><clipPath id="be"><path fill="#c3c4ca" d="M-46.8 42.493c10.042-22.32 32.472-37.86 58.533-37.86 26.06 0 48.49 15.54 58.532 37.86H-46.8z"/></clipPath><clipPath id="aV"><path fill="#c3c4ca" d="M-59.36 43.832c10.04-22.32 32.47-37.86 58.532-37.86 26.06 0 48.49 15.54 58.532 37.86H-59.36z"/></clipPath><clipPath id="aU"><path fill="#c3c4ca" d="M-95.744 8.778c10.04-22.32 32.47-37.86 58.532-37.86 26.06 0 48.49 15.54 58.532 37.86H-95.744z"/></clipPath><clipPath id="aT"><path fill="#c3c4ca" d="M-95.744 8.778c10.04-22.32 32.47-37.86 58.532-37.86 26.06 0 48.49 15.54 58.532 37.86H-95.744z"/></clipPath><clipPath id="aS"><path fill="#c3c4ca" d="M-4.94-.843c10.042-22.32 32.472-37.86 58.533-37.86 26.06 0 48.49 15.54 58.532 37.86H-4.94z"/></clipPath><clipPath id="aR"><path fill="#c3c4ca" d="M757.556 606.553c12.55 27.9 40.588 47.324 73.165 47.324 32.577 0 60.614-19.425 73.166-47.324h-146.33z"/></clipPath><radialGradient id="l" cx="960.5" cy="512.362" r="959.5" xlink:href="#c" gradientUnits="userSpaceOnUse" gradientTransform="matrix(.29025 0 0 .8244 681.217 117.614)" spreadMethod="pad" fx="960.5" fy="512.362"/><radialGradient id="m" cx="960.5" cy="512.362" r="959.5" xlink:href="#c" gradientUnits="userSpaceOnUse" gradientTransform="matrix(.65607 0 0 .8244 329.847 117.614)" spreadMethod="pad" fx="960.5" fy="512.362"/><linearGradient id="k" x1="1012.01" x2="1920" y1="512.362" y2="512.362" xlink:href="#d" gradientUnits="userSpaceOnUse" spreadMethod="reflect" gradientTransform="translate(-.5 27.638)"/><linearGradient id="i" x1="1917.693" x2="534.578" y1="-46.433" y2="-46.433" xlink:href="#e" gradientUnits="userSpaceOnUse" spreadMethod="reflect" gradientTransform="translate(.5 124.038)"/><linearGradient id="j" x1="1917.693" x2="534.578" y1="-46.433" y2="-46.433" xlink:href="#b" gradientUnits="userSpaceOnUse" spreadMethod="reflect" gradientTransform="translate(.5 124.038)"/><radialGradient id="J" cx="996.055" cy="632.628" r="43.118" xlink:href="#f" fx="996.055" fy="632.628" gradientTransform="matrix(1 0 0 .49282 0 320.855)" gradientUnits="userSpaceOnUse"/><radialGradient id="aW" cx="-1.891" cy="22.972" r="34.494" xlink:href="#f" fx="-1.891" fy="22.972" gradientTransform="matrix(1 0 0 .49282 0 11.65)" gradientUnits="userSpaceOnUse"/><radialGradient id="aX" cx="-1.891" cy="22.972" r="34.494" xlink:href="#f" gradientUnits="userSpaceOnUse" gradientTransform="matrix(1 0 0 .49282 0 11.65)" fx="-1.891" fy="22.972"/><radialGradient id="h" cx="960" cy="540" r="960" xlink:href="#g" fx="960" fy="540" gradientTransform="matrix(1 0 0 .5625 0 236.25)" gradientUnits="userSpaceOnUse"/></defs><path fill="url(#h)" d="M0 0h1920v1080H0z"/><text x="810.353" y="799.983" style="line-height:125%" font-size="40" font-family="sans-serif" letter-spacing="0" word-spacing="0"/><path fill="#5b5b5f" d="M1001.815 661.44l1.555.11-2.467-7.636.912 7.525z" clip-path="url(#n)" transform="translate(0 27.638)"/><path fill="#4e4e4e" d="M982.717 576.602l-2.24 1.866 7.42 7.795-5.18-9.66z" clip-path="url(#o)" transform="translate(0 27.638)"/><path fill="#4e4e4e" d="M964.14 591.33l-.478.29c-.166.345-.888.76-1.006 1.125l-.234.727 15.978 3.25-14.26-5.39z" clip-path="url(#p)" transform="translate(0 27.638)"/><path fill="#4e4e4e" d="M970.982 581.995l-1.376 2.352 11.95 7.017-10.574-9.37z" clip-path="url(#q)" transform="translate(0 27.638)"/><path fill="#4e4e4e" d="M991.034 591.01l-.445 3.017-11.414-10.693 11.858 7.676z" clip-path="url(#r)" transform="translate(0 27.638)"/><path fill="#4e4e4e" d="M990.526 597.38l-.34 3.228-13.176-8.602 13.516 5.374z" clip-path="url(#s)" transform="translate(0 27.638)"/><path fill="#4e4e4e" d="M990.28 602.534l-.148 2.707-17.665-6.602 17.812 3.896z" clip-path="url(#t)" transform="translate(0 27.638)"/><path fill="#4e4e4e" d="M959.11 600.02l-.91 1.966 18.662 3.23-17.753-5.195z" clip-path="url(#u)" transform="translate(0 27.638)"/><path fill="#4e4e4e" d="M987.722 574.73l-1.495 1.218 3.78 6.84-2.285-8.058z" clip-path="url(#v)" transform="translate(0 27.638)"/><path fill="#4e4e4e" d="M1014.335 576.25l1.79 1.136-8.91 7.198 7.12-8.335z" clip-path="url(#w)" transform="translate(0 27.638)"/><path fill="#4e4e4e" d="M1034.975 593.48l.484.28c.173.34.903.743 1.027 1.106l.247.723-15.915 3.544 14.155-5.654z" clip-path="url(#x)" transform="translate(0 27.638)"/><path fill="#4e4e4e" d="M1021.67 580.236l2 1.16-12.397 8.402 10.397-9.562z" clip-path="url(#y)" transform="translate(0 27.638)"/><path fill="#4e4e4e" d="M1027.767 584.877l1.372 1.755-16.492 11.242 15.12-12.997z" clip-path="url(#z)" transform="translate(0 27.638)"/><path fill="#4e4e4e" d="M995.954 591.93l-.663 2.425 10.987-7.008-10.323 4.583z" clip-path="url(#A)" transform="translate(0 27.638)"/><path fill="#4e4e4e" d="M996.58 598.29l.4 2.055 7.888-4.382-8.288 2.326z" clip-path="url(#B)" transform="translate(0 27.638)"/><path fill="#4e4e4e" d="M996.923 602.855l.197 2.703 14.584-4.763-14.78 2.06z" clip-path="url(#C)" transform="translate(0 27.638)"/><path fill="#4e4e4e" d="M1038.505 599.76l.947 1.947-18.6 3.575 17.654-5.523z" clip-path="url(#D)" transform="translate(0 27.638)"/><path fill="#4e4e4e" d="M999.18 573.068l2.476.363-4.076 12.833 1.6-13.195z" clip-path="url(#E)" transform="translate(0 27.638)"/><path fill="#fff" d="M924.393 605.5c12.55 27.9 28.963 48.074 70.54 49.95 32.543 1.466 69.238-22.05 81.79-49.95z" transform="rotate(-3.877 3665.97 5940.858)" clip-path="url(#F)"/><path fill="#bc0923" d="M1043.9 617.525c0 25.12-20.363 45.482-45.48 45.482-25.12 0-45.483-20.363-45.483-45.482" transform="rotate(-3.877 3665.97 5940.858)" clip-path="url(#G)"/><path fill="#3f6217" d="M1043.9 617.525c0 25.12-20.363 45.482-45.48 45.482-25.12 0-45.483-20.363-45.483-45.482 0-25.118 20.363-45.48 45.482-45.48 25.117 0 45.48 20.362 45.48 45.48" transform="rotate(-3.877 3665.97 5940.858)" clip-path="url(#H)"/><path fill="url(#J)" d="M998.42 661.343c-24.49 1.664-45.482-19.87-45.482-45.48l.608 1.632c2.08 5.58 7.594 9.115 13.533 8.675l13.19-.976 28.806 4.634s4.358-13.38 29.235-18.448c1.87-.38 4.735 46.932-39.89 49.963" transform="rotate(-3.877 3665.97 5940.858)" clip-path="url(#I)"/><path fill="#5b5b5f" d="M987.722 661.542l-1.495-1.218 3.78-6.84-2.285 8.058z" transform="rotate(-3.877 3665.97 5940.858)" clip-path="url(#K)"/><path fill="#5b5b5f" d="M994.038 644.273l-2.722-.127-.662 13.842 3.384-13.715z" transform="rotate(-3.877 3665.97 5940.858)" clip-path="url(#L)"/><path fill="#5b5b5f" d="M1006.076 661.513l1.594-1.083-3.175-7.142 1.58 8.225z" transform="rotate(-3.877 3665.97 5940.858)" clip-path="url(#M)"/><path fill="#4e4e4e" d="M1040.094 604.787l.58 2.545-17.016-.313 16.436-2.233z" transform="rotate(-3.877 3665.97 5940.858)" clip-path="url(#N)"/><path fill="#eceef0" d="M1033.86 599.04s.184 2.855.488 6.047c0 0-2.886-7.894-3.256-1.69-.37 6.202-2.113.272-6.74-.204-4.625-.475-.837.91-.36 4.72 0 0-.908-3.37-4.698-2.886-3.79.482.4.29.407 5.126.01 4.835-.182-4.6-6.43-4.4 0 0 3.9 9.436-.456 18.775 0 0 2.49-1.643 4.537-7.524 2.048-5.88 3.408-5.004 1.334 4.49 0 0 5.16 2.96 5.793-2.687.63-5.65 1.482-2.077 1.073-.25-.408 1.83 2.122-.64 4.533.537 2.412 1.176.96 5.884.96 5.884s3.85-8.76 1.746-15.684c-2.102-6.924 3.43-1.72.103 12.618-3.328 14.337.566.02 2.71-.853 2.145-.873 3.666-1.602 3.666-1.602s-.147-11.92-5.41-20.42" transform="rotate(-3.877 3665.97 5940.858)" clip-path="url(#O)"/><path d="M993.6 657.95c-.864 0-2.307 0-3.455-11.78-.694-7.116-1.075-16.57-1.075-26.622 0-10.05.38-19.505 1.075-26.62 1.148-11.78 2.59-11.78 3.454-11.78.86 0 2.305 0 3.453 11.78.693 7.115 1.075 16.57 1.075 26.62s-.382 19.505-1.075 26.62c-1.148 11.78-2.592 11.78-3.454 11.78" transform="rotate(-3.877 3665.97 5940.858)" clip-path="url(#P)"/><g fill="#ecf200" fill-opacity=".439"><path d="M996.062 652.796l.336-3.476 3.535 9.187-3.87-5.71z" clip-path="url(#Q)" transform="rotate(-3.877 3665.97 5940.858)"/><path d="M982.717 659.67l-2.24-1.867 7.42-7.795-5.18 9.662z" clip-path="url(#R)" transform="rotate(-3.877 3665.97 5940.858)"/><path d="M964.14 644.94l-.478-.288c-.166-.345-.888-.76-1.006-1.125l-.234-.726 15.978-3.25-14.26 5.39z" clip-path="url(#S)" transform="rotate(-3.877 3665.97 5940.858)"/><path d="M972.147 653.694l-1.376-2.35 11.95-7.02-10.573 9.37z" clip-path="url(#T)" transform="rotate(-3.877 3665.97 5940.858)"/><path d="M990.452 645.26l-.445-3.015-11.413 10.693 11.858-7.677z" clip-path="url(#U)" transform="rotate(-3.877 3665.97 5940.858)"/><path d="M989.415 638.71l.19-3.046-13.177 8.602 12.987-5.557z" clip-path="url(#V)" transform="rotate(-3.877 3665.97 5940.858)"/><path d="M989.697 633.737l-.147-2.706-17.665 6.604 17.812-3.897z" clip-path="url(#W)" transform="rotate(-3.877 3665.97 5940.858)"/><path d="M959.11 636.25l-.91-1.964 18.662-3.23-17.753 5.195z" clip-path="url(#X)" transform="rotate(-3.877 3665.97 5940.858)"/><path d="M989.308 627.485l.26-2.932-16.74 4.298 16.48-1.365z" clip-path="url(#Y)" transform="rotate(-3.877 3665.97 5940.858)"/><path d="M956.178 629.162l-.856-2.816 17.265.775-16.41 2.042z" clip-path="url(#Z)" transform="rotate(-3.877 3665.97 5940.858)"/><path d="M1013.21 659.674l2.058-2.068-10.094-9.006 8.037 11.074z" clip-path="url(#aa)" transform="rotate(-3.877 3665.97 5940.858)"/><path d="M1031 647.007l.5-.246c.197-.328.952-.68 1.1-1.033l.297-.705-15.64-4.614 13.742 6.6z" clip-path="url(#ab)" transform="rotate(-3.877 3665.97 5940.858)"/><path d="M1032.893 642.083l.502-.247c.196-.328.95-.68 1.1-1.033l.296-.705-9.33-2.464 7.433 4.45z" clip-path="url(#ac)" transform="rotate(-3.877 3665.97 5940.858)"/><path d="M1025.5 652.517l.524-.194c.23-.307 1.017-.58 1.2-.916l.367-.67-9.03-3.406 6.94 5.187z" clip-path="url(#ad)" transform="rotate(-3.877 3665.97 5940.858)"/><path d="M1022.27 655.038l1.573-2.224-11.3-8.02 9.726 10.244z" clip-path="url(#ae)" transform="rotate(-3.877 3665.97 5940.858)"/><path d="M997.016 640.71l.296-2.356 11.84 7.94-12.136-5.583z" clip-path="url(#af)" transform="rotate(-3.877 3665.97 5940.858)"/><path d="M997.896 637.69l.074-2.466 9.728 5.49-9.802-3.023z" clip-path="url(#ag)" transform="rotate(-3.877 3665.97 5940.858)"/><path d="M997.998 630.25l-.353-1.4 9.496 2.18-9.142-.78z" clip-path="url(#ah)" transform="rotate(-3.877 3665.97 5940.858)"/><path d="M998.05 633.865l.53-2.226 18.436 4.184-18.965-1.96z" clip-path="url(#ai)" transform="rotate(-3.877 3665.97 5940.858)"/><path d="M1036.762 637.036l.494-1.88-18.898-2.496 18.404 4.376z" clip-path="url(#aj)" transform="rotate(-3.877 3665.97 5940.858)"/><path d="M1003.937 627.446l-.01-2.942 16.307 4.56-16.3-1.618z" clip-path="url(#ak)" transform="rotate(-3.877 3665.97 5940.858)"/><path d="M1040.293 631.973l1.097-2.73-17.27-.718 16.173 3.448z" clip-path="url(#al)" transform="rotate(-3.877 3665.97 5940.858)"/><path d="M1039.836 622.756v-2.21l-7.08.605 7.08 1.606z" clip-path="url(#am)" transform="rotate(-3.877 3665.97 5940.858)"/><path d="M1012.16 623.12l20.006.85-19.473-2.996-.532 2.147z" clip-path="url(#an)" transform="rotate(-3.877 3665.97 5940.858)"/><path d="M996.644 647.19l.336-2.893 5.283 8.605-5.62-5.71z" clip-path="url(#ao)" transform="rotate(-3.877 3665.97 5940.858)"/><path d="M989.89 608.787l.262 2.93-16.74-4.296 16.478 1.367z" clip-path="url(#ap)" transform="rotate(-3.877 3665.97 5940.858)"/><path d="M956.112 607.224l-.533 2.555 17.007-.63-16.475-1.926z" clip-path="url(#aq)" transform="rotate(-3.877 3665.97 5940.858)"/><path d="M989.89 616.26l.262 2.932-16.74-4.298 16.478 1.366z" clip-path="url(#ar)" transform="rotate(-3.877 3665.97 5940.858)"/><path d="M954.96 615.414l-.09 1.985 17.718-.776-17.628-1.21z" clip-path="url(#as)" transform="rotate(-3.877 3665.97 5940.858)"/><path d="M997.428 609.1l-.207 2.936 16.66-4.608-16.452 1.672z" clip-path="url(#at)" transform="rotate(-3.877 3665.97 5940.858)"/><path d="M997.428 619.197l-.207 2.936 16.66-4.607-16.452 1.67z" clip-path="url(#au)" transform="rotate(-3.877 3665.97 5940.858)"/><path d="M993.6 580.274c-2.62 0-3.512 4.232-4.325 12.57-.695 7.14-1.08 16.626-1.08 26.705 0 10.078.385 19.56 1.08 26.704.344 3.52.746 6.3 1.2 8.265.345 1.503.99 4.303 3.124 4.303 2.62 0 3.51-4.233 4.32-12.57.698-7.142 1.08-16.625 1.08-26.704 0-10.08-.382-19.565-1.08-26.707-.34-3.522-.744-6.302-1.196-8.265-.346-1.504-.99-4.304-3.125-4.304m0 1.747c2.018 0 3.654 16.803 3.654 37.53 0 20.724-1.636 37.526-3.655 37.526-2.02 0-3.656-16.802-3.656-37.527 0-20.727 1.636-37.53 3.655-37.53" clip-path="url(#av)" transform="rotate(-3.877 3665.97 5940.858)"/></g><path fill="#6d636c" d="M995.71 639.688c-.407 9.013-1.39 14.767-2.086 14.767-.634 0-1.253-4.635-1.94-12.372 0 0 1.066-2.948 1.94 1.607.874 4.555 1.56-.266 2.087-4.002" transform="rotate(-3.877 3665.97 5940.858)" clip-path="url(#aw)"/><path fill="#eceef0" d="M996.59 620.585c-.876.015-1.66-4.277-1.756-9.587-.093-5.31.54-9.627 1.413-9.642.875-.016 1.66 4.276 1.755 9.586.094 5.31-.538 9.628-1.413 9.643" transform="rotate(-3.877 3665.97 5940.858)" clip-path="url(#ax)"/><path d="M998.42 572.044c-25.12 0-45.482 20.363-45.482 45.48 0 25.12 20.362 45.483 45.48 45.483 25.12 0 45.482-20.363 45.482-45.482 0-25.118-20.362-45.48-45.48-45.48m0 1.934c24.01 0 43.545 19.534 43.545 43.545 0 24.012-19.535 43.547-43.546 43.547-24.012 0-43.547-19.535-43.547-43.547 0-24.01 19.535-43.546 43.546-43.546" transform="rotate(-3.877 3665.97 5940.858)" clip-path="url(#ay)"/><g transform="matrix(1.25 0 0 -1.25 835.15 689.08)" clip-path="url(#az)"><path fill="#5b5b5f" d="M0 0l1.244-.09L-.73 6.02 0 0z"/></g><g transform="matrix(1.25 0 0 -1.25 816.05 604.24)" clip-path="url(#aA)"><path fill="#4e4e4e" d="M0 0l-1.793-1.493L4.143-7.73 0 0z"/></g><g transform="matrix(1.25 0 0 -1.25 797.48 618.97)" clip-path="url(#aB)"><path fill="#4e4e4e" d="M0 0l-.383-.23c-.133-.277-.71-.61-.805-.9l-.187-.583 12.782-2.6L0 0z"/></g><g transform="matrix(1.25 0 0 -1.25 804.32 609.63)" clip-path="url(#aC)"><path fill="#4e4e4e" d="M0 0l-1.1-1.88 9.558-5.615L0 0z"/></g><g transform="matrix(1.25 0 0 -1.25 824.37 618.65)" clip-path="url(#aD)"><path fill="#4e4e4e" d="M0 0l-.356-2.413-9.13 8.554L0 0z"/></g><g transform="matrix(1.25 0 0 -1.25 823.86 625.02)" clip-path="url(#aE)"><path fill="#4e4e4e" d="M0 0l-.272-2.582-10.54 6.88L0 0z"/></g><g transform="matrix(1.25 0 0 -1.25 823.62 630.17)" clip-path="url(#aF)"><path fill="#4e4e4e" d="M0 0l-.118-2.165-14.132 5.282L0 0z"/></g><g transform="matrix(1.25 0 0 -1.25 792.45 627.66)" clip-path="url(#aG)"><path fill="#4e4e4e" d="M0 0l-.728-1.572 14.93-2.584L0 0z"/></g><g transform="matrix(1.25 0 0 -1.25 821.06 602.37)" clip-path="url(#aH)"><path fill="#4e4e4e" d="M0 0l-1.196-.974 3.024-5.473L0 0z"/></g><g transform="matrix(1.25 0 0 -1.25 847.67 603.89)" clip-path="url(#aI)"><path fill="#4e4e4e" d="M0 0l1.433-.91-7.128-5.758L0 0z"/></g><g transform="matrix(1.25 0 0 -1.25 868.31 621.12)" clip-path="url(#aJ)"><path fill="#4e4e4e" d="M0 0l.387-.223c.14-.274.723-.595.822-.886l.197-.577-12.732-2.836L0 0z"/></g><g transform="matrix(1.25 0 0 -1.25 855.01 607.87)" clip-path="url(#aK)"><path fill="#4e4e4e" d="M0 0l1.6-.93-9.917-6.72L0 0z"/></g><g transform="matrix(1.25 0 0 -1.25 861.1 612.51)" clip-path="url(#aL)"><path fill="#4e4e4e" d="M0 0l1.098-1.404-13.193-8.994L0 0z"/></g><g transform="matrix(1.25 0 0 -1.25 829.29 619.57)" clip-path="url(#aM)"><path fill="#4e4e4e" d="M0 0l-.53-1.94 8.788 5.606L0 0z"/></g><g transform="matrix(1.25 0 0 -1.25 829.92 625.93)" clip-path="url(#aN)"><path fill="#4e4e4e" d="M0 0l.32-1.645L6.63 1.86 0 0z"/></g><g transform="matrix(1.25 0 0 -1.25 830.26 630.49)" clip-path="url(#aO)"><path fill="#4e4e4e" d="M0 0l.158-2.162 11.667 3.81L0 0z"/></g><g transform="matrix(1.25 0 0 -1.25 871.84 627.4)" clip-path="url(#aP)"><path fill="#4e4e4e" d="M0 0l.757-1.56-14.88-2.86L0 0z"/></g><g transform="matrix(1.25 0 0 -1.25 832.52 600.71)" clip-path="url(#aQ)"><path fill="#4e4e4e" d="M0 0l1.98-.29-3.26-10.266L0 0z"/></g><g><path fill="#c3c4ca" d="M757.556 606.553c12.55 27.9 40.588 47.324 73.165 47.324 32.577 0 60.614-19.425 73.166-47.324h-146.33z" transform="rotate(25.48 298.5 -161.89)" clip-path="url(#aR)"/><g clip-path="url(#aS)" transform="matrix(1.13 .54 .54 -1.13 388.37 731)"><path fill="#fff" d="M0 0c10.04-22.32 32.47-37.86 58.532-37.86 26.06 0 48.49 15.54 58.532 37.86H0z"/></g><g clip-path="url(#aT)" transform="matrix(1.13 .54 .54 -1.13 485.66 790.68)"><path fill="#bc0923" d="M0 0c0-20.095-16.29-36.385-36.385-36.385S-72.77-20.095-72.77 0"/></g><g fill="#3f6217" clip-path="url(#aU)" transform="matrix(1.13 .54 .54 -1.13 485.66 790.68)"><path d="M0 0c0-20.095-16.29-36.385-36.385-36.385S-72.77-20.095-72.77 0s16.29 36.385 36.385 36.385S0 20.095 0 0"/></g><g fill="url(#aW)" clip-path="url(#aV)" transform="matrix(1.13 .54 .54 -1.13 425.75 810.67)"><path fill="url(#aX)" d="M0 0c-19.59-1.33-36.385 15.895-36.385 36.385l.487-1.307c1.663-4.464 6.075-7.292 10.826-6.94l10.554.78 23.044-3.706s3.486 10.705 23.388 14.758C33.41 40.274 35.7 2.425 0 0"/></g><g clip-path="url(#aY)" transform="matrix(1.13 .54 .54 -1.13 416.01 806.25)"><path fill="#5b5b5f" d="M0 0l-1.196.974 3.024 5.473L0 0z"/></g><g clip-path="url(#aZ)" transform="matrix(1.13 .54 .54 -1.13 429.14 793.38)"><path fill="#5b5b5f" d="M0 0l-2.177.1-.53-11.072L0 0z"/></g><g clip-path="url(#ba)" transform="matrix(1.13 .54 .54 -1.13 432.59 814.12)"><path fill="#5b5b5f" d="M0 0l1.275.867-2.54 5.713L0 0z"/></g><g clip-path="url(#bb)" transform="matrix(1.13 .54 .54 -1.13 487.71 777.55)"><path fill="#4e4e4e" d="M0 0l.465-2.036-13.614.25L0 0z"/></g><g clip-path="url(#bc)" transform="matrix(1.13 .54 .54 -1.13 484.55 769.68)"><path fill="#eceef0" d="M0 0s.148-2.285.39-4.838c0 0-2.308 6.315-2.604 1.352-.296-4.962-1.69-.218-5.39.163-3.702.38-.67-.728-.29-3.776 0 0-.726 2.697-3.758 2.31-3.032-.386.32-.232.325-4.1.006-3.87-.146 3.678-5.144 3.518 0 0 3.118-7.548-.366-15.02 0 0 1.99 1.315 3.63 6.02 1.637 4.705 2.725 4.003 1.066-3.593 0 0 4.128-2.368 4.634 2.15.505 4.52 1.186 1.662.86.2-.328-1.463 1.696.512 3.625-.43 1.93-.94.768-4.706.768-4.706S.826-13.744-.856-8.205c-1.68 5.54 2.745 1.376.083-10.094-2.662-11.47.453-.016 2.17.682 1.714.698 2.93 1.28 2.93 1.28S4.212-6.797 0 0"/></g><g clip-path="url(#bd)" transform="matrix(1.13 .54 .54 -1.13 422.86 805.54)"><path d="M0 0c-.69 0-1.845 0-2.763 9.424-.554 5.692-.86 13.255-.86 21.297s.306 15.605.86 21.297C-1.845 61.44-.69 61.44 0 61.44s1.845 0 2.763-9.423c.555-5.692.86-13.255.86-21.296 0-8.04-.305-15.604-.86-21.296C1.845 0 .69 0 0 0"/></g><g fill="#f1fa42" fill-opacity=".472"><g transform="matrix(1.13 .54 .54 -1.13 412.3 802.41)" clip-path="url(#be)"><path d="M0 0l-1.793 1.493L4.143 7.73 0 0z"/></g><g transform="matrix(1.13 .54 .54 -1.13 401.87 781.12)" clip-path="url(#bf)"><path d="M0 0l-.383.23c-.133.277-.71.61-.805.9l-.187.582 12.782 2.6L0 0z"/></g><g transform="matrix(1.13 .54 .54 -1.13 405.33 792.47)" clip-path="url(#bg)"><path d="M0 0l-1.1 1.88 9.558 5.615L0 0z"/></g><g transform="matrix(1.13 .54 .54 -1.13 425.48 792.73)" clip-path="url(#bh)"><path d="M0 0l-.356 2.413-9.13-8.554L0 0z"/></g><g transform="matrix(1.13 .54 .54 -1.13 427.36 786.37)" clip-path="url(#bi)"><path d="M0 0l.15 2.436-10.54-6.88L0 0z"/></g><g transform="matrix(1.13 .54 .54 -1.13 429.76 782)" clip-path="url(#bj)"><path d="M0 0l-.118 2.165-14.132-5.282L0 0z"/></g><g transform="matrix(1.13 .54 .54 -1.13 401.06 771.11)" clip-path="url(#bk)"><path d="M0 0l-.728 1.572 14.93 2.584L0 0z"/></g><g transform="matrix(1.13 .54 .54 -1.13 432.1 776.19)" clip-path="url(#bl)"><path d="M0 0l.21 2.345-13.393-3.438L0 0z"/></g><g transform="matrix(1.13 .54 .54 -1.13 401.47 763.45)" clip-path="url(#bm)"><path d="M0 0l-.685 2.253 13.812-.62L0 0z"/></g><g transform="matrix(1.13 .54 .54 -1.13 439.83 815.53)" clip-path="url(#bn)"><path d="M0 0l1.646 1.654L-6.43 8.86 0 0z"/></g><g transform="matrix(1.13 .54 .54 -1.13 461.33 811.75)" clip-path="url(#bo)"><path d="M0 0l.4.197c.158.263.762.544.88.827l.238.564-12.51 3.69L0 0z"/></g><g transform="matrix(1.13 .54 .54 -1.13 465.16 808.12)" clip-path="url(#bp)"><path d="M0 0l.4.197c.158.263.762.544.88.827l.238.564-7.465 1.97L0 0z"/></g><g transform="matrix(1.13 .54 .54 -1.13 454 814.36)" clip-path="url(#bq)"><path d="M0 0l.42.155C.6.4 1.23.618 1.38.888l.292.536-7.224 2.725L0 0z"/></g><g transform="matrix(1.13 .54 .54 -1.13 450 815.24)" clip-path="url(#br)"><path d="M0 0l1.26 1.78-9.04 6.416L0 0z"/></g><g transform="matrix(1.13 .54 .54 -1.13 433.36 791.45)" clip-path="url(#bs)"><path d="M0 0l.237 1.886L9.71-4.467 0 0z"/></g><g transform="matrix(1.13 .54 .54 -1.13 435.46 789.1)" clip-path="url(#bt)"><path d="M0 0l.06 1.974L7.84-2.42 0 0z"/></g><g transform="matrix(1.13 .54 .54 -1.13 438.75 782.42)" clip-path="url(#bu)"><path d="M0 0l-.282 1.12L7.315-.627 0 0z"/></g><g transform="matrix(1.13 .54 .54 -1.13 437.24 785.71)" clip-path="url(#bv)"><path d="M0 0l.423 1.78 14.75-3.347L0 0z"/></g><g transform="matrix(1.13 .54 .54 -1.13 470.82 805.23)" clip-path="url(#bw)"><path d="M0 0l.395 1.504L-14.723 3.5 0 0z"/></g><g transform="matrix(1.13 .54 .54 -1.13 445.32 782.45)" clip-path="url(#bx)"><path d="M0 0l-.006 2.354L13.04-1.293 0 0z"/></g><g transform="matrix(1.13 .54 .54 -1.13 476.19 802.17)" clip-path="url(#by)"><path d="M0 0l.877 2.185-13.815.573L0 0z"/></g><g transform="matrix(1.13 .54 .54 -1.13 479.74 793.66)" clip-path="url(#bz)"><path d="M0 0v1.768l-5.665-.484L0 0z"/></g><g transform="matrix(1.13 .54 .54 -1.13 454.6 782.08)" clip-path="url(#bA)"><path d="M0 0l16.004-.68L.424 1.717 0 0z"/></g><g transform="matrix(1.13 .54 .54 -1.13 430.24 797.14)" clip-path="url(#bB)"><path d="M0 0l.27 2.315L4.494-4.57 0 0z"/></g><g transform="matrix(1.13 .54 .54 -1.13 427.3 801.95)" clip-path="url(#bC)"><path d="M0 0l.27 2.78 2.827-7.35L0 0z"/></g><g transform="matrix(1.13 .54 .54 -1.13 440.67 759.56)" clip-path="url(#bD)"><path d="M0 0l.21-2.345-13.393 3.438L0 0z"/></g><g transform="matrix(1.13 .54 .54 -1.13 410.84 743.62)" clip-path="url(#bE)"><path d="M0 0l-.427-2.044 13.607.502L0 0z"/></g><g transform="matrix(1.13 .54 .54 -1.13 437.45 766.31)" clip-path="url(#bF)"><path d="M0 0l.21-2.345-13.393 3.438L0 0z"/></g><g transform="matrix(1.13 .54 .54 -1.13 406.28 750.52)" clip-path="url(#bG)"><path d="M0 0l-.073-1.588 14.175.62L0 0z"/></g><g transform="matrix(1.13 .54 .54 -1.13 447.33 763.09)" clip-path="url(#bH)"><path d="M0 0l-.165-2.35L13.16 1.338 0 0z"/></g><g transform="matrix(1.13 .54 .54 -1.13 442.99 772.2)" clip-path="url(#bI)"><path d="M0 0l-.165-2.35L13.16 1.338 0 0z"/></g><g transform="matrix(1.13 .54 .54 -1.13 456.28 735.42)" clip-path="url(#bJ)"><path d="M0 0c-2.096 0-2.81-3.386-3.46-10.055-.555-5.714-.862-13.302-.862-21.365 0-8.063.307-15.65.863-21.364.276-2.817.598-5.04.96-6.612.277-1.203.793-3.443 2.5-3.443 2.096 0 2.81 3.387 3.46 10.056.555 5.714.862 13.3.862 21.364 0 8.063-.307 15.65-.863 21.365-.276 2.817-.598 5.04-.96 6.612C2.223-2.24 1.707 0 0 0m0-1.398c1.615 0 2.924-13.44 2.924-30.022C2.924-48 1.614-61.442 0-61.442c-1.615 0-2.924 13.442-2.924 30.022S-1.614-1.398 0-1.398"/></g></g><g clip-path="url(#bK)" transform="matrix(1.13 .54 .54 -1.13 432.63 789.96)"><path fill="#6d636c" d="M0 0c-.327-7.21-1.112-11.814-1.67-11.814-.507 0-1.002 3.708-1.552 9.898 0 0 .853 2.358 1.552-1.286C-.97-6.846-.42-2.99 0 0"/></g><g clip-path="url(#bL)" transform="matrix(1.13 .54 .54 -1.13 441.64 773.09)"><path fill="#eceef0" d="M0 0c-.7-.012-1.328 3.42-1.404 7.67-.075 4.247.43 7.7 1.13 7.713.7.013 1.328-3.42 1.404-7.67C1.205 3.467.7.014 0 0"/></g><g clip-path="url(#bM)" transform="matrix(1.13 .54 .54 -1.13 464.17 730.06)"><path d="M0 0c-20.095 0-36.385-16.29-36.385-36.385S-20.095-72.77 0-72.77s36.385 16.29 36.385 36.385S20.095 0 0 0m0-1.548c19.21 0 34.837-15.628 34.837-34.837 0-19.21-15.628-34.837-34.837-34.837-19.21 0-34.837 15.628-34.837 34.837C-34.837-17.175-19.21-1.548 0-1.548"/></g></g><g><g fill="#eaeaea" font-size="40" font-family="Liberation Mono" letter-spacing="0" word-spacing="0"><text x="510.302" y="678.372" style="line-height:125%;-inkscape-font-specification:'Liberation Mono, Normal';text-align:start"><tspan x="510.302" y="678.372">In</tspan></text><text x="559.093" y="674.129" style="line-height:125%;-inkscape-font-specification:'Liberation Mono, Normal';text-align:start"><tspan x="559.093" y="674.129">tox</tspan></text><text x="631.219" y="678.372" style="line-height:125%;-inkscape-font-specification:'Liberation Mono, Normal';text-align:start"><tspan x="631.219" y="678.372">icat</tspan></text><text x="727.675" y="674.751" style="line-height:125%;-inkscape-font-specification:'Liberation Mono, Normal';text-align:start"><tspan x="727.675" y="674.751">ed</tspan></text><text x="824.459" y="679.206" style="line-height:125%;-inkscape-font-specification:'Liberation Mono, Normal';text-align:start"><tspan x="824.459" y="679.206">with</tspan></text><text x="962.559" y="669.328" style="line-height:125%;-inkscape-font-specification:'Liberation Mono, Normal';text-align:start"><tspan x="962.559" y="669.328">m</tspan></text><text x="986.534" y="677.116" style="line-height:125%;-inkscape-font-specification:'Liberation Mono, Normal';text-align:start"><tspan x="986.534" y="677.116">a</tspan></text><text x="1006.13" y="669.676" style="line-height:125%;-inkscape-font-specification:'Liberation Mono, Normal';text-align:start"><tspan x="1006.13" y="669.676">dne</tspan></text><text x="1074.544" y="671.797" style="line-height:125%;-inkscape-font-specification:'Liberation Mono, Normal';text-align:start"><tspan x="1074.544" y="671.797">ss,</tspan></text><text x="613.187" y="742.012" style="line-height:125%;-inkscape-font-specification:'Liberation Mono, Normal';text-align:start"><tspan x="613.187" y="742.012">I&apos;</tspan></text><text x="654.554" y="740.951" style="line-height:125%;-inkscape-font-specification:'Liberation Mono, Normal';text-align:start"><tspan x="654.554" y="740.951">m</tspan></text><text x="712.89" y="740.952" style="line-height:125%;-inkscape-font-specification:'Liberation Mono, Normal';text-align:start"><tspan x="712.89" y="740.952">in</tspan></text><text x="796.683" y="739.891" style="line-height:125%;-inkscape-font-specification:'Liberation Mono, Normal';text-align:start"><tspan x="796.683" y="739.891">l</tspan></text><text x="820.018" y="734.587" style="line-height:125%;-inkscape-font-specification:'Liberation Mono, Normal';text-align:start"><tspan x="820.018" y="734.587">o</tspan></text><text x="843.353" y="740.952" style="line-height:125%;-inkscape-font-specification:'Liberation Mono, Normal';text-align:start"><tspan x="843.353" y="740.952">ve</tspan></text><text x="953.663" y="732.466" style="line-height:125%;-inkscape-font-specification:'Liberation Mono, Normal';text-align:start"><tspan x="953.663" y="732.466">wi</tspan></text><text x="998.741" y="736.178" style="line-height:125%;-inkscape-font-specification:'Liberation Mono, Normal';text-align:start"><tspan x="998.741" y="736.178">t</tspan></text><text x="1019.424" y="731.406" style="line-height:125%;-inkscape-font-specification:'Liberation Mono, Normal';text-align:start"><tspan x="1019.424" y="731.406">h</tspan></text><text x="832.746" y="802.47" style="line-height:125%;-inkscape-font-specification:'Liberation Mono, Normal';text-align:start"><tspan x="832.746" y="802.47">my</tspan></text><text x="927.146" y="803.531" style="line-height:125%;-inkscape-font-specification:'Liberation Mono, Normal';text-align:start"><tspan x="927.146" y="803.531">sa</tspan></text><text x="974.876" y="809.895" style="line-height:125%;-inkscape-font-specification:'Liberation Mono, Normal';text-align:start"><tspan x="974.876" y="809.895">dne</tspan></text><text x="1045.411" y="803.001" style="line-height:125%;-inkscape-font-specification:'Liberation Mono, Normal';text-align:start"><tspan x="1045.411" y="803.001">ss.</tspan></text><g><text x="1030.757" y="901.535" style="line-height:125%;-inkscape-font-specification:'Liberation Mono, Normal';text-align:start" transform="translate(-29.7 -21.21)"><tspan x="1030.757" y="901.535">Sy</tspan></text><text x="1079.166" y="896.762" style="line-height:125%;-inkscape-font-specification:'Liberation Mono, Normal';text-align:start" transform="translate(-29.7 -21.21)"><tspan x="1079.166" y="896.762">l</tspan></text><text x="1101.862" y="900.592" style="line-height:125%;-inkscape-font-specification:'Liberation Mono, Normal';text-align:start" transform="translate(-29.7 -21.21)"><tspan x="1101.862" y="900.592">vi</tspan></text><text x="1147.227" y="896.633" style="line-height:125%;-inkscape-font-specification:'Liberation Mono, Normal';text-align:start" transform="translate(-29.7 -21.21)"><tspan x="1147.227" y="896.633">a</tspan></text><text x="1207.841" y="898.391" style="line-height:125%;-inkscape-font-specification:'Liberation Mono, Normal';text-align:start" transform="translate(-29.7 -21.21)"><tspan x="1207.841" y="898.391">P</tspan></text><text x="1229.251" y="900.474" style="line-height:125%;-inkscape-font-specification:'Liberation Mono, Normal';text-align:start" transform="translate(-29.7 -21.21)"><tspan x="1229.251" y="900.474">l</tspan></text><text x="1252.586" y="897.292" style="line-height:125%;-inkscape-font-specification:'Liberation Mono, Normal';text-align:start" transform="translate(-29.7 -21.21)"><tspan x="1252.586" y="897.292">at</tspan></text><text x="1300.498" y="900.111" style="line-height:125%;-inkscape-font-specification:'Liberation Mono, Normal';text-align:start" transform="translate(-29.7 -21.21)"><tspan x="1300.498" y="900.111">h</tspan></text><text x="998.255" y="900.073" style="line-height:125%;-inkscape-font-specification:'Liberation Mono, Normal';text-align:start" transform="translate(-29.7 -21.21)"><tspan x="998.255" y="900.073">-</tspan></text></g></g></g></svg>