<?xml version="1.0" encoding="UTF-8" standalone="no"?>
<!-- Created with Inkscape (http://www.inkscape.org/) -->

<svg
   xmlns:dc="http://purl.org/dc/elements/1.1/"
   xmlns:cc="http://creativecommons.org/ns#"
   xmlns:rdf="http://www.w3.org/1999/02/22-rdf-syntax-ns#"
   xmlns:svg="http://www.w3.org/2000/svg"
   xmlns="http://www.w3.org/2000/svg"
   xmlns:xlink="http://www.w3.org/1999/xlink"
   xmlns:sodipodi="http://sodipodi.sourceforge.net/DTD/sodipodi-0.dtd"
   xmlns:inkscape="http://www.inkscape.org/namespaces/inkscape"
   width="1920"
   height="1080"
   viewBox="0 0 1920 1080"
   id="svg2"
   version="1.1"
   inkscape:version="0.91 r13725"
   enable-background="new"
   sodipodi:docname="pink-ungreen.svg"
   inkscape:export-filename="/home/manjit/github/wallpapers/general/pink-ungreen.png"
   inkscape:export-xdpi="90"
   inkscape:export-ydpi="90">
  <defs
     id="defs4">
    <linearGradient
       inkscape:collect="always"
       id="linearGradient7508">
      <stop
         style="stop-color:#3ebd00;stop-opacity:1"
         offset="0"
         id="stop7510" />
      <stop
         style="stop-color:#029300;stop-opacity:1"
         offset="1"
         id="stop7512" />
    </linearGradient>
    <linearGradient
       inkscape:collect="always"
       xlink:href="#linearGradient7508"
       id="linearGradient7514"
       x1="1724"
       y1="856.36212"
       x2="1868"
       y2="1000.3621"
       gradientUnits="userSpaceOnUse"
       gradientTransform="matrix(1.0057025,0,0,1.0057025,-5.4743885,-2.9298986)" />
  </defs>
  <sodipodi:namedview
     id="base"
     pagecolor="#ffffff"
     bordercolor="#666666"
     borderopacity="1.0"
     inkscape:pageopacity="0.0"
     inkscape:pageshadow="2"
     inkscape:zoom="0.38854167"
     inkscape:cx="726.14417"
     inkscape:cy="618.84496"
     inkscape:document-units="px"
     inkscape:current-layer="layer7"
     showgrid="false"
     units="px"
     showguides="true"
     inkscape:guide-bbox="true"
     inkscape:window-width="1366"
     inkscape:window-height="701"
     inkscape:window-x="0"
     inkscape:window-y="24"
     inkscape:window-maximized="1" />
  <metadata
     id="metadata7">
    <rdf:RDF>
      <cc:Work
         rdf:about="">
        <dc:format>image/svg+xml</dc:format>
        <dc:type
           rdf:resource="http://purl.org/dc/dcmitype/StillImage" />
        <dc:title></dc:title>
      </cc:Work>
    </rdf:RDF>
  </metadata>
  <g
     inkscape:groupmode="layer"
     id="layer7"
     inkscape:label="BG">
    <rect
       style="display:inline;opacity:1;fill:#ffffff;fill-opacity:1;fill-rule:nonzero;stroke:none;stroke-width:10;stroke-linecap:round;stroke-miterlimit:4;stroke-dasharray:none;stroke-dashoffset:0;stroke-opacity:1"
       id="rect8494"
       width="1921"
       height="1080"
       x="0"
       y="0" />
  </g>
  <g
     inkscape:label="Pinks"
     inkscape:groupmode="layer"
     id="layer1"
     transform="translate(0,27.637857)"
     style="display:inline"
     sodipodi:insensitive="true">
    <rect
       style="opacity:1;fill:#fefafb;fill-opacity:1;fill-rule:nonzero;stroke:#f5dfe6;stroke-width:10.05702496;stroke-linecap:round;stroke-miterlimit:4;stroke-dasharray:none;stroke-dashoffset:0;stroke-opacity:1"
       id="rect4136"
       width="186.71497"
       height="186.71497"
       x="21.638292"
       y="-2.1248336" />
    <rect
       y="-2.1248336"
       x="232.88933"
       height="186.71497"
       width="186.71497"
       id="rect4514"
       style="opacity:1;fill:#fce5ed;fill-opacity:1;fill-rule:nonzero;stroke:#f2c5d4;stroke-width:10.05702496;stroke-linecap:round;stroke-miterlimit:4;stroke-dasharray:none;stroke-dashoffset:0;stroke-opacity:1" />
    <rect
       y="-2.1248336"
       x="444.14038"
       height="186.71497"
       width="186.71497"
       id="rect4516"
       style="opacity:1;fill:#f9cbda;fill-opacity:1;fill-rule:nonzero;stroke:#f0b1c6;stroke-width:10.05702496;stroke-linecap:round;stroke-miterlimit:4;stroke-dasharray:none;stroke-dashoffset:0;stroke-opacity:1" />
    <rect
       style="opacity:1;fill:#f6b5cb;fill-opacity:1;fill-rule:nonzero;stroke:#ee99b5;stroke-width:10.05702496;stroke-linecap:round;stroke-miterlimit:4;stroke-dasharray:none;stroke-dashoffset:0;stroke-opacity:1"
       id="rect4518"
       width="186.71497"
       height="186.71497"
       x="655.39148"
       y="-2.1248336" />
    <rect
       y="-2.1248336"
       x="866.64252"
       height="186.71497"
       width="186.71497"
       id="rect4520"
       style="opacity:1;fill:#f39cb9;fill-opacity:1;fill-rule:nonzero;stroke:#ea81a5;stroke-width:10.05702496;stroke-linecap:round;stroke-miterlimit:4;stroke-dasharray:none;stroke-dashoffset:0;stroke-opacity:1" />
    <rect
       style="opacity:1;fill:#f084a9;fill-opacity:1;fill-rule:nonzero;stroke:#e66692;stroke-width:10.05702496;stroke-linecap:round;stroke-miterlimit:4;stroke-dasharray:none;stroke-dashoffset:0;stroke-opacity:1"
       id="rect4522"
       width="186.71497"
       height="186.71497"
       x="1077.8936"
       y="-2.1248336" />
    <rect
       style="opacity:1;fill:#ed6996;fill-opacity:1;fill-rule:nonzero;stroke:#ea5386;stroke-width:10.05702496;stroke-linecap:round;stroke-miterlimit:4;stroke-dasharray:none;stroke-dashoffset:0;stroke-opacity:1"
       id="rect4524"
       width="186.71497"
       height="186.71497"
       x="1289.1447"
       y="-2.1248336" />
    <rect
       y="-2.1248336"
       x="1500.3956"
       height="186.71497"
       width="186.71497"
       id="rect4526"
       style="opacity:1;fill:#ea5386;fill-opacity:1;fill-rule:nonzero;stroke:#e73a74;stroke-width:10.05702496;stroke-linecap:round;stroke-miterlimit:4;stroke-dasharray:none;stroke-dashoffset:0;stroke-opacity:1" />
    <rect
       style="opacity:1;fill:#e73a74;fill-opacity:1;fill-rule:nonzero;stroke:#e73571;stroke-width:10.05702496;stroke-linecap:round;stroke-miterlimit:4;stroke-dasharray:none;stroke-dashoffset:0;stroke-opacity:1"
       id="rect4592"
       width="186.71497"
       height="186.71497"
       x="1711.6467"
       y="-2.1248336" />
    <rect
       y="208.49408"
       x="21.638292"
       height="186.71497"
       width="186.71497"
       id="rect4635"
       style="opacity:1;fill:#f9d1de;fill-opacity:1;fill-rule:nonzero;stroke:#f8c7d7;stroke-width:10.05702496;stroke-linecap:round;stroke-miterlimit:4;stroke-dasharray:none;stroke-dashoffset:0;stroke-opacity:1" />
    <rect
       style="opacity:1;fill:#f8c7d7;fill-opacity:1;fill-rule:nonzero;stroke:#f7b9ce;stroke-width:10.05702496;stroke-linecap:round;stroke-miterlimit:4;stroke-dasharray:none;stroke-dashoffset:0;stroke-opacity:1"
       id="rect4637"
       width="186.71497"
       height="186.71497"
       x="232.88933"
       y="208.49408" />
    <rect
       style="opacity:1;fill:#f7b9ce;fill-opacity:1;fill-rule:nonzero;stroke:#f4a5c0;stroke-width:10.05702496;stroke-linecap:round;stroke-miterlimit:4;stroke-dasharray:none;stroke-dashoffset:0;stroke-opacity:1"
       id="rect4639"
       width="186.71497"
       height="186.71497"
       x="444.14038"
       y="208.49408" />
    <rect
       y="208.49408"
       x="655.39148"
       height="186.71497"
       width="186.71497"
       id="rect4641"
       style="opacity:1;fill:#f4a5c0;fill-opacity:1;fill-rule:nonzero;stroke:#f18fb0;stroke-width:10.05702496;stroke-linecap:round;stroke-miterlimit:4;stroke-dasharray:none;stroke-dashoffset:0;stroke-opacity:1" />
    <rect
       style="opacity:1;fill:#f18fb0;fill-opacity:1;fill-rule:nonzero;stroke:#ef77a0;stroke-width:10.05702496;stroke-linecap:round;stroke-miterlimit:4;stroke-dasharray:none;stroke-dashoffset:0;stroke-opacity:1"
       id="rect4643"
       width="186.71497"
       height="186.71497"
       x="866.64252"
       y="208.49408" />
    <rect
       y="208.49408"
       x="1077.8936"
       height="186.71497"
       width="186.71497"
       id="rect4645"
       style="opacity:1;fill:#ef77a0;fill-opacity:1;fill-rule:nonzero;stroke:#ec6090;stroke-width:10.05702496;stroke-linecap:round;stroke-miterlimit:4;stroke-dasharray:none;stroke-dashoffset:0;stroke-opacity:1" />
    <rect
       y="208.49408"
       x="1289.1447"
       height="186.71497"
       width="186.71497"
       id="rect4647"
       style="opacity:1;fill:#ec6090;fill-opacity:1;fill-rule:nonzero;stroke:#e94a80;stroke-width:10.05702496;stroke-linecap:round;stroke-miterlimit:4;stroke-dasharray:none;stroke-dashoffset:0;stroke-opacity:1" />
    <rect
       style="opacity:1;fill:#e94a80;fill-opacity:1;fill-rule:nonzero;stroke:#e73571;stroke-width:10.05702496;stroke-linecap:round;stroke-miterlimit:4;stroke-dasharray:none;stroke-dashoffset:0;stroke-opacity:1"
       id="rect4649"
       width="186.71497"
       height="186.71497"
       x="1500.3956"
       y="208.49408" />
    <rect
       y="208.49408"
       x="1711.6467"
       height="186.71497"
       width="186.71497"
       id="rect4651"
       style="opacity:1;fill:#e73571;fill-opacity:1;fill-rule:nonzero;stroke:#e52868;stroke-width:10.05702496;stroke-linecap:round;stroke-miterlimit:4;stroke-dasharray:none;stroke-dashoffset:0;stroke-opacity:1" />
    <rect
       style="opacity:1;fill:#f4a2be;fill-opacity:1;fill-rule:nonzero;stroke:#f39dba;stroke-width:10.05702496;stroke-linecap:round;stroke-miterlimit:4;stroke-dasharray:none;stroke-dashoffset:0;stroke-opacity:1"
       id="rect4655"
       width="186.71497"
       height="186.71497"
       x="21.638292"
       y="419.11292" />
    <rect
       y="419.11292"
       x="232.88933"
       height="186.71497"
       width="186.71497"
       id="rect4657"
       style="opacity:1;fill:#f39dba;fill-opacity:1;fill-rule:nonzero;stroke:#f294b4;stroke-width:10.05702496;stroke-linecap:round;stroke-miterlimit:4;stroke-dasharray:none;stroke-dashoffset:0;stroke-opacity:1" />
    <rect
       y="419.11292"
       x="444.14038"
       height="186.71497"
       width="186.71497"
       id="rect4659"
       style="opacity:1;fill:#f294b4;fill-opacity:1;fill-rule:nonzero;stroke:#f188ac;stroke-width:10.05702496;stroke-linecap:round;stroke-miterlimit:4;stroke-dasharray:none;stroke-dashoffset:0;stroke-opacity:1" />
    <rect
       style="opacity:1;fill:#f188ac;fill-opacity:1;fill-rule:nonzero;stroke:#ee769e;stroke-width:10.05702496;stroke-linecap:round;stroke-miterlimit:4;stroke-dasharray:none;stroke-dashoffset:0;stroke-opacity:1"
       id="rect4661"
       width="186.71497"
       height="186.71497"
       x="655.39148"
       y="419.11292" />
    <rect
       y="419.11292"
       x="866.64252"
       height="186.71497"
       width="186.71497"
       id="rect4663"
       style="opacity:1;fill:#ee769e;fill-opacity:1;fill-rule:nonzero;stroke:#ec6492;stroke-width:10.05702496;stroke-linecap:round;stroke-miterlimit:4;stroke-dasharray:none;stroke-dashoffset:0;stroke-opacity:1" />
    <rect
       style="opacity:1;fill:#ec6492;fill-opacity:1;fill-rule:nonzero;stroke:#ea4f83;stroke-width:10.05702496;stroke-linecap:round;stroke-miterlimit:4;stroke-dasharray:none;stroke-dashoffset:0;stroke-opacity:1"
       id="rect4665"
       width="186.71497"
       height="186.71497"
       x="1077.8936"
       y="419.11292" />
    <rect
       style="opacity:1;fill:#ea4f83;fill-opacity:1;fill-rule:nonzero;stroke:#e73b76;stroke-width:10.05702496;stroke-linecap:round;stroke-miterlimit:4;stroke-dasharray:none;stroke-dashoffset:0;stroke-opacity:1"
       id="rect4667"
       width="186.71497"
       height="186.71497"
       x="1289.1447"
       y="419.11292" />
    <rect
       y="419.11292"
       x="1500.3956"
       height="186.71497"
       width="186.71497"
       id="rect4669"
       style="opacity:1;fill:#e73b76;fill-opacity:1;fill-rule:nonzero;stroke:#e52868;stroke-width:10.05702496;stroke-linecap:round;stroke-miterlimit:4;stroke-dasharray:none;stroke-dashoffset:0;stroke-opacity:1" />
    <rect
       style="opacity:1;fill:#e52868;fill-opacity:1;fill-rule:nonzero;stroke:#e52868;stroke-width:10.05702496;stroke-linecap:round;stroke-miterlimit:4;stroke-dasharray:none;stroke-dashoffset:0;stroke-opacity:1"
       id="rect4671"
       width="186.71497"
       height="186.71497"
       x="1711.6467"
       y="419.11292" />
    <rect
       y="629.73187"
       x="21.638292"
       height="186.71497"
       width="186.71497"
       id="rect4675"
       style="opacity:1;fill:#ee779f;fill-opacity:1;fill-rule:nonzero;stroke:#ee739d;stroke-width:10.05702496;stroke-linecap:round;stroke-miterlimit:4;stroke-dasharray:none;stroke-dashoffset:0;stroke-opacity:1" />
    <rect
       style="opacity:1;fill:#ee739d;fill-opacity:1;fill-rule:nonzero;stroke:#ed6794;stroke-width:10.05702496;stroke-linecap:round;stroke-miterlimit:4;stroke-dasharray:none;stroke-dashoffset:0;stroke-opacity:1"
       id="rect4677"
       width="186.71497"
       height="186.71497"
       x="232.88933"
       y="629.73187" />
    <rect
       style="opacity:1;fill:#ed6794;fill-opacity:1;fill-rule:nonzero;stroke:#ec6391;stroke-width:10.05702496;stroke-linecap:round;stroke-miterlimit:4;stroke-dasharray:none;stroke-dashoffset:0;stroke-opacity:1"
       id="rect4679"
       width="186.71497"
       height="186.71497"
       x="444.14038"
       y="629.73187" />
    <rect
       y="629.73187"
       x="655.39148"
       height="186.71497"
       width="186.71497"
       id="rect4681"
       style="opacity:1;fill:#ec6391;fill-opacity:1;fill-rule:nonzero;stroke:#ea5588;stroke-width:10.05702496;stroke-linecap:round;stroke-miterlimit:4;stroke-dasharray:none;stroke-dashoffset:0;stroke-opacity:1" />
    <rect
       style="opacity:1;fill:#ea5588;fill-opacity:1;fill-rule:nonzero;stroke:#e9467d;stroke-width:10.05702496;stroke-linecap:round;stroke-miterlimit:4;stroke-dasharray:none;stroke-dashoffset:0;stroke-opacity:1"
       id="rect4683"
       width="186.71497"
       height="186.71497"
       x="866.64252"
       y="629.73187" />
    <rect
       y="629.73187"
       x="1077.8936"
       height="186.71497"
       width="186.71497"
       id="rect4685"
       style="opacity:1;fill:#e9467d;fill-opacity:1;fill-rule:nonzero;stroke:#e73672;stroke-width:10.05702496;stroke-linecap:round;stroke-miterlimit:4;stroke-dasharray:none;stroke-dashoffset:0;stroke-opacity:1" />
    <rect
       y="629.73187"
       x="1289.1447"
       height="186.71497"
       width="186.71497"
       id="rect4687"
       style="opacity:1;fill:#e73672;fill-opacity:1;fill-rule:nonzero;stroke:#e52868;stroke-width:10.05702496;stroke-linecap:round;stroke-miterlimit:4;stroke-dasharray:none;stroke-dashoffset:0;stroke-opacity:1" />
    <rect
       y="629.73187"
       x="1711.6467"
       height="186.71497"
       width="186.71497"
       id="rect4691"
       style="opacity:1;fill:#e52868;fill-opacity:1;fill-rule:nonzero;stroke:#e52868;stroke-width:10.05702496;stroke-linecap:round;stroke-miterlimit:4;stroke-dasharray:none;stroke-dashoffset:0;stroke-opacity:1" />
    <rect
       style="opacity:1;fill:#e94980;fill-opacity:1;fill-rule:nonzero;stroke:#e9497f;stroke-width:10.05702496;stroke-linecap:round;stroke-miterlimit:4;stroke-dasharray:none;stroke-dashoffset:0;stroke-opacity:1"
       id="rect4695"
       width="186.71497"
       height="186.71497"
       x="21.638292"
       y="840.35077" />
    <rect
       y="840.35077"
       x="232.88933"
       height="186.71497"
       width="186.71497"
       id="rect4697"
       style="opacity:1;fill:#e9497f;fill-opacity:1;fill-rule:nonzero;stroke:#e83f78;stroke-width:10.05702496;stroke-linecap:round;stroke-miterlimit:4;stroke-dasharray:none;stroke-dashoffset:0;stroke-opacity:1" />
    <rect
       y="840.35077"
       x="444.14038"
       height="186.71497"
       width="186.71497"
       id="rect4699"
       style="opacity:1;fill:#e83f78;fill-opacity:1;fill-rule:nonzero;stroke:#e73a74;stroke-width:10.05702496;stroke-linecap:round;stroke-miterlimit:4;stroke-dasharray:none;stroke-dashoffset:0;stroke-opacity:1" />
    <rect
       style="opacity:1;fill:#e73a74;fill-opacity:1;fill-rule:nonzero;stroke:#e62d6c;stroke-width:10.05702496;stroke-linecap:round;stroke-miterlimit:4;stroke-dasharray:none;stroke-dashoffset:0;stroke-opacity:1"
       id="rect4701"
       width="186.71497"
       height="186.71497"
       x="655.39148"
       y="840.35077" />
    <rect
       y="840.35077"
       x="866.64252"
       height="186.71497"
       width="186.71497"
       id="rect4703"
       style="opacity:1;fill:#e62d6c;fill-opacity:1;fill-rule:nonzero;stroke:#e52868;stroke-width:10.05702496;stroke-linecap:round;stroke-miterlimit:4;stroke-dasharray:none;stroke-dashoffset:0;stroke-opacity:1" />
    <rect
       style="opacity:1;fill:#e52868;fill-opacity:1;fill-rule:nonzero;stroke:#e52868;stroke-width:10.05702496;stroke-linecap:round;stroke-miterlimit:4;stroke-dasharray:none;stroke-dashoffset:0;stroke-opacity:1"
       id="rect4705"
       width="186.71497"
       height="186.71497"
       x="1077.8936"
       y="840.35077" />
    <rect
       style="opacity:1;fill:#e52868;fill-opacity:1;fill-rule:nonzero;stroke:#e52868;stroke-width:10.05702496;stroke-linecap:round;stroke-miterlimit:4;stroke-dasharray:none;stroke-dashoffset:0;stroke-opacity:1"
       id="rect4707"
       width="186.71497"
       height="186.71497"
       x="1289.1447"
       y="840.35077" />
    <rect
       y="840.35077"
       x="1500.3956"
       height="186.71497"
       width="186.71497"
       id="rect4709"
       style="opacity:1;fill:#e52868;fill-opacity:1;fill-rule:nonzero;stroke:#e52868;stroke-width:10.05702496;stroke-linecap:round;stroke-miterlimit:4;stroke-dasharray:none;stroke-dashoffset:0;stroke-opacity:1" />
    <rect
       style="opacity:1;fill:url(#linearGradient7514);fill-opacity:1;fill-rule:nonzero;stroke:#21680d;stroke-width:10.05702496;stroke-linecap:round;stroke-miterlimit:4;stroke-dasharray:none;stroke-dashoffset:0;stroke-opacity:1"
       id="rect4711"
       width="186.71497"
       height="186.71497"
       x="1711.6467"
       y="840.35077" />
  </g>
  <g
     inkscape:groupmode="layer"
     id="layer2"
     inkscape:label="Text"
     style="display:none"
     sodipodi:insensitive="true">
    <text
       xml:space="preserve"
       style="font-style:normal;font-variant:normal;font-weight:normal;font-stretch:normal;font-size:29.87146568px;line-height:125%;font-family:Inconsolata;-inkscape-font-specification:'Inconsolata, Normal';text-align:start;letter-spacing:0px;word-spacing:0px;writing-mode:lr-tb;text-anchor:start;fill:#e52868;fill-opacity:1;stroke:none;stroke-width:1px;stroke-linecap:butt;stroke-linejoin:miter;stroke-opacity:1"
       x="1504.2582"
       y="745.63361"
       id="text7516"
       sodipodi:linespacing="125%"><tspan
         sodipodi:role="line"
         x="1504.2582"
         y="745.63361"
         id="tspan7520">just call it</tspan></text>
    <text
       sodipodi:linespacing="125%"
       id="text7557"
       y="699.74976"
       x="1505.3885"
       style="font-style:normal;font-variant:normal;font-weight:normal;font-stretch:normal;font-size:32.2557106px;line-height:125%;font-family:Inconsolata;-inkscape-font-specification:'Inconsolata, Normal';text-align:start;letter-spacing:0px;word-spacing:0px;writing-mode:lr-tb;text-anchor:start;fill:#e52868;fill-opacity:1;stroke:none;stroke-width:1px;stroke-linecap:butt;stroke-linejoin:miter;stroke-opacity:1"
       xml:space="preserve"><tspan
         id="tspan7559"
         y="699.74976"
         x="1505.3885"
         sodipodi:role="line">They should</tspan></text>
    <text
       sodipodi:linespacing="125%"
       id="text7539"
       y="813.56403"
       x="1556.0381"
       style="font-style:normal;font-variant:normal;font-weight:bold;font-stretch:normal;font-size:55.48496628px;line-height:125%;font-family:Inconsolata;-inkscape-font-specification:'Inconsolata, Bold';text-align:start;letter-spacing:-0.01999999px;word-spacing:0px;writing-mode:lr-tb;text-anchor:start;fill:#039400;fill-opacity:1;stroke:none;stroke-width:1px;stroke-linecap:butt;stroke-linejoin:miter;stroke-opacity:1"
       xml:space="preserve"><tspan
         style="letter-spacing:-3px"
         id="tspan7541"
         y="813.56403"
         x="1556.0381"
         sodipodi:role="line">green</tspan></text>
    <text
       xml:space="preserve"
       style="font-style:normal;font-variant:normal;font-weight:bold;font-stretch:normal;font-size:55.48496628px;line-height:125%;font-family:Inconsolata;-inkscape-font-specification:'Inconsolata, Bold';text-align:start;letter-spacing:0px;word-spacing:0px;writing-mode:lr-tb;text-anchor:start;fill:#e52868;fill-opacity:1;stroke:none;stroke-width:1px;stroke-linecap:butt;stroke-linejoin:miter;stroke-opacity:1"
       x="1504.7015"
       y="813.56403"
       id="text7563"
       sodipodi:linespacing="125%"><tspan
         style="letter-spacing:-3px"
         sodipodi:role="line"
         x="1504.7015"
         y="813.56403"
         id="tspan7565">un</tspan></text>
  </g>
  <g
     inkscape:groupmode="layer"
     id="layer6"
     inkscape:label="Text-as-path"
     sodipodi:insensitive="true">
    <g
       style="display:inline"
       id="g8774">
      <g
         id="text8696"
         style="font-style:normal;font-variant:normal;font-weight:normal;font-stretch:normal;font-size:32.2557106px;line-height:125%;font-family:Inconsolata;-inkscape-font-specification:'Inconsolata, Normal';text-align:start;letter-spacing:0px;word-spacing:0px;writing-mode:lr-tb;text-anchor:start;fill:#e52868;fill-opacity:1;stroke:none;stroke-width:1px;stroke-linecap:butt;stroke-linejoin:miter;stroke-opacity:1">
        <path
           id="path8701"
           d="m 1506.3885,679.62219 13.9344,0 0,2.03211 -5.935,0 0,18.09546 -2.2902,0 0,-18.09546 -5.7092,0 0,-2.03211 z"
           inkscape:connector-curvature="0" />
        <path
           id="path8703"
           d="m 1523.7743,699.74976 0,-21.45005 2.6772,0 q 0,0.0322 0,0.0322 0.032,0 0.032,0.0323 0,0.0968 -0.1613,0.2903 -0.129,0.16128 -0.1935,0.41933 l 0,8.54776 q 0.8709,-1.35474 2.1611,-2.16113 1.3225,-0.8064 2.6772,-0.8064 1,0 1.8063,0.35482 0.8387,0.32255 1.4516,1.06443 0.6128,0.74189 0.9354,1.90309 0.3225,1.16121 0.3225,2.8385 l 0,8.93484 -2.2901,0 0,-8.87032 q 0,-2.32242 -0.8064,-3.25783 -0.7742,-0.93542 -1.9031,-0.93542 -0.7419,0 -1.4838,0.32256 -0.7419,0.32256 -1.4515,0.90316 -0.6773,0.5806 -1.0644,1.41925 -0.3548,0.83865 -0.3548,1.93534 l 0,8.48326 -2.3547,0 z"
           inkscape:connector-curvature="0" />
        <path
           id="path8705"
           d="m 1545.9985,684.65408 q 1.1612,0 2.2579,0.41933 1.0967,0.41932 1.9031,1.29023 0.8386,0.83864 1.3225,2.16113 0.5161,1.32248 0.5161,3.1288 0,0.25805 -0.032,0.54835 0,0.25805 -0.032,0.51609 l -10.4831,0 q 0.064,1.54828 0.5161,2.61271 0.4839,1.03219 1.1935,1.6773 0.7096,0.64511 1.5805,0.93542 0.8709,0.25804 1.7418,0.25804 2.2902,0 3.8062,-1.64504 l 1.2902,1.25797 q -1.8708,2.2579 -5.1609,2.2579 -1.6128,0 -2.9675,-0.48383 -1.3225,-0.51609 -2.2579,-1.48377 -0.9354,-0.96767 -1.4515,-2.38692 -0.5161,-1.4515 -0.5161,-3.29008 0,-1.87083 0.5161,-3.32234 0.5483,-1.45151 1.4515,-2.41918 0.9354,-0.99992 2.1611,-1.51602 1.2257,-0.51609 2.645,-0.51609 z m -4.4513,6.25761 8.0962,0 q 0,-0.12902 0,-0.22579 0.032,-0.12902 0.032,-0.2903 0,-0.80639 -0.3225,-1.51602 -0.2903,-0.74188 -0.8064,-1.25797 -0.5161,-0.54835 -1.2257,-0.87091 -0.6774,-0.32255 -1.4838,-0.32255 -1.516,0 -2.7417,1.09669 -1.2257,1.06444 -1.5483,3.38685 z"
           inkscape:connector-curvature="0" />
        <path
           id="path8707"
           d="m 1555.6752,686.04108 -0.4193,-1.03218 2.8707,0 q 0,0.25804 -0.064,0.45158 -0.065,0.16127 -0.065,0.32255 0,0.12903 0.065,0.19354 l 4.3223,10.83792 2.8062,-7.90265 q 0.4194,-1.12895 0.6774,-2.09662 0.2581,-0.99993 0.4193,-1.80632 l 2.4192,0 q -0.2903,0.83864 -0.6451,1.90308 -0.3226,1.06444 -0.8064,2.35467 l -3.9997,10.54762 -0.6129,1.61278 q -0.7741,2.16114 -1.9998,3.03204 -1.1935,0.90316 -2.774,0.90316 -2.0966,0 -3.3869,-1.25797 l 1.2258,-2.06437 q 0.097,0.0968 0.1612,0.2903 0.065,0.22579 0.097,0.2903 0,0 0.129,0.12903 0.1291,0.16128 0.3226,0.2903 0.2258,0.16128 0.5483,0.2903 0.3226,0.12902 0.7097,0.12902 0.9354,0 1.645,-0.5806 0.7419,-0.5806 1.4515,-2.09662 l 0.4516,-1.0967 -5.548,-13.64416 z"
           inkscape:connector-curvature="0" />
        <path
           id="path8709"
           d="m 1599.9623,686.97649 -1.3547,2.03211 q -0.1613,-0.0322 -0.1613,-0.25804 0,-0.22579 -0.064,-0.32256 -0.5806,-0.74188 -1.6451,-1.35474 -1.0644,-0.64511 -2.4192,-0.64511 -0.6128,0 -1.1934,0.16128 -0.5484,0.12902 -0.9999,0.38706 -0.4194,0.25805 -0.6774,0.67737 -0.2581,0.38707 -0.2581,0.90316 0,0.38707 0.1936,0.70963 0.1935,0.2903 0.6128,0.5806 0.4194,0.2903 1.1612,0.58061 0.7742,0.2903 1.9999,0.64511 2.774,0.74188 3.9029,1.77406 1.1612,0.99993 1.1612,2.48369 0,0.96767 -0.4193,1.83858 -0.4193,0.8709 -1.2257,1.51602 -0.8064,0.64511 -1.9353,1.03218 -1.129,0.35481 -2.5482,0.35481 -3.7095,0 -6.2254,-2.32241 l 1.3225,-2.32241 q 0.097,0.0968 0.129,0.32256 0.032,0.19353 0.2258,0.48383 0.1935,0.2903 0.7096,0.67737 0.5161,0.35482 1.5806,0.8064 0.4838,0.22579 1.0966,0.32255 0.6129,0.0968 1.2258,0.0968 0.6451,0 1.2902,-0.16128 0.6774,-0.16128 1.1935,-0.45158 0.5483,-0.32256 0.8709,-0.74188 0.3225,-0.45158 0.3225,-0.99993 0,-0.83865 -0.7741,-1.41925 -0.7742,-0.5806 -2.8385,-1.19346 -1.4193,-0.41932 -1.8709,-0.5806 -1.1612,-0.45158 -1.6773,-0.77414 -0.516,-0.35481 -0.9354,-0.80639 -0.4193,-0.48384 -0.6773,-1.06444 -0.2581,-0.61286 -0.2581,-1.32248 0,-0.77414 0.4193,-1.48377 0.4194,-0.70962 1.1612,-1.25797 0.7742,-0.54835 1.8064,-0.8709 1.0644,-0.35482 2.2901,-0.35482 3.3869,0 5.4835,2.32241 z"
           inkscape:connector-curvature="0" />
        <path
           id="path8711"
           d="m 1604.4136,699.74976 0,-21.45005 2.6772,0 q 0,0.0322 0,0.0322 0.032,0 0.032,0.0323 0,0.0968 -0.1613,0.2903 -0.129,0.16128 -0.1935,0.41933 l 0,8.54776 q 0.8709,-1.35474 2.1611,-2.16113 1.3225,-0.8064 2.6772,-0.8064 0.9999,0 1.8063,0.35482 0.8387,0.32255 1.4515,1.06443 0.6129,0.74189 0.9355,1.90309 0.3225,1.16121 0.3225,2.8385 l 0,8.93484 -2.2901,0 0,-8.87032 q 0,-2.32242 -0.8064,-3.25783 -0.7742,-0.93542 -1.9031,-0.93542 -0.7419,0 -1.4838,0.32256 -0.7419,0.32256 -1.4515,0.90316 -0.6774,0.5806 -1.0644,1.41925 -0.3548,0.83865 -0.3548,1.93534 l 0,8.48326 -2.3547,0 z"
           inkscape:connector-curvature="0" />
        <path
           id="path8713"
           d="m 1626.4765,684.68634 q 1.3547,0 2.5482,0.54835 1.2257,0.51609 2.1289,1.51601 0.9031,0.99993 1.4192,2.45144 0.5484,1.41925 0.5484,3.19331 0,1.80632 -0.5161,3.22557 -0.5161,1.41926 -1.4193,2.45144 -0.9031,0.99993 -2.1289,1.54827 -1.2257,0.51609 -2.6127,0.51609 -1.4192,0 -2.6772,-0.5806 -1.2257,-0.5806 -2.1611,-1.58053 -0.9354,-1.03218 -1.4838,-2.45143 -0.5483,-1.41925 -0.5483,-3.06429 0,-1.64505 0.5483,-3.09655 0.5806,-1.45151 1.516,-2.45144 0.9677,-1.03218 2.2257,-1.61278 1.2579,-0.61286 2.6127,-0.61286 z m 4.3223,7.77363 q 0,-1.387 -0.3871,-2.45144 -0.3548,-1.09669 -0.9677,-1.83857 -0.6128,-0.74189 -1.4192,-1.12895 -0.7742,-0.38707 -1.6451,-0.38707 -0.8709,0 -1.6773,0.38707 -0.7741,0.38706 -1.387,1.12895 -0.5806,0.74188 -0.9354,1.80632 -0.3548,1.03218 -0.3548,2.35466 0,1.29023 0.3548,2.35467 0.3548,1.06444 0.9354,1.83857 0.6129,0.77414 1.4193,1.19347 0.8064,0.41932 1.7095,0.41932 0.9032,0 1.6773,-0.35481 0.8064,-0.38707 1.387,-1.0967 0.6129,-0.74188 0.9354,-1.80632 0.3549,-1.06443 0.3549,-2.41917 z"
           inkscape:connector-curvature="0" />
        <path
           id="path8715"
           d="m 1636.4435,685.0089 2.3224,0 0,8.2252 q 0,1.41925 0.2581,2.38692 0.258,0.93542 0.7096,1.51602 0.4838,0.58061 1.0644,0.83865 0.6129,0.25805 1.3225,0.25805 0.7741,-0.0645 1.4838,-0.38707 0.7096,-0.32256 1.2579,-0.90316 0.5806,-0.61286 0.9032,-1.54828 0.3226,-0.93541 0.3226,-2.25789 l 0,-8.12844 2.3546,0 0,13.41837 q 0,0.74188 0.1613,1.32249 l -2.4514,0 q -0.032,-0.22579 -0.064,-0.48384 -0.032,-0.2903 0,-0.64511 l 0.032,-1.12895 q -0.7096,1.22571 -1.9353,1.93534 -1.1935,0.67737 -2.645,0.67737 -1.1289,0 -2.0321,-0.38707 -0.9032,-0.41932 -1.645,-1.25797 -0.7097,-0.83865 -1.0967,-2.12888 -0.3549,-1.29023 -0.3549,-3.09655 l 0.032,-8.2252 z"
           inkscape:connector-curvature="0" />
        <path
           id="path8717"
           d="m 1653.281,678.29971 6.5156,0 0,19.57921 4.3223,0 0,1.87084 -11.0315,0 0,-1.87084 4.3546,0 0,-17.70838 -4.161,0 0,-1.87083 z"
           inkscape:connector-curvature="0" />
        <path
           id="path8719"
           d="m 1678.634,687.17003 0,-8.87032 2.4837,0 q 0,0.19353 -0.1613,0.45158 -0.1613,0.22579 -0.1613,0.45158 l 0.032,19.19215 q 0,0.77413 0.1612,1.35474 l -2.3224,0 q -0.129,-0.38707 -0.129,-1.0967 l 0,-1.25797 q -0.7096,1.22572 -1.9353,1.9676 -1.2258,0.70962 -2.4837,0.70962 -1.2257,0 -2.3224,-0.48383 -1.0645,-0.48384 -1.9031,-1.45151 -0.8064,-0.96767 -1.2903,-2.41918 -0.4838,-1.48376 -0.4838,-3.48361 0,-2.03211 0.5484,-3.45137 0.5483,-1.4515 1.4192,-2.35466 0.9032,-0.93542 1.9999,-1.35474 1.0967,-0.45158 2.2256,-0.45158 1.5483,0 2.645,0.70962 1.1289,0.67737 1.6773,1.83858 z m -6.8705,0.45158 q -1.387,1.25797 -1.387,4.25775 0,2.77399 1.0644,4.48355 1.0645,1.67729 3.1288,1.67729 0.4839,0 1.0322,-0.16128 0.5484,-0.19353 1.0322,-0.54834 0.4838,-0.35482 0.8709,-0.83865 0.3871,-0.48384 0.5806,-1.0967 0.3548,-1.1612 0.3548,-3.09654 0,-1.22572 -0.097,-2.03211 -0.097,-0.83865 -0.3226,-1.41925 -0.1935,-0.58061 -0.5161,-0.93542 -0.3225,-0.38707 -0.8064,-0.67737 -0.5806,-0.35481 -1.0967,-0.51609 -0.4838,-0.19354 -0.9354,-0.19354 -0.9354,0 -1.6128,0.25805 -0.6451,0.25805 -1.2902,0.83865 z"
           inkscape:connector-curvature="0" />
      </g>
      <g
         id="text8721"
         style="font-style:normal;font-variant:normal;font-weight:normal;font-stretch:normal;font-size:29.87146568px;line-height:125%;font-family:Inconsolata;-inkscape-font-specification:'Inconsolata, Normal';text-align:start;letter-spacing:0px;word-spacing:0px;writing-mode:lr-tb;text-anchor:start;fill:#e52868;fill-opacity:1;stroke:none;stroke-width:1px;stroke-linecap:butt;stroke-linejoin:miter;stroke-opacity:1">
        <path
           id="path8726"
           d="m 1508.022,731.98235 7.2587,0 0,12.99408 q 0,1.55332 -0.4182,2.62869 -0.4182,1.10525 -1.1649,1.79229 -0.717,0.68704 -1.7027,1.01563 -0.9858,0.35846 -2.1209,0.4182 -2.6287,0 -4.182,-1.91177 l 1.404,-1.85203 q 0.1493,0.14935 0.1493,0.29871 0.03,0.14936 0.1195,0.32859 0.09,0.17923 0.3585,0.38833 0.2688,0.23897 0.8961,0.56755 0.6572,0.32859 1.404,0.32859 1.3442,0 2.2105,-0.92602 0.8662,-0.89614 0.8662,-2.95727 l 0,-11.35116 -5.0781,0 0,-1.76241 z m 5.0781,-5.49635 q 0.4481,-0.44808 1.1053,-0.44808 0.6273,0 1.0753,0.44808 0.478,0.44807 0.478,1.10524 0,0.6273 -0.478,1.07537 -0.448,0.44808 -1.0753,0.44808 -0.6273,0 -1.1053,-0.44808 -0.448,-0.44807 -0.448,-1.07537 0,-0.65717 0.448,-1.10524 z"
           inkscape:connector-curvature="0" />
        <path
           id="path8728"
           d="m 1521.0758,731.98235 2.1508,0 0,7.61722 q 0,1.31434 0.2389,2.21049 0.239,0.86627 0.6572,1.40396 0.4481,0.53768 0.9858,0.77666 0.5675,0.23897 1.2247,0.23897 0.7169,-0.0598 1.3741,-0.35846 0.6572,-0.29872 1.165,-0.8364 0.5377,-0.56756 0.8364,-1.43383 0.2987,-0.86627 0.2987,-2.091 l 0,-7.52761 2.1806,0 0,12.42653 q 0,0.68704 0.1494,1.22473 l -2.2703,0 q -0.03,-0.2091 -0.06,-0.44808 -0.03,-0.26884 0,-0.59743 l 0.03,-1.0455 q -0.6572,1.13512 -1.7923,1.79229 -1.1053,0.6273 -2.4495,0.6273 -1.0455,0 -1.8819,-0.35846 -0.8364,-0.38832 -1.5234,-1.16498 -0.6572,-0.77666 -1.0157,-1.97152 -0.3286,-1.19486 -0.3286,-2.86766 l 0.03,-7.61722 z"
           inkscape:connector-curvature="0" />
        <path
           id="path8730"
           d="m 1547.0341,733.80451 -1.2546,1.8819 q -0.1493,-0.0299 -0.1493,-0.23897 0,-0.2091 -0.06,-0.29872 -0.5377,-0.68704 -1.5234,-1.2546 -0.9858,-0.59743 -2.2404,-0.59743 -0.5675,0 -1.1052,0.14936 -0.5078,0.11948 -0.926,0.35846 -0.3884,0.23897 -0.6273,0.6273 -0.239,0.35845 -0.239,0.8364 0,0.35845 0.1792,0.65717 0.1792,0.26884 0.5676,0.53769 0.3883,0.26884 1.0753,0.53768 0.717,0.26885 1.8521,0.59743 2.5689,0.68705 3.6144,1.64293 1.0754,0.92602 1.0754,2.30011 0,0.89614 -0.3883,1.70267 -0.3884,0.80653 -1.1352,1.40396 -0.7467,0.59743 -1.7922,0.95588 -1.0455,0.32859 -2.3599,0.32859 -3.4352,0 -5.7652,-2.15074 l 1.2247,-2.15075 q 0.09,0.0896 0.1195,0.29871 0.03,0.17923 0.2091,0.44808 0.1793,0.26884 0.6572,0.6273 0.4779,0.32858 1.4637,0.74678 0.4481,0.2091 1.0156,0.29872 0.5676,0.0896 1.1352,0.0896 0.5974,0 1.1948,-0.14935 0.6273,-0.14936 1.1053,-0.41821 0.5078,-0.29871 0.8065,-0.68704 0.2987,-0.4182 0.2987,-0.92601 0,-0.77666 -0.7169,-1.31435 -0.7169,-0.53769 -2.6287,-1.10524 -1.3143,-0.38833 -1.7325,-0.53769 -1.0754,-0.4182 -1.5534,-0.71691 -0.4779,-0.32859 -0.8662,-0.74679 -0.3884,-0.44807 -0.6273,-0.98576 -0.239,-0.56756 -0.239,-1.22473 0,-0.71691 0.3883,-1.37409 0.3883,-0.65717 1.0754,-1.16498 0.7169,-0.50782 1.6728,-0.80653 0.9858,-0.32859 2.1209,-0.32859 3.1365,0 5.0781,2.15075 z"
           inkscape:connector-curvature="0" />
        <path
           id="path8732"
           d="m 1554.6812,728.33803 2.3599,-0.38833 q 0,0.26884 -0.09,0.47794 -0.06,0.2091 -0.09,0.32859 l -0.3584,3.22612 4.4807,0 0,1.76241 -4.4807,0 q -0.2689,2.65856 -0.2689,4.98854 0,1.43383 0.06,2.41959 0.06,0.98575 0.2987,1.55331 0.2688,0.56756 0.7468,0.89615 0.4779,0.29871 1.2844,0.29871 1.3741,0 3.0469,-1.22473 l 0.6572,1.70267 q -2.0611,1.52345 -4.2417,1.52345 -2.1508,0 -3.1365,-1.28447 -0.9858,-1.31435 -0.8962,-4.24175 0,-1.07537 0.06,-2.74818 0.06,-1.6728 0.2389,-3.88329 l -3.1962,0 0,-1.76241 3.2858,0 0.239,-3.64432 z"
           inkscape:connector-curvature="0" />
        <path
           id="path8734"
           d="m 1592.5881,734.25258 -1.5234,1.76241 q -0.1494,-0.0896 -0.1494,-0.17922 0.03,-0.11949 -0.03,-0.29872 -0.03,-0.17923 -0.2091,-0.44807 -0.1792,-0.26884 -0.7169,-0.71692 -1.0156,-0.8364 -2.778,-0.8364 -0.8663,0 -1.6728,0.35846 -0.7767,0.35846 -1.3741,1.0455 -0.5975,0.65717 -0.9559,1.61306 -0.3585,0.92602 -0.3585,2.091 0,1.16499 0.3585,2.15075 0.3584,0.98576 0.9858,1.70267 0.6273,0.71692 1.4935,1.13512 0.8663,0.38833 1.9118,0.38833 2.0611,0 3.5547,-1.67281 l 1.2546,1.46371 q -2.0313,2.15074 -4.9885,2.15074 -1.4637,0 -2.7183,-0.53768 -1.2248,-0.53769 -2.1508,-1.49358 -0.8961,-0.95588 -1.4039,-2.24036 -0.5079,-1.31434 -0.5079,-2.86766 0,-1.52344 0.5079,-2.83779 0.5078,-1.31434 1.4039,-2.24036 0.926,-0.95588 2.1806,-1.49357 1.2845,-0.53769 2.7781,-0.53769 1.613,0 2.9274,0.68705 1.3442,0.65717 2.1806,1.85203 z"
           inkscape:connector-curvature="0" />
        <path
           id="path8736"
           d="m 1596.5909,733.59541 q 1.8221,-1.91178 4.869,-1.91178 2.5092,0 3.9431,1.28447 1.4637,1.25461 1.4637,4.21188 l 0,8.45363 -2.0313,0 0,-1.49358 q -2.1806,1.82216 -4.8989,1.82216 -1.0754,0 -1.9417,-0.32858 -0.8364,-0.32859 -1.4338,-0.86628 -0.5974,-0.53768 -0.926,-1.22473 -0.2987,-0.68704 -0.2987,-1.37408 0,-2.06114 1.7624,-3.25599 1.7923,-1.19486 5.1379,-1.31435 l 2.5689,0 0,-0.50781 q 0,-2.03126 -0.8662,-2.83779 -0.8364,-0.80653 -2.6287,-0.80653 -2.2105,0 -3.6742,1.52344 l -1.0455,-1.37408 z m 8.3042,5.6457 -0.5078,0 q -0.4182,0 -0.8065,0 -0.3585,-0.0299 -0.7169,-0.0299 -1.6429,0 -2.6884,0.23897 -1.0455,0.2091 -1.643,0.59743 -0.5974,0.38833 -0.8364,0.89615 -0.2091,0.47794 -0.2091,1.0455 0,0.95588 0.8364,1.64293 0.8364,0.68704 2.0612,0.68704 0.8961,0 1.613,-0.26884 0.7169,-0.29872 1.2546,-0.68705 0.5377,-0.4182 0.8663,-0.8364 0.3286,-0.44807 0.4779,-0.77665 0.2987,-0.59743 0.2987,-1.61306 l 0,-0.89615 z"
           inkscape:connector-curvature="0" />
        <path
           id="path8738"
           d="m 1611.3474,725.76908 6.034,0 0,18.13198 4.0028,0 0,1.73255 -10.216,0 0,-1.73255 4.0326,0 0,-16.39943 -3.8534,0 0,-1.73255 z"
           inkscape:connector-curvature="0" />
        <path
           id="path8740"
           d="m 1626.2831,725.76908 6.0341,0 0,18.13198 4.0027,0 0,1.73255 -10.216,0 0,-1.73255 4.0326,0 0,-16.39943 -3.8534,0 0,-1.73255 z"
           inkscape:connector-curvature="0" />
        <path
           id="path8742"
           d="m 1656.7819,731.98235 5.4665,0 0,11.91871 3.1962,0 0,1.73255 -8.8419,0 0,-1.73255 3.4949,0 0,-10.18617 -3.3157,0 0,-1.73254 z m 3.3456,-5.49635 q 0.4481,-0.44808 1.0754,-0.44808 0.6273,0 1.0753,0.47795 0.478,0.44807 0.478,1.07537 0,0.6273 -0.478,1.07537 -0.448,0.44808 -1.0753,0.44808 -0.6273,0 -1.0754,-0.44808 -0.4481,-0.44807 -0.4481,-1.07537 0,-0.65717 0.4481,-1.10524 z"
           inkscape:connector-curvature="0" />
        <path
           id="path8744"
           d="m 1674.1671,728.33803 2.3598,-0.38833 q 0,0.26884 -0.09,0.47794 -0.06,0.2091 -0.09,0.32859 l -0.3585,3.22612 4.4808,0 0,1.76241 -4.4808,0 q -0.2688,2.65856 -0.2688,4.98854 0,1.43383 0.06,2.41959 0.06,0.98575 0.2987,1.55331 0.2689,0.56756 0.7468,0.89615 0.478,0.29871 1.2845,0.29871 1.3741,0 3.0469,-1.22473 l 0.6572,1.70267 q -2.0612,1.52345 -4.2418,1.52345 -2.1507,0 -3.1365,-1.28447 -0.9857,-1.31435 -0.8961,-4.24175 0,-1.07537 0.06,-2.74818 0.06,-1.6728 0.239,-3.88329 l -3.1963,0 0,-1.76241 3.2859,0 0.239,-3.64432 z"
           inkscape:connector-curvature="0" />
      </g>
      <g
         id="text8750"
         style="font-style:normal;font-variant:normal;font-weight:bold;font-stretch:normal;font-size:55.48496628px;line-height:125%;font-family:Inconsolata;-inkscape-font-specification:'Inconsolata, Bold';text-align:start;letter-spacing:0px;word-spacing:0px;writing-mode:lr-tb;text-anchor:start;fill:#e52868;fill-opacity:1;stroke:none;stroke-width:1px;stroke-linecap:butt;stroke-linejoin:miter;stroke-opacity:1">
        <path
           id="path8755"
           style="letter-spacing:-3px"
           d="m 1529.1659,787.66382 0,22.78459 q 0,0.7044 0.1354,1.49008 0.1626,0.78568 0.3793,1.62554 l -6.0145,0 q -0.3251,-0.24383 -0.4335,-0.7315 -0.1083,-0.48766 -0.1083,-0.86695 l 0,-0.83986 q -0.569,0.83986 -1.3817,1.49008 -0.8128,0.65021 -1.761,1.11078 -0.9483,0.46057 -1.9507,0.7044 -0.9753,0.24383 -1.8964,0.24383 -2.0319,0 -3.6304,-0.59603 -1.5984,-0.59603 -2.7092,-1.89646 -1.1108,-1.30043 -1.7068,-3.35944 -0.569,-2.05901 -0.569,-4.95789 l 0,-16.20117 6.1229,0 0,16.20117 q 0,2.98015 1.0024,4.36186 1.0295,1.35461 2.7092,1.35461 1.165,0 2.1674,-0.46057 1.0295,-0.48766 1.761,-1.32752 0.7586,-0.83986 1.1921,-2.00483 0.4334,-1.19206 0.4334,-2.60085 l 0,-15.52387 6.2584,0 z"
           inkscape:connector-curvature="0" />
        <path
           id="path8757"
           style="letter-spacing:-3px"
           d="m 1532.7764,813.56403 0,-25.90021 6.2583,0 0,2.65504 q 1.3546,-1.46298 3.1427,-2.32994 1.7881,-0.89404 3.6304,-0.89404 1.9506,0 3.549,0.59603 1.5985,0.59603 2.7093,1.89646 1.1378,1.27333 1.7339,3.33235 0.6231,2.03192 0.6231,4.93079 l 0,15.71352 -6.1229,0 0,-15.65934 q 0,-1.49007 -0.2709,-2.57376 -0.2709,-1.08369 -0.7586,-1.761 -0.4876,-0.7044 -1.1649,-1.0295 -0.6773,-0.32511 -1.5172,-0.32511 -1.165,0 -2.1945,0.46057 -1.0024,0.46057 -1.761,1.30043 -0.7315,0.83986 -1.1649,2.03192 -0.4335,1.16496 -0.4335,2.57376 l 0,14.98203 -6.2583,0 z"
           inkscape:connector-curvature="0" />
      </g>
      <g
         id="text8759"
         style="font-style:normal;font-variant:normal;font-weight:bold;font-stretch:normal;font-size:55.48496628px;line-height:125%;font-family:Inconsolata;-inkscape-font-specification:'Inconsolata, Bold';text-align:start;letter-spacing:-0.01999999px;word-spacing:0px;writing-mode:lr-tb;text-anchor:start;fill:#039400;fill-opacity:1;stroke:none;stroke-width:1px;stroke-linecap:butt;stroke-linejoin:miter;stroke-opacity:1">
        <path
           id="path8764"
           style="letter-spacing:-3px"
           d="m 1568.9069,791.64638 q -0.8398,0 -1.5713,0.29802 -0.7044,0.29801 -1.2463,0.86695 -0.5418,0.54184 -0.8669,1.35461 -0.298,0.78568 -0.298,1.81518 0,0.86696 0.2709,1.62554 0.298,0.75858 0.8127,1.32752 0.5148,0.56894 1.2463,0.92114 0.7315,0.32511 1.6526,0.32511 0.9482,0 1.7068,-0.32511 0.7586,-0.3522 1.2734,-0.92114 0.5418,-0.56894 0.8127,-1.32752 0.271,-0.75858 0.271,-1.62554 0,-0.86695 -0.271,-1.65262 -0.2709,-0.78568 -0.8127,-1.38171 -0.5148,-0.59603 -1.2734,-0.94823 -0.7586,-0.3522 -1.7068,-0.3522 z m 0.1084,-4.76824 q 3.3865,0 5.7706,1.81518 1.2192,-0.81276 2.628,-1.21915 1.4088,-0.43348 3.0885,-0.43348 l 1.7881,0 0.8128,5.283 q -0.5148,-0.0813 -1.0295,-0.13546 -0.4877,-0.0542 -0.8941,-0.10837 -0.3793,-0.0542 -0.6502,-0.0813 -0.2709,-0.0271 -0.298,-0.0271 -1.165,0 -2.3841,0.46057 0.3793,0.86695 0.6231,1.78809 0.2709,0.89404 0.2709,1.81518 0,1.84227 -0.7857,3.46781 -0.7586,1.62553 -2.0861,2.84469 -1.3275,1.21915 -3.1156,1.92355 -1.761,0.7044 -3.7929,0.7044 -0.5418,0 -1.1108,-0.0542 -0.5689,-0.0542 -1.165,-0.24383 -0.7585,0.51475 -1.2191,1.00242 -0.4335,0.48766 -0.4335,1.11078 0,0.75858 0.7857,1.0295 0.7857,0.24384 2.0319,0.24384 0.9482,0 1.9778,-0.0813 1.0295,-0.0813 1.8693,-0.0813 2.7363,0 4.6328,0.51475 1.9235,0.51476 3.0885,1.46299 1.1921,0.92113 1.7068,2.19447 0.5419,1.27334 0.5419,2.8176 0,1.59844 -0.7586,3.06142 -0.7315,1.49008 -2.2216,2.65505 -1.4901,1.16496 -3.7387,1.84227 -2.2487,0.7044 -5.2559,0.7044 -3.1427,0 -5.3914,-0.54185 -2.2486,-0.51475 -3.6845,-1.43589 -1.4359,-0.89404 -2.1132,-2.11319 -0.6773,-1.19206 -0.6773,-2.54668 0,-0.6773 0.2438,-1.40879 0.2438,-0.7044 0.6773,-1.38171 0.4606,-0.67731 1.0837,-1.27334 0.6231,-0.59603 1.3546,-1.0566 -0.9482,-0.6773 -1.3004,-1.59844 -0.3522,-0.94823 -0.3522,-1.89646 0,-1.30043 0.894,-2.62795 0.8941,-1.32752 2.2758,-2.46539 -0.8399,-0.51476 -1.4901,-1.27334 -0.6502,-0.75858 -1.1108,-1.62554 -0.4605,-0.86695 -0.7044,-1.81518 -0.2438,-0.94823 -0.2438,-1.89646 0,-1.95064 0.8128,-3.65745 0.8398,-1.70682 2.2215,-2.95306 1.3817,-1.27334 3.1427,-1.97774 1.7881,-0.73149 3.6846,-0.73149 z m 3.7116,26.14404 q -2.0048,0 -3.7116,-0.0271 -1.7068,-0.0271 -3.5491,-0.16256 -1.0024,0.59603 -1.4901,1.38171 -0.4605,0.81277 -0.4605,1.51717 0,0.78567 0.4876,1.30043 0.5148,0.54184 1.3817,0.86695 0.867,0.3522 2.0048,0.48766 1.1379,0.16255 2.4113,0.16255 1.3275,0 2.4383,-0.24383 1.1107,-0.21674 1.9235,-0.65021 0.8128,-0.40639 1.2734,-1.00242 0.4605,-0.56893 0.5147,-1.30042 -0.081,-1.02951 -0.8128,-1.67973 -0.7315,-0.65021 -2.4112,-0.65021 z"
           inkscape:connector-curvature="0" />
        <path
           id="path8766"
           style="letter-spacing:-3px"
           d="m 1585.7114,787.66382 6.3937,0 0,2.81759 q 0.6232,-0.7044 1.4088,-1.32752 0.7857,-0.62312 1.6798,-1.08369 0.894,-0.46057 1.8693,-0.7044 1.0024,-0.27092 2.0319,-0.27092 2.1945,0 4.1723,0.7044 2.0048,0.67731 3.549,2.14029 l -2.8988,6.04157 q -1.3546,-1.86936 -2.6009,-2.73632 -1.2462,-0.86695 -2.4925,-0.86695 -1.4359,0 -2.6821,0.62312 -1.2192,0.59603 -2.1674,1.65263 -0.9211,1.02951 -1.463,2.43831 -0.5147,1.3817 -0.5147,2.92596 l 0,13.54614 -6.2854,0 0,-25.90021 z"
           inkscape:connector-curvature="0" />
        <path
           id="path8768"
           style="letter-spacing:-3px"
           d="m 1619.8278,787.09488 q 2.3028,0 4.3076,0.81277 2.0049,0.81277 3.4949,2.41121 1.5172,1.57135 2.3842,3.95547 0.8669,2.35703 0.8669,5.47264 0,0.67731 -0.054,1.32752 -0.054,0.65021 -0.1083,1.27334 l -16.9869,0 q 0.2167,1.86936 0.867,3.22398 0.6502,1.32752 1.5713,2.22156 0.9212,0.86696 2.0319,1.30043 1.1379,0.40639 2.3029,0.40639 1.761,0 3.4407,-0.78568 1.7068,-0.81277 2.926,-2.35703 l 3.4407,3.44072 q -3.9284,4.65987 -9.8074,4.65987 -2.7905,0 -5.1746,-0.92114 -2.3571,-0.92113 -4.091,-2.65504 -1.7068,-1.7339 -2.6821,-4.22639 -0.9753,-2.51958 -0.9753,-5.68938 0,-3.22398 0.9211,-5.79774 0.9211,-2.57377 2.5467,-4.36186 1.6526,-1.78809 3.8742,-2.73632 2.2486,-0.97532 4.9037,-0.97532 z m 4.8495,10.70145 q 0,-1.21916 -0.3793,-2.30285 -0.3522,-1.11078 -1.0295,-1.92355 -0.6502,-0.83986 -1.6255,-1.32752 -0.9483,-0.48766 -2.1403,-0.48766 -1.1379,0 -2.1132,0.43348 -0.9483,0.43347 -1.6798,1.21915 -0.7044,0.78567 -1.1649,1.89646 -0.4335,1.11078 -0.5961,2.49249 l 10.7286,0 z"
           inkscape:connector-curvature="0" />
        <path
           id="path8770"
           style="letter-spacing:-3px"
           d="m 1644.5703,787.09488 q 2.3028,0 4.3076,0.81277 2.0048,0.81277 3.4949,2.41121 1.5172,1.57135 2.3841,3.95547 0.867,2.35703 0.867,5.47264 0,0.67731 -0.054,1.32752 -0.054,0.65021 -0.1084,1.27334 l -16.9868,0 q 0.2167,1.86936 0.8669,3.22398 0.6503,1.32752 1.5714,2.22156 0.9211,0.86696 2.0319,1.30043 1.1379,0.40639 2.3029,0.40639 1.761,0 3.4407,-0.78568 1.7068,-0.81277 2.9259,-2.35703 l 3.4408,3.44072 q -3.9284,4.65987 -9.8074,4.65987 -2.7905,0 -5.1747,-0.92114 -2.357,-0.92113 -4.0909,-2.65504 -1.7068,-1.7339 -2.6821,-4.22639 -0.9754,-2.51958 -0.9754,-5.68938 0,-3.22398 0.9212,-5.79774 0.9211,-2.57377 2.5467,-4.36186 1.6526,-1.78809 3.8742,-2.73632 2.2486,-0.97532 4.9037,-0.97532 z m 4.8495,10.70145 q 0,-1.21916 -0.3793,-2.30285 -0.3522,-1.11078 -1.0295,-1.92355 -0.6502,-0.83986 -1.6256,-1.32752 -0.9482,-0.48766 -2.1403,-0.48766 -1.1378,0 -2.1132,0.43348 -0.9482,0.43347 -1.6797,1.21915 -0.7044,0.78567 -1.1649,1.89646 -0.4335,1.11078 -0.5961,2.49249 l 10.7286,0 z"
           inkscape:connector-curvature="0" />
        <path
           id="path8772"
           style="letter-spacing:-3px"
           d="m 1658.3404,813.56403 0,-25.90021 6.2583,0 0,2.65504 q 1.3546,-1.46298 3.1427,-2.32994 1.7881,-0.89404 3.6303,-0.89404 1.9507,0 3.5491,0.59603 1.5985,0.59603 2.7093,1.89646 1.1378,1.27333 1.7339,3.33235 0.6231,2.03192 0.6231,4.93079 l 0,15.71352 -6.1229,0 0,-15.65934 q 0,-1.49007 -0.2709,-2.57376 -0.2709,-1.08369 -0.7586,-1.761 -0.4876,-0.7044 -1.1649,-1.0295 -0.6773,-0.32511 -1.5172,-0.32511 -1.165,0 -2.1945,0.46057 -1.0024,0.46057 -1.761,1.30043 -0.7315,0.83986 -1.1649,2.03192 -0.4335,1.16496 -0.4335,2.57376 l 0,14.98203 -6.2583,0 z"
           inkscape:connector-curvature="0" />
      </g>
    </g>
  </g>
  <g
     inkscape:groupmode="layer"
     id="layer4"
     inkscape:label="logo"
     style="display:inline"
     sodipodi:insensitive="true">
    <g
       id="g7761"
       transform="matrix(0.54516901,0,0,0.54516901,1827.5734,255.37117)"
       style="fill:#ff8585;fill-opacity:0.35042737">
      <g
         transform="translate(0,-952.36212)"
         id="layer1-9"
         inkscape:label="bg"
         style="fill:#ff8585;fill-opacity:0.35042737" />
      <g
         transform="translate(0,1.8417969e-5)"
         style="opacity:1;fill:#ff8585;fill-opacity:0.35042737"
         inkscape:label="drawing"
         id="layer2-8">
        <path
           id="path7439"
           transform="translate(0,-1.8417969e-5)"
           d="M 46,0.18164062 A 50,50 0 0 0 0,50 50,50 0 0 0 50,100 50,50 0 0 0 69,96.207031 L 69,49 l -9,0 0,29 c 0.279229,6.224004 -7.209896,9.656042 -12,5 L 12,47 C 6.5165082,41 12,35 16,35 L 46,35 46,0.18164062 Z M 60,1.0136719 60,35 76,35 c 3.892569,0.0959 6.691729,3.225703 7,7 l 0,45.480469 A 50,50 0 0 0 100,50 50,50 0 0 0 60,1.0136719 Z M 34,49 46,61 46,49 34,49 Z"
           style="opacity:1;fill:#ff8585;fill-opacity:0.35042737;fill-rule:nonzero;stroke:none;stroke-width:5;stroke-linecap:round;stroke-miterlimit:4;stroke-dasharray:none;stroke-dashoffset:0;stroke-opacity:1"
           inkscape:connector-curvature="0" />
      </g>
    </g>
  </g>
</svg>
