<svg xmlns="http://www.w3.org/2000/svg" width="1920" height="1080" xmlns:xlink="http://www.w3.org/1999/xlink"><defs><linearGradient id="a"><stop offset="0" stop-color="#3ebd00"/><stop offset="1" stop-color="#029300"/></linearGradient><linearGradient id="b" x1="1724" x2="1868" y1="856.362" y2="1000.362" xlink:href="#a" gradientUnits="userSpaceOnUse" gradientTransform="matrix(1.0057 0 0 1.0057 -5.474 -2.93)"/></defs><path fill="#fff" d="M0 0h1921v1080H0z"/><g stroke-width="10.057" stroke-linecap="round"><path fill="#fefafb" stroke="#f5dfe6" d="M21.638 25.513h186.715v186.715H21.638z"/><path fill="#fce5ed" stroke="#f2c5d4" d="M232.89 25.513h186.714v186.715H232.89z"/><path fill="#f9cbda" stroke="#f0b1c6" d="M444.14 25.513h186.715v186.715H444.14z"/><path fill="#f6b5cb" stroke="#ee99b5" d="M655.39 25.513h186.716v186.715H655.39z"/><path fill="#f39cb9" stroke="#ea81a5" d="M866.643 25.513h186.715v186.715H866.643z"/><path fill="#f084a9" stroke="#e66692" d="M1077.894 25.513h186.715v186.715h-186.716z"/><path fill="#ed6996" stroke="#ea5386" d="M1289.145 25.513h186.715v186.715h-186.715z"/><path fill="#ea5386" stroke="#e73a74" d="M1500.396 25.513h186.715v186.715h-186.714z"/><path fill="#e73a74" stroke="#e73571" d="M1711.647 25.513h186.715v186.715h-186.715z"/><path fill="#f9d1de" stroke="#f8c7d7" d="M21.638 236.132h186.715v186.715H21.638z"/><path fill="#f8c7d7" stroke="#f7b9ce" d="M232.89 236.132h186.714v186.715H232.89z"/><path fill="#f7b9ce" stroke="#f4a5c0" d="M444.14 236.132h186.715v186.715H444.14z"/><path fill="#f4a5c0" stroke="#f18fb0" d="M655.39 236.132h186.716v186.715H655.39z"/><path fill="#f18fb0" stroke="#ef77a0" d="M866.643 236.132h186.715v186.715H866.643z"/><path fill="#ef77a0" stroke="#ec6090" d="M1077.894 236.132h186.715v186.715h-186.716z"/><path fill="#ec6090" stroke="#e94a80" d="M1289.145 236.132h186.715v186.715h-186.715z"/><path fill="#e94a80" stroke="#e73571" d="M1500.396 236.132h186.715v186.715h-186.714z"/><path fill="#e73571" stroke="#e52868" d="M1711.647 236.132h186.715v186.715h-186.715z"/><path fill="#f4a2be" stroke="#f39dba" d="M21.638 446.75h186.715v186.716H21.638z"/><path fill="#f39dba" stroke="#f294b4" d="M232.89 446.75h186.714v186.716H232.89z"/><path fill="#f294b4" stroke="#f188ac" d="M444.14 446.75h186.715v186.716H444.14z"/><path fill="#f188ac" stroke="#ee769e" d="M655.39 446.75h186.716v186.716H655.39z"/><path fill="#ee769e" stroke="#ec6492" d="M866.643 446.75h186.715v186.716H866.643z"/><path fill="#ec6492" stroke="#ea4f83" d="M1077.894 446.75h186.715v186.716h-186.716z"/><path fill="#ea4f83" stroke="#e73b76" d="M1289.145 446.75h186.715v186.716h-186.715z"/><path fill="#e73b76" stroke="#e52868" d="M1500.396 446.75h186.715v186.716h-186.714z"/><path fill="#e52868" stroke="#e52868" d="M1711.647 446.75h186.715v186.716h-186.715z"/><path fill="#ee779f" stroke="#ee739d" d="M21.638 657.37h186.715v186.715H21.638z"/><path fill="#ee739d" stroke="#ed6794" d="M232.89 657.37h186.714v186.715H232.89z"/><path fill="#ed6794" stroke="#ec6391" d="M444.14 657.37h186.715v186.715H444.14z"/><path fill="#ec6391" stroke="#ea5588" d="M655.39 657.37h186.716v186.715H655.39z"/><path fill="#ea5588" stroke="#e9467d" d="M866.643 657.37h186.715v186.715H866.643z"/><path fill="#e9467d" stroke="#e73672" d="M1077.894 657.37h186.715v186.715h-186.716z"/><path fill="#e73672" stroke="#e52868" d="M1289.145 657.37h186.715v186.715h-186.715z"/><path fill="#e52868" stroke="#e52868" d="M1711.647 657.37h186.715v186.715h-186.715z"/><path fill="#e94980" stroke="#e9497f" d="M21.638 867.99h186.715v186.714H21.638z"/><path fill="#e9497f" stroke="#e83f78" d="M232.89 867.99h186.714v186.714H232.89z"/><path fill="#e83f78" stroke="#e73a74" d="M444.14 867.99h186.715v186.714H444.14z"/><path fill="#e73a74" stroke="#e62d6c" d="M655.39 867.99h186.716v186.714H655.39z"/><path fill="#e62d6c" stroke="#e52868" d="M866.643 867.99h186.715v186.714H866.643z"/><path fill="#e52868" stroke="#e52868" d="M1077.894 867.99h186.715v186.714h-186.716zM1289.145 867.99h186.715v186.714h-186.715zM1500.396 867.99h186.715v186.714h-186.714z"/><path fill="url(#b)" stroke="#21680d" d="M1711.647 840.35h186.715v186.716h-186.715z" transform="translate(0 27.638)"/></g><g font-family="Inconsolata" word-spacing="0"><g fill="#e52868" style="line-height:125%;-inkscape-font-specification:'Inconsolata, Normal';text-align:start" font-size="32.256" letter-spacing="0"><path d="M1506.389 679.622h13.933v2.032h-5.935v18.096h-2.29v-18.096h-5.71v-2.032zM1523.774 699.75V678.3h2.678v.032q.032 0 .032.032 0 .097-.162.29-.13.162-.193.42v8.548q.87-1.355 2.16-2.162 1.322-.806 2.677-.806 1 0 1.806.355.84.32 1.452 1.063.613.742.935 1.903.323 1.162.323 2.84v8.934h-2.29v-8.87q0-2.323-.807-3.258-.774-.936-1.903-.936-.742 0-1.484.323-.742.32-1.452.902-.677.58-1.064 1.42-.355.838-.355 1.934v8.484h-2.356zM1545.998 684.654q1.162 0 2.258.42 1.097.42 1.903 1.29.838.838 1.322 2.16.516 1.323.516 3.13 0 .258-.032.548 0 .258-.032.516h-10.483q.065 1.548.517 2.613.484 1.033 1.194 1.678t1.58.935q.872.258 1.743.258 2.29 0 3.806-1.644l1.29 1.258q-1.87 2.258-5.162 2.258-1.612 0-2.967-.484-1.322-.516-2.257-1.483-.935-.968-1.45-2.387-.518-1.452-.518-3.29 0-1.87.517-3.323.548-1.45 1.45-2.42.936-1 2.162-1.515 1.226-.516 2.645-.516zm-4.45 6.258h8.095v-.226q.032-.13.032-.29 0-.807-.322-1.516-.29-.742-.807-1.258-.516-.55-1.225-.87-.677-.324-1.483-.324-1.516 0-2.742 1.097-1.225 1.064-1.548 3.387zM1555.675 686.04l-.42-1.03h2.872q0 .257-.064.45-.065.162-.065.323 0 .13.065.194l4.322 10.837 2.806-7.902q.42-1.13.678-2.097.26-1 .42-1.806h2.42q-.29.838-.646 1.902-.323 1.064-.806 2.355l-4 10.547-.613 1.613q-.774 2.16-2 3.032-1.193.902-2.774.902-2.098 0-3.388-1.258l1.226-2.064q.097.097.16.29.066.226.098.29l.13.13q.128.16.322.29.226.16.548.29.323.13.71.13.935 0 1.645-.58.743-.582 1.452-2.098l.452-1.097-5.548-13.644zM1599.962 686.976l-1.354 2.033q-.162-.034-.162-.26 0-.225-.064-.322-.58-.742-1.645-1.355-1.064-.645-2.42-.645-.612 0-1.192.16-.55.13-1 .388-.42.26-.678.678-.258.387-.258.903 0 .387.193.71.193.29.613.58t1.16.58q.775.29 2 .646 2.775.742 3.904 1.774 1.16 1 1.16 2.484 0 .968-.42 1.84-.418.87-1.224 1.515-.807.645-1.936 1.032-1.13.355-2.548.355-3.71 0-6.225-2.322l1.322-2.323q.096.097.128.323.032.194.226.484t.71.677q.516.356 1.58.808.484.225 1.097.322.614.097 1.227.097.645 0 1.29-.16.677-.163 1.193-.453.55-.322.87-.742.324-.45.324-1 0-.838-.774-1.42-.774-.58-2.84-1.192-1.418-.42-1.87-.58-1.16-.453-1.677-.775-.516-.355-.935-.807-.42-.483-.678-1.064-.258-.613-.258-1.322 0-.775.42-1.484.42-.71 1.16-1.258.775-.55 1.807-.87 1.064-.356 2.29-.356 3.386 0 5.483 2.323zM1604.414 699.75V678.3h2.677v.032q.033 0 .033.032 0 .097-.16.29-.13.162-.195.42v8.548q.87-1.355 2.16-2.162 1.324-.806 2.678-.806 1 0 1.807.355.838.32 1.45 1.063.614.742.937 1.903.322 1.162.322 2.84v8.934h-2.29v-8.87q0-2.323-.806-3.258-.775-.936-1.903-.936-.742 0-1.484.323-.743.32-1.453.902-.677.58-1.064 1.42-.355.838-.355 1.934v8.484h-2.355zM1626.476 684.686q1.355 0 2.55.55 1.224.515 2.128 1.515.903 1 1.42 2.452.547 1.42.547 3.193 0 1.807-.515 3.226-.516 1.42-1.42 2.452-.902 1-2.128 1.55-1.226.515-2.613.515-1.42 0-2.677-.58-1.226-.58-2.16-1.58-.937-1.033-1.485-2.453t-.548-3.064q0-1.645.548-3.097.58-1.45 1.516-2.45.968-1.033 2.226-1.614 1.258-.614 2.612-.614zm4.323 7.774q0-1.387-.388-2.45-.355-1.098-.968-1.84t-1.42-1.13q-.773-.386-1.644-.386-.87 0-1.678.387-.774.388-1.387 1.13-.58.742-.935 1.806-.355 1.032-.355 2.355 0 1.29.355 2.356.355 1.064.935 1.838.613.774 1.42 1.194.806.42 1.71.42.902 0 1.677-.356.806-.387 1.387-1.097.61-.74.934-1.806.355-1.065.355-2.42zM1636.444 685.01h2.322v8.224q0 1.42.258 2.387.258.936.71 1.517.483.58 1.064.84.613.257 1.323.257.775-.065 1.484-.387.71-.323 1.258-.903.58-.613.903-1.55.323-.934.323-2.257v-8.128h2.355v13.417q0 .742.16 1.323h-2.45q-.033-.226-.065-.484-.032-.29 0-.645l.032-1.128q-.71 1.226-1.935 1.935-1.193.678-2.645.678-1.13 0-2.032-.387-.903-.42-1.645-1.258-.71-.84-1.097-2.13-.355-1.29-.355-3.096l.033-8.225zM1653.28 678.3h6.517v19.58h4.322v1.87h-11.033v-1.87h4.355v-17.71h-4.16v-1.87zM1678.634 687.17v-8.87h2.484q0 .193-.162.45-.16.227-.16.453l.03 19.192q0 .774.162 1.355h-2.322q-.13-.387-.13-1.097v-1.258q-.71 1.226-1.934 1.968-1.226.71-2.484.71-1.226 0-2.322-.485-1.065-.483-1.904-1.45-.806-.97-1.29-2.42-.484-1.484-.484-3.484 0-2.032.55-3.45.547-1.453 1.418-2.356.903-.935 2-1.355 1.097-.45 2.225-.45 1.55 0 2.646.708 1.13.68 1.678 1.84zm-6.87.452q-1.387 1.258-1.387 4.257 0 2.773 1.064 4.483 1.065 1.677 3.13 1.677.484 0 1.032-.16.548-.195 1.032-.55.484-.354.87-.838.388-.484.582-1.097.354-1.16.354-3.096 0-1.227-.097-2.033-.097-.84-.322-1.42-.193-.58-.515-.935-.323-.387-.807-.677-.58-.355-1.096-.517-.484-.193-.936-.193-.935 0-1.613.258-.645.258-1.29.84z"/></g><g fill="#e52868" style="line-height:125%;-inkscape-font-specification:'Inconsolata, Normal';text-align:start" font-size="29.871" letter-spacing="0"><path d="M1508.022 731.982h7.26v12.994q0 1.554-.42 2.63-.418 1.104-1.164 1.79-.717.688-1.703 1.017-.986.36-2.12.418-2.63 0-4.183-1.91l1.404-1.853q.15.15.15.3.03.15.12.328.09.18.357.388.27.24.896.568.657.33 1.403.33 1.345 0 2.21-.927.867-.896.867-2.957v-11.35h-5.078v-1.764zm5.078-5.496q.448-.448 1.105-.448.628 0 1.076.448.48.448.48 1.105 0 .63-.48 1.077-.447.448-1.075.448-.627 0-1.105-.448-.448-.448-.448-1.076 0-.656.448-1.104zM1521.076 731.982h2.15v7.618q0 1.314.24 2.21.24.866.657 1.404.448.538.986.777.566.24 1.223.24.717-.06 1.374-.36.657-.298 1.165-.835.538-.568.837-1.434.297-.865.297-2.09v-7.528h2.18v12.427q0 .686.15 1.224h-2.27q-.03-.21-.06-.448-.03-.27 0-.598l.03-1.045q-.657 1.135-1.792 1.792-1.105.627-2.45.627-1.045 0-1.882-.358-.836-.39-1.523-1.165-.657-.778-1.016-1.973-.328-1.195-.328-2.867l.03-7.618zM1547.034 733.805l-1.255 1.88q-.15-.028-.15-.238t-.06-.298q-.537-.688-1.523-1.256-.986-.597-2.24-.597-.568 0-1.106.15-.507.12-.925.358-.388.238-.627.627-.24.358-.24.836 0 .36.18.657.18.27.568.538.388.27 1.075.538.718.27 1.853.598 2.57.687 3.615 1.643 1.075.927 1.075 2.3 0 .897-.388 1.704-.39.806-1.136 1.404-.747.597-1.793.956-1.045.328-2.36.328-3.435 0-5.765-2.15l1.225-2.15q.09.088.12.298.03.18.208.448.18.268.658.627.478.328 1.463.747.448.21 1.016.298.568.09 1.135.09.598 0 1.195-.15.627-.15 1.105-.418.508-.298.807-.687.298-.418.298-.926 0-.777-.716-1.315-.717-.538-2.63-1.105-1.313-.39-1.732-.538-1.075-.418-1.553-.717-.477-.328-.865-.747-.39-.448-.628-.985-.24-.568-.24-1.225 0-.717.39-1.374.388-.657 1.075-1.165.717-.51 1.673-.808.986-.328 2.12-.328 3.137 0 5.08 2.15zM1554.68 728.338l2.36-.388q0 .27-.09.478-.06.21-.09.328l-.357 3.226h4.48v1.763h-4.48q-.27 2.658-.27 4.988 0 1.434.06 2.42t.3 1.553q.268.568.746.896.477.3 1.284.3 1.374 0 3.047-1.226l.658 1.703q-2.06 1.522-4.242 1.522-2.15 0-3.136-1.284-.986-1.314-.897-4.242 0-1.075.06-2.748.06-1.673.24-3.883h-3.197v-1.763h3.286l.24-3.644zM1592.588 734.253l-1.523 1.762q-.15-.09-.15-.18.03-.12-.03-.298-.03-.18-.21-.448-.178-.27-.716-.718-1.016-.836-2.78-.836-.865 0-1.672.358-.776.36-1.374 1.046-.597.657-.956 1.613-.358.926-.358 2.09 0 1.166.358 2.15.36.987.986 1.704.628.717 1.494 1.135.866.39 1.912.39 2.06 0 3.554-1.674l1.255 1.463q-2.032 2.152-4.99 2.152-1.463 0-2.718-.537-1.225-.538-2.15-1.494-.897-.955-1.405-2.24-.507-1.314-.507-2.867 0-1.524.507-2.838.508-1.314 1.404-2.24.927-.956 2.182-1.494 1.284-.536 2.778-.536 1.613 0 2.927.687 1.345.658 2.18 1.853zM1596.59 733.595q1.823-1.91 4.87-1.91 2.51 0 3.943 1.283 1.464 1.255 1.464 4.212v8.454h-2.032v-1.494q-2.18 1.822-4.9 1.822-1.074 0-1.94-.328-.837-.33-1.434-.867-.596-.537-.925-1.224-.3-.687-.3-1.374 0-2.063 1.764-3.257 1.79-1.195 5.137-1.315h2.568v-.508q0-2.03-.866-2.837-.837-.807-2.63-.807-2.21 0-3.674 1.523l-1.045-1.375zm8.305 5.646h-1.314q-.358-.03-.716-.03-1.643 0-2.688.24-1.046.21-1.643.598-.598.388-.837.896-.21.478-.21 1.045 0 .955.837 1.642.837.687 2.062.687.896 0 1.613-.27.717-.298 1.254-.687.538-.418.867-.836.327-.448.476-.777.3-.597.3-1.613v-.896zM1611.347 725.77h6.034v18.13h4.004v1.734h-10.216V743.9h4.033v-16.398h-3.853v-1.733zM1626.283 725.77h6.034v18.13h4.003v1.734h-10.216V743.9h4.033v-16.398h-3.854v-1.733zM1656.782 731.982h5.466v11.92h3.197v1.732h-8.842V743.9h3.495v-10.185h-3.316v-1.733zm3.346-5.496q.448-.448 1.075-.448t1.075.478q.478.448.478 1.075 0 .63-.478 1.077-.448.448-1.075.448t-1.075-.448q-.45-.448-.45-1.076 0-.656.45-1.104zM1674.167 728.338l2.36-.388q0 .27-.09.478-.06.21-.09.328l-.36 3.226h4.482v1.763h-4.482q-.268 2.658-.268 4.988 0 1.434.06 2.42t.298 1.553q.27.568.747.896.478.3 1.285.3 1.374 0 3.046-1.226l.658 1.703q-2.062 1.522-4.242 1.522-2.15 0-3.137-1.284-.985-1.314-.896-4.242 0-1.075.06-2.748.06-1.673.238-3.883h-3.196v-1.763h3.286l.24-3.644z"/></g><g fill="#e52868" style="line-height:125%;-inkscape-font-specification:'Inconsolata, Bold';text-align:start" font-weight="bold" font-size="55.485" letter-spacing="-3"><path d="M1529.166 787.664v22.784q0 .705.135 1.49.164.786.38 1.626h-6.014q-.325-.244-.433-.73-.11-.49-.11-.868v-.84q-.568.84-1.38 1.49-.813.65-1.76 1.11-.95.46-1.952.705-.974.245-1.896.245-2.03 0-3.63-.596-1.598-.597-2.71-1.898-1.11-1.3-1.706-3.36-.57-2.058-.57-4.957v-16.2h6.124v16.2q0 2.98 1.002 4.362 1.03 1.354 2.71 1.354 1.165 0 2.167-.46 1.03-.487 1.762-1.327.76-.84 1.192-2.004.433-1.194.433-2.602v-15.524h6.26zM1532.776 813.564v-25.9h6.26v2.655q1.353-1.464 3.14-2.33 1.79-.895 3.632-.895 1.95 0 3.55.596 1.597.597 2.708 1.897 1.138 1.274 1.734 3.333.623 2.032.623 4.93v15.714h-6.123v-15.66q0-1.49-.27-2.573-.272-1.083-.76-1.76-.487-.704-1.164-1.03-.677-.325-1.517-.325-1.166 0-2.196.46-1.002.46-1.76 1.3-.732.84-1.166 2.033-.433 1.165-.433 2.574v14.982h-6.26z"/></g><g fill="#039400" style="line-height:125%;-inkscape-font-specification:'Inconsolata, Bold';text-align:start" font-weight="bold" font-size="55.485" letter-spacing="-3"><path d="M1568.907 791.646q-.84 0-1.57.298-.706.298-1.248.867-.543.543-.868 1.356-.298.786-.298 1.815 0 .868.27 1.627.3.758.814 1.327.515.57 1.246.92.732.326 1.653.326.948 0 1.707-.325.758-.352 1.273-.92.542-.57.813-1.328.27-.76.27-1.626 0-.866-.27-1.65-.27-.787-.813-1.383-.515-.596-1.273-.948-.76-.354-1.707-.354zm.108-4.768q3.387 0 5.77 1.815 1.22-.812 2.63-1.22 1.408-.432 3.087-.432h1.79l.81 5.284q-.514-.082-1.028-.136-.488-.054-.894-.108-.38-.054-.65-.08-.27-.03-.3-.03-1.164 0-2.383.462.38.867.623 1.788.27.894.27 1.815 0 1.843-.784 3.468-.76 1.626-2.086 2.845-1.328 1.22-3.116 1.923-1.76.706-3.793.706-.54 0-1.11-.054-.57-.055-1.165-.244-.758.514-1.22 1.002-.432.488-.432 1.11 0 .76.785 1.03.786.244 2.032.244.948 0 1.978-.08 1.03-.082 1.87-.082 2.736 0 4.632.514 1.924.515 3.09 1.463 1.19.92 1.705 2.194.542 1.273.542 2.817 0 1.6-.758 3.063-.733 1.49-2.223 2.655-1.49 1.165-3.74 1.842-2.247.705-5.254.705-3.143 0-5.392-.542-2.247-.515-3.683-1.436-1.436-.894-2.114-2.113-.677-1.192-.677-2.547 0-.677.244-1.41.244-.703.677-1.38.46-.678 1.084-1.274.624-.596 1.356-1.056-.95-.678-1.3-1.6-.353-.947-.353-1.895 0-1.3.894-2.628t2.276-2.466q-.84-.514-1.49-1.273-.65-.76-1.11-1.626-.462-.868-.706-1.816-.243-.948-.243-1.896 0-1.95.812-3.658.84-1.706 2.222-2.953 1.382-1.273 3.143-1.977 1.79-.732 3.685-.732zm3.712 26.144q-2.005 0-3.712-.027-1.707-.027-3.55-.162-1 .596-1.49 1.38-.46.814-.46 1.518 0 .787.488 1.302.515.542 1.382.867.867.35 2.005.486 1.138.163 2.41.163 1.328 0 2.44-.245 1.11-.217 1.923-.65.813-.406 1.273-1.002.46-.57.515-1.3-.08-1.03-.812-1.68-.73-.65-2.41-.65zM1585.71 787.664h6.395v2.817q.623-.703 1.41-1.326.785-.623 1.68-1.084.893-.46 1.868-.704 1.002-.27 2.032-.27 2.194 0 4.172.703 2.005.677 3.55 2.14l-2.9 6.04q-1.354-1.868-2.6-2.735-1.247-.867-2.493-.867-1.436 0-2.682.623-1.22.597-2.168 1.654-.92 1.03-1.463 2.438-.513 1.382-.513 2.926v13.546h-6.286v-25.9zM1619.828 787.095q2.303 0 4.307.813 2.005.812 3.495 2.41 1.517 1.572 2.384 3.956.867 2.357.867 5.473 0 .677-.053 1.327-.054.65-.108 1.274h-16.988q.217 1.87.867 3.224.65 1.327 1.57 2.22.922.868 2.032 1.302 1.138.406 2.303.406 1.76 0 3.44-.785 1.708-.813 2.927-2.358l3.44 3.44q-3.928 4.66-9.807 4.66-2.79 0-5.174-.92-2.356-.92-4.09-2.655-1.707-1.734-2.682-4.227-.976-2.52-.976-5.69 0-3.223.92-5.797.922-2.573 2.548-4.36 1.653-1.79 3.874-2.738 2.25-.975 4.904-.975zm4.85 10.7q0-1.218-.38-2.302-.352-1.11-1.03-1.923-.65-.84-1.625-1.328-.948-.487-2.14-.487-1.138 0-2.114.433-.95.434-1.68 1.22-.705.785-1.165 1.896-.434 1.11-.596 2.492h10.727zM1644.57 787.095q2.303 0 4.308.813 2.005.812 3.495 2.41 1.517 1.572 2.384 3.956.867 2.357.867 5.473 0 .677-.054 1.327-.054.65-.108 1.274h-16.987q.216 1.87.867 3.224.65 1.327 1.57 2.22.922.868 2.033 1.302 1.138.406 2.303.406 1.76 0 3.44-.785 1.707-.813 2.926-2.358l3.44 3.44q-3.927 4.66-9.806 4.66-2.79 0-5.175-.92-2.357-.92-4.09-2.655-1.708-1.734-2.683-4.227-.975-2.52-.975-5.69 0-3.223.92-5.797.922-2.573 2.548-4.36 1.652-1.79 3.874-2.738 2.248-.975 4.904-.975zm4.85 10.7q0-1.218-.38-2.302-.352-1.11-1.03-1.923-.65-.84-1.625-1.328-.948-.487-2.14-.487-1.138 0-2.113.433-.948.434-1.68 1.22-.704.785-1.165 1.896-.433 1.11-.596 2.492h10.73zM1658.34 813.564v-25.9h6.26v2.655q1.353-1.464 3.14-2.33 1.79-.895 3.632-.895 1.95 0 3.55.596 1.597.597 2.708 1.897 1.138 1.274 1.734 3.333.623 2.032.623 4.93v15.714h-6.123v-15.66q0-1.49-.27-2.573-.272-1.083-.76-1.76-.487-.704-1.164-1.03-.677-.325-1.517-.325-1.165 0-2.195.46-1.002.46-1.76 1.3-.732.84-1.166 2.033-.433 1.165-.433 2.574v14.982h-6.26z"/></g></g><g fill="#ff8585" fill-opacity=".35"><path d="M1852.65 255.47a27.258 27.258 0 0 0-25.077 27.16 27.258 27.258 0 0 0 27.26 27.258 27.258 27.258 0 0 0 10.357-2.068v-25.736h-4.906v15.81c.152 3.393-3.93 5.265-6.542 2.726l-19.627-19.626c-2.99-3.27 0-6.542 2.18-6.542h16.356V255.47zm7.634.454v18.528h8.722c2.122.052 3.648 1.76 3.816 3.816v24.795a27.258 27.258 0 0 0 9.268-20.433 27.258 27.258 0 0 0-21.806-26.706zm-14.175 26.16l6.54 6.542v-6.542h-6.54z"/></g></svg>