<svg xmlns="http://www.w3.org/2000/svg" width="1920" height="1080" xmlns:xlink="http://www.w3.org/1999/xlink"><defs><linearGradient id="c"><stop offset="0" stop-color="#fff" stop-opacity=".183"/><stop offset="1" stop-color="#3e655f" stop-opacity=".22"/></linearGradient><linearGradient id="b"><stop offset="0" stop-color="#62a184"/><stop offset="1" stop-color="#62a19f"/></linearGradient><pattern id="h" xlink:href="#a" patternTransform="matrix(16.73734 5.67368 -8.47708 25.00737 -87.113 -1.657)"/><pattern id="a" width="2" height="2" patternTransform="scale(10)" patternUnits="userSpaceOnUse"><path fill="#ff0" d="M0 0h1v1H0z"/><path fill="red" d="M1 1h1v1H1z"/></pattern><linearGradient id="d" x1="96.167" x2="1921" y1="62.413" y2="1052.362" xlink:href="#b" gradientUnits="userSpaceOnUse"/><radialGradient id="e" cx="960.5" cy="512.362" r="960.5" xlink:href="#c" fx="960.5" fy="512.362" gradientTransform="matrix(1 0 0 .5622 0 224.308)" gradientUnits="userSpaceOnUse"/><filter id="g" width="1.117" height="1.123" x="-.059" y="-.062" color-interpolation-filters="sRGB"><feGaussianBlur stdDeviation="20.153"/></filter><filter id="f" width="1.088" height="1.105" x="-.044" y="-.053" color-interpolation-filters="sRGB"><feGaussianBlur stdDeviation="19.992"/></filter><filter id="i" width="1.392" height="1.414" x="-.196" y="-.207" color-interpolation-filters="sRGB"><feGaussianBlur stdDeviation="10.683"/></filter><filter id="j" width="1.398" height="1.407" x="-.199" y="-.204" color-interpolation-filters="sRGB"><feGaussianBlur stdDeviation="10.683"/></filter></defs><path fill="url(#d)" d="M0-27.638h1921v1080H0z" transform="translate(0 27.638)"/><path fill="url(#e)" d="M0-27.638h1921v1080H0z" transform="translate(0 27.638)"/><g><path fill-opacity=".461" fill-rule="evenodd" d="M1061.81 79.08c-27.856.455-56.22 4.73-84.514 13.35-90.548 27.576-177.746 98.34-248.465 218.298l80.114 47.23c61.99-105.15 131.186-156.993 195.447-176.564 64.262-19.57 126.252-8.132 179.517 24.21 105.412 64.003 169.187 208.23 101.605 347.3-44.87 54.373-105.863 108.964-141.177 171.916-18.074 32.217-30.278 71.736-17.838 111.916 12.435 40.164 45.877 70.918 93.255 95.025 106.566 54.95 197.785 69.864 274.622 47.007 76.882-22.87 131.816-81.57 171.4-152.19 79.168-141.242 110.268-339.755 152.182-504.79l-90.137-22.89c-43.38 170.804-77.868 365.702-143.17 482.206-32.653 58.252-69.676 94.507-116.794 108.523-47.118 14.017-111.882 7.774-205.646-40.607l-.122-.064-.12-.06c-34.983-17.792-44.288-32.095-46.632-39.666-2.343-7.57-1.348-18.488 10.108-38.91 22.912-40.845 84.135-99.263 135.562-162.692l3.123-3.85 2.24-4.423c93.195-183.993 11.998-384.48-134.197-473.246-50.255-30.515-109.082-48.026-170.364-47.03z" color="#000" font-family="sans-serif" white-space="normal" style="line-height:normal;text-indent:0;text-align:start;text-decoration-line:none;text-decoration-style:solid;text-decoration-color:#000000;text-transform:none;block-progression:tb;isolation:auto;mix-blend-mode:normal" solid-color="#000000" enable-background="accumulate" transform="matrix(.96925 0 0 1.00524 41.547 9.17)" filter="url(#f)" overflow="visible"/><path fill-rule="evenodd" stroke="#b44a4a" stroke-width="11.095" d="M583.374 235.204c-105.816 8.106-193.995 50.76-273.09 111.448l676.422 333.014c37.442-178.79-79.562-404.91-291.32-440.44-39.508-5.588-76.74-6.724-112.012-4.022zM306.95 352.55L167.088 566.23l673.175 453.31L983.6 686.96l-676.65-334.41z" transform="matrix(.95313 -.0299 .02816 1.0117 9.556 17.202)" filter="url(#g)"/><path fill="url(#h)" fill-rule="evenodd" d="M1061.81 79.08c-27.856.455-56.22 4.73-84.514 13.35-90.548 27.576-177.746 98.34-248.465 218.298l80.114 47.23c61.99-105.15 131.186-156.993 195.447-176.564 64.262-19.57 126.252-8.132 179.517 24.21 105.412 64.003 169.187 208.23 101.605 347.3-44.87 54.373-105.863 108.964-141.177 171.916-18.074 32.217-30.278 71.736-17.838 111.916 12.435 40.164 45.877 70.918 93.255 95.025 106.566 54.95 197.785 69.864 274.622 47.007 76.882-22.87 131.816-81.57 171.4-152.19 79.168-141.242 110.268-339.755 152.182-504.79l-90.137-22.89c-43.38 170.804-77.868 365.702-143.17 482.206-32.653 58.252-69.676 94.507-116.794 108.523-47.118 14.017-111.882 7.774-205.646-40.607l-.122-.064-.12-.06c-34.983-17.792-44.288-32.095-46.632-39.666-2.343-7.57-1.348-18.488 10.108-38.91 22.912-40.845 84.135-99.263 135.562-162.692l3.123-3.85 2.24-4.423c93.195-183.993 11.998-384.48-134.197-473.246-50.255-30.515-109.082-48.026-170.364-47.03z" style="line-height:normal;text-indent:0;text-align:start;text-decoration-line:none;text-decoration-style:solid;text-decoration-color:#000000;text-transform:none;block-progression:tb;isolation:auto;mix-blend-mode:normal" color="#000" font-family="sans-serif" white-space="normal" overflow="visible" solid-color="#000000" enable-background="accumulate"/><path fill="#65769e" fill-rule="evenodd" stroke="#b44a4a" stroke-width="10.9" d="M571.812 235.285c-105.53 11.228-192.41 56.467-269.68 119.464l685.96 312.894c32.148-179.817-91.483-402.386-304.198-431.646-39.655-4.418-76.905-4.455-112.082-.713zM298.975 360.742l-133.493 217.72 686.268 433.233 133.455-336.67-686.23-314.283z"/><path d="M406.187 471.228a66.468 60.81 25.663 0 0-79.855 15.76l117.39 56.403a66.468 60.81 25.663 0 0-37.535-72.162zm-90.208 37.46a66.468 60.81 25.663 0 0 37.536 72.164 66.468 60.81 25.663 0 0 79.854-15.76l-117.39-56.404z" transform="matrix(.9279 0 0 .96488 27.39 25.657)" filter="url(#i)"/><path fill="#b8a04b" d="M406.187 471.228a66.468 60.81 25.663 0 0-79.855 15.76l117.39 56.403a66.468 60.81 25.663 0 0-37.535-72.162zm-90.208 37.46a66.468 60.81 25.663 0 0 37.536 72.164 66.468 60.81 25.663 0 0 79.854-15.76l-117.39-56.404z"/><path d="M799.377 694.69a66.468 60.81 37.102 0 0-81.394-.392l103.873 78.565a66.468 60.81 37.102 0 0-22.48-78.174zm-95.845 18.824a66.468 60.81 37.102 0 0 22.48 78.175 66.468 60.81 37.102 0 0 81.393.39l-103.873-78.566z" transform="matrix(.8536 0 0 .92392 111.65 61.328)" filter="url(#j)"/><path fill="#b8a04b" d="M799.377 694.69a66.468 60.81 37.102 0 0-81.394-.392l103.873 78.565a66.468 60.81 37.102 0 0-22.48-78.174zm-95.845 18.824a66.468 60.81 37.102 0 0 22.48 78.175 66.468 60.81 37.102 0 0 81.393.39l-103.873-78.566z"/><g fill-opacity=".14"><path d="M729.455 345.834a75.6 58.145 23.79 0 0-87.012 24.953 75.6 58.145 23.79 0 0 45.72 83.7 75.6 58.145 23.79 0 0 28.066 7.554l22.145-50.23-12.452-5.49-13.604 30.858c-2.535 6.793-14.506 5.877-18.95-2l-32.917-60.264c-4.772-9.73 5.63-12.77 11.163-10.33l41.505 18.3 16.335-37.05zm18.98 9.424l-15.944 36.164 22.137 9.76c5.34 2.476 7.745 7.513 6.4 11.718l-21.335 48.394a75.6 58.145 23.79 0 0 41.102-29.513 75.6 58.145 23.79 0 0-32.36-76.522zM689.95 390.46l10.972 20.09 5.63-12.77-16.602-7.32z"/></g></g></svg>