<?xml version="1.0" encoding="UTF-8" standalone="no"?>
<!-- Created with Inkscape (http://www.inkscape.org/) -->

<svg
   xmlns:dc="http://purl.org/dc/elements/1.1/"
   xmlns:cc="http://creativecommons.org/ns#"
   xmlns:rdf="http://www.w3.org/1999/02/22-rdf-syntax-ns#"
   xmlns:svg="http://www.w3.org/2000/svg"
   xmlns="http://www.w3.org/2000/svg"
   xmlns:sodipodi="http://sodipodi.sourceforge.net/DTD/sodipodi-0.dtd"
   xmlns:inkscape="http://www.inkscape.org/namespaces/inkscape"
   width="61.11269mm"
   height="97.096008mm"
   viewBox="0 0 61.11269 97.096008"
   version="1.1"
   id="svg4579"
   inkscape:version="0.92.1 unknown"
   sodipodi:docname="inception2.svg">
  <defs
     id="defs4573" />
  <sodipodi:namedview
     id="base"
     pagecolor="#ffffff"
     bordercolor="#666666"
     borderopacity="1.0"
     inkscape:pageopacity="0.0"
     inkscape:pageshadow="2"
     inkscape:zoom="2"
     inkscape:cx="-16.877503"
     inkscape:cy="165.25027"
     inkscape:document-units="mm"
     inkscape:current-layer="layer1"
     showgrid="false"
     fit-margin-top="0"
     fit-margin-left="0"
     fit-margin-right="0"
     fit-margin-bottom="0"
     inkscape:window-width="1920"
     inkscape:window-height="1015"
     inkscape:window-x="0"
     inkscape:window-y="24"
     inkscape:window-maximized="1"
     inkscape:snap-global="false" />
  <metadata
     id="metadata4576">
    <rdf:RDF>
      <cc:Work
         rdf:about="">
        <dc:format>image/svg+xml</dc:format>
        <dc:type
           rdf:resource="http://purl.org/dc/dcmitype/StillImage" />
        <dc:title />
      </cc:Work>
    </rdf:RDF>
  </metadata>
  <g
     inkscape:label="Layer 1"
     inkscape:groupmode="layer"
     id="layer1"
     transform="translate(-34.860202,-100.28533)">
    <path
       sodipodi:nodetypes="cccccccscccccccssccccccccccccscccccccccsccc"
       inkscape:connector-curvature="0"
       id="path4556"
       d="m 84.6677,100.29951 c -0.123568,-0.0113 -0.242879,-0.0159 -0.358291,-0.0136 -0.4616,0.009 -0.855879,0.12259 -1.179877,0.30694 -0.648002,0.36872 -0.982692,0.97538 -1.09184,1.48694 l -5.3e-4,0.006 -5.29e-4,0.006 c -4.11612,15.64176 -6.572501,34.00659 -15.093601,46.95626 -4.366971,3.1296 -12.23802,4.69898 -19.045341,5.90183 -3.403659,0.60143 -6.54148,1.11743 -8.876929,1.72596 -1.16773,0.30424 -2.134781,0.62859 -2.853161,1.01957 -0.71838,0.39096 -1.24348,0.88195 -1.30145,1.547 -0.0562,0.64281 0.28983,1.25068 0.86678,1.7972 0.57696,0.54651 1.40841,1.0679 2.47699,1.58793 2.137161,1.04004 5.229321,2.06374 9.089061,3.03523 16.59227,3.01216 33.817531,6.52697 48.673909,4.88597 -5.468178,-0.0833 -11.543959,-0.39259 -17.958258,-0.95172 -12.115562,-1.05608 -22.863583,-2.77578 -30.521003,-4.70316 -3.82872,-0.96368 -6.23984,-1.92496 -8.28963,-2.92249 -1.0249,-0.49876 -1.79606,-0.99539 -2.27727,-1.45121 -1.00956,-0.87181 -0.82496,-1.44705 0.26868,-2.07072 0.61457,-0.33447 1.53619,-0.65307 2.67273,-0.9492 2.27309,-0.59225 4.75838,-1.16777 8.1675,-1.77015 6.14437,-1.08572 13.18493,-2.42437 17.903161,-5.10505 -1.851012,2.52459 -3.74596,4.44391 -5.672571,5.88325 13.586792,-5.52589 19.280551,-36.46042 22.55022,-54.27631 0.415931,-1.53899 1.628651,-1.9039 3.070651,-1.62827 -0.441679,-0.17336 -0.848751,-0.27045 -1.219441,-0.30445 z m -23.606141,69.3381 c 2.630541,1.44825 4.13839,3.28886 4.845392,5.28729 0.707001,1.99841 0.918278,4.42576 1.522859,7.40421 0.68249,3.36224 2.01562,7.03932 3.52303,9.91593 0.7537,1.43829 1.549109,2.67521 2.34636,3.58038 0.794851,0.90241 1.592061,1.50967 2.446919,1.55211 0.453383,0.0325 0.909191,-0.14523 1.393511,-0.4429 0.485769,-0.29856 1.00454,-0.73085 1.556041,-1.27789 1.103,-1.09408 2.323962,-2.56903 3.538852,-4.43797 -1.573592,1.25676 -4.020163,4.06419 -6.450979,3.56175 -0.482741,-0.12089 -1.157071,-0.53704 -1.889451,-1.36853 -0.73239,-0.83151 -1.438804,-1.82571 -2.172456,-3.22575 -1.467319,-2.80009 -2.188473,-4.64034 -2.853223,-7.91523 -0.59476,-2.93006 -1.177237,-6.09291 -1.933855,-8.23158 -0.537189,-1.28391 -3.117204,-4.97458 -5.873,-4.40182 z"
       style="color:#000000;font-style:normal;font-variant:normal;font-weight:normal;font-stretch:normal;font-size:medium;line-height:normal;font-family:sans-serif;font-variant-ligatures:normal;font-variant-position:normal;font-variant-caps:normal;font-variant-numeric:normal;font-variant-alternates:normal;font-feature-settings:normal;text-indent:0;text-align:start;text-decoration:none;text-decoration-line:none;text-decoration-style:solid;text-decoration-color:#000000;letter-spacing:normal;word-spacing:normal;text-transform:none;writing-mode:lr-tb;direction:ltr;text-orientation:mixed;dominant-baseline:auto;baseline-shift:baseline;text-anchor:start;white-space:normal;shape-padding:0;clip-rule:nonzero;display:inline;overflow:visible;visibility:visible;opacity:1;isolation:auto;mix-blend-mode:normal;color-interpolation:sRGB;color-interpolation-filters:linearRGB;solid-color:#000000;solid-opacity:1;vector-effect:none;fill:#ff4b4b;fill-opacity:1;fill-rule:nonzero;stroke:none;stroke-width:0.79374999;stroke-linecap:butt;stroke-linejoin:round;stroke-miterlimit:4;stroke-dasharray:none;stroke-dashoffset:0;stroke-opacity:1;color-rendering:auto;image-rendering:auto;shape-rendering:auto;text-rendering:auto;enable-background:accumulate" />
  </g>
</svg>
