<svg xmlns="http://www.w3.org/2000/svg" width="1920" height="1080" xmlns:xlink="http://www.w3.org/1999/xlink"><defs><linearGradient id="b"><stop offset="0" stop-color="#a900ee" stop-opacity=".257"/><stop offset="1" stop-color="#a900ee" stop-opacity=".136"/></linearGradient><linearGradient id="a"><stop offset="0" stop-color="#530096"/><stop offset="1" stop-color="#960034"/></linearGradient><linearGradient id="c" x1="23.929" x2="1898.364" y1="494.02" y2="494.02" xlink:href="#a" gradientUnits="userSpaceOnUse"/><linearGradient id="d" x1="1874.773" x2="694.862" y1="703.241" y2="908.541" xlink:href="#b" gradientUnits="userSpaceOnUse" gradientTransform="matrix(-1 0 0 1 1920 -27.638)"/></defs><path fill="url(#c)" d="M0-27.638h1921v1080H0z" transform="translate(0 27.638)"/><path fill="#ee6900" fill-opacity=".12" d="M1678.496 0v1.244a795.256 1046.804 78.05 0 0-324.857 28.39 795.256 1046.804 78.05 0 0-859.437 994.788A795.256 1046.804 78.05 0 0 509.846 1080H1920V0h-241.504z" opacity=".951"/><path fill="url(#d)" d="M529.1 412.866a795.256 1046.804 78.185 0 1 877.384 592.654 795.256 1046.804 78.185 0 1 6.62 46.842H0V507.304a795.256 1046.804 78.185 0 1 219.03-65.866 795.256 1046.804 78.185 0 1 310.07-28.572z" opacity=".951" transform="translate(0 27.638)"/><g fill="#f9c50a" fill-opacity=".351"><circle cx="572.628" cy="519.15" r="500.001" opacity=".951"/><circle cx="649.997" cy="524.969" r="472.851" opacity=".951"/><circle cx="727.366" cy="556.018" r="439.669" opacity=".951"/><circle cx="804.735" cy="599.737" r="408.749" opacity=".951"/><circle cx="882.103" cy="658.257" r="380.091" opacity=".951"/><circle cx="959.472" cy="709.129" r="348.417" opacity=".951"/><circle cx="1036.841" cy="752.551" r="315.234" opacity=".951"/><circle cx="1118.476" cy="733.328" r="285.822" opacity=".951"/><circle cx="1191.579" cy="698.619" r="258.673" opacity=".951"/><circle cx="1268.947" cy="657.381" r="233.786" opacity=".951"/><circle cx="1346.316" cy="607.87" r="204.374" opacity=".951"/><circle cx="1423.685" cy="607.16" r="179.487" opacity=".951"/><circle cx="1501.054" cy="660.661" r="151.584" opacity=".951"/><circle cx="1578.423" cy="797.176" r="119.588" opacity=".951"/><circle cx="1655.792" cy="903.829" r="87.592" opacity=".951"/><circle cx="1733.16" cy="959.288" r="59.863" opacity=".951"/><circle cx="1810.529" cy="982.752" r="36.399" opacity=".951"/><circle cx="1854.522" cy="982.752" r="16.095" opacity=".951"/></g><g><g fill="#f9c50a" fill-opacity=".349"><path d="M1869.79 965.092a10.623 10.623 0 0 0-9.773 10.584 10.623 10.623 0 0 0 10.623 10.623 10.623 10.623 0 0 0 4.037-.807v-10.03h-1.912v6.162c.06 1.322-1.532 2.05-2.55 1.062l-7.648-7.648c-1.165-1.276 0-2.55.85-2.55h6.373v-7.398zm2.975.177v7.22h3.4c.826.02 1.42.685 1.486 1.486v9.663a10.623 10.623 0 0 0 3.613-7.964 10.623 10.623 0 0 0-8.498-10.407zm-5.524 10.194l2.55 2.55v-2.55h-2.55z"/></g></g></svg>