<svg xmlns="http://www.w3.org/2000/svg" width="1920" height="1080" xmlns:xlink="http://www.w3.org/1999/xlink" viewBox="0 0 1920.0001 1080"><defs><linearGradient id="b"><stop offset="0" stop-color="#f4f326"/><stop offset="1" stop-color="#f42caa"/></linearGradient><pattern id="e" xlink:href="#a" patternTransform="matrix(49.83152 -6.51925 6.71077 51.2955 0 0)"/><pattern id="a" width="10" height="10" patternTransform="scale(10)" patternUnits="userSpaceOnUse"><circle cx="2.567" cy=".81" r=".45" fill="#fff"/><circle cx="3.048" cy="2.33" r=".45" fill="#fff"/><circle cx="4.418" cy="2.415" r=".45" fill="#fff"/><circle cx="1.844" cy="3.029" r=".45" fill="#fff"/><circle cx="6.08" cy="1.363" r=".45" fill="#fff"/><circle cx="5.819" cy="4.413" r=".45" fill="#fff"/><circle cx="4.305" cy="4.048" r=".45" fill="#fff"/><circle cx="5.541" cy="3.045" r=".45" fill="#fff"/><circle cx="4.785" cy="5.527" r=".45" fill="#fff"/><circle cx="2.667" cy="5.184" r=".45" fill="#fff"/><circle cx="7.965" cy="1.448" r=".45" fill="#fff"/><circle cx="7.047" cy="5.049" r=".45" fill="#fff"/><circle cx="4.34" cy=".895" r=".45" fill="#fff"/><circle cx="7.125" cy=".34" r=".45" fill="#fff"/><circle cx="9.553" cy="1.049" r=".45" fill="#fff"/><circle cx="7.006" cy="2.689" r=".45" fill="#fff"/><circle cx="8.909" cy="2.689" r=".45" fill="#fff"/><circle cx="9.315" cy="4.407" r=".45" fill="#fff"/><circle cx="7.82" cy="3.87" r=".45" fill="#fff"/><circle cx="8.27" cy="5.948" r=".45" fill="#fff"/><circle cx="7.973" cy="7.428" r=".45" fill="#fff"/><circle cx="9.342" cy="8.072" r=".45" fill="#fff"/><circle cx="8.206" cy="9.315" r=".45" fill="#fff"/><circle cx="9.682" cy="9.475" r=".45" fill="#fff"/><circle cx="9.688" cy="6.186" r=".45" fill="#fff"/><circle cx="3.379" cy="6.296" r=".45" fill="#fff"/><circle cx="2.871" cy="8.204" r=".45" fill="#fff"/><circle cx="4.59" cy="8.719" r=".45" fill="#fff"/><circle cx="3.181" cy="9.671" r=".45" fill="#fff"/><circle cx="5.734" cy="7.315" r=".45" fill="#fff"/><circle cx="6.707" cy="6.513" r=".45" fill="#fff"/><circle cx="5.73" cy="9.67" r=".45" fill="#fff"/><circle cx="6.535" cy="8.373" r=".45" fill="#fff"/><circle cx="4.37" cy="7.154" r=".45" fill="#fff"/><circle cx=".622" cy="7.25" r=".45" fill="#fff"/><circle cx=".831" cy="5.679" r=".45" fill="#fff"/><circle cx="1.257" cy="8.519" r=".45" fill="#fff"/><circle cx="1.989" cy="6.877" r=".45" fill="#fff"/><circle cx=".374" cy="3.181" r=".45" fill="#fff"/><circle cx="1.166" cy="1.664" r=".45" fill="#fff"/><circle cx="1.151" cy=".093" r=".45" fill="#fff"/><circle cx="1.151" cy="10.093" r=".45" fill="#fff"/><circle cx="1.302" cy="4.451" r=".45" fill="#fff"/><circle cx="3.047" cy="3.763" r=".45" fill="#fff"/></pattern><linearGradient id="d" x1="3.284" x2="1919.282" y1="508.921" y2="508.921" xlink:href="#b" gradientUnits="userSpaceOnUse" gradientTransform="matrix(.96217 0 0 .9335 36.814 34.076)"/><linearGradient id="f" x1="100.115" x2=".044" y1="79.051" y2="79.051" xlink:href="#b" gradientUnits="userSpaceOnUse"/><radialGradient id="g" cx="992.784" cy="503.017" r="1174.989" xlink:href="#c" fx="992.784" fy="503.017" gradientTransform="matrix(.94495 0 0 .53154 21.864 272.628)" gradientUnits="userSpaceOnUse"/><linearGradient id="c"><stop offset="0" stop-opacity="0"/><stop offset=".456" stop-opacity="0"/><stop offset=".541" stop-opacity=".008"/><stop offset=".628" stop-opacity=".024"/><stop offset="1" stop-opacity=".346"/></linearGradient></defs><path fill="url(#d)" d="M0-27.638h1921v1080H0z" transform="translate(0 27.638)"/><path fill="#ff00a5" fill-opacity=".791" d="M0 0v1080h1921V0H0zm516.617 21.225a149.76 149.76 0 0 1 149.762 149.76 149.76 149.76 0 0 1-149.763 149.76 149.76 149.76 0 0 1-149.76-149.76 149.76 149.76 0 0 1 149.76-149.76zm-334.35 6.964A152.083 152.083 0 0 1 334.35 180.272a152.083 152.083 0 0 1-152.082 152.082A152.083 152.083 0 0 1 30.184 180.273 152.083 152.083 0 0 1 182.268 28.19zm703.53 92.874A217.095 217.095 0 0 1 1102.89 338.16a217.095 217.095 0 0 1-217.093 217.096A217.095 217.095 0 0 1 668.7 338.16a217.095 217.095 0 0 1 217.097-217.096zm639.676 202.004a364.535 364.534 0 0 1 364.535 364.536 364.535 364.534 0 0 1-364.535 364.533 364.535 364.534 0 0 1-364.533-364.533 364.535 364.534 0 0 1 364.533-364.536zm-1048.326 25.54a231.027 231.027 0 0 1 231.025 231.027 231.027 231.027 0 0 1-231.025 231.027A231.027 231.027 0 0 1 246.12 579.635 231.027 231.027 0 0 1 477.146 348.61zm-312.293 6.966a83.588 83.588 0 0 1 83.587 83.588 83.588 83.588 0 0 1-83.586 83.588 83.588 83.588 0 0 1-83.588-83.588 83.588 83.588 0 0 1 83.588-83.588zm891.6 185.75a74.3 74.3 0 0 1 74.3 74.3 74.3 74.3 0 0 1-74.3 74.3 74.3 74.3 0 0 1-74.3-74.3 74.3 74.3 0 0 1 74.3-74.3zM839.36 585.44a128.864 128.864 0 0 1 128.863 128.865A128.864 128.864 0 0 1 839.36 843.168a128.864 128.864 0 0 1-128.866-128.863A128.864 128.864 0 0 1 839.36 585.44z"/><path fill="#c41ac1" fill-opacity=".67" d="M0 0v1080h1921V0H0zm1466.266 155.893a191.555 191.555 0 0 1 191.554 191.554 191.555 191.555 0 0 1-191.554 191.555 191.555 191.555 0 0 1-191.555-191.555 191.555 191.555 0 0 1 191.556-191.554zm-980.994 6.966a438.835 438.835 0 0 1 438.836 438.833 438.835 438.835 0 0 1-438.836 438.834A438.835 438.835 0 0 1 46.438 601.693 438.835 438.835 0 0 1 485.272 162.86zm586.275 27.86a156.727 156.727 0 0 1 156.726 156.727 156.727 156.727 0 0 1-156.726 156.727A156.727 156.727 0 0 1 914.82 347.447a156.727 156.727 0 0 1 156.727-156.726zm715.137 136.99a82.427 82.427 0 0 1 82.427 82.43 82.427 82.427 0 0 1-82.426 82.424 82.427 82.427 0 0 1-82.426-82.425 82.427 82.427 0 0 1 82.426-82.43zM1214.342 520.43a260.05 260.05 0 0 1 260.05 260.05 260.05 260.05 0 0 1-260.05 260.05 260.05 260.05 0 0 1-260.05-260.05 260.05 260.05 0 0 1 260.05-260.05zm487.594 4.644a174.14 174.14 0 0 1 174.14 174.14 174.14 174.14 0 0 1-174.14 174.142 174.14 174.14 0 0 1-174.14-174.14 174.14 174.14 0 0 1 174.14-174.142zm-145.118 350.604a82.427 82.427 0 0 1 82.426 82.426 82.427 82.427 0 0 1-82.426 82.425 82.427 82.427 0 0 1-82.425-82.425 82.427 82.427 0 0 1 82.425-82.426z"/><path fill="#850094" fill-opacity=".471" d="M0 0v1080h1921V0H0zm229.854 77.672A177.316 177.316 0 0 1 407.17 254.988a177.316 177.316 0 0 1-177.316 177.317A177.316 177.316 0 0 1 52.537 254.988 177.316 177.316 0 0 1 229.854 77.672zm458.066 63.21a117.39 117.39 0 0 1 117.39 117.39 117.39 117.39 0 0 1-117.39 117.39 117.39 117.39 0 0 1-117.39-117.39 117.39 117.39 0 0 1 117.39-117.39zm-203.584 64.03a39.404 39.404 0 0 1 39.402 39.404 39.404 39.404 0 0 1-39.402 39.403 39.404 39.404 0 0 1-39.404-39.404 39.404 39.404 0 0 1 39.404-39.404zm16.418 126.42a91.942 91.942 0 0 1 91.94 91.94 91.942 91.942 0 0 1-91.94 91.943 91.942 91.942 0 0 1-91.94-91.942 91.942 91.942 0 0 1 91.94-91.94zm361.824 52.105a323.902 323.902 0 0 1 323.9 323.9 323.902 323.902 0 0 1-323.9 323.903 323.902 323.902 0 0 1-323.902-323.902 323.902 323.902 0 0 1 323.902-323.9zm-592.08 85.91a214.774 214.774 0 0 1 214.774 214.772 214.774 214.774 0 0 1-214.774 214.773A214.774 214.774 0 0 1 55.725 684.12a214.774 214.774 0 0 1 214.773-214.774zm207.81 415.616a78.944 78.944 0 0 1 78.942 78.943 78.944 78.944 0 0 1-78.943 78.944 78.944 78.944 0 0 1-78.944-78.944 78.944 78.944 0 0 1 78.944-78.943zm-364.536 27.86a62.69 62.69 0 0 1 62.69 62.693 62.69 62.69 0 0 1-62.69 62.69 62.69 62.69 0 0 1-62.69-62.69 62.69 62.69 0 0 1 62.69-62.692zm192.716 30.187a52.242 52.242 0 0 1 52.243 52.242 52.242 52.242 0 0 1-52.242 52.242 52.242 52.242 0 0 1-52.242-52.242 52.242 52.242 0 0 1 52.242-52.242zm-93.994 78.806a13.25 13.25 0 0 1 13.248 13.25 13.25 13.25 0 0 1-13.248 13.25 13.25 13.25 0 0 1-13.25-13.25 13.25 13.25 0 0 1 13.25-13.25z"/><path fill="#4b21a8" fill-opacity=".304" d="M0 0v1080h1921V0H0zm1408.22 65.176A474.824 474.824 0 0 1 1883.042 540a474.824 474.824 0 0 1-474.824 474.824A474.824 474.824 0 0 1 933.394 540 474.824 474.824 0 0 1 1408.22 65.176zM668.7 317.1A222.9 222.9 0 0 1 891.603 540a222.9 222.9 0 0 1-222.9 222.9A222.9 222.9 0 0 1 445.8 540a222.9 222.9 0 0 1 222.9-222.9zM312.294 450.607A89.392 89.392 0 0 1 401.686 540a89.392 89.392 0 0 1-89.393 89.393A89.392 89.392 0 0 1 222.9 540a89.392 89.392 0 0 1 89.393-89.393zm-162.53 53.405A35.99 35.99 0 0 1 185.75 540a35.99 35.99 0 0 1-35.988 35.988A35.99 35.99 0 0 1 113.772 540a35.99 35.99 0 0 1 35.99-35.988zM62.69 521.426A18.575 18.575 0 0 1 81.267 540a18.575 18.575 0 0 1-18.575 18.574A18.575 18.575 0 0 1 44.116 540a18.575 18.575 0 0 1 18.576-18.574z"/><g fill="url(#f)" transform="matrix(.53946 0 0 .53946 1805.758 54.804)" opacity=".329"><path d="M46 .182A50 50 0 0 0 0 50a50 50 0 0 0 50 50 50 50 0 0 0 19-3.793V49h-9v29c.28 6.224-7.21 9.656-12 5L12 47c-5.483-6 0-12 4-12h30V.182zm14 .832V35h16c3.893.096 6.692 3.226 7 7v45.48A50 50 0 0 0 100 50 50 50 0 0 0 60 1.014zM34 49l12 12V49H34z"/></g></svg>