<svg xmlns="http://www.w3.org/2000/svg" width="1920" height="1080" xmlns:xlink="http://www.w3.org/1999/xlink"><defs><linearGradient id="a"><stop offset="0" stop-color="#ce1f01"/><stop offset="1" stop-color="#450804"/></linearGradient><radialGradient id="b" cx="386.861" cy="502.266" r="960" xlink:href="#a" fx="386.861" fy="502.266" gradientTransform="matrix(1.0428 0 0 .71055 83.11 175.94)" gradientUnits="userSpaceOnUse"/><filter id="c" width="1.12" height="1.12" x="-.06" y="-.06" color-interpolation-filters="sRGB"><feGaussianBlur stdDeviation="4.961"/></filter><filter id="e" width="1.074" height="1.311" x="-.037" y="-.156" color-interpolation-filters="sRGB"><feGaussianBlur stdDeviation="2.497"/></filter><filter id="d" width="1.06" height="1.236" x="-.03" y="-.118" color-interpolation-filters="sRGB"><feGaussianBlur stdDeviation="2.249"/></filter></defs><rect width="1920" height="1080" fill="url(#b)" ry=".257"/><path fill="#450804" d="M960 440.787c-54.797 0-99.213 44.417-99.213 99.213 0 54.79 44.416 99.213 99.213 99.213 54.795 0 99.213-44.423 99.213-99.213 0-54.796-44.418-99.213-99.213-99.213zm32.467 30.818c2.056.054 4.13.605 6.035 1.706 6.102 3.523 8.19 11.32 4.668 17.422-3.522 6.1-11.324 8.19-17.424 4.668-6.1-3.52-8.19-11.32-4.668-17.42 2.422-4.195 6.866-6.492 11.39-6.375zM960 485.197c4.98 0 9.802.667 14.387 1.912.808 5.18 3.865 9.967 8.76 12.794 4.893 2.825 10.562 3.08 15.45 1.194 9.232 9.16 15.216 21.58 16.09 35.39l-18.453.287c-1.633-18.58-17.23-33.152-36.234-33.152-5.477 0-10.67 1.212-15.33 3.38l-8.98-16.134c7.325-3.632 15.58-5.673 24.31-5.673zm-30.39 9.192l9.48 15.84c-9.355 6.583-15.47 17.462-15.47 29.77s6.116 23.186 15.47 29.768l-9.48 15.84c-10.98-7.33-19.162-18.517-22.612-31.624 4.086-3.293 6.7-8.333 6.7-13.986 0-5.653-2.614-10.693-6.698-13.984 3.45-13.107 11.63-24.295 22.61-31.625zm-33.864 32.854c7.045 0 12.758 5.71 12.758 12.754 0 7.045-5.713 12.756-12.758 12.756-7.045 0-12.756-5.71-12.756-12.756 0-7.044 5.71-12.754 12.756-12.754zm100.488 15.98l18.453.288c-.874 13.81-6.86 26.23-16.09 35.39-4.89-1.888-10.558-1.63-15.45 1.194-4.896 2.827-7.952 7.61-8.76 12.793-4.586 1.244-9.408 1.913-14.387 1.913-8.73 0-16.986-2.04-24.31-5.674l8.98-16.134c4.66 2.168 9.853 3.383 15.33 3.383 19.004 0 34.6-14.577 36.234-33.157zm-4.453 39.67c4.524-.12 8.97 2.177 11.39 6.372 3.522 6.102 1.432 13.902-4.668 17.423-6.1 3.52-13.902 1.43-17.424-4.67-3.522-6.1-1.432-13.9 4.668-17.422 1.906-1.1 3.98-1.652 6.035-1.705z" transform="matrix(.94887 0 0 .98306 -510.585 9.148)" filter="url(#c)"/><path fill="#fffef1" d="M400.33 434.87c-54.796 0-99.212 44.416-99.212 99.212 0 54.79 44.416 99.213 99.213 99.213 54.796 0 99.214-44.423 99.214-99.213 0-54.796-44.418-99.213-99.213-99.213zm32.468 30.817c2.056.054 4.13.605 6.035 1.705 6.102 3.522 8.19 11.32 4.668 17.422-3.52 6.1-11.323 8.19-17.423 4.668-6.1-3.52-8.19-11.322-4.668-17.422 2.42-4.193 6.865-6.49 11.388-6.373zM400.33 479.28c4.98 0 9.803.666 14.388 1.91.808 5.183 3.865 9.97 8.76 12.796 4.893 2.825 10.562 3.08 15.45 1.194 9.232 9.16 15.217 21.58 16.09 35.39l-18.453.287c-1.633-18.58-17.23-33.152-36.234-33.152-5.476 0-10.67 1.212-15.33 3.38l-8.98-16.134c7.326-3.63 15.58-5.67 24.31-5.67zm-30.39 9.19l9.48 15.84c-9.354 6.584-15.468 17.464-15.468 29.772s6.115 23.185 15.47 29.767l-9.482 15.84c-10.98-7.33-19.16-18.517-22.61-31.624 4.085-3.293 6.7-8.333 6.7-13.986 0-5.653-2.615-10.693-6.7-13.984 3.45-13.107 11.632-24.295 22.61-31.625zm-33.863 32.856c7.045 0 12.758 5.71 12.758 12.754 0 7.045-5.713 12.756-12.758 12.756-7.045 0-12.756-5.71-12.756-12.756 0-7.044 5.712-12.754 12.757-12.754zm100.488 15.98l18.454.288c-.875 13.81-6.862 26.23-16.093 35.39-4.89-1.888-10.556-1.63-15.45 1.194-4.894 2.827-7.95 7.61-8.76 12.793-4.585 1.246-9.407 1.915-14.386 1.915-8.73 0-16.985-2.04-24.31-5.674L385 567.08c4.66 2.168 9.854 3.383 15.33 3.383 19.005 0 34.602-14.575 36.235-33.155zm-4.453 39.668c4.523-.117 8.968 2.18 11.39 6.374 3.52 6.102 1.43 13.902-4.67 17.423-6.1 3.523-13.9 1.433-17.423-4.667-3.523-6.1-1.433-13.9 4.667-17.423 1.906-1.1 3.98-1.652 6.035-1.706z"/><path fill="#fff" fill-opacity=".043" d="M1891.248 509.137a21.903 21.903 0 0 0-20.15 21.823A21.903 21.903 0 0 0 1893 552.863a21.903 21.903 0 0 0 8.323-1.662v-20.678h-3.942v12.704c.123 2.726-3.158 4.23-5.256 2.19l-15.77-15.77c-2.402-2.628 0-5.257 1.752-5.257h13.142v-15.253zm6.133.365v14.887h7.01c1.705.04 2.93 1.413 3.066 3.066v19.922a21.903 21.903 0 0 0 7.447-16.418 21.903 21.903 0 0 0-17.522-21.458zm-11.39 21.02l5.258 5.257v-5.258h-5.257z" class="bg-target"/><g><g font-weight="500" font-size="48.657" font-family="Ubuntu" letter-spacing="0" word-spacing="0"><text x="575.374" y="601.492" fill="#450804" style="line-height:125%;-inkscape-font-specification:'Ubuntu, Medium';text-align:start" transform="matrix(.96235 0 0 1.03752 -35.65 -69.533)" filter="url(#d)"><tspan x="575.374" y="601.492">Running</tspan></text><text x="597.604" y="551.478" fill="#fffef1" style="line-height:125%;-inkscape-font-specification:'Ubuntu, Medium';text-align:start" transform="translate(-83.07)"><tspan x="597.604" y="551.478">Running</tspan></text><g><text x="569.456" y="630.237" fill="#450804" transform="matrix(.95552 0 0 1.0006 169.315 -76.463)" style="line-height:125%;-inkscape-font-specification:'Ubuntu, Medium';text-align:start" filter="url(#e)"><tspan x="569.456" y="630.237">Ubuntu</tspan></text><text x="792.756" y="551.755" fill="#fffef1" style="line-height:125%;-inkscape-font-specification:'Ubuntu, Medium';text-align:start" transform="translate(-83.07)"><tspan x="792.756" y="551.755">Ubuntu</tspan></text></g></g></g></svg>