<svg xmlns="http://www.w3.org/2000/svg" width="1920" height="1080" xmlns:xlink="http://www.w3.org/1999/xlink"><defs><linearGradient id="a"><stop offset="0" stop-color="#ce1f01"/><stop offset="1" stop-color="#450804"/></linearGradient><radialGradient id="b" cx="386.861" cy="502.266" r="960" xlink:href="#a" fx="386.861" fy="502.266" gradientTransform="matrix(1.0428 0 0 .71055 83.11 175.94)" gradientUnits="userSpaceOnUse"/><filter id="c" width="1.12" height="1.12" x="-.06" y="-.06" color-interpolation-filters="sRGB"><feGaussianBlur stdDeviation="4.961"/></filter><filter id="e" width="1.074" height="1.311" x="-.037" y="-.156" color-interpolation-filters="sRGB"><feGaussianBlur stdDeviation="2.497"/></filter><filter id="d" width="1.06" height="1.236" x="-.03" y="-.118" color-interpolation-filters="sRGB"><feGaussianBlur stdDeviation="2.249"/></filter></defs><rect width="1920" height="1080" fill="url(#b)" ry=".257"/><path fill="#450804" d="M960 440.787c-54.797 0-99.213 44.417-99.213 99.213 0 54.79 44.416 99.213 99.213 99.213 54.795 0 99.213-44.423 99.213-99.213 0-54.796-44.418-99.213-99.213-99.213zm32.467 30.818c2.056.054 4.13.605 6.035 1.706 6.102 3.523 8.19 11.32 4.668 17.422-3.522 6.1-11.324 8.19-17.424 4.668-6.1-3.52-8.19-11.32-4.668-17.42 2.422-4.195 6.866-6.492 11.39-6.375zM960 485.197c4.98 0 9.802.667 14.387 1.912.808 5.18 3.865 9.967 8.76 12.794 4.893 2.825 10.562 3.08 15.45 1.194 9.232 9.16 15.216 21.58 16.09 35.39l-18.453.287c-1.633-18.58-17.23-33.152-36.234-33.152-5.477 0-10.67 1.212-15.33 3.38l-8.98-16.134c7.325-3.632 15.58-5.673 24.31-5.673zm-30.39 9.192l9.48 15.84c-9.355 6.583-15.47 17.462-15.47 29.77s6.116 23.186 15.47 29.768l-9.48 15.84c-10.98-7.33-19.162-18.517-22.612-31.624 4.086-3.293 6.7-8.333 6.7-13.986 0-5.653-2.614-10.693-6.698-13.984 3.45-13.107 11.63-24.295 22.61-31.625zm-33.864 32.854c7.045 0 12.758 5.71 12.758 12.754 0 7.045-5.713 12.756-12.758 12.756-7.045 0-12.756-5.71-12.756-12.756 0-7.044 5.71-12.754 12.756-12.754zm100.488 15.98l18.453.288c-.874 13.81-6.86 26.23-16.09 35.39-4.89-1.888-10.558-1.63-15.45 1.194-4.896 2.827-7.952 7.61-8.76 12.793-4.586 1.244-9.408 1.913-14.387 1.913-8.73 0-16.986-2.04-24.31-5.674l8.98-16.134c4.66 2.168 9.853 3.383 15.33 3.383 19.004 0 34.6-14.577 36.234-33.157zm-4.453 39.67c4.524-.12 8.97 2.177 11.39 6.372 3.522 6.102 1.432 13.902-4.668 17.423-6.1 3.52-13.902 1.43-17.424-4.67-3.522-6.1-1.432-13.9 4.668-17.422 1.906-1.1 3.98-1.652 6.035-1.705z" transform="matrix(.94887 0 0 .98306 -510.585 9.148)" filter="url(#c)"/><path fill="#fffef1" d="M400.33 434.87c-54.796 0-99.212 44.416-99.212 99.212 0 54.79 44.416 99.213 99.213 99.213 54.796 0 99.214-44.423 99.214-99.213 0-54.796-44.418-99.213-99.213-99.213zm32.468 30.817c2.056.054 4.13.605 6.035 1.705 6.102 3.522 8.19 11.32 4.668 17.422-3.52 6.1-11.323 8.19-17.423 4.668-6.1-3.52-8.19-11.322-4.668-17.422 2.42-4.193 6.865-6.49 11.388-6.373zM400.33 479.28c4.98 0 9.803.666 14.388 1.91.808 5.183 3.865 9.97 8.76 12.796 4.893 2.825 10.562 3.08 15.45 1.194 9.232 9.16 15.217 21.58 16.09 35.39l-18.453.287c-1.633-18.58-17.23-33.152-36.234-33.152-5.476 0-10.67 1.212-15.33 3.38l-8.98-16.134c7.326-3.63 15.58-5.67 24.31-5.67zm-30.39 9.19l9.48 15.84c-9.354 6.584-15.468 17.464-15.468 29.772s6.115 23.185 15.47 29.767l-9.482 15.84c-10.98-7.33-19.16-18.517-22.61-31.624 4.085-3.293 6.7-8.333 6.7-13.986 0-5.653-2.615-10.693-6.7-13.984 3.45-13.107 11.632-24.295 22.61-31.625zm-33.863 32.856c7.045 0 12.758 5.71 12.758 12.754 0 7.045-5.713 12.756-12.758 12.756-7.045 0-12.756-5.71-12.756-12.756 0-7.044 5.712-12.754 12.757-12.754zm100.488 15.98l18.454.288c-.875 13.81-6.862 26.23-16.093 35.39-4.89-1.888-10.556-1.63-15.45 1.194-4.894 2.827-7.95 7.61-8.76 12.793-4.585 1.246-9.407 1.915-14.386 1.915-8.73 0-16.985-2.04-24.31-5.674L385 567.08c4.66 2.168 9.854 3.383 15.33 3.383 19.005 0 34.602-14.575 36.235-33.155zm-4.453 39.668c4.523-.117 8.968 2.18 11.39 6.374 3.52 6.102 1.43 13.902-4.67 17.423-6.1 3.523-13.9 1.433-17.423-4.667-3.523-6.1-1.433-13.9 4.667-17.423 1.906-1.1 3.98-1.652 6.035-1.706z"/><path fill="#fff" fill-opacity=".043" d="M1891.248 509.137a21.903 21.903 0 0 0-20.15 21.823A21.903 21.903 0 0 0 1893 552.863a21.903 21.903 0 0 0 8.323-1.662v-20.678h-3.942v12.704c.123 2.726-3.158 4.23-5.256 2.19l-15.77-15.77c-2.402-2.628 0-5.257 1.752-5.257h13.142v-15.253zm6.133.365v14.887h7.01c1.705.04 2.93 1.413 3.066 3.066v19.922a21.903 21.903 0 0 0 7.447-16.418 21.903 21.903 0 0 0-17.522-21.458zm-11.39 21.02l5.258 5.257v-5.258h-5.257z" class="bg-target"/><g><g font-weight="500" font-size="48.657" font-family="Ubuntu" letter-spacing="0" word-spacing="0"><g fill="#450804" style="line-height:125%;-inkscape-font-specification:'Ubuntu, Medium';text-align:start" transform="matrix(.96235 0 0 1.03752 -35.65 -69.533)" filter="url(#d)"><path d="M588.706 567.432q7.298 0 11.142 2.676 3.893 2.677 3.893 8.175 0 6.86-6.762 9.293.924 1.12 2.092 2.725 1.168 1.607 2.384 3.504 1.216 1.85 2.335 3.844 1.12 1.947 1.994 3.844h-6.86q-.925-1.752-1.995-3.503-1.072-1.8-2.19-3.456-1.07-1.703-2.142-3.163-1.07-1.507-1.995-2.675-.68.05-1.167.05H585.544v12.747h-6.13V568.26q2.238-.487 4.768-.633 2.53-.195 4.526-.195zm.438 5.304q-1.947 0-3.6.146v10.9h2.675q2.237 0 3.94-.244 1.703-.244 2.823-.876 1.167-.633 1.75-1.703.585-1.072.585-2.726 0-1.557-.584-2.627-.584-1.07-1.703-1.703-1.07-.633-2.578-.876-1.508-.292-3.308-.292zM631.165 600.714q-1.703.438-4.428.875-2.725.486-5.985.486-3.065 0-5.157-.876-2.044-.876-3.31-2.433-1.215-1.557-1.75-3.698-.536-2.19-.536-4.77v-14.255h5.887v13.332q0 4.087 1.168 5.838 1.216 1.752 4.184 1.752 1.07 0 2.237-.097 1.217-.098 1.8-.244v-20.58h5.888v24.668zM638.706 576.872q1.703-.487 4.428-.925 2.725-.438 6.033-.438 3.114 0 5.207.875 2.092.827 3.308 2.384 1.265 1.508 1.752 3.697.535 2.14.535 4.72v14.305h-5.888v-13.38q0-2.044-.292-3.455-.244-1.46-.876-2.336-.584-.923-1.654-1.312-1.022-.438-2.53-.438-1.12 0-2.336.146-1.217.146-1.8.243v20.532h-5.888v-24.62zM667.216 576.872q1.703-.487 4.428-.925 2.725-.438 6.033-.438 3.114 0 5.207.875 2.092.827 3.308 2.384 1.265 1.508 1.752 3.697.535 2.14.535 4.72v14.305h-5.888v-13.38q0-2.044-.292-3.455-.244-1.46-.876-2.336-.584-.923-1.655-1.312-1.022-.438-2.53-.438-1.12 0-2.336.146-1.217.146-1.8.243v20.532h-5.888v-24.62zM701.662 601.492h-5.887v-25.447h5.887v25.447zm.633-32.892q0 1.654-1.07 2.628-1.07.973-2.53.973-1.51 0-2.58-.972-1.07-.974-1.07-2.628 0-1.703 1.07-2.676 1.07-.973 2.58-.973 1.46 0 2.53.974 1.07.973 1.07 2.676zM709.126 576.872q1.703-.487 4.427-.925 2.725-.438 6.034-.438 3.114 0 5.206.875 2.092.827 3.31 2.384 1.264 1.508 1.75 3.697.536 2.14.536 4.72v14.305h-5.89v-13.38q0-2.044-.29-3.455-.244-1.46-.877-2.336-.584-.923-1.654-1.312-1.023-.438-2.53-.438-1.12 0-2.337.146-1.216.146-1.8.243v20.532h-5.887v-24.62zM742.258 588.11q0 3.748 1.606 5.5 1.654 1.703 4.233 1.703 1.41 0 2.627-.39 1.265-.39 2.044-.924v-13.187q-.633-.146-1.557-.243-.924-.146-2.335-.146-3.21 0-4.914 2.14-1.702 2.093-1.702 5.547zm16.397 10.803q0 6.082-3.114 8.905-3.064 2.822-9.438 2.822-2.336 0-4.574-.39-2.19-.39-3.99-1.02l1.07-5.013q1.51.632 3.407 1.022 1.946.388 4.184.388 3.55 0 5.06-1.46 1.508-1.46 1.508-4.33v-.973q-.876.438-2.336.875-1.41.438-3.26.438-2.433 0-4.476-.778-1.995-.78-3.455-2.287-1.41-1.508-2.237-3.747-.78-2.286-.78-5.255 0-2.772.83-5.107.874-2.336 2.48-3.99 1.654-1.655 3.99-2.58 2.335-.924 5.304-.924 2.87 0 5.45.437 2.578.438 4.378.925v22.04z"/></g><g fill="#fffef1" style="line-height:125%;-inkscape-font-specification:'Ubuntu, Medium';text-align:start"><path d="M527.867 517.418q7.298 0 11.142 2.676 3.892 2.676 3.892 8.174 0 6.86-6.763 9.294.923 1.12 2.09 2.725 1.17 1.605 2.385 3.503 1.216 1.85 2.336 3.844 1.12 1.946 1.995 3.844h-6.86q-.925-1.752-1.995-3.504-1.07-1.8-2.19-3.454-1.07-1.703-2.14-3.163-1.07-1.508-1.995-2.676-.682.05-1.168.05h-3.893v12.748h-6.13v-33.233q2.238-.486 4.768-.632 2.53-.195 4.525-.195zm.438 5.304q-1.946 0-3.6.146v10.9h2.675q2.24 0 3.942-.245 1.703-.243 2.822-.875 1.167-.633 1.75-1.703.585-1.07.585-2.725 0-1.557-.585-2.628-.584-1.07-1.703-1.703-1.07-.633-2.58-.876-1.507-.292-3.307-.292zM570.326 550.7q-1.703.437-4.428.875-2.724.487-5.984.487-3.066 0-5.158-.876-2.044-.876-3.31-2.433-1.215-1.557-1.75-3.698-.536-2.19-.536-4.768V526.03h5.888v13.332q0 4.087 1.168 5.84 1.216 1.75 4.184 1.75 1.07 0 2.238-.097 1.217-.097 1.8-.243V526.03h5.888v24.67zM577.867 526.857q1.703-.486 4.428-.924 2.725-.438 6.033-.438 3.114 0 5.207.876 2.092.828 3.308 2.385 1.265 1.508 1.752 3.698.535 2.14.535 4.72v14.305h-5.887v-13.38q0-2.044-.292-3.455-.242-1.46-.875-2.336-.584-.925-1.654-1.314-1.02-.438-2.53-.438-1.12 0-2.335.146-1.216.147-1.8.245v20.533h-5.888v-24.62zM606.377 526.857q1.703-.486 4.428-.924 2.725-.438 6.033-.438 3.114 0 5.207.876 2.092.828 3.308 2.385 1.265 1.508 1.752 3.698.535 2.14.535 4.72v14.305h-5.887v-13.38q0-2.044-.292-3.455-.243-1.46-.875-2.336-.584-.925-1.654-1.314-1.02-.438-2.53-.438-1.12 0-2.335.146-1.217.147-1.8.245v20.533h-5.888v-24.62zM640.823 551.478h-5.887V526.03h5.887v25.448zm.633-32.892q0 1.654-1.07 2.627-1.07.973-2.53.973-1.51 0-2.58-.973t-1.07-2.627q0-1.703 1.07-2.676 1.07-.974 2.58-.974 1.46 0 2.53.974 1.07.973 1.07 2.676zM648.287 526.857q1.703-.486 4.427-.924 2.725-.438 6.034-.438 3.114 0 5.206.876 2.092.828 3.31 2.385 1.264 1.508 1.75 3.698.536 2.14.536 4.72v14.305h-5.888v-13.38q0-2.044-.292-3.455-.243-1.46-.876-2.336-.583-.925-1.654-1.314-1.022-.438-2.53-.438-1.12 0-2.336.146-1.216.147-1.8.245v20.533h-5.887v-24.62zM681.42 538.097q0 3.747 1.605 5.498 1.654 1.703 4.233 1.703 1.41 0 2.627-.39 1.265-.388 2.044-.923V530.8q-.634-.147-1.558-.245-.925-.146-2.336-.146-3.21 0-4.914 2.14-1.703 2.092-1.703 5.547zm16.396 10.802q0 6.08-3.114 8.903-3.065 2.822-9.44 2.822-2.335 0-4.573-.39-2.19-.388-3.99-1.02l1.07-5.012q1.508.632 3.406 1.02 1.946.39 4.184.39 3.552 0 5.06-1.46 1.51-1.46 1.51-4.33v-.973q-.877.438-2.337.876-1.41.438-3.26.438-2.433 0-4.476-.778-1.995-.78-3.455-2.287-1.41-1.51-2.238-3.748-.78-2.287-.78-5.255 0-2.773.83-5.11.874-2.334 2.48-3.99 1.654-1.653 3.99-2.578 2.336-.925 5.304-.925 2.87 0 5.45.438 2.578.438 4.378.924V548.9z"/></g><g fill="#450804" style="line-height:125%;-inkscape-font-specification:'Ubuntu, Medium';text-align:start" transform="matrix(.95552 0 0 1.0006 169.315 -76.463)" filter="url(#e)"><path d="M586.486 630.967q-3.455 0-5.936-.973-2.482-1.022-4.136-2.822-1.606-1.8-2.385-4.233-.78-2.434-.78-5.354v-21.068h6.18v20.484q0 2.287.487 3.942.535 1.605 1.46 2.627.973 1.023 2.238 1.51 1.314.486 2.92.486 1.605 0 2.92-.487 1.312-.487 2.237-1.51.973-1.02 1.46-2.626.535-1.655.535-3.942v-20.484h6.18v21.068q0 2.92-.828 5.353-.78 2.43-2.434 4.232-1.605 1.8-4.136 2.822-2.53.973-5.984.973zM624.298 617.44q0-3.746-1.508-5.936-1.46-2.19-4.67-2.19-1.46 0-2.775.44-1.265.436-2.043.972v14.645q.632.147 1.605.293 1.022.098 2.433.098 3.26 0 5.11-2.19 1.848-2.237 1.848-6.13zm6.034.098q0 3.065-.925 5.546-.876 2.433-2.58 4.185-1.653 1.75-4.037 2.675-2.384.925-5.4.925-2.92 0-5.597-.438-2.627-.438-4.38-.973V593.45l5.89-.973v13.185q1.02-.535 2.48-.973 1.51-.438 3.31-.438 2.675 0 4.767.973 2.14.925 3.552 2.677 1.41 1.75 2.14 4.233.78 2.433.78 5.4zM657.273 629.46q-1.703.436-4.428.874-2.724.487-5.984.487-3.065 0-5.157-.875-2.044-.876-3.31-2.433-1.215-1.557-1.75-3.698-.536-2.19-.536-4.768V604.79h5.888v13.33q0 4.09 1.168 5.84 1.216 1.752 4.184 1.752 1.07 0 2.238-.097 1.217-.098 1.8-.244v-20.58h5.888v24.67zM664.814 605.617q1.703-.487 4.428-.925 2.725-.438 6.033-.438 3.114 0 5.207.876 2.092.827 3.308 2.384 1.265 1.51 1.752 3.698.535 2.14.535 4.72v14.305h-5.887v-13.38q0-2.044-.292-3.455-.244-1.46-.876-2.336-.584-.924-1.654-1.313-1.022-.438-2.53-.438-1.12 0-2.336.146-1.216.147-1.8.244v20.533h-5.888v-24.62zM693.032 598.075l5.888-.973v7.688h9.05v4.914h-9.05v10.364q0 3.065.973 4.38.973 1.313 3.308 1.313 1.607 0 2.823-.34 1.266-.34 1.995-.633l.974 4.672q-1.022.436-2.677.874-1.654.487-3.892.487-2.725 0-4.574-.73-1.8-.73-2.872-2.09-1.07-1.412-1.508-3.358-.438-1.995-.438-4.526v-22.04zM734.535 629.46q-1.703.436-4.428.874-2.725.487-5.985.487-3.065 0-5.157-.875-2.044-.876-3.31-2.433-1.215-1.557-1.75-3.698-.536-2.19-.536-4.768V604.79h5.887v13.33q0 4.09 1.167 5.84 1.217 1.752 4.185 1.752 1.07 0 2.237-.097 1.217-.098 1.8-.244v-20.58h5.888v24.67z"/></g><g fill="#fffef1" style="line-height:125%;-inkscape-font-specification:'Ubuntu, Medium';text-align:start"><path d="M726.716 552.485q-3.454 0-5.936-.973-2.48-1.022-4.136-2.822-1.605-1.8-2.384-4.233-.778-2.433-.778-5.352v-21.07h6.18v20.486q0 2.288.486 3.942.535 1.606 1.46 2.627.972 1.02 2.238 1.508 1.313.486 2.92.486 1.605 0 2.918-.486 1.314-.487 2.24-1.51.972-1.02 1.458-2.626.536-1.654.536-3.94v-20.486h6.18v21.07q0 2.918-.828 5.35-.78 2.434-2.433 4.234-1.606 1.8-4.136 2.822-2.53.973-5.984.973zM764.53 538.96q0-3.748-1.51-5.937-1.46-2.19-4.67-2.19-1.46 0-2.774.438-1.265.44-2.044.974v14.646q.633.146 1.606.292 1.022.097 2.433.097 3.26 0 5.11-2.19 1.85-2.24 1.85-6.13zm6.032.096q0 3.065-.924 5.547-.876 2.433-2.58 4.184-1.653 1.752-4.038 2.676-2.384.925-5.4.925-2.92 0-5.596-.438-2.627-.438-4.38-.973V514.97l5.888-.972v13.186q1.022-.536 2.482-.973 1.508-.437 3.31-.437 2.675 0 4.767.973 2.142.924 3.553 2.676 1.41 1.752 2.14 4.233.78 2.433.78 5.4zM797.504 550.977q-1.703.438-4.428.876-2.725.486-5.985.486-3.064 0-5.156-.877-2.044-.875-3.31-2.432-1.216-1.556-1.75-3.697-.536-2.19-.536-4.77V526.31h5.887v13.332q0 4.087 1.168 5.84 1.217 1.75 4.185 1.75 1.07 0 2.238-.097 1.216-.097 1.8-.243v-20.582h5.888v24.67zM805.045 527.135q1.703-.487 4.428-.924 2.724-.437 6.033-.437 3.114 0 5.206.875 2.093.828 3.31 2.385 1.264 1.508 1.75 3.698.536 2.14.536 4.72v14.305h-5.888v-13.38q0-2.044-.292-3.455-.243-1.46-.875-2.335-.584-.925-1.655-1.314-1.022-.437-2.53-.437-1.12 0-2.335.146-1.217.145-1.8.242v20.533h-5.888v-24.62zM833.263 519.593l5.887-.973v7.688h9.05v4.914h-9.05v10.364q0 3.066.973 4.38.974 1.313 3.31 1.313 1.605 0 2.82-.342 1.266-.34 1.996-.632l.972 4.67q-1.022.44-2.676.877-1.654.486-3.892.486-2.725 0-4.574-.73-1.8-.73-2.87-2.093-1.07-1.41-1.51-3.357-.437-1.995-.437-4.525v-22.042zM874.766 550.977q-1.703.438-4.428.876-2.725.486-5.985.486-3.065 0-5.158-.877-2.043-.875-3.308-2.432-1.217-1.556-1.752-3.697-.535-2.19-.535-4.77V526.31h5.887v13.332q0 4.087 1.168 5.84 1.216 1.75 4.185 1.75 1.07 0 2.238-.097 1.216-.097 1.8-.243v-20.582h5.888v24.67z"/></g></g></g></svg>