<?xml version="1.0" encoding="UTF-8" standalone="no"?>
<svg
   xmlns:dc="http://purl.org/dc/elements/1.1/"
   xmlns:cc="http://creativecommons.org/ns#"
   xmlns:rdf="http://www.w3.org/1999/02/22-rdf-syntax-ns#"
   xmlns:svg="http://www.w3.org/2000/svg"
   xmlns="http://www.w3.org/2000/svg"
   xmlns:xlink="http://www.w3.org/1999/xlink"
   xmlns:sodipodi="http://sodipodi.sourceforge.net/DTD/sodipodi-0.dtd"
   xmlns:inkscape="http://www.inkscape.org/namespaces/inkscape"
   width="1920"
   height="1080"
   id="svg4136"
   version="1.1"
   inkscape:version="0.91 r13725"
   sodipodi:docname="running-ubuntu-red-bg.svg"
   inkscape:export-filename="/home/manjit/github/wallpapers/ubuntu/running-ubuntu-red-bg.png"
   inkscape:export-xdpi="90"
   inkscape:export-ydpi="90">
  <metadata
     id="metadata4170">
    <rdf:RDF>
      <cc:Work
         rdf:about="">
        <dc:format>image/svg+xml</dc:format>
        <dc:type
           rdf:resource="http://purl.org/dc/dcmitype/StillImage" />
        <dc:title />
      </cc:Work>
    </rdf:RDF>
  </metadata>
  <sodipodi:namedview
     pagecolor="#ffffff"
     bordercolor="#666666"
     borderopacity="1"
     objecttolerance="10"
     gridtolerance="10"
     guidetolerance="10"
     inkscape:pageopacity="0"
     inkscape:pageshadow="2"
     inkscape:window-width="1920"
     inkscape:window-height="1013"
     id="namedview4168"
     showgrid="false"
     inkscape:zoom="0.40096712"
     inkscape:cx="1017.0715"
     inkscape:cy="721.1053"
     inkscape:window-x="0"
     inkscape:window-y="24"
     inkscape:window-maximized="1"
     inkscape:current-layer="layer1"
     showguides="true"
     inkscape:guide-bbox="true" />
  <defs
     id="defs4138">
    <linearGradient
       id="a">
      <stop
         offset="0"
         stop-color="#ce1f01"
         id="stop4141" />
      <stop
         offset="1"
         stop-color="#450804"
         id="stop4143" />
    </linearGradient>
    <radialGradient
       id="b"
       cx="386.86072"
       cy="502.2659"
       r="960"
       xlink:href="#a"
       fx="386.86072"
       fy="502.2659"
       gradientTransform="matrix(1.0433514,0,1.2214612e-8,0.71055,82.654337,175.94)"
       gradientUnits="userSpaceOnUse" />
    <filter
       id="d"
       width="1.119"
       height="1.489"
       x="-.06"
       y="-.245"
       color-interpolation-filters="sRGB">
      <feGaussianBlur
         stdDeviation="3.009"
         id="feGaussianBlur4147" />
    </filter>
    <filter
       id="c"
       width="1.192"
       height="1.192"
       x="-.096"
       y="-.096"
       color-interpolation-filters="sRGB">
      <feGaussianBlur
         stdDeviation="3.446"
         id="feGaussianBlur4150" />
    </filter>
    <filter
       inkscape:collect="always"
       style="color-interpolation-filters:sRGB"
       id="filter4250"
       x="-0.059999997"
       width="1.12"
       y="-0.060000003"
       height="1.12">
      <feGaussianBlur
         inkscape:collect="always"
         stdDeviation="4.9606448"
         id="feGaussianBlur4252" />
    </filter>
    <filter
       inkscape:collect="always"
       style="color-interpolation-filters:sRGB"
       id="filter4294"
       x="-0.037158978"
       width="1.074318"
       y="-0.15571626"
       height="1.3114325">
      <feGaussianBlur
         inkscape:collect="always"
         stdDeviation="2.4971441"
         id="feGaussianBlur4296" />
    </filter>
    <filter
       inkscape:collect="always"
       style="color-interpolation-filters:sRGB"
       id="filter4340"
       x="-0.030117575"
       width="1.0602352"
       y="-0.11815495"
       height="1.2363099">
      <feGaussianBlur
         inkscape:collect="always"
         stdDeviation="2.2493171"
         id="feGaussianBlur4342" />
    </filter>
  </defs>
  <g
     inkscape:groupmode="layer"
     id="layer1"
     inkscape:label="BG"
     style="display:inline">
    <rect
       x="-0.5"
       style="fill:url(#b)"
       id="rect4154"
       ry="0.257"
       y="5.6843419e-14"
       height="1080"
       width="1921" />
  </g>
  <g
     inkscape:groupmode="layer"
     id="layer2"
     inkscape:label="Logo"
     style="display:inline">
    <g
       id="g4454"
       transform="translate(-83.06928,0)">
      <path
         transform="matrix(0.94887119,0,0,0.98305868,-427.51604,9.1483128)"
         style="display:inline;fill:#450804;fill-opacity:1;filter:url(#filter4250)"
         d="m 960,440.78711 c -54.79701,0 -99.2129,44.41689 -99.2129,99.21289 0,54.79 44.41589,99.21289 99.2129,99.21289 54.795,0 99.2129,-44.42289 99.2129,-99.21289 0,-54.796 -44.4179,-99.21289 -99.2129,-99.21289 z m 32.4668,30.81836 c 2.05581,0.0534 4.12952,0.60476 6.03515,1.70507 6.10205,3.522 8.18995,11.32088 4.66795,17.42188 -3.52198,6.1 -11.32381,8.18997 -17.42381,4.66797 -6.09899,-3.521 -8.18997,-11.32188 -4.66797,-17.42188 2.42138,-4.19375 6.86587,-6.49054 11.38868,-6.37304 z M 960,485.19726 c 4.98,0 9.80171,0.66711 14.38671,1.91211 0.808,5.182 3.86572,9.96792 8.76172,12.79492 4.892,2.825 10.56023,3.08036 15.44923,1.19336 9.23104,9.159 15.21584,21.58063 16.08984,35.39063 l -18.45313,0.28711 c -1.633,-18.581 -17.23136,-33.15235 -36.23437,-33.15235 -5.477,0 -10.67107,1.21191 -15.33007,3.37891 l -8.98048,-16.13281 c 7.326,-3.631 15.57955,-5.67188 24.31055,-5.67188 z m -30.39063,9.19141 9.48047,15.83984 c -9.355,6.584 -15.46875,17.46349 -15.46875,29.77149 0,12.308 6.11476,23.18558 15.46875,29.76757 l -9.48047,15.8418 c -10.979,-7.332 -19.16133,-18.518 -22.61132,-31.625 4.08599,-3.293 6.70116,-8.33333 6.70116,-13.98633 0,-5.653 -2.61522,-10.69337 -6.69921,-13.98437 3.44901,-13.107 11.63138,-24.295 22.60937,-31.625 z m -33.86328,32.85547 c 7.04501,0 12.75782,5.7099 12.75782,12.7539 0,7.045 -5.71281,12.75586 -12.75782,12.75586 -7.045,0 -12.75586,-5.71086 -12.75586,-12.75586 0,-7.044 5.71086,-12.7539 12.75586,-12.7539 z m 100.48828,15.97851 18.45313,0.28907 c -0.874,13.811 -6.8608,26.23162 -16.0918,35.39062 -4.88899,-1.888 -10.55621,-1.62964 -15.44922,1.19336 -4.895,2.827 -7.95177,7.61097 -8.75977,12.79297 -4.586,1.245 -9.4077,1.91406 -14.38671,1.91406 -8.731,0 -16.98555,-2.04083 -24.31055,-5.67383 l 8.98048,-16.13281 c 4.659,2.168 9.85307,3.38281 15.33007,3.38281 19.004,0 34.60137,-14.57625 36.23437,-33.15625 z m -4.45312,39.66992 c 4.52283,-0.11772 8.96725,2.17861 11.38865,6.37305 3.522,6.102 1.4321,13.90283 -4.66795,17.42383 -6.09999,3.522 -13.90182,1.43203 -17.42383,-4.66797 -3.522,-6.101 -1.43203,-13.90183 4.66797,-17.42383 1.90594,-1.10031 3.97932,-1.65156 6.03516,-1.70508 z"
         id="path4204"
         inkscape:connector-curvature="0" />
      <path
         inkscape:connector-curvature="0"
         id="path4170"
         d="m 483.4003,434.86903 c -54.79701,0 -99.2129,44.41689 -99.2129,99.21289 0,54.79 44.41589,99.21289 99.2129,99.21289 54.795,0 99.2129,-44.42289 99.2129,-99.21289 0,-54.796 -44.4179,-99.21289 -99.2129,-99.21289 z m 32.4668,30.81836 c 2.05581,0.0534 4.12952,0.60476 6.03515,1.70507 6.10205,3.522 8.18995,11.32088 4.66795,17.42188 -3.52198,6.1 -11.32381,8.18997 -17.42381,4.66797 -6.09899,-3.521 -8.18997,-11.32188 -4.66797,-17.42188 2.42138,-4.19375 6.86587,-6.49054 11.38868,-6.37304 z m -32.4668,13.59179 c 4.98,0 9.80171,0.66711 14.38671,1.91211 0.808,5.182 3.86572,9.96792 8.76172,12.79492 4.892,2.825 10.56023,3.08036 15.44923,1.19336 9.23104,9.159 15.21584,21.58063 16.08984,35.39063 l -18.45313,0.28711 c -1.633,-18.581 -17.23136,-33.15235 -36.23437,-33.15235 -5.477,0 -10.67107,1.21191 -15.33007,3.37891 l -8.98048,-16.13281 c 7.326,-3.631 15.57955,-5.67188 24.31055,-5.67188 z m -30.39063,9.19141 9.48047,15.83984 c -9.355,6.584 -15.46875,17.46349 -15.46875,29.77149 0,12.308 6.11476,23.18558 15.46875,29.76757 l -9.48047,15.8418 c -10.979,-7.332 -19.16133,-18.518 -22.61132,-31.625 4.08599,-3.293 6.70116,-8.33333 6.70116,-13.98633 0,-5.653 -2.61522,-10.69337 -6.69921,-13.98437 3.44901,-13.107 11.63138,-24.295 22.60937,-31.625 z m -33.86328,32.85547 c 7.04501,0 12.75782,5.7099 12.75782,12.7539 0,7.045 -5.71281,12.75586 -12.75782,12.75586 -7.045,0 -12.75586,-5.71086 -12.75586,-12.75586 0,-7.044 5.71086,-12.7539 12.75586,-12.7539 z m 100.48828,15.97851 18.45313,0.28907 c -0.874,13.811 -6.8608,26.23162 -16.0918,35.39062 -4.88899,-1.888 -10.55621,-1.62964 -15.44922,1.19336 -4.895,2.827 -7.95177,7.61097 -8.75977,12.79297 -4.586,1.245 -9.4077,1.91406 -14.38671,1.91406 -8.731,0 -16.98555,-2.04083 -24.31055,-5.67383 l 8.98048,-16.13281 c 4.659,2.168 9.85307,3.38281 15.33007,3.38281 19.004,0 34.60137,-14.57625 36.23437,-33.15625 z m -4.45312,39.66992 c 4.52283,-0.11772 8.96725,2.17861 11.38865,6.37305 3.522,6.102 1.4321,13.90283 -4.66795,17.42383 -6.09999,3.522 -13.90182,1.43203 -17.42383,-4.66797 -3.522,-6.101 -1.43203,-13.90183 4.66797,-17.42383 1.90594,-1.10031 3.97932,-1.65156 6.03516,-1.70508 z"
         style="display:inline;fill:#fffef1;fill-opacity:1" />
    </g>
    <path
       d="m 1891.2478,509.1372 a 21.902643,21.902643 0 0 0 -20.1504,21.8229 21.902643,21.902643 0 0 0 21.9026,21.9027 21.902643,21.902643 0 0 0 8.323,-1.6616 l 0,-20.6791 -3.9425,0 0,12.7035 c 0.1227,2.7265 -3.1583,4.2299 -5.2566,2.1903 L 1876.354,529.646 c -2.4019,-2.6283 0,-5.2567 1.7522,-5.2567 l 13.1416,0 0,-15.2521 z m 6.1327,0.3645 0,14.8876 7.0089,0 c 1.7053,0.042 2.9314,1.4132 3.0663,3.0664 l 0,19.9227 a 21.902643,21.902643 0 0 0 7.4469,-16.4183 21.902643,21.902643 0 0 0 -17.5221,-21.4584 z m -11.3893,21.0204 5.2566,5.2566 0,-5.2566 -5.2566,0 z"
       class="bg-target"
       id="path4654-5"
       inkscape:connector-curvature="0"
       style="display:inline;opacity:1;fill:#ffffff;fill-opacity:0.04273504;stroke-width:5;stroke-linecap:round" />
  </g>
  <g
     inkscape:groupmode="layer"
     id="layer3"
     inkscape:label="Text"
     style="display:inline">
    <g
       id="g4470"
       transform="translate(-83.06928,0)">
      <g
         id="g4458">
        <text
           sodipodi:linespacing="125%"
           id="text4320"
           y="601.49213"
           x="575.37384"
           style="font-style:normal;font-variant:normal;font-weight:500;font-stretch:normal;font-size:48.65689468px;line-height:125%;font-family:Ubuntu;-inkscape-font-specification:'Ubuntu, Medium';text-align:start;letter-spacing:0px;word-spacing:0px;writing-mode:lr-tb;text-anchor:start;display:inline;fill:#450804;fill-opacity:1;stroke:none;stroke-width:1px;stroke-linecap:butt;stroke-linejoin:miter;stroke-opacity:1;filter:url(#filter4340)"
           xml:space="preserve"
           transform="matrix(0.96235173,0,0,1.0375212,47.418318,-69.532843)"><tspan
             y="601.49213"
             x="575.37384"
             id="tspan4322"
             sodipodi:role="line">Running</tspan></text>
        <text
           xml:space="preserve"
           style="font-style:normal;font-variant:normal;font-weight:500;font-stretch:normal;font-size:48.65689468px;line-height:125%;font-family:Ubuntu;-inkscape-font-specification:'Ubuntu, Medium';text-align:start;letter-spacing:0px;word-spacing:0px;writing-mode:lr-tb;text-anchor:start;display:inline;fill:#fffef1;fill-opacity:1;stroke:none;stroke-width:1px;stroke-linecap:butt;stroke-linejoin:miter;stroke-opacity:1"
           x="597.60419"
           y="551.47778"
           id="text4260"
           sodipodi:linespacing="125%"><tspan
             sodipodi:role="line"
             id="tspan4262"
             x="597.60419"
             y="551.47778">Running</tspan></text>
      </g>
      <g
         id="g4464">
        <text
           transform="matrix(0.95552072,0,0,1.0006094,252.38462,-76.463194)"
           xml:space="preserve"
           style="font-style:normal;font-variant:normal;font-weight:500;font-stretch:normal;font-size:48.65689468px;line-height:125%;font-family:Ubuntu;-inkscape-font-specification:'Ubuntu, Medium';text-align:start;letter-spacing:0px;word-spacing:0px;writing-mode:lr-tb;text-anchor:start;display:inline;fill:#450804;fill-opacity:1;stroke:none;stroke-width:1px;stroke-linecap:butt;stroke-linejoin:miter;stroke-opacity:1;filter:url(#filter4294)"
           x="569.45575"
           y="630.23706"
           id="text4306"
           sodipodi:linespacing="125%"><tspan
             sodipodi:role="line"
             id="tspan4308"
             x="569.45575"
             y="630.23706">Ubuntu</tspan></text>
        <text
           sodipodi:linespacing="125%"
           id="text4310"
           y="551.75543"
           x="792.75568"
           style="font-style:normal;font-variant:normal;font-weight:500;font-stretch:normal;font-size:48.65689468px;line-height:125%;font-family:Ubuntu;-inkscape-font-specification:'Ubuntu, Medium';text-align:start;letter-spacing:0px;word-spacing:0px;writing-mode:lr-tb;text-anchor:start;display:inline;fill:#fffef1;fill-opacity:1;stroke:none;stroke-width:1px;stroke-linecap:butt;stroke-linejoin:miter;stroke-opacity:1"
           xml:space="preserve"><tspan
             y="551.75543"
             x="792.75568"
             id="tspan4312"
             sodipodi:role="line">Ubuntu</tspan></text>
      </g>
    </g>
  </g>
</svg>
