<?xml version="1.0" encoding="UTF-8" standalone="no"?>
<!-- Created with Inkscape (http://www.inkscape.org/) -->

<svg
   xmlns:dc="http://purl.org/dc/elements/1.1/"
   xmlns:cc="http://creativecommons.org/ns#"
   xmlns:rdf="http://www.w3.org/1999/02/22-rdf-syntax-ns#"
   xmlns:svg="http://www.w3.org/2000/svg"
   xmlns="http://www.w3.org/2000/svg"
   xmlns:sodipodi="http://sodipodi.sourceforge.net/DTD/sodipodi-0.dtd"
   xmlns:inkscape="http://www.inkscape.org/namespaces/inkscape"
   width="306.76215mm"
   height="112.30421mm"
   viewBox="0 0 306.76215 112.30421"
   version="1.1"
   id="svg5667"
   inkscape:version="0.92.1 unknown"
   sodipodi:docname="clockwork.svg">
  <defs
     id="defs5661">
    <inkscape:path-effect
       effect="envelope"
       id="path-effect4595"
       is_visible="true"
       yy="true"
       xx="true"
       bendpath1="M -178.53822,182.17118 128.57315,105.73795"
       bendpath2="m 131.92619,108.95385 75.48309,85.69445"
       bendpath3="M 33.955256,294.56618 C 95.980516,241.53038 173.9226,216.34768 231.88035,181.61566"
       bendpath4="m -180.19187,182.998 c 92.110701,33.05528 161.697146,66.11055 200.917956,99.16584"
       bendpath1-nodetypes="cc"
       bendpath3-nodetypes="cc"
       bendpath2-nodetypes="cc"
       bendpath4-nodetypes="cc" />
  </defs>
  <sodipodi:namedview
     id="base"
     pagecolor="#ffffff"
     bordercolor="#666666"
     borderopacity="1.0"
     inkscape:pageopacity="0.0"
     inkscape:pageshadow="2"
     inkscape:zoom="0.61044922"
     inkscape:cx="728.0926"
     inkscape:cy="176.15126"
     inkscape:document-units="mm"
     inkscape:current-layer="layer1"
     showgrid="false"
     fit-margin-top="0"
     fit-margin-left="0"
     fit-margin-right="0"
     fit-margin-bottom="0"
     inkscape:window-width="1920"
     inkscape:window-height="1015"
     inkscape:window-x="0"
     inkscape:window-y="24"
     inkscape:window-maximized="1" />
  <metadata
     id="metadata5664">
    <rdf:RDF>
      <cc:Work
         rdf:about="">
        <dc:format>image/svg+xml</dc:format>
        <dc:type
           rdf:resource="http://purl.org/dc/dcmitype/StillImage" />
        <dc:title></dc:title>
      </cc:Work>
    </rdf:RDF>
  </metadata>
  <g
     inkscape:label="Layer 1"
     inkscape:groupmode="layer"
     id="layer1"
     transform="translate(137.56667,-117.02207)">
    <path
       id="path7245"
       d="m -1.207653,179.10327 c -2.6487584,-4.09842 -8.2691931,-6.80575 -17.392234,-8.26001 -9.048322,-1.44235 -19.135704,-1.25219 -30.257478,0.42859 -11.085316,1.67528 -20.223104,4.40076 -26.167242,8.27107 -5.993025,3.90213 -6.915619,7.77872 -3.055319,11.73344 3.835144,3.92895 11.239976,6.81378 21.139997,8.64437 10.01859,1.85254 19.810889,2.13161 29.909469,0.576 10.134107,-1.56109 17.4197032,-4.48136 22.405033,-8.76362 4.9587783,-4.25944 6.0688978,-8.52776 3.417774,-12.62984 z m 132.634423,16.14465 c -2.08339,-2.30352 -5.38309,-4.03244 -10.06498,-5.20046 -4.67989,-1.16752 -9.30705,-1.41077 -13.97711,-0.68505 -4.65758,0.72379 -8.113884,2.22396 -10.176165,4.52787 -2.064849,2.30676 -2.082558,4.69826 0.06068,7.15257 2.185137,2.50229 5.896147,4.3614 11.008227,5.5164 5.11894,1.15653 10.08896,1.2585 14.79501,0.37121 4.71249,-0.88851 7.74646,-2.49427 9.29629,-4.7695 1.54926,-2.27441 1.18246,-4.56416 -0.94195,-6.91304 z M 106.20904,135.7216 c 0.0622,-1.74018 -1.89549,-3.14933 -5.93892,-4.16249 -4.03049,-1.00991 -8.817573,-1.28491 -14.316085,-0.75541 -5.479817,0.5277 -10.227183,1.71769 -14.166224,3.48204 -3.94206,1.76569 -5.861861,3.55837 -5.745383,5.31564 0.119399,1.80122 2.221326,3.08853 6.208038,3.90793 4.005599,0.82329 8.679156,0.93049 14.10778,0.37347 5.432054,-0.55738 10.006649,-1.60981 13.885674,-3.18201 3.87593,-1.57095 5.90136,-3.19527 5.96512,-4.97917 z m -52.943448,29.21253 c 1.660883,3.53974 3.632207,7.24099 5.888526,11.05989 0.244424,0.41369 0.149914,0.86991 -0.282953,1.3685 -0.433149,0.49892 -1.065258,0.83616 -1.905489,1.01077 -5.484877,1.26273 -11.29921,2.61347 -16.855022,3.90664 -0.187054,0.0427 -4.555288,1.04014 -4.742342,1.08281 -0.09569,1.63372 -0.547673,3.48647 -1.324263,5.57323 2.107862,0.69385 4.494438,1.44737 7.149524,2.26009 3.330354,0.99685 7.1989,2.12567 11.453174,3.3484 1.012183,0.34825 1.693163,0.75056 2.044262,1.20633 0.42145,0.54704 0.426986,1.03441 0.01072,1.45923 -1.133572,1.74467 -3.390822,4.3722 -6.722696,8.11442 -3.321131,3.73013 -5.72451,5.75899 -7.571512,6.04061 -1.052149,0.16041 -2.205233,0.14162 -3.45951,-0.0552 -7.481641,-1.37597 -14.683515,-2.68475 -22.032946,-3.96855 -2.781618,1.42059 -5.8036708,2.69897 -9.0809764,3.8335 3.478884,5.30743 5.9558344,9.29771 7.0690384,11.89163 0.479729,1.31868 -0.328941,2.14336 -2.44511,2.45906 -8.3908952,1.25179 -17.0274371,2.53638 -24.786685,3.72535 -0.936389,0.14347 -1.965995,0.0818 -3.094592,-0.1819 -1.127308,-0.26343 -1.978454,-0.64099 -2.553182,-1.1302 -4.324695,-3.38317 -8.418781,-6.52008 -12.556894,-9.61479 -0.426255,-0.32103 -0.851745,-0.64068 -1.276723,-0.95915 -3.385724,0.002 -7.254407,-0.19718 -11.660292,-0.57178 -2.752415,2.844 -5.128149,5.7042 -7.059666,8.58111 -0.138889,0.42139 -0.670978,0.72073 -1.587942,0.89957 -0.776203,0.15138 -1.718824,0.11041 -2.841033,-0.11787 -17.08986,-4.09857 -26.173082,-5.80018 -27.896422,-6.9631 -0.53749,-0.3627 -0.884113,-0.80789 -1.018213,-1.33396 -0.163063,-0.69102 -0.400514,-2.21975 -0.36676,-4.2735 0.03305,-2.00892 0.236797,-3.81315 0.331146,-4.86618 -4.121446,-1.321 -7.658924,-2.56107 -10.611193,-3.77845 -6.749117,0.98254 -13.281927,2.09274 -19.433847,3.3844 -0.77575,0.19158 -1.66821,0.21441 -2.6907,0.0666 -1.0213,-0.14765 -1.87753,-0.42151 -2.55586,-0.82531 -5.69981,-3.39298 -11.05363,-6.81922 -15.76374,-10.38421 -0.50927,-0.38546 -0.70013,-0.84597 -0.55478,-1.3765 0.14535,-0.53056 0.60444,-0.91738 1.35607,-1.15835 6.30077,-2.20232 13.0926,-4.22386 20.13348,-6.11734 -0.20954,-1.51807 0.0853,-3.24555 1.01496,-5.15928 -4.82908,-1.22417 -10.97996,-2.64346 -18.25368,-4.50454 -0.96677,-0.34129 -1.54095,-0.70438 -1.72123,-1.08296 -0.24041,-0.50486 -0.0597,-0.98412 0.53579,-1.42922 1.76617,-1.58652 5.4799,-4.11516 11.64821,-7.30111 6.15178,-3.17743 10.83253,-4.80578 12.79244,-4.99346 1.20158,-0.11507 2.33707,-0.0825 3.41446,0.0901 6.1676,1.17971 12.57225,2.15826 19.034836,3.01033 3.567293,-1.11905 7.651618,-2.20944 12.252225,-3.29441 0.87241,-3.93057 2.889676,-6.9478 4.63793,-8.71692 1.01652,-0.95694 2.789444,-1.55745 5.226371,-1.82077 9.91933,-1.07181 19.584198,-2.29067 29.263589,-3.65485 1.139871,-0.16065 2.136261,-0.18182 2.999716,-0.0647 0.863553,0.1171 1.3078,0.33365 1.335914,0.65239 0.613489,2.3778 1.679169,4.72078 3.114908,7.07129 3.581814,-0.21434 7.56648,-0.31355 11.92567,-0.29346 3.173679,-1.31763 6.417677,-2.65822 9.6206196,-3.97856 0.3163473,-0.13158 7.91828233,-3.28823 8.2346297,-3.41981 0.8106995,-0.36839 1.8302369,-0.65651 3.0515929,-0.8638 1.1202308,-0.19013 2.190415,-0.2401 3.2165142,-0.14918 14.9194636,1.91184 22.9045396,3.45451 23.1497026,4.41176 0.07952,0.31049 -0.185859,0.69636 -0.794989,1.15774 -1.563838,1.11344 -3.919961,2.74899 -5.483798,3.86243 -2.569279,1.82394 -4.445219,3.27506 -5.637839,4.30328 3.030268,1.34095 5.415708,2.56626 7.117668,3.65225 7.81493,-0.79161 15.601733,-1.55518 23.269994,-2.25952 1.019513,-0.0744 1.945865,-0.002 2.781231,0.21702 0.835623,0.2195 1.35002,0.54024 1.547994,0.9622 0,0 -2.7e-5,-2e-5 -2.7e-5,-2e-5 z m 106.730898,20.82643 c 2.25035,2.75285 4.85988,5.52546 7.8315,8.23593 0.66302,0.60475 -4.5615,2.33173 -16.27827,5.34721 0.22991,1.32284 0.2102,2.65752 -0.0781,4.00725 9.8344,3.82485 16.05135,5.77469 17.51373,6.67962 0.23395,0.14476 0.27287,0.31166 0.11503,0.50191 -6.05125,5.08839 -9.21746,7.70363 -9.40435,7.75041 -0.64514,0.16149 -4.24087,-0.12218 -10.31722,-1.16415 -5.9705,-1.02382 -10.41576,-2.03214 -12.66823,-2.62481 -1.65806,0.46313 -2.9379,0.78954 -3.82795,0.97804 -0.88761,0.18799 -2.28558,0.42889 -4.18502,0.71579 -0.11321,1.19599 -0.57379,3.13086 -1.3039,5.89896 -0.72504,2.74895 -1.37825,4.19178 -2.12742,4.36031 -0.0707,0.0159 -1.76325,-0.003 -4.99493,-0.10737 -3.84152,-0.12806 -10.16059,-0.3929 -18.53025,-0.96434 -0.54374,-0.0658 -0.92734,-0.19234 -1.15017,-0.37914 -1.219017,-1.02196 -2.56449,-4.14846 -3.387553,-9.25751 0,0 0,0 0,0 -0.09608,-0.60346 -0.184821,-1.23508 -0.26472,-1.89381 -2.887142,-0.89793 -5.517417,-1.9092 -7.881265,-3.02302 -7.72e-4,9e-5 -0.839443,0.0961 -0.840215,0.0962 -14.0817,1.55079 -21.624165,1.85759 -22.316526,1.09568 -3.120158,-3.43362 -6.060929,-6.85924 -8.758922,-10.15167 -0.448318,-0.54709 2.833166,-1.64964 9.780867,-3.3108 2.666512,-0.65007 5.873178,-1.38499 9.588678,-2.19856 0.14881,-1.54463 0.632678,-2.96439 1.428393,-4.26385 -8.599369,-4.37412 -13.002964,-6.97189 -13.707543,-8.02678 -0.114301,-0.17113 -0.02393,-0.35035 0.27063,-0.53785 0.261011,-0.11714 1.113809,-0.54145 2.633459,-1.29975 0,0 10e-7,0 10e-7,0 -2.036666,1.02213 3.538936,-1.77587 1.502271,-0.75373 2.437522,-1.22199 4.765811,-2.36549 6.990857,-3.43545 2.219587,-1.06734 3.442268,-1.60954 3.624777,-1.63622 0.441924,-0.0646 1.574027,0.13715 3.392527,0.61058 1.263043,0.3201 2.864512,0.77193 4.807086,1.36181 4.694375,1.42548 8.087253,2.55546 9.930532,3.26163 1.768974,-0.35413 3.110456,-0.59511 4.018946,-0.72598 0.90796,-0.13081 2.30426,-0.2842 4.17,-0.45454 2.64578,-3.69037 5.57242,-6.53062 8.47392,-8.61481 -0.001,4e-4 0.76496,-0.21684 0.76357,-0.21645 0.31331,-0.0362 6.8471,0.67877 19.0764,2.39293 0.42266,0.0839 0.67621,0.20571 0.76218,0.36552 0.58786,1.09292 -0.35314,3.87 -1.35535,9.33921 2.17949,0.77523 4.28476,1.69702 6.35641,2.76622 13.19167,-1.19561 19.85286,-1.32814 20.34633,-0.7245 0,0 -2.2e-4,-1.3e-4 -2.2e-4,-1.3e-4 z m -8.00838,-53.19321 c -0.78111,2.15783 -1.49194,4.32786 -2.10018,6.51141 -0.13925,0.49989 -9.6255,0.27899 -26.21281,1.07892 -1.37905,0.92338 -3.04241,1.83747 -4.9684,2.7541 5.58975,3.6474 8.44472,5.98502 8.51522,6.84415 0.0114,0.13894 -0.18814,0.26666 -0.59676,0.38463 -12.5279,2.88365 -18.00512,4.89119 -18.20348,4.90734 -0.80286,0.0654 -3.29245,-0.61756 -7.53093,-1.99521 -4.258993,-1.38432 -7.096527,-2.32673 -8.70965,-2.9532 -2.008314,0.27489 -3.469922,0.46731 -4.486047,0.57676 -1.008026,0.10858 -2.501777,0.23468 -4.523671,0.39204 -1.277009,0.97851 -3.371465,2.39111 -6.605158,4.66566 -3.165907,2.22687 -4.991854,3.41531 -5.80437,3.52597 -0.195503,0.0266 -6.765075,-0.54955 -19.825588,-1.32373 -0.437381,-0.05 -0.68333,-0.14775 -0.737065,-0.29363 -0.321043,-0.87147 1.232354,-3.85304 5.390355,-8.51743 -2.005166,-0.61005 -3.701352,-1.28623 -5.078986,-2.03301 -15.04931,1.7451 -22.654556,2.58425 -22.747861,1.99963 -0.3767,-2.36044 -0.543942,-4.68723 -0.481991,-7.00102 0.01256,-0.46899 7.500979,-2.40533 22.454933,-5.23672 1.34686,-1.17267 2.927295,-2.27866 4.71636,-3.3102 -4.710972,-2.98755 -6.511929,-4.92128 -6.262786,-5.76789 0.04016,-0.13646 0.273478,-0.28927 0.699091,-0.45783 0.415363,-0.1344 2.241385,-0.76692 5.5074,-1.88432 3.273667,-1.12003 6.386239,-2.16381 9.384914,-3.14555 2.98312,-0.97665 4.616511,-1.47485 4.808064,-1.50188 0.815324,-0.11503 2.821588,0.3834 6.271777,1.51428 3.490724,1.14415 5.924302,1.98952 7.271979,2.56374 2.107384,-0.29035 3.723202,-0.48111 4.778155,-0.58132 1.049753,-0.0997 2.669443,-0.21646 4.795681,-0.32667 5.997921,-2.88858 11.689274,-5.15635 16.805924,-6.78885 0.35264,-0.0489 0.70599,-0.0974 1.06005,-0.14541 0.17683,-0.007 7.29559,0.86887 20.96317,3.45247 0.46221,0.11119 0.67197,0.23449 0.62875,0.36853 -0.29679,0.92047 -4.20887,2.96757 -11.02229,6.8244 1.83132,0.73659 3.42248,1.58248 4.7672,2.52792 17.65128,0.46938 27.21071,2.00844 27.07911,2.37204 0,0 -1.1e-4,-1.2e-4 -1.1e-4,-1.2e-4 z"
       inkscape:connector-curvature="0"
       style="display:inline;fill:#e57001;fill-opacity:1;stroke-width:0.26458332"
       inkscape:path-effect="#path-effect4595"
       inkscape:original-d="m 12.044216,209.05858 q 4.59671,-13.54288 -1.73312,-26.37748 -6.3298497,-12.83463 -19.8727297,-17.43135 -13.5428903,-4.59671 -26.3775003,1.73315 -12.834621,6.32982 -17.431333,19.87271 -4.59671,13.54288 1.733145,26.37749 6.32982,12.83462 19.872708,17.43134 13.54288,4.59671 26.3775203,-1.73314 12.8346,-6.32983 17.4313097,-19.87272 z m 75.91904,98.71916 q 2.25498,-6.64365 -0.95212,-13.14653 -3.20712,-6.50288 -9.85079,-8.75787 -6.64368,-2.25498 -13.14655,0.95214 -6.50289,3.20711 -8.75788,9.85077 -2.29835,6.77144 0.86656,13.18878 3.16493,6.41731 9.93637,8.71566 6.77145,2.29837 13.18876,-0.86656 6.41729,-3.16495 8.71565,-9.93639 z M 132.36921,176.94837 q 2.25499,-6.64367 -0.9521,-13.14654 -3.20712,-6.50286 -9.8508,-8.75785 -6.64368,-2.25499 -13.14655,0.95212 -6.50289,3.2071 -8.757884,9.85078 -2.29835,6.77145 0.866574,13.18876 3.16492,6.41732 9.93637,8.71568 6.77144,2.29835 13.18875,-0.86657 6.41729,-3.16493 8.71564,-9.93638 z m -67.317744,37.13602 -8.02256,23.63616 q -0.43365,1.27763 -1.73996,2.18782 -1.30632,0.91022 -2.49956,0.64767 l -20.84403,-3.65529 q -2.92316,3.99468 -7.38417,8.32231 2.26241,7.60705 6.51168,18.59561 0.46069,1.5812 0.027,2.85882 -0.52039,1.53317 -1.71829,2.12395 -4.23951,2.83549 -14.42164,7.85718 -10.1821297,5.02166 -12.6096297,4.19774 -1.40539996,-0.47704 -2.37944996,-1.80501 L -10.819034,262.56568 q -5.55117,0.82296 -11.18208,0.62151 -6.08883,13.3214 -9.66015,18.80588 -1.93511,2.76276 -4.87368,1.76536 l -23.763916,-8.06591 q -1.405395,-0.47704 -2.23002,-1.82556 -0.824613,-1.34851 -0.518723,-2.66948 l 3.696311,-20.54516 q -3.910282,-2.75204 -8.237926,-7.21305 l -18.935523,6.25383 q -1.197901,0.5908 -2.858826,0.0271 -1.4054,-0.47701 -2.336085,-1.93277 -12.630328,-23.23711 -11.459478,-26.6867 0.39029,-1.14987 1.71829,-2.12395 1.884743,-1.35501 7.536634,-4.99347 5.651924,-3.63842 8.650145,-5.75536 -1.030462,-6.61899 -0.915749,-11.99436 l -18.3792,-9.65788 q -1.23426,-0.56142 -1.75998,-1.95097 -0.52574,-1.38954 -0.0487,-2.79494 l 8.022562,-23.63615 q 0.433654,-1.27764 1.739966,-2.18782 1.306288,-0.91019 2.499524,-0.64767 l 20.844055,3.65529 q 2.923177,-3.99468 7.384161,-8.3223 -2.26241,-7.60704 -6.511684,-18.59562 -0.417328,-1.70896 -0.02704,-2.85883 0.520382,-1.53317 1.761641,-2.2517 4.111757,-2.87886 14.336106,-7.81497 10.22431,-4.93612 12.651817,-4.11217 1.405398,0.47702 2.379475,1.80501 l 10.789883,16.48569 q 5.12451,-0.82533 11.22543,-0.74931 6.08884,-13.3214 9.6168103,-18.67811 1.93507,-2.76274 4.87363,-1.76534 l 23.7639197,8.06592 q 1.4054,0.47702 2.23004,1.82552 0.82463,1.34851 0.51874,2.6695 l -3.69634,20.54514 q 3.91031,2.75206 8.23792,7.21306 l 18.93556,-6.25383 q 1.32566,-0.54742 2.8588,-0.027 1.4054,0.47702 2.33611,1.93278 12.6303,23.23708 11.45945,26.68668 -0.39029,1.14987 -1.71829,2.12395 -2.227,1.52381 -7.70777,5.07787 -5.48075,3.55403 -8.35124,5.71435 0.85703,7.13003 0.78799,11.95098 l 18.42258,9.53007 q 1.1909,0.68918 1.71665,2.07871 0.52574,1.38954 0.0487,2.79494 z m 58.654714,95.85144 -6.07114,17.88682 q -0.69384,2.0442 -20.381014,-2.50074 -2.70401,2.92922 -6.08788,5.34269 1.61566,16.64886 0.53153,19.84293 -0.17346,0.51105 -0.81461,0.72089 -18.66604,3.78062 -18.92156,3.69389 -1.02209,-0.34691 -3.83894,-7.99968 -2.81682,-7.65273 -3.69484,-10.94288 -2.64198,-0.61174 -3.91962,-1.04541 -1.27763,-0.43366 -3.74617,-1.55651 -2.69933,2.07594 -9.59251,6.43292 -6.89316,4.357 -7.91527,4.01006 -0.25552,-0.0867 -12.76369,-14.44847 -0.38094,-0.55674 -0.20748,-1.06779 1.08413,-3.19408 12.50031,-15.41966 -1.21562,-3.97465 -1.57792,-7.94464 -18.3862,-8.37785 -17.69236,-10.42207 l 6.07112,-17.88682 q 0.69384,-2.0442 20.38102,2.50074 2.91851,-3.14136 6.08789,-5.34272 -1.61564,-16.64882 -0.53152,-19.84291 0.17346,-0.51105 0.81459,-0.72088 0.59779,-0.0821 5.33903,-1.0375 4.74121,-0.95538 9.01243,-1.78537 4.27121,-0.83002 4.52673,-0.74326 1.02211,0.34691 3.86062,7.93578 2.83853,7.58884 3.71653,10.87899 2.642,0.61178 3.91963,1.04544 1.27764,0.43363 3.74615,1.55648 9.59485,-6.85955 16.611104,-10.31988 l 0.85332,0.005 q 0.51105,0.17345 12.80706,14.32071 0.38096,0.55674 0.2075,1.06782 -1.08413,3.19405 -12.50032,15.41966 1.17458,3.67577 1.5779,7.94464 18.38622,8.37785 17.69238,10.42207 z m 44.40597,-130.82939 -6.07113,17.88685 q -0.69385,2.04419 -20.38102,-2.50077 -2.70398,2.92924 -6.08787,5.34272 1.61565,16.64886 0.53152,19.84295 -0.17346,0.51103 -0.81463,0.72086 -18.66603,3.78062 -18.92156,3.69389 -1.02208,-0.34691 -3.83893,-7.99965 -2.81683,-7.65274 -3.69484,-10.94289 -2.64198,-0.61177 -3.91962,-1.04543 -1.27763,-0.43365 -3.74617,-1.55648 -2.699344,2.07592 -9.592514,6.4329 -6.89316,4.35699 -7.91527,4.01007 -0.25553,-0.0867 -12.76369,-14.44848 -0.38094,-0.55674 -0.20748,-1.06777 1.08413,-3.19409 12.50031,-15.4197 -1.21561,-3.97464 -1.57791,-7.94463 -18.38621,-8.37787 -17.69238,-10.42206 l 6.07114,-17.88685 q 0.69384,-2.04419 20.38101,2.50077 2.91851,-3.14136 6.08789,-5.34271 -1.61564,-16.64886 -0.53152,-19.84293 0.17346,-0.51105 0.81459,-0.72088 0.59779,-0.0821 5.339034,-1.03748 4.74121,-0.95542 9.01243,-1.7854 4.2712,-0.82998 4.52673,-0.74325 1.02211,0.34692 3.86062,7.93578 2.83853,7.58886 3.71653,10.87899 2.64199,0.61179 3.91966,1.04544 1.27762,0.43365 3.74613,1.55648 9.59487,-6.85955 16.61112,-10.31987 l 0.85328,0.005 q 0.51107,0.17346 12.80708,14.3207 0.38094,0.55675 0.20748,1.0678 -1.08413,3.19407 -12.50029,15.41968 1.17459,3.67577 1.57787,7.94462 18.38621,8.37787 17.6924,10.42206 z" />
  </g>
</svg>
