<?xml version="1.0" encoding="UTF-8" standalone="no"?>
<!-- Created with Inkscape (http://www.inkscape.org/) -->

<svg
   xmlns:dc="http://purl.org/dc/elements/1.1/"
   xmlns:cc="http://creativecommons.org/ns#"
   xmlns:rdf="http://www.w3.org/1999/02/22-rdf-syntax-ns#"
   xmlns:svg="http://www.w3.org/2000/svg"
   xmlns="http://www.w3.org/2000/svg"
   xmlns:xlink="http://www.w3.org/1999/xlink"
   xmlns:sodipodi="http://sodipodi.sourceforge.net/DTD/sodipodi-0.dtd"
   xmlns:inkscape="http://www.inkscape.org/namespaces/inkscape"
   width="600"
   height="650"
   viewBox="0 0 158.75 171.97917"
   version="1.1"
   id="svg6283"
   inkscape:version="0.92.1 unknown"
   sodipodi:docname="crayon.svg">
  <defs
     id="defs6277">
    <linearGradient
       inkscape:collect="always"
       xlink:href="#linearGradient4794"
       id="linearGradient4788"
       x1="1537.3412"
       y1="212.10934"
       x2="1792.8392"
       y2="40.728176"
       gradientUnits="userSpaceOnUse" />
    <linearGradient
       id="linearGradient4794"
       inkscape:collect="always">
      <stop
         id="stop4790"
         offset="0"
         style="stop-color:#f87d12;stop-opacity:1" />
      <stop
         id="stop4792"
         offset="1"
         style="stop-color:#934705;stop-opacity:1" />
    </linearGradient>
    <inkscape:path-effect
       effect="envelope"
       id="path-effect4766"
       is_visible="true"
       yy="true"
       xx="true"
       bendpath1="M 1686.0352,170.52611 1541.0156,35.760484"
       bendpath2="m 1549.8047,44.549546 83.4961,-48.3398446"
       bendpath3="M 1790.0391,123.65111 1637.6953,-3.7902986"
       bendpath4="m 1696.2891,151.48314 57.1289,-41.01562"
       bendpath1-nodetypes="cc"
       bendpath3-nodetypes="cc"
       bendpath4-nodetypes="cc"
       bendpath2-nodetypes="cc" />
    <inkscape:path-effect
       effect="envelope"
       id="path-effect4633"
       is_visible="true"
       yy="true"
       xx="true"
       bendpath1="M 517.98666,375.04466 1062.2575,262.32752"
       bendpath2="m 1121.4294,350.26128 162.2224,175.54194"
       bendpath3="M 838.04803,828.1577 1261.5264,539.18913"
       bendpath4="M 522.03833,381.29822 830.61421,843.84708"
       bendpath1-nodetypes="cc"
       bendpath3-nodetypes="cc"
       bendpath2-nodetypes="cc"
       bendpath4-nodetypes="cc" />
    <radialGradient
       inkscape:collect="always"
       xlink:href="#linearGradient6310"
       id="radialGradient4718"
       cx="1064.8802"
       cy="597.92755"
       fx="1064.8802"
       fy="597.92755"
       r="182.38783"
       gradientTransform="matrix(0.49683574,0.29185501,-0.87973358,1.7933945,993.33388,-734.91577)"
       gradientUnits="userSpaceOnUse" />
    <linearGradient
       inkscape:collect="always"
       id="linearGradient6310">
      <stop
         style="stop-color:#000000;stop-opacity:1"
         offset="0"
         id="stop6306" />
      <stop
         style="stop-color:#ff7d01;stop-opacity:1"
         offset="1"
         id="stop6308" />
    </linearGradient>
    <filter
       inkscape:collect="always"
       style="color-interpolation-filters:sRGB"
       id="filter6371"
       x="-0.43859714"
       width="1.8771943"
       y="-0.0392191"
       height="1.0784382">
      <feGaussianBlur
         inkscape:collect="always"
         stdDeviation="10.061766"
         id="feGaussianBlur6373" />
    </filter>
    <linearGradient
       inkscape:collect="always"
       xlink:href="#linearGradient4706"
       id="linearGradient4712"
       x1="1091.2782"
       y1="624.94336"
       x2="927.98224"
       y2="527.12585"
       gradientUnits="userSpaceOnUse" />
    <linearGradient
       id="linearGradient4706"
       inkscape:collect="always">
      <stop
         id="stop4702"
         offset="0"
         style="stop-color:#271e00;stop-opacity:1" />
      <stop
         style="stop-color:#574207;stop-opacity:1;"
         offset="0.45042202"
         id="stop4714" />
      <stop
         id="stop4716"
         offset="0.77605343"
         style="stop-color:#a97e12;stop-opacity:1;" />
      <stop
         id="stop4704"
         offset="1"
         style="stop-color:#ffbd1f;stop-opacity:1" />
    </linearGradient>
    <clipPath
       clipPathUnits="userSpaceOnUse"
       id="clipPath7094">
      <path
         sodipodi:nodetypes="ccccc"
         inkscape:connector-curvature="0"
         id="path7096"
         d="m 917.85591,756.12496 c -49.70857,-12.92292 -89.73342,-35.43558 -129.4078,-63.53775 50.71388,-146.01112 95.30698,-262.60309 223.59039,-384.05409 37.9601,43.42712 86.6753,70.41543 131.7205,85.59362 -116.7223,92.38995 -214.53107,215.64933 -225.90309,361.99822 z"
         style="opacity:1;fill:url(#linearGradient7098);fill-opacity:1;fill-rule:nonzero;stroke:none;stroke-width:2.81250024;stroke-linecap:butt;stroke-linejoin:round;stroke-miterlimit:4;stroke-dasharray:none;stroke-dashoffset:0;stroke-opacity:1"
         inkscape:original-d="M 989.83521,707.45012 883.73747,541.60972 1598.4306,84.379008 1704.5283,250.2194 Z" />
    </clipPath>
  </defs>
  <sodipodi:namedview
     id="base"
     pagecolor="#ffffff"
     bordercolor="#666666"
     borderopacity="1.0"
     inkscape:pageopacity="0.0"
     inkscape:pageshadow="2"
     inkscape:zoom="0.86330556"
     inkscape:cx="139.22893"
     inkscape:cy="100.88174"
     inkscape:document-units="mm"
     inkscape:current-layer="layer1"
     showgrid="false"
     fit-margin-top="0"
     fit-margin-left="0"
     fit-margin-right="0"
     fit-margin-bottom="0"
     units="px"
     inkscape:window-width="1920"
     inkscape:window-height="1015"
     inkscape:window-x="0"
     inkscape:window-y="24"
     inkscape:window-maximized="1" />
  <metadata
     id="metadata6280">
    <rdf:RDF>
      <cc:Work
         rdf:about="">
        <dc:format>image/svg+xml</dc:format>
        <dc:type
           rdf:resource="http://purl.org/dc/dcmitype/StillImage" />
        <dc:title></dc:title>
      </cc:Work>
    </rdf:RDF>
  </metadata>
  <g
     inkscape:label="Layer 1"
     inkscape:groupmode="layer"
     id="layer1"
     transform="translate(4.5957005,-57.92591)">
    <g
       style="display:inline"
       id="g5006"
       transform="matrix(0.2822222,0,0,0.2822222,-323.64254,44.878689)">
      <path
         inkscape:transform-center-y="62.74196"
         inkscape:transform-center-x="-68.588771"
         transform="matrix(0.80663116,0.44008739,0.36063225,0.74583651,244.96275,-656.37467)"
         d="m 1592.2034,21.089729 c 5.4979,-3.173093 12.2669,-4.852225 20.5488,-4.709124 8.288,0.143209 18.055,2.106658 29.4813,5.815013 11.2212,3.64175 24.3801,9.10622 37.1564,15.685307 12.9714,6.679513 25.3459,14.401178 35.3715,22.817852 10.123,8.49836 16.97,16.95242 20.8753,25.242998 3.8641,8.202967 4.4909,15.486945 3.6693,21.557995 -0.7995,5.90804 -3.0054,10.87446 -5.1951,14.46949 -2.2091,3.62675 -4.9537,6.80501 -8.5068,9.3823 -3.6108,2.61916 -8.7584,5.12714 -16.0477,6.68538 -7.3329,1.56759 -16.8265,2.14221 -27.906,0.5175 -11.1931,-1.64136 -23.0162,-5.38467 -34.9275,-11.55053 -11.8656,-6.14225 -22.7266,-14.12205 -32.3409,-23.04793 -9.4596,-8.78224 -17.4564,-18.250603 -23.3204,-26.858654 -5.924,-8.696061 -9.8461,-16.731643 -11.6116,-23.867798 -1.7754,-7.176108 -1.3839,-13.467239 0.9103,-18.964867 2.2685,-5.436158 6.4007,-10.033849 11.8431,-13.174932 0,0 0,0 0,0 z"
         sodipodi:ry="53.466797"
         sodipodi:rx="130.37109"
         sodipodi:cy="65.78978"
         sodipodi:cx="1693.3594"
         sodipodi:type="arc"
         inkscape:path-effect="#path-effect4766"
         id="path4764"
         style="display:inline;opacity:1;fill:url(#linearGradient4788);fill-opacity:1;fill-rule:nonzero;stroke:none;stroke-width:4.22607422;stroke-linecap:butt;stroke-linejoin:round;stroke-miterlimit:4;stroke-dasharray:none;stroke-dashoffset:0;stroke-opacity:1" />
      <g
         inkscape:path-effect="#path-effect4633"
         style="stroke-width:0.78598017"
         transform="matrix(1.3016342,0.25611922,-0.20703054,1.202884,270.00835,-563.49423)"
         id="g7120">
        <path
           inkscape:original-d="m 799.06451,734.33742 170.36556,-20.51061 c 3.16228,4.62913 3.02022,4.54868 7.76966,1.70693 L 1717.9535,241.63052 1611.8558,75.790143 871.10201,549.69337 c -4.85965,3.109 -4.73829,3.03136 -1.70693,7.76965 L 778.98666,704.1971 c -6.27831,12.11692 5.66419,30.79729 20.07785,30.14032 z"
           style="opacity:1;fill:url(#radialGradient4718);fill-opacity:1;fill-rule:nonzero;stroke:none;stroke-width:2.21056914;stroke-linecap:butt;stroke-linejoin:round;stroke-miterlimit:4;stroke-dasharray:none;stroke-dashoffset:0;stroke-opacity:1"
           d="m 845.26766,829.67431 c 24.26141,-20.62466 46.75823,-43.13574 67.49427,-64.15662 4.41138,1.04526 4.2904,1.00311 4.57944,-1.76271 8.71807,-152.4531 111.30303,-280.20719 232.70553,-374.56002 -45.2504,-15.12785 -93.8849,-42.56602 -131.0902,-87.13629 -135.95488,125.77808 -180.17393,245.75951 -233.11224,398.02193 -1.00119,2.87966 -0.98429,2.83153 2.47369,5.26628 6.21705,35.8049 13.91069,75.77991 27.17719,112.54926 2.01284,4.55073 7.49536,8.76793 13.62842,11.19593 6.10465,2.41675 12.6276,2.95823 16.1439,0.58224 z"
           id="path6254"
           inkscape:connector-curvature="0"
           sodipodi:nodetypes="ccccccccc" />
        <path
           inkscape:original-d="m 952.96094,39.822264 c -1.2031,-0.0268 -3.49894,1.15274 -4.07227,2.91015 L 900.61133,183.80077 v 891.51173 c -0.0807,5.7051 15.90911,5.7051 15.82843,0 V 185.20311 L 955.50604,45.462884 c 0.63454,-2.72348 -0.66245,-5.59797 -2.5451,-5.64062 z"
           transform="matrix(0.55380853,0.83264405,0.83264405,-0.55380853,219.46419,-46.473596)"
           style="color:#000000;font-style:normal;font-variant:normal;font-weight:normal;font-stretch:normal;font-size:medium;line-height:normal;font-family:sans-serif;font-variant-ligatures:normal;font-variant-position:normal;font-variant-caps:normal;font-variant-numeric:normal;font-variant-alternates:normal;font-feature-settings:normal;text-indent:0;text-align:start;text-decoration:none;text-decoration-line:none;text-decoration-style:solid;text-decoration-color:#000000;letter-spacing:normal;word-spacing:normal;text-transform:none;writing-mode:lr-tb;direction:ltr;text-orientation:mixed;dominant-baseline:auto;baseline-shift:baseline;text-anchor:start;white-space:normal;shape-padding:0;clip-rule:nonzero;display:inline;overflow:visible;visibility:visible;opacity:1;isolation:auto;mix-blend-mode:normal;color-interpolation:sRGB;color-interpolation-filters:linearRGB;solid-color:#000000;solid-opacity:1;vector-effect:none;fill:#ffffff;fill-opacity:0.43891404;fill-rule:evenodd;stroke:none;stroke-width:6.63170719;stroke-linecap:round;stroke-linejoin:miter;stroke-miterlimit:4;stroke-dasharray:none;stroke-dashoffset:0;stroke-opacity:1;filter:url(#filter6371);color-rendering:auto;image-rendering:auto;shape-rendering:auto;text-rendering:auto;enable-background:accumulate"
           d="m 1067.376,22.402587 c -0.8797,-0.636044 -3.0534,-1.357115 -4.2188,-0.976518 -31.2029,9.639 -60.9795,23.395827 -88.30201,37.521663 C 866.49102,184.02571 790.04216,297.83726 758.48511,467.6676 c -0.32602,1.56473 2.86609,3.1276 6.15645,3.97949 3.29596,0.85334 6.67161,0.99895 6.90768,-0.5292 29.21037,-165.12095 103.1001,-283.53901 213.40329,-406.474069 25.38907,-14.461936 52.88677,-28.341507 81.89367,-38.82737 1.6129,-0.681557 1.9029,-2.420699 0.5298,-3.413864 z"
           id="path6314"
           inkscape:connector-curvature="0"
           sodipodi:nodetypes="cccccccc" />
        <path
           inkscape:original-d="m 969.43007,713.82681 c 3.16228,4.62913 3.02022,4.54868 7.76966,1.70693 -1.5912,0.80197 -2.87565,0.47897 -3.88483,-0.85346 L 870.24854,553.5782 c -1.29243,-1.95284 -0.55819,-3.06018 0.85347,-3.88483 -4.86412,3.11186 -4.7383,3.03136 -1.70694,7.76966 z"
           style="opacity:1;fill:#000000;fill-opacity:0.26244345;fill-rule:nonzero;stroke:none;stroke-width:2.21056914;stroke-linecap:butt;stroke-linejoin:round;stroke-miterlimit:4;stroke-dasharray:none;stroke-dashoffset:0;stroke-opacity:1"
           d="m 912.76193,765.51769 c 4.41138,1.04526 4.2904,1.00311 4.57944,-1.76271 -0.19419,0.86687 -0.97833,1.14636 -2.28938,0.88425 -49.47184,-12.47913 -89.08682,-34.38006 -127.9731,-61.92491 -1.44281,-0.99931 -1.55856,-1.84636 -1.23443,-2.63372 -1.00211,2.88232 -0.9843,2.83153 2.47369,5.26629 37.82119,26.62974 76.49235,47.84621 124.44378,60.1708 z"
           id="path6378"
           inkscape:connector-curvature="0"
           sodipodi:nodetypes="cccccsc" />
        <path
           inkscape:original-d="M 989.83521,707.45012 883.73747,541.60972 1598.4306,84.379008 1704.5283,250.2194 Z"
           style="opacity:1;fill:url(#linearGradient4712);fill-opacity:1;fill-rule:nonzero;stroke:none;stroke-width:2.21056914;stroke-linecap:butt;stroke-linejoin:round;stroke-miterlimit:4;stroke-dasharray:none;stroke-dashoffset:0;stroke-opacity:1"
           d="m 917.85591,756.12496 c -49.70857,-12.92292 -89.73342,-35.43558 -129.4078,-63.53775 50.71388,-146.01112 95.30698,-262.60309 223.59039,-384.05409 37.9601,43.42712 86.6753,70.41543 131.7205,85.59362 -116.7223,92.38995 -214.53107,215.64933 -225.90309,361.99822 z"
           id="rect6248"
           inkscape:connector-curvature="0"
           sodipodi:nodetypes="ccccc" />
        <path
           inkscape:original-d="m 1007.209,696.33515 20.5002,-13.11518 -21.132,4.33328 a 1.3595109,1.3595109 0 0 1 -1.312,-2.21038 l 13.2584,-15.66194 -20.50366,4.46603 a 1.3595109,1.3595109 0 0 1 -1.40174,-2.10946 l 12.813,-18.1963 -22.74482,2.80447 a 1.3595109,1.3595109 0 0 1 -1.31358,-0.61602 1.3595109,1.3595109 0 0 1 -0.0245,-1.42115 l 11.98631,-20.38889 -23.69923,2.10431 a 1.3595109,1.3595109 0 0 1 -1.3211,-1.99368 l 11.57284,-21.78948 -25.79342,-0.29248 a 1.3595109,1.3595109 0 0 1 -1.22558,-1.91569 l 10.54586,-23.54084 -24.63379,1.37404 a 1.3595109,1.3595109 0 0 1 -1.27414,-2.00204 l 11.42157,-21.22747 -22.66703,3.44592 a 1.3595109,1.3595109 0 0 1 -1.36619,-2.05389 l 11.91989,-19.50737 -21.20293,4.7525 a 1.3595109,1.3595109 0 0 1 -1.40619,-2.11311 l 12.52457,-17.60746 -20.46759,5.05588 a 1.3595109,1.3595109 0 0 1 -1.42124,-2.12306 l 12.78442,-17.415 -20.51411,13.12407 z m -47.01344,-86.78144 25.95494,0.29354 a 1.3595109,1.3595109 0 0 1 1.1839,1.99667 l -11.44339,21.55012 23.83249,-2.11348 a 1.3595109,1.3595109 0 0 1 1.2933,2.04191 l -11.92856,20.28889 23.05436,-2.84383 a 1.3595109,1.3595109 0 0 1 1.2764,2.13098 l -12.5672,17.84995 21.0081,-4.57792 a 1.3595109,1.3595109 0 0 1 1.3273,2.20713 l -13.3073,15.72147 20.747,-4.25218 a 1.3598429,1.3598429 0 0 1 1.418,0.59919 l 2.8041,-1.79395 -106.09771,-165.8404 -2.76864,1.77126 a 1.3595109,1.3595109 0 0 1 -0.0853,1.55879 l -12.64697,17.22924 20.38646,-5.03659 a 1.3595109,1.3595109 0 0 1 1.43374,2.10851 l -12.59188,17.70271 20.86982,-4.67861 a 1.3595109,1.3595109 0 0 1 1.45703,2.03284 l -12.0714,19.75643 22.47343,-3.41555 a 1.3595109,1.3595109 0 0 1 1.402,1.98758 l -11.55897,21.48498 24.44098,-1.35942 a 1.3595109,1.3595109 0 0 1 1.31657,1.91179 z"
           inkscape:connector-curvature="0"
           style="opacity:1;fill:#000000;fill-opacity:1;fill-rule:nonzero;stroke:none;stroke-width:2.21056938;stroke-linecap:butt;stroke-linejoin:round;stroke-miterlimit:4;stroke-dasharray:none;stroke-dashoffset:0;stroke-opacity:1"
           d="m 918.81492,745.68288 c 0.43421,-4.09581 0.9355,-8.17789 1.50324,-12.24645 -2.31196,2.82147 -4.61445,5.64915 -6.91813,8.49106 -0.4139,0.51259 -1.65816,0.10588 -1.84814,-0.60409 -1.00768,-3.75673 -1.92409,-7.52283 -2.75677,-11.29326 -2.24468,2.75341 -4.48043,5.51146 -6.71754,8.28202 -0.39682,0.49102 -1.54181,0.11615 -1.77405,-0.58174 -1.38272,-4.17819 -2.65549,-8.37309 -3.83006,-12.57566 -10.64813,9.74877 1.90607,-1.74535 -8.74205,8.00342 -0.19964,0.18348 -0.55218,0.21266 -0.90564,0.0742 -0.34496,-0.13572 -0.63048,-0.40763 -0.73923,-0.70347 -1.68198,-4.55687 -3.24675,-9.13675 -4.70962,-13.72536 -3.20722,2.56145 -6.42854,5.12734 -9.64688,7.67734 -0.43895,0.34868 -1.32815,-0.0393 -1.55785,-0.68089 -1.75439,-4.87719 -3.40063,-9.77795 -4.95483,-14.68255 -3.92581,2.22282 -7.86565,4.42657 -11.81326,6.59908 -0.45005,0.24796 -1.20441,-0.14236 -1.42797,-0.73961 -1.96166,-5.23582 -3.83046,-10.49955 -5.62152,-15.76013 -3.5388,2.27812 -7.09014,4.54023 -10.64987,6.7756 -0.46014,0.28996 -1.27886,-0.18637 -1.45428,-0.84671 -1.32573,-4.98221 -2.59867,-9.97588 -3.8266,-14.95161 -2.9821,2.40035 -5.97386,4.79175 -8.97217,7.1648 -0.45348,0.36102 -1.36262,-0.19132 -1.5014,-0.91283 -0.91714,-4.74062 -1.80397,-9.48643 -2.66415,-14.20612 -2.60756,2.46245 -5.22315,4.91935 -7.84447,7.36237 -0.45114,0.42039 -1.44804,-0.21961 -1.53738,-0.98775 -0.50921,-4.42881 -1.00239,-8.85991 -1.48122,-13.26052 -2.47686,2.40499 -4.96165,4.80328 -7.4533,7.18805 -0.45113,0.42976 -1.47297,-0.25115 -1.54739,-1.03186 -0.41353,-4.41188 -0.81931,-8.83764 -1.21612,-13.2181 -0.23021,0.65886 -3.96482,11.38071 -4.19503,12.03957 39.34925,27.63119 78.75051,50.04206 126.80368,63.35119 z m -65.6801,-29.99329 c 3.97134,-2.17646 7.93562,-4.38454 11.88625,-6.61179 0.46507,-0.26124 1.24549,0.14888 1.43711,0.75434 1.53067,4.84088 3.15117,9.6778 4.87706,14.49168 3.23923,-2.55381 6.48271,-5.12419 9.712,-7.68971 0.44733,-0.35575 1.34918,0.0416 1.55348,0.68327 1.44567,4.55716 2.99194,9.10563 4.65384,13.63132 2.14278,-1.95023 6.73357,-6.13332 8.87635,-8.08356 0.45017,-0.40777 1.4602,0.003 1.64567,0.66826 1.14167,4.11395 2.37764,8.22042 3.719,12.31089 2.30203,-2.83008 4.60325,-5.64726 6.91441,-8.45956 0.4177,-0.50901 1.60853,-0.0798 1.76348,0.63494 0.82136,3.77649 1.72688,7.5486 2.72422,11.31126 2.27271,-2.78046 4.54507,-5.54759 6.8269,-8.30864 0.18187,-0.21987 0.56426,-0.2852 0.96268,-0.1654 0.0815,-0.55571 0.16423,-1.11115 0.2482,-1.66633 -45.68208,-13.86302 -84.30689,-36.12128 -123.27215,-63.0633 -0.003,0.009 -0.5632,1.60857 -0.56619,1.61712 0.34137,0.24071 0.58186,0.62981 0.60165,0.974 0.39177,4.32708 0.79239,8.69734 1.20073,13.05465 2.48178,-2.36893 4.95744,-4.75131 7.42571,-7.14025 0.44488,-0.43094 1.45161,0.21614 1.53455,0.98532 0.47917,4.41634 0.97285,8.86324 1.48276,13.30762 2.58091,-2.39774 5.15694,-4.80895 7.72565,-7.2255 0.43265,-0.40488 1.37759,0.15406 1.51411,0.89468 0.86729,4.77071 1.76177,9.56822 2.68719,14.35995 2.97394,-2.34486 5.94213,-4.70778 8.90133,-7.07946 0.43761,-0.35086 1.30554,0.13782 1.47639,0.83039 1.23758,5.02628 2.52102,10.07093 3.85833,15.10345 3.5327,-2.20868 7.05786,-4.44365 10.57124,-6.69436 0.43823,-0.28056 1.21106,0.12563 1.42289,0.74699 1.79499,5.28329 3.66826,10.56976 5.63516,15.82773 z"
           id="rect6290" />
        <path
           inkscape:original-d="m 1686.6926,261.62992 -20.5002,13.11516 12.7919,-17.36974 a 1.3595109,1.3595109 0 0 0 -1.4569,-2.11768 l -19.7771,5.47274 12.649,-16.74368 a 1.3595109,1.3595109 0 0 0 -1.3276,-2.15683 l -21.8914,4.00606 12.0799,-19.47487 a 1.3595109,1.3595109 0 0 0 -0.01,-1.4508 1.3595109,1.3595109 0 0 0 -1.2799,-0.61792 l -23.5356,2.33642 11.8442,-20.63484 a 1.3595109,1.3595109 0 0 0 -1.2567,-2.03486 l -24.6338,1.37402 10.5458,-23.54083 a 1.3595109,1.3595109 0 0 0 -1.2256,-1.91568 l -25.7934,-0.2925 11.5729,-21.78947 a 1.3595109,1.3595109 0 0 0 -1.2789,-1.999 l -24.0601,1.47224 12.6296,-19.13532 a 1.3595109,1.3595109 0 0 0 -1.2921,-2.10132 l -22.7074,2.64564 13.2022,-17.25844 a 1.3595109,1.3595109 0 0 0 -1.3289,-2.16254 l -21.2358,3.99101 13.1694,-16.4637 a 1.3595109,1.3595109 0 0 0 -1.3319,-2.18021 l -21.1701,4.30776 20.5141,-13.124104 z m -59.0843,-79.05896 -10.6126,23.68791 a 1.3595109,1.3595109 0 0 0 1.3168,1.91166 l 24.3622,-1.35684 -11.9083,20.75201 a 1.3595109,1.3595109 0 0 0 1.3118,2.03008 l 23.4204,-2.32594 -12.2452,19.73942 a 1.3595109,1.3595109 0 0 0 1.3996,2.05216 l 21.4738,-3.92802 -12.962,17.15471 a 1.3595109,1.3595109 0 0 0 1.4472,2.13032 l 19.8515,-5.49215 -12.5568,17.05425 a 1.3598429,1.3598429 0 0 0 -0.05,1.53859 l -2.804,1.79392 -106.0977,-165.84038 2.7686,-1.77128 a 1.3595109,1.3595109 0 0 0 1.451,0.57593 l 20.9437,-4.26067 L 1565,124.41471 a 1.3595109,1.3595109 0 0 0 1.3138,2.18528 l 21.3505,-4.01215 -12.9954,16.98691 a 1.3595109,1.3595109 0 0 0 1.2349,2.17492 l 22.9969,-2.67882 -12.5208,18.97234 a 1.3595109,1.3595109 0 0 0 1.2168,2.106 l 24.3516,-1.48907 -11.4788,21.62059 a 1.3595109,1.3595109 0 0 0 1.1837,1.9968 z"
           id="path6416"
           d="m 1135.4021,400.82335 c -3.2011,2.59691 -6.4001,5.22914 -9.5942,7.89609 0.8826,-2.81934 1.7481,-5.61679 2.6048,-8.41617 0.1542,-0.4995 -1.06,-0.91599 -1.8085,-0.61455 -3.9579,1.5921 -7.9048,3.19552 -11.8425,4.81266 0.8856,-2.79451 1.7577,-5.56631 2.6278,-8.34851 0.1527,-0.48918 -0.9687,-0.95324 -1.7425,-0.71592 -4.6262,1.42524 -9.2352,2.85679 -13.8346,4.29977 0.3758,-3.24495 0.7393,-6.466 1.1043,-9.73676 0.025,-0.22348 -0.1915,-0.47012 -0.5572,-0.63477 -0.3571,-0.16046 -0.7947,-0.21512 -1.1321,-0.1404 -5.2115,1.14857 -10.3936,2.29673 -15.5723,3.45406 0.141,-3.53185 0.2861,-7.17287 0.4381,-10.76846 0.021,-0.49188 -0.9193,-0.99128 -1.6499,-0.87214 -5.5733,0.90105 -11.1093,1.80173 -16.6442,2.71235 -0.5289,-4.22092 -1.0428,-8.53644 -1.5176,-12.91905 -0.054,-0.49879 -0.8799,-1.00049 -1.5645,-0.94661 3.2292,-0.25317 -21.2024,1.67113 -17.9733,1.41796 -0.023,-4.2885 -0.01,-8.65947 0.063,-13.10317 0.012,-0.57251 -0.8852,-1.21139 -1.5951,-1.13045 -5.3628,0.6212 -10.701,1.26035 -16.0235,1.92146 0.6243,-4.08813 1.2974,-8.23721 2.0287,-12.44414 0.1122,-0.63469 -0.8511,-1.43696 -1.5933,-1.31923 -4.8916,0.76948 -9.7637,1.56637 -14.6194,2.39276 1.0641,-3.93452 2.181,-7.91766 3.3572,-11.94893 0.2016,-0.69078 -0.8242,-1.65176 -1.5858,-1.47508 -4.4005,1.02914 -8.7842,2.09039 -13.1517,3.18453 1.2362,-3.94875 2.5305,-7.94597 3.8889,-11.99224 0.2429,-0.72886 -0.7691,-1.78674 -1.5371,-1.59433 -4.3544,1.10056 -8.69157,2.23614 -13.01199,3.40715 3.31121,-3.35179 6.67037,-6.69145 10.07809,-10.01907 38.8668,41.96749 87.626,68.39173 132.3604,83.64119 z m -71.1432,-29.36808 c 0.4807,4.42461 1.0009,8.78154 1.5362,13.04254 0.064,0.50336 0.954,0.96174 1.6378,0.84706 5.4707,-0.91807 10.9426,-1.82664 16.4517,-2.73589 -0.1495,3.63232 -0.2918,7.30764 -0.4299,10.87514 -0.02,0.49952 0.9589,0.96023 1.6839,0.79635 5.1493,-1.1685 10.3023,-2.32808 15.4849,-3.48834 -0.368,3.33176 -0.7342,6.61052 -1.1129,9.91543 -0.056,0.50274 1.0181,0.93028 1.7474,0.69966 4.5083,-1.43041 9.0262,-2.85008 13.5612,-4.26389 -0.8901,2.86671 -1.7816,5.72113 -2.6873,8.60036 -0.1654,0.52385 1.052,0.96034 1.7982,0.65059 3.9495,-1.63817 7.9089,-3.26275 11.8798,-4.87617 -0.8393,2.76411 -1.6868,5.52604 -2.5505,8.30896 -0.069,0.22153 0.1393,0.45618 0.5226,0.58919 7e-4,-5.4e-4 -1.31,1.10279 -1.3093,1.10224 -44.1788,-15.3653 -92.8757,-40.9866 -132.94345,-80.81782 0.44236,-0.45348 0.8856,-0.90674 1.32971,-1.35978 0.35291,0.34788 0.81135,0.50669 1.14564,0.3991 4.2662,-1.17169 8.5492,-2.30911 12.8495,-3.41268 -1.3435,4.04097 -2.6235,8.03325 -3.846,11.97741 -0.2213,0.71365 0.8197,1.68938 1.5828,1.49431 4.3838,-1.11533 8.7843,-2.19781 13.2023,-3.24824 -1.1497,3.97947 -2.2418,7.91224 -3.2828,11.79782 -0.1739,0.65596 0.8097,1.5184 1.5731,1.38788 4.9124,-0.85487 9.8422,-1.67985 14.7925,-2.47713 -0.7188,4.18389 -1.3803,8.3108 -1.9939,12.37771 -0.091,0.60351 0.8396,1.32292 1.5814,1.22851 5.3834,-0.6882 10.7832,-1.3542 16.2088,-2.00222 -0.065,4.42244 -0.075,8.77319 -0.047,13.04268 0,0.53425 0.8488,1.09651 1.5553,1.03853 1.5937,-0.13254 16.4845,-1.35677 18.0781,-1.48931 z"
           style="opacity:1;fill:#000000;fill-opacity:1;fill-rule:nonzero;stroke:none;stroke-width:2.21056938;stroke-linecap:butt;stroke-linejoin:round;stroke-miterlimit:4;stroke-dasharray:none;stroke-dashoffset:0;stroke-opacity:1"
           inkscape:connector-curvature="0" />
        <path
           inkscape:original-d="m 1014.3027,486.06238 c 13.9447,21.79692 50.4173,29.98078 77.9505,12.36623 L 1464.157,260.50009 c 27.5332,-17.61456 35.3906,-54.15888 21.4458,-75.9558 -13.9446,-21.79675 -41.3371,-15.78518 -68.8692,1.8287 l -371.9038,237.92852 c -27.5332,17.61456 -44.4718,39.96411 -30.5271,61.76087 z m 27.7036,-28.86395 c -2.5274,-3.9506 -4.0744,-8.67187 -3.4793,-12.34939 0.6198,-3.69317 2.3566,-7.64537 5.6621,-11.1519 3.3233,-3.53297 7.6566,-7.00798 12.9966,-10.42429 5.8321,-3.73118 11.7596,-6.74419 17.7823,-9.03907 l -0.2476,9.45265 c -2.4164,0.61387 -4.756,1.34802 -6.9755,2.26961 -2.2195,0.92159 -4.4738,2.11368 -6.7624,3.57781 -3.4698,2.21982 -5.6982,4.69965 -6.3507,7.96218 -0.6636,3.24519 0.1339,6.63436 2.3941,10.16732 4.6986,7.34432 11.5277,9.31856 19.427,4.26493 2.387,-1.5271 4.5318,-3.26965 6.4347,-5.22827 1.9029,-1.95862 3.7499,-4.03336 5.5403,-6.22202 l 6.244,9.75997 c -3.4938,4.45904 -7.9306,8.74616 -13.6151,12.38288 -8.1453,5.21105 -15.7445,7.10092 -22.4931,6.14715 -6.724,-0.96961 -12.5157,-5.252 -16.5574,-11.56956 z m 63.5548,-11.16174 -20.0985,-31.4157 10.7414,-6.87188 5.2015,3.16982 0.7018,-0.44898 c 0.2037,-2.3378 1.0689,-4.66927 2.5974,-6.9962 1.542,-2.36003 3.5543,-4.01245 5.7444,-5.41361 1.2551,-0.80291 2.4846,-1.51234 3.6862,-2.12761 l 0.8631,-0.43818 4.7697,10.29941 c -1.3148,0.54685 -3.018,1.48968 -5.1098,2.82787 -3.1498,2.01515 -5.111,3.99341 -5.8814,5.93337 -0.7815,1.92252 -0.6824,3.64933 0.6885,5.79222 l 10.5279,16.45608 z m 26.602,-31.5202 c -2.2558,-3.52605 -2.4079,-7.17769 -0.2871,-10.69294 2.1097,-3.53252 6.0441,-7.27564 11.803,-11.22978 l 6.8765,-4.61917 -0.2672,-0.41773 c -1.5589,-2.43662 -4.0358,-2.56979 -7.4317,-0.3972 -3.0514,1.95217 -6.4606,5.16304 -10.2255,9.63195 l -8.4794,-4.06664 c 3.7368,-4.89238 9.4672,-9.48791 16.8989,-14.2424 5.3647,-3.43206 9.9668,-5.37273 14.0977,-5.36653 4.1555,-0.01 7.3118,1.67413 9.4718,5.05049 l 13.6581,21.34879 -10.0026,6.39921 -5.6878,-2.79174 -0.2946,0.18847 c -0.7226,3.15294 -1.829,5.78745 -3.353,7.85035 -1.524,2.0629 -3.886,4.11875 -7.085,6.16539 -3.9374,2.51894 -7.7896,3.32866 -11.2499,2.90691 -3.4605,-0.42182 -6.2735,-2.32768 -8.4422,-5.71743 z m 14.4653,-9.83076 c 1.2963,2.02614 3.3111,2.16491 6.0426,0.4174 1.7472,-1.11778 2.9544,-2.50799 3.624,-4.17172 0.6941,-1.67965 0.5933,-3.22121 -0.3041,-4.62392 l -1.6452,-2.57157 -3.2473,2.24277 c -4.6621,3.17493 -6.1525,6.0771 -4.47,8.70704 z m 16.3143,-39.63326 15.2067,-9.72859 18.0414,12.58784 c 0.9801,0.77316 1.9812,1.8219 3.0015,3.14581 l 0.2947,-0.18848 c -0.6631,-1.47011 -1.1211,-2.83863 -1.3754,-4.10355 l -3.7206,-21.83233 14.7285,-9.42269 5.0437,44.31055 c 1.0387,6.28555 0.6587,11.43936 -1.1387,15.46003 -1.7729,4.00485 -5.1434,7.59743 -10.1142,10.77759 -1.9195,1.22798 -4.0064,2.30584 -6.2575,3.2323 l -6.3168,-9.87385 c 1.4688,-0.57705 3.0403,-1.40134 4.7136,-2.47189 1.2797,-0.81865 2.2622,-1.75008 2.9475,-2.793 0.6854,-1.04276 1.1307,-2.18866 1.3367,-3.43864 0.2199,-1.22841 0.1668,-2.99271 -0.1597,-5.2919 z m 58.6604,-16.93997 c -3.0842,-4.82085 -3.644,-9.73502 -1.6808,-14.74349 1.9765,-5.04174 6.432,-9.46017 13.0763,-13.71088 4.1096,-2.62914 7.9888,-4.56186 11.9292,-5.34135 3.9404,-0.77948 7.5007,-0.55556 10.6795,0.67288 3.1923,1.19526 5.7736,3.33344 7.7443,6.41389 3.0954,4.83828 4.3231,10.82388 2.5761,16.22446 -1.7348,5.3653 -5.7584,10.40417 -12.3781,14.63914 -6.3489,4.06179 -12.5493,5.51025 -18.296,4.82144 -5.7222,-0.70455 -10.6331,-4.25969 -13.6505,-8.97609 z m 14.6545,-9.37532 c 1.6256,2.54099 3.6889,4.71012 5.6082,5.59612 1.907,0.86664 3.9925,0.57601 6.2565,-0.87238 2.2393,-1.43265 3.3417,-3.18149 3.3049,-5.24461 -0.024,-2.09825 -1.1415,-4.87277 -2.7671,-7.41376 -1.6144,-2.52347 -3.3005,-4.13051 -5.0596,-4.82006 -1.759,-0.68965 -3.7704,-0.31042 -6.0343,1.13797 -2.2148,1.4169 -3.3913,3.07714 -3.5271,4.97902 -0.1469,1.88445 0.5929,4.09679 2.2185,6.6377 z m 46.041,-5.76976 -20.0984,-31.41571 10.8894,-6.96662 4.0727,2.38388 0.8499,-0.54371 c 0.3397,-2.17943 1.2713,-4.46175 3.0888,-6.39116 1.842,-1.94524 4.1781,-3.82285 7.0081,-5.63334 4.6263,-2.95975 8.6803,-4.53735 12.4532,-4.27766 3.7975,0.24395 6.7988,2.08872 9.0034,5.53474 l 13.5576,21.19169 -14.4324,9.23322 -11.5708,-18.08614 c -1.2581,-1.96658 -2.6107,-3.1855 -4.0574,-3.65793 -1.4332,-0.50562 -3.0359,-0.19152 -4.8077,0.942 -2.4362,1.5586 -3.7553,3.37191 -3.9585,5.43944 -0.2032,2.06762 0.6541,4.60025 3.0471,8.34068 l 9.3874,14.67339 z m 77.3568,-73.17497 c -3.0842,-4.82085 -3.644,-9.73502 -1.6809,-14.7435 1.9766,-5.04173 6.4336,-9.46114 13.0779,-13.71186 4.1096,-2.62914 7.9873,-4.56088 11.9277,-5.34036 3.9404,-0.77949 7.5006,-0.55556 10.6795,0.67287 3.1923,1.19527 5.7736,3.33345 7.7443,6.41389 3.0953,4.83828 4.3231,10.82388 2.5761,16.22447 -1.7349,5.3653 -5.7585,10.40417 -12.3781,14.63913 -6.3489,4.06179 -12.5493,5.51026 -18.2961,4.82145 -5.7221,-0.70455 -10.6331,-4.25969 -13.6504,-8.97609 z m 14.6544,-9.37532 c 1.6257,2.54099 3.6905,4.70913 5.6098,5.59513 1.907,0.86664 3.9925,0.57601 6.2565,-0.87238 2.2393,-1.43265 3.3401,-3.1805 3.3034,-5.24363 -0.024,-2.09824 -1.1415,-4.87276 -2.7671,-7.41375 -1.6144,-2.52347 -3.3006,-4.13051 -5.0596,-4.82007 -1.759,-0.68964 -3.7704,-0.31042 -6.0344,1.13797 -2.2147,1.4169 -3.3897,3.07617 -3.5255,4.97804 -0.1469,1.88445 0.5914,4.09778 2.2169,6.63869 z m 46.0411,-5.76977 -20.0985,-31.41571 10.8895,-6.96661 4.0727,2.38388 0.8498,-0.54371 c 0.3397,-2.17943 1.2713,-4.46175 3.0888,-6.39116 1.8421,-1.94524 4.1782,-3.82285 7.0081,-5.63334 4.6264,-2.95975 8.6803,-4.53735 12.4532,-4.27766 3.7975,0.24395 6.7988,2.08871 9.0035,5.53474 l 13.5575,21.19169 -14.4324,9.23322 -11.5707,-18.08614 c -1.2582,-1.96658 -2.6107,-3.1855 -4.0574,-3.65794 -1.4333,-0.50562 -3.0359,-0.19151 -4.8077,0.94201 -2.4363,1.5586 -3.7553,3.3719 -3.9586,5.43944 -0.2031,2.06761 0.6542,4.60025 3.0471,8.34068 l 9.3875,14.67339 z"
           style="display:inline;opacity:1;fill:#1f1f1f;fill-opacity:1;fill-rule:nonzero;stroke:none;stroke-width:2.13688326;stroke-linecap:round;stroke-linejoin:round;stroke-miterlimit:4;stroke-dasharray:none;stroke-dashoffset:0;stroke-opacity:1"
           d="m 826.69474,633.11284 c 15.3294,9.79444 35.20697,5.84671 41.51417,-10.00491 28.44667,-71.49407 65.76235,-135.40868 115.65412,-194.28072 5.48289,-6.46976 6.04971,-14.70854 3.05607,-23.06397 -2.96067,-8.26344 -9.55269,-16.91558 -18.10851,-23.20903 -17.34581,-12.75921 -32.47976,-7.51322 -43.69397,7.27412 -49.64425,65.46221 -81.48935,130.80952 -108.90853,201.32603 -5.96307,15.33575 -4.81381,32.18259 10.48665,41.95848 z m 1.49639,-22.29728 c -2.78275,-1.76975 -5.42354,-4.20675 -6.62952,-6.46309 -1.1991,-2.26753 -1.97764,-4.91024 -1.82116,-7.58558 0.1543,-2.69496 0.81864,-5.54602 2.00261,-8.54681 1.29346,-3.27835 2.93792,-6.14861 4.93714,-8.62033 0.031,0.0458 3.68948,5.45077 3.72053,5.49658 -0.92466,0.82039 -1.7612,1.69493 -2.46177,2.65484 -0.7006,0.95998 -1.30639,2.08296 -1.81654,3.37119 -0.77332,1.95282 -0.83812,3.82013 0.16736,5.83266 0.99237,2.0031 2.7416,3.80467 5.23743,5.37876 5.18672,3.27114 9.21488,2.96667 11.00952,-1.50177 0.54212,-1.34982 0.8853,-2.77012 1.02768,-4.26091 0.14238,-1.49086 0.21333,-3.03454 0.21267,-4.62951 2.29907,1.41226 4.59151,2.81035 6.87626,4.19318 0.0608,3.20804 -0.39774,6.52047 -1.69425,9.74345 -1.85715,4.61665 -4.72443,7.29052 -8.3035,8.1576 -3.57858,0.85417 -8.00832,-0.38628 -12.46446,-3.22026 z m 26.09928,-19.26828 c -7.35481,-4.41899 -14.81268,-9.0081 -22.32916,-13.72893 0.82167,-2.00252 1.64883,-4.00206 2.48183,-5.99884 1.28301,0.27406 2.56522,0.54484 3.84669,0.81236 -4e-5,8e-5 0.16465,-0.39133 0.16462,-0.39125 -0.84393,-1.37118 -1.36207,-2.86955 -1.55011,-4.49123 -0.19489,-1.64403 0.13076,-2.97101 0.65017,-4.18811 0.29758,-0.69723 0.62121,-1.33574 0.96999,-1.91493 -8e-5,1.3e-4 0.25225,-0.41395 0.25217,-0.41382 2.18945,1.66037 4.37204,3.3086 6.54379,4.94164 -0.43468,0.56344 -0.90289,1.42647 -1.40262,2.58934 -0.75234,1.7509 -0.92558,3.25427 -0.52767,4.50195 0.38533,1.23965 1.12675,2.19822 2.65739,3.13436 3.91696,2.39557 7.81507,4.75229 11.68796,7.065 -1.16062,2.68685 -2.30875,5.38087 -3.44505,8.08246 z m 0.69304,-22.90173 c -2.52317,-1.51805 -4.06037,-3.54177 -4.40505,-5.92789 -0.35706,-2.39302 0.11399,-5.26368 1.43962,-8.58874 0.54159,-1.30485 1.08605,-2.60832 1.63345,-3.91045 10e-6,10e-6 -0.30431,-0.18432 -0.3043,-0.18431 -1.77624,-1.07603 -3.09348,-0.68695 -3.9379,1.185 -0.75893,1.68241 -1.184,4.14495 -1.27651,7.39133 -1.96736,-0.22393 -3.93511,-0.45422 -5.90325,-0.69095 -0.11255,-3.49369 0.89776,-7.19516 2.7375,-11.29006 1.3287,-2.95733 2.89259,-4.91256 5.0169,-5.67539 2.1299,-0.77643 4.44308,-0.40571 6.91831,1.08877 5.2134,3.14764 10.39683,6.22768 15.53248,9.23085 -0.87902,1.82091 -1.75119,3.6453 -2.61671,5.47328 -1.3332,-0.1355 -2.66642,-0.27379 -3.99964,-0.41489 0,0 -0.0757,0.16174 -0.0757,0.16174 0.87578,1.88033 1.34798,3.54647 1.38491,4.98235 0.0369,1.43609 -0.35321,3.03468 -1.1631,4.80022 -0.9965,2.17222 -2.6104,3.39586 -4.50599,3.85749 -1.89638,0.46179 -4.04838,-0.0284 -6.47499,-1.48835 z m 3.35952,-8.32034 c 1.45871,0.87339 2.52934,0.55182 3.22071,-0.9523 0.44232,-0.96225 0.50504,-1.96832 0.18547,-3.02162 -0.31348,-1.06709 -0.97691,-1.90304 -1.9928,-2.51073 2e-4,1.2e-4 -1.86398,-1.11708 -1.86378,-1.11696 -0.25229,0.62588 -0.50392,1.25208 -0.7549,1.87862 -1.09844,2.67215 -0.68698,4.58996 1.2053,5.72299 z m -7.63094,-25.39773 c 1.29712,-2.77757 2.60926,-5.5494 3.93734,-8.31595 4.86495,1.30615 9.72262,2.57078 14.57302,3.79387 0.82641,0.24915 1.77379,0.64666 2.84026,1.19058 -10e-6,10e-6 0.0801,-0.15955 0.0801,-0.15955 -0.93646,-0.69163 -1.72597,-1.36807 -2.36732,-2.02598 -3.5608,-3.81405 -7.19087,-7.71944 -10.81574,-11.64444 1.31985,-2.66821 2.65518,-5.33113 4.00677,-7.9891 6.82869,8.02159 13.91091,16.23263 20.48222,23.81677 3.02044,3.22673 4.81775,6.0693 5.42799,8.58215 0.61665,2.49806 0.22843,5.0828 -1.13779,7.7766 -0.52742,1.03986 -1.19763,2.03429 -2.00789,2.98159 -2.35958,-1.34389 -4.72821,-2.70357 -7.10435,-4.07821 0.53647,-0.60183 1.03113,-1.35768 1.48443,-2.26605 0.34672,-0.6947 0.49573,-1.39187 0.44606,-2.09172 -0.0496,-0.69983 -0.26472,-1.40889 -0.64659,-2.12921 -0.36624,-0.71142 -1.08553,-1.66187 -2.16206,-2.85713 -9.00418,-1.39984 -18.01664,-2.9277 -27.03647,-4.58422 z m 24.09223,-20.22083 c -3.60354,-2.14833 -5.90715,-4.84157 -6.88792,-8.04043 -0.98745,-3.22116 -0.38332,-6.53403 1.51838,-10.10819 1.17681,-2.21177 2.52368,-3.97839 4.38589,-5.08725 1.86266,-1.10912 3.93287,-1.57164 6.20399,-1.40005 2.26484,0.15032 4.57462,0.93761 6.91957,2.34414 3.68497,2.21022 6.76682,5.33258 7.9433,8.615 1.17128,3.26659 0.92666,6.72732 -1.03758,10.23759 -1.88124,3.36202 -4.68907,5.29201 -8.07478,5.95889 -3.38434,0.65486 -7.4393,-0.41429 -10.97085,-2.5197 z m 4.16933,-7.86029 c 1.91386,1.14214 3.9079,1.9843 5.31352,2.13619 1.38939,0.14313 2.41544,-0.39051 3.07992,-1.59406 0.65764,-1.19126 0.56721,-2.35374 -0.2799,-3.49602 -0.85314,-1.16273 -2.58579,-2.51946 -4.50788,-3.66856 -1.90991,-1.14181 -3.49079,-1.7645 -4.74021,-1.85486 -1.24924,-0.0904 -2.20156,0.46849 -2.8546,1.68241 -0.63854,1.18686 -0.60576,2.33579 0.0918,3.43735 0.68427,1.09332 1.98528,2.21652 3.89733,3.35755 z m 23.23487,-11.22241 c -7.9262,-4.5957 -15.93824,-9.39425 -23.97176,-14.38521 1.09098,-1.93797 2.19188,-3.87309 3.30298,-5.80548 1.09361,0.24716 2.18761,0.49261 3.28196,0.73632 -3e-5,5e-5 0.2619,-0.45099 0.26187,-0.45094 -0.69287,-1.31753 -1.09284,-2.79657 -0.84112,-4.20993 0.25923,-1.42634 0.83082,-2.89233 1.71931,-4.39317 1.45345,-2.45528 3.15441,-4.00023 5.44667,-4.42139 2.30089,-0.43429 4.79217,0.1953 7.46667,1.85225 5.47812,3.39387 10.94976,6.6876 16.3945,9.88003 -1.58741,2.47614 -3.15747,4.95994 -4.71056,7.45156 -4.61927,-2.69483 -9.26016,-5.46015 -13.91025,-8.29478 -1.51777,-0.92523 -2.78787,-1.41417 -3.81063,-1.45843 -1.02818,-0.0655 -1.8205,0.36782 -2.37579,1.30325 -0.76304,1.28544 -0.77951,2.54338 -0.0584,3.76258 0.7195,1.2164 2.23647,2.53509 5.10484,4.26011 3.75213,2.25653 7.4957,4.46925 11.22421,6.63733 -1.52498,2.50437 -3.03303,5.01627 -4.52454,7.5359 z m 16.03301,-53.42904 c -3.78317,-2.39939 -6.08292,-5.26093 -6.88208,-8.5444 -0.80421,-3.30548 0.15096,-6.59624 2.54703,-10.04035 1.48299,-2.13164 3.11216,-3.79958 5.24026,-4.75537 2.12942,-0.95638 4.42158,-1.23732 6.87736,-0.86181 2.45111,0.35358 4.89261,1.3521 7.32769,2.96604 3.82164,2.53292 6.94052,5.90952 7.97064,9.24932 1.02754,3.33001 0.50281,6.7165 -1.91335,10.02028 -2.31277,3.16241 -5.54238,4.85335 -9.31348,5.26337 -3.76916,0.39833 -8.14658,-0.94566 -11.85407,-3.29708 z m 5.19353,-7.4918 c 2.00291,1.28821 4.12171,2.27667 5.65163,2.5363 1.51209,0.24956 2.67906,-0.19951 3.50071,-1.33848 0.81356,-1.12783 0.80431,-2.28497 -0.0322,-3.48706 -0.84035,-1.2211 -2.629,-2.71455 -4.63168,-4.01962 -1.99231,-1.29832 -3.66193,-2.05522 -5.01822,-2.25099 -1.35521,-0.19565 -2.44253,0.2847 -3.26071,1.44827 -0.79959,1.13717 -0.86231,2.29107 -0.19322,3.44921 0.65525,1.14885 1.98341,2.37574 3.98372,3.66237 z m 26.32122,-9.23907 c -8.31417,-5.21595 -16.61935,-10.73674 -24.83638,-16.57216 1.37317,-1.86583 2.75845,-3.72866 4.15602,-5.58857 1.15753,0.35959 2.31639,0.71679 3.47652,1.07158 -2e-5,3e-5 0.32813,-0.43271 0.32811,-0.43269 -0.61875,-1.40759 -0.9004,-2.95438 -0.48247,-4.37242 0.42728,-1.42996 1.19782,-2.87094 2.31446,-4.31534 1.82761,-2.36393 3.82483,-3.76808 6.33624,-3.95595 2.52412,-0.20057 5.13229,0.71135 7.84808,2.67733 5.56108,4.02579 11.17214,7.88956 16.80729,11.59574 -1.93122,2.32008 -3.84398,4.64869 -5.73848,6.98589 -4.80511,-3.10383 -9.59728,-6.31688 -14.36092,-9.64161 -1.55519,-1.0854 -2.87898,-1.70832 -3.98108,-1.85555 -1.10524,-0.16922 -2.00443,0.19131 -2.69742,1.08604 -0.95203,1.22911 -1.09324,2.50407 -0.42861,3.80758 0.66198,1.29802 2.18433,2.78138 5.1426,4.78225 3.87289,2.61942 7.76009,5.16873 11.65351,7.6491 -1.86413,2.35124 -3.70988,4.7108 -5.53747,7.07878 z"
           id="rect6418"
           inkscape:connector-curvature="0"
           sodipodi:nodetypes="ssssscssccscccscsscccscsccccccscccscsccscccssccscscccccscssscsccsccccccccccsccsccccscsccscscsscscscscsccccccscsccscscsccscsscscscsscscscscsccccccscsccscscscc"
           clip-path="url(#clipPath7094)" />
      </g>
    </g>
  </g>
</svg>
