<?xml version="1.0" encoding="UTF-8" standalone="no"?>
<!-- Created with Inkscape (http://www.inkscape.org/) -->

<svg
   xmlns:dc="http://purl.org/dc/elements/1.1/"
   xmlns:cc="http://creativecommons.org/ns#"
   xmlns:rdf="http://www.w3.org/1999/02/22-rdf-syntax-ns#"
   xmlns:svg="http://www.w3.org/2000/svg"
   xmlns="http://www.w3.org/2000/svg"
   xmlns:sodipodi="http://sodipodi.sourceforge.net/DTD/sodipodi-0.dtd"
   xmlns:inkscape="http://www.inkscape.org/namespaces/inkscape"
   width="208.07672mm"
   height="82.943413mm"
   viewBox="0 0 208.07672 82.943413"
   version="1.1"
   id="svg4593"
   inkscape:version="0.92.1 unknown"
   sodipodi:docname="shadow.svg">
  <defs
     id="defs4587">
    <inkscape:path-effect
       effect="envelope"
       id="path-effect4879"
       is_visible="true"
       yy="true"
       xx="false"
       bendpath1="m 148.88579,150.38767 -73.814323,51.642"
       bendpath2="M -43.505549,-62.292661 V 116.28401"
       bendpath3="m 3.6723515,102.69401 -47.1779005,13.59"
       bendpath4="M -99.068019,-62.292661 V 116.28401"
       bendpath1-nodetypes="cc"
       bendpath3-nodetypes="cc" />
    <inkscape:path-effect
       effect="envelope"
       id="path-effect4879-4"
       is_visible="true"
       yy="true"
       xx="false"
       bendpath1="M 182.87728,152.53267 108.03205,208.8917"
       bendpath2="m -63.324614,-57.53139 8.349374,178.38138"
       bendpath3="M -9.8066489,108.59523 -38.225944,136.27698"
       bendpath4="m -118.82631,-54.93356 8.34935,178.38137"
       bendpath1-nodetypes="cc"
       bendpath3-nodetypes="cc" />
  </defs>
  <sodipodi:namedview
     id="base"
     pagecolor="#ffffff"
     bordercolor="#666666"
     borderopacity="1.0"
     inkscape:pageopacity="0.0"
     inkscape:pageshadow="2"
     inkscape:zoom="0.53235463"
     inkscape:cx="430.93453"
     inkscape:cy="153.37838"
     inkscape:document-units="mm"
     inkscape:current-layer="layer1"
     showgrid="false"
     fit-margin-top="0"
     fit-margin-left="0"
     fit-margin-right="0"
     fit-margin-bottom="0"
     inkscape:window-width="1920"
     inkscape:window-height="1015"
     inkscape:window-x="0"
     inkscape:window-y="24"
     inkscape:window-maximized="1" />
  <metadata
     id="metadata4590">
    <rdf:RDF>
      <cc:Work
         rdf:about="">
        <dc:format>image/svg+xml</dc:format>
        <dc:type
           rdf:resource="http://purl.org/dc/dcmitype/StillImage" />
        <dc:title></dc:title>
      </cc:Work>
    </rdf:RDF>
  </metadata>
  <g
     inkscape:label="Layer 1"
     inkscape:groupmode="layer"
     id="layer1"
     transform="translate(27.935315,-120.37872)">
    <path
       style="display:inline;opacity:1;fill:#000000;fill-opacity:1;fill-rule:nonzero;stroke:none;stroke-width:0.79374993;stroke-linecap:butt;stroke-linejoin:round;stroke-miterlimit:4;stroke-dasharray:none;stroke-dashoffset:0;stroke-opacity:1"
       d="m -27.935315,126.61985 c 12.424638,7.45843 23.0084754,16.14983 31.7515109,26.0742 39.1516841,14.91006 76.3295601,31.78609 111.5336241,50.62808 21.79951,-17.30734 43.39671,-34.48941 64.79159,-51.54623 -45.53424,-12.43169 -93.042285,-22.89742 -142.524142,-31.39718 -22.092471,1.62571 -42.902891,2.54651 -62.431258,2.76243 -1.036702,1.15725 -2.077144,2.31681 -3.121325,3.4787 z m 55.030997,18.77617 c 0.521594,-0.48405 1.042824,-0.96788 1.56369,-1.45148 0.498508,0.15017 0.996746,0.3006 1.494716,0.45131 0.675584,0.20442 1.42353,0.45908 2.243759,0.76187 0.02457,-0.0226 0.04914,-0.0453 0.07371,-0.0679 -0.242924,-0.26145 -0.341391,-0.51286 -0.294956,-0.75461 0.04644,-0.24177 0.207213,-0.48985 0.48351,-0.74498 0.514482,-0.47506 1.163731,-0.77068 1.952211,-0.88825 0.785805,-0.12126 1.63354,-0.0528 2.534899,0.2079 1.686685,0.48791 3.370377,0.97881 5.051076,1.47268 -0.558381,0.50769 -1.117129,1.01562 -1.676246,1.52377 -1.395044,-0.4231 -2.792193,-0.84409 -4.191448,-1.26299 -1.032616,-0.30912 -1.735517,-0.29163 -2.105424,0.0484 -0.263579,0.2423 -0.275607,0.47676 -0.03807,0.70437 0.235643,0.22359 0.773006,0.46472 1.611873,0.72305 1.117445,0.34412 2.233522,0.68961 3.348232,1.03646 -0.556902,0.50596 -1.114168,1.01215 -1.671799,1.51857 -3.446567,-1.10601 -6.906478,-2.19873 -10.379733,-3.27816 z m -8.37534,8.53013 c 0.514397,-0.47547 1.028449,-0.95072 1.542155,-1.42576 1.769413,0.36085 3.542707,0.7204 5.319883,1.07866 1.182886,0.23443 2.107089,0.43543 2.775937,0.60491 -0.397604,-0.19042 -0.918578,-0.4605 -1.572554,-0.81207 -0.650554,-0.35366 -1.18115,-0.65307 -1.592789,-0.90067 -1.003009,-0.58154 -2.011968,-1.15875 -3.026877,-1.73164 0.492659,-0.45582 0.984998,-0.91145 1.477019,-1.36689 1.368555,0.24927 2.739482,0.49769 4.112779,0.74528 0.665714,0.11416 1.423511,0.25681 2.271467,0.4282 0.848737,0.17152 1.474451,0.3061 1.879667,0.40452 -0.4499,-0.19853 -1.178384,-0.56905 -2.216622,-1.11788 -1.378427,-0.74152 -2.766945,-1.47565 -4.165555,-2.20241 0.511339,-0.47357 1.022333,-0.94694 1.53298,-1.42008 2.764993,1.47167 5.486727,2.97462 8.165201,4.50883 -0.667113,0.6055 -1.334746,1.21132 -2.002898,1.81747 -1.573837,-0.29435 -3.144676,-0.58973 -4.712517,-0.88613 -0.200231,-0.0341 -0.587374,-0.11153 -1.161096,-0.23297 -0.570826,-0.12389 -1.042479,-0.23317 -1.414602,-0.32688 0.257884,0.11685 0.571339,0.27058 0.938756,0.46099 0.363347,0.18896 0.693778,0.36721 0.991516,0.53454 0.205103,0.11247 1.605266,0.89241 3.596948,2.04767 -0.669177,0.60682 -1.338874,1.21396 -2.00909,1.82141 -3.595822,-0.66884 -7.172391,-1.34521 -10.729708,-2.0291 z m 23.291459,-21.60243 c 0.470868,-0.43824 0.941434,-0.87629 1.411698,-1.31416 1.246804,0.34096 2.490784,0.68425 3.731939,1.02987 -0.370436,0.34224 -0.741051,0.68459 -1.111844,1.02705 -1.343675,-0.24832 -2.687605,-0.49591 -4.031793,-0.74276 z m -2.193547,2.90449 c 0.341028,-0.31664 0.681899,-0.63318 1.022615,-0.94963 0.547754,0.13209 1.095225,0.26447 1.642412,0.39712 0.373658,-0.34588 0.747132,-0.69166 1.120421,-1.03731 0.711144,0.16826 1.421814,0.337 2.132011,0.5062 -0.37811,0.34866 -0.756404,0.69742 -1.134882,1.0463 1.061916,0.25923 2.12276,0.51952 3.182532,0.78088 0.528549,0.13032 0.939511,0.0609 1.235284,-0.20968 0.220168,-0.20141 0.39002,-0.4654 0.507203,-0.7909 0.689527,0.16602 1.378605,0.33249 2.067237,0.4994 -0.05806,0.24261 -0.155209,0.46475 -0.290972,0.66645 -0.128158,0.20034 -0.328168,0.42434 -0.599404,0.67141 -0.556821,0.5072 -1.187249,0.81478 -1.889321,0.92158 -0.707656,0.10569 -1.53426,0.0355 -2.486317,-0.2075 -1.111091,-0.28363 -2.223385,-0.56606 -3.33688,-0.8473 -0.186756,0.17208 -0.373556,0.34418 -0.560401,0.5163 -0.377672,-0.0965 -0.755484,-0.19291 -1.133435,-0.28916 -0.05681,-0.29213 -0.115044,-0.58335 -0.174701,-0.87365 -0.432708,-0.26805 -0.867175,-0.53489 -1.303402,-0.80051 z m -2.21155,3.79127 c 0.587771,-0.5435 1.295171,-0.8966 2.127274,-1.06104 0.834018,-0.16679 1.713656,-0.13276 2.630648,0.1058 1.756758,0.45703 3.510474,0.91708 5.261147,1.38017 -0.383434,0.34911 -0.767043,0.69833 -1.150826,1.04765 -0.457205,0.002 -0.913881,0.003 -1.370028,0.004 -0.01117,0.0102 -0.02234,0.0205 -0.03351,0.0307 0.235608,0.32719 0.319835,0.62008 0.255048,0.87768 -0.06482,0.25764 -0.282376,0.55473 -0.651464,0.89042 -0.454371,0.41328 -1.033522,0.67597 -1.735169,0.78658 -0.702272,0.11071 -1.450366,0.0499 -2.249788,-0.17949 -0.830993,-0.23833 -1.273769,-0.57588 -1.331242,-1.00983 -0.06217,-0.43541 0.208355,-0.96151 0.814184,-1.57926 0.245961,-0.24261 0.49177,-0.48514 0.737427,-0.72757 -0.03733,-0.0101 -0.07465,-0.0202 -0.111985,-0.0303 -0.655607,-0.17629 -1.172478,-0.0902 -1.548793,0.25638 -0.338801,0.31203 -0.572464,0.76085 -0.707595,1.35121 -0.752226,-0.024 -1.503124,-0.0488 -2.252692,-0.0742 0.06597,-0.62778 0.503368,-1.31628 1.317675,-2.06926 -1.05e-4,3e-5 -2.1e-4,6e-5 -3.15e-4,9e-5 z m 10.943922,-10.13577 c 0.299216,-0.27754 0.642066,-0.52451 1.029701,-0.74143 0.38527,-0.22042 0.838075,-0.438 1.359488,-0.65291 0.49465,0.26097 0.98734,0.52329 1.478072,0.78696 -0.387589,0.15876 -0.759016,0.33415 -1.114665,0.52629 -0.360649,0.19109 -0.614664,0.35493 -0.763296,0.49228 -0.259369,0.23968 -0.272411,0.38468 -0.03802,0.43489 0.144392,0.0312 0.314362,0.0165 0.508743,-0.0437 0.191971,-0.0638 0.662261,-0.26256 1.413246,-0.59754 0.569533,-0.247 1.052477,-0.41915 1.447379,-0.516 0.397629,-0.0994 0.794619,-0.14992 1.191073,-0.1515 0.394153,-0.005 0.821105,0.0393 1.279473,0.13408 0.917308,0.1896 1.43693,0.49086 1.556786,0.90627 0.119862,0.41522 -0.147832,0.92116 -0.800196,1.51638 -0.354126,0.32315 -0.696662,0.5965 -1.027365,0.81962 -0.325797,0.22423 -0.714077,0.44088 -1.163721,0.64936 -0.77091,-0.17426 -1.54236,-0.34799 -2.31435,-0.52119 0.449384,-0.18683 0.888796,-0.40352 1.317453,-0.64976 0.431462,-0.24876 0.765686,-0.48138 1.001761,-0.6976 0.352864,-0.3232 0.384143,-0.51576 0.09446,-0.57778 -0.150122,-0.0318 -0.33206,-0.0147 -0.546279,0.0519 -0.216646,0.0631 -0.730143,0.27479 -1.539278,0.63379 -0.747722,0.32531 -1.406463,0.52123 -1.976894,0.58867 -0.575605,0.0664 -1.170698,0.0302 -1.788647,-0.1069 -0.78065,-0.17321 -1.224112,-0.46019 -1.333206,-0.85859 -0.109088,-0.39854 0.132814,-0.87321 0.72827,-1.42562 5e-6,0 9e-6,0 1.3e-5,0 z m -6.122865,11.10084 c -0.115448,0.11688 -0.230936,0.23379 -0.346464,0.35072 -0.502376,0.49908 -0.440994,0.83642 0.185256,1.01024 0.482396,0.13402 0.87928,0.0592 1.190892,-0.22527 0.199154,-0.18182 0.264003,-0.36567 0.193921,-0.55076 -0.06733,-0.18767 -0.26929,-0.3267 -0.605965,-0.41786 -0.205838,-0.0557 -0.411718,-0.11142 -0.61764,-0.16707 z m -8.34804,19.61792 c 0.325735,-0.29149 0.654511,-0.46894 0.987463,-0.53267 0.332707,-0.0636 0.679172,-0.0271 1.037553,0.10992 0.717184,0.27411 0.75909,0.6928 0.125207,1.25778 -0.628124,0.55985 -1.294688,0.69847 -2.002886,0.41922 -0.362371,-0.14289 -0.559001,-0.31478 -0.589687,-0.51556 -0.03072,-0.2008 0.116637,-0.44716 0.44235,-0.73869 z m 20.859336,-18.71253 c 0.320892,-0.2885 0.658327,-0.47133 1.013443,-0.5488 0.354942,-0.0775 0.736396,-0.0626 1.142533,0.0448 0.812648,0.21488 0.906987,0.60103 0.282437,1.16023 -0.618821,0.55408 -1.328582,0.71953 -2.132245,0.49951 -0.411243,-0.11256 -0.644946,-0.26156 -0.701691,-0.44617 -0.05678,-0.18463 0.07469,-0.42103 0.395523,-0.70953 z m -16.444068,16.59403 c 0.38527,-0.34409 0.770384,-0.68808 1.155341,-1.03198 0.482369,0.17507 0.964455,0.35042 1.446256,0.52606 0.421676,-0.37568 0.843167,-0.75125 1.264474,-1.1267 0.62693,0.22379 1.253388,0.44805 1.879371,0.67278 -0.426131,0.37845 -0.852447,0.75701 -1.278947,1.13568 0.934729,0.34267 1.868387,0.68642 2.800972,1.03122 0.465201,0.17197 0.863237,0.11221 1.195636,-0.18109 0.247446,-0.21833 0.460709,-0.51012 0.638341,-0.87395 0.607457,0.21996 1.214467,0.44038 1.821029,0.66124 -0.104933,0.27242 -0.241498,0.51997 -0.410216,0.74242 -0.161284,0.2212 -0.395007,0.46582 -0.699412,0.73348 -0.624863,0.5494 -1.276722,0.86926 -1.953547,0.95834 -0.681766,0.0876 -1.437979,-0.0294 -2.274733,-0.34826 -0.976436,-0.37199 -1.954074,-0.74279 -2.932912,-1.11238 -0.210416,0.18675 -0.420877,0.37352 -0.631382,0.56033 -0.332037,-0.1267 -0.664213,-0.25325 -0.996529,-0.37967 0.0087,-0.33407 0.01594,-0.66722 0.02178,-0.99946 -0.346748,-0.3239 -0.695255,-0.64658 -1.045522,-0.96806 z m 9.198023,-6.54803 c 0.09356,-0.0835 0.270416,-0.22235 0.530812,-0.41695 0.260348,-0.19462 0.457937,-0.33642 0.593229,-0.42482 0.595965,-0.53183 1.191558,-1.06342 1.78678,-1.59479 0.424791,0.1317 0.849386,0.26359 1.273784,0.39568 -0.107311,0.2494 -0.21522,0.49918 -0.323728,0.74933 0.35664,-0.005 0.70743,0.0468 1.051651,0.15548 0.818446,0.25836 1.254119,0.63471 1.304234,1.13268 0.05324,0.49503 -0.318051,1.09422 -1.111623,1.79593 -0.19594,0.17328 -0.36999,0.30493 -0.519891,0.39506 0.07065,0.0766 0.156554,0.13168 0.257441,0.16541 0.127801,0.0421 0.299239,0.011 0.516231,-0.0952 0.212596,-0.10763 0.437707,-0.26631 0.675025,-0.47593 0.293444,-0.25919 0.586804,-0.51833 0.88008,-0.77742 1.18558,-1.04738 2.500047,-1.34873 3.934654,-0.89253 0.925041,0.29408 1.362501,0.76956 1.30743,1.43168 -0.05182,0.65907 -0.592856,1.43911 -1.618245,2.3372 -0.774478,0.67835 -1.549493,1.14165 -2.320594,1.38783 -0.764158,0.24511 -1.469381,0.25204 -2.122579,0.0241 -0.877453,-0.30629 -1.046009,-0.85495 -0.510632,-1.64075 -0.259587,0.11154 -0.557742,0.18487 -0.893409,0.21981 -0.332524,0.0322 -0.602706,0.0122 -0.811426,-0.0593 -0.230527,-0.079 -0.387467,-0.18832 -0.471353,-0.32758 -0.08815,-0.1409 -0.110772,-0.37953 -0.06989,-0.71497 -0.443781,0.18424 -0.925261,0.28475 -1.444613,0.30131 -0.516399,0.0138 -1.032187,-0.0681 -1.550644,-0.24451 -0.805469,-0.27418 -1.238784,-0.65785 -1.302975,-1.14773 -0.0643,-0.49004 0.254569,-1.04915 0.96037,-1.679 -4e-5,3e-5 -8e-5,6e-5 -1.21e-4,9e-5 z m 5.894566,-5.26362 c 0.501751,-0.44834 1.106944,-0.79658 1.819669,-1.04686 0.712385,-0.25017 1.482162,-0.38164 2.306906,-0.39356 0.822931,-0.0159 1.6461,0.0913 2.465386,0.32383 1.287789,0.36543 2.059061,0.85659 2.309004,1.47888 0.248326,0.61779 -0.05421,1.30131 -0.900384,2.04718 -0.81155,0.71537 -1.818254,1.17547 -3.013075,1.3762 -1.192992,0.19817 -2.392043,0.10464 -3.611016,-0.27414 -1.244836,-0.38668 -1.984986,-0.88924 -2.225773,-1.50153 -0.2424,-0.61674 0.03834,-1.2854 0.849283,-2.01 z m 9.707208,-8.68282 c 0.560858,-0.50222 1.260244,-0.82842 2.102002,-0.98008 0.844015,-0.15422 1.752101,-0.11785 2.716017,0.11245 1.794626,0.42875 3.586258,0.86048 5.374896,1.2952 -0.609469,0.5386 -1.219302,1.07742 -1.8295,1.61646 -1.485634,-0.37343 -2.973374,-0.74477 -4.463219,-1.11401 -0.544655,-0.135 -1.004978,-0.19157 -1.379479,-0.17053 -0.376536,0.0172 -0.673447,0.12248 -0.89096,0.31651 -0.299098,0.26679 -0.325199,0.50715 -0.08016,0.72179 0.244907,0.21455 0.826509,0.43948 1.744024,0.67391 1.185438,0.3029 2.36952,0.60714 3.552246,0.91274 -0.610662,0.53929 -1.221687,1.07882 -1.833076,1.61856 -2.675574,-0.71437 -5.358222,-1.4217 -8.047944,-2.12198 0.441461,-0.39492 0.882715,-0.78972 1.323762,-1.18439 0.408171,0.0194 0.816635,0.0387 1.225393,0.0578 0.03453,-0.0308 0.06905,-0.0617 0.103571,-0.0926 -0.232705,-0.23126 -0.313645,-0.48861 -0.242719,-0.77206 0.07392,-0.28617 0.281927,-0.58255 0.625118,-0.88985 9e-6,0 1.9e-5,1e-5 2.8e-5,1e-5 z m 4.996261,-4.47623 c 0.09221,-0.0826 0.268638,-0.22126 0.529516,-0.41616 0.260815,-0.19494 0.459441,-0.33736 0.596432,-0.42682 0.587337,-0.52649 1.174303,-1.05274 1.760896,-1.57876 0.476089,0.0999 0.951981,0.19994 1.427675,0.30021 -0.08845,0.23769 -0.177499,0.47577 -0.267147,0.71422 0.386728,-0.0236 0.77347,0.006 1.159494,0.0885 0.917927,0.19662 1.433338,0.52351 1.543986,0.98392 0.113672,0.45754 -0.221811,1.03453 -1.004243,1.72934 -0.193212,0.17159 -0.367277,0.30324 -0.519919,0.39509 0.08539,0.0674 0.184904,0.11408 0.298278,0.14006 0.142743,0.033 0.326179,-0.006 0.549812,-0.11607 0.218697,-0.11142 0.445216,-0.27097 0.679189,-0.47852 0.289342,-0.25666 0.5786,-0.51325 0.867773,-0.7698 1.169041,-1.03716 2.562175,-1.38732 4.171141,-1.03932 1.037396,0.22438 1.566095,0.64324 1.581255,1.26178 0.01832,0.61555 -0.480667,1.36951 -1.49211,2.25897 -0.763963,0.67183 -1.552847,1.14376 -2.362232,1.41371 -0.801922,0.26854 -1.566946,0.31259 -2.302146,0.13549 -0.987629,-0.23792 -1.232953,-0.73893 -0.740557,-1.49809 -0.269285,0.11757 -0.584745,0.20164 -0.945319,0.25204 -0.357485,0.0477 -0.653135,0.0435 -0.887922,-0.0119 -0.25923,-0.0612 -0.442302,-0.15427 -0.549,-0.2794 -0.111689,-0.12629 -0.163285,-0.34695 -0.156852,-0.66101 -0.461099,0.19499 -0.972642,0.31416 -1.534829,0.35731 -0.559283,0.0404 -1.128793,-0.008 -1.711856,-0.14448 -0.905885,-0.21187 -1.419949,-0.54542 -1.544996,-0.99755 -0.12514,-0.45229 0.158102,-0.9893 0.853702,-1.61285 -7e-6,0 -1.4e-5,1e-5 -2.1e-5,2e-5 z m -32.277904,28.99127 c 0.595242,-0.52974 1.190121,-1.05927 1.784635,-1.58856 2.35669,0.90694 4.706306,1.82093 7.048848,2.74196 -0.620771,0.54559 -1.241905,1.09141 -1.863404,1.63745 -2.316286,-0.93733 -4.639645,-1.86761 -6.970079,-2.79085 z M 57.265882,142.5478 c 0.586393,-0.52424 1.172422,-1.04825 1.758087,-1.57203 2.671267,0.71173 5.33546,1.43051 7.992579,2.15634 -0.611902,0.54006 -1.224168,1.08035 -1.836797,1.62087 -2.630882,-0.74211 -5.268838,-1.47717 -7.913869,-2.20518 z m -8.116526,8.84103 c -0.36782,0.32741 -0.168607,0.61768 0.596723,0.8709 0.76525,0.25329 1.333259,0.21556 1.707015,-0.11578 0.172756,-0.15316 0.211043,-0.30198 0.113301,-0.44596 -0.09467,-0.14676 -0.332748,-0.2816 -0.713579,-0.40529 -0.779363,-0.2531 -1.347977,-0.22029 -1.70346,0.0961 z M 69.92385,132.85665 c -0.362557,0.32416 -0.113421,0.58346 0.746372,0.77806 0.859797,0.19461 1.472312,0.12926 1.840818,-0.19883 0.170283,-0.15162 0.195064,-0.29207 0.07266,-0.42075 -0.119386,-0.13141 -0.393149,-0.24411 -0.820682,-0.33883 -0.874861,-0.19385 -1.488774,-0.13291 -1.839164,0.18035 z m -14.358631,13.41936 c -0.273476,0.24353 -0.300762,0.46823 -0.08283,0.67467 0.213295,0.205 0.651482,0.40754 1.314635,0.6072 0.663551,0.19971 1.229482,0.29944 1.700558,0.29788 0.466163,-0.003 0.842613,-0.13099 1.128801,-0.38407 0.28307,-0.25032 0.30885,-0.47808 0.07596,-0.68227 -0.234494,-0.20836 -0.686647,-0.41031 -1.355914,-0.60645 -0.664219,-0.19476 -1.225031,-0.28977 -1.679644,-0.28598 -0.454973,0.004 -0.822006,0.13009 -1.101559,0.37902 z m -0.416498,7.63032 c -0.199036,0.1752 -0.304471,0.34572 -0.316942,0.51114 -0.0049,0.16406 0.08633,0.27786 0.274001,0.34168 0.209556,0.0712 0.45997,0.0562 0.75219,-0.0462 0.296479,-0.10084 0.583288,-0.27333 0.86032,-0.51661 0.452142,-0.39708 0.734058,-0.74056 0.845313,-1.03031 0.118848,-0.29108 0.05454,-0.47683 -0.193285,-0.55785 -0.199265,-0.065 -0.423308,-0.0389 -0.671485,0.0781 -0.243851,0.11853 -0.51886,0.31229 -0.825157,0.58192 -0.241596,0.21266 -0.483247,0.42536 -0.724955,0.6381 z M 76.723442,134.8776 c -0.196267,0.17348 -0.291468,0.33765 -0.286227,0.49208 0.01324,0.1528 0.125201,0.25374 0.336215,0.30308 0.235547,0.0551 0.505844,0.0277 0.811543,-0.083 0.310496,-0.10954 0.602354,-0.28517 0.875568,-0.52609 0.445983,-0.39324 0.713159,-0.72761 0.801156,-1.00293 0.09606,-0.27694 0.0052,-0.44624 -0.27299,-0.5084 -0.223696,-0.0498 -0.463989,-0.0137 -0.72023,0.10834 -0.251344,0.12318 -0.527989,0.31795 -0.83009,0.58499 -0.238259,0.2106 -0.476574,0.42124 -0.714945,0.63191 z m -7.508343,14.46425 c 0.637245,-0.55582 1.274126,-1.11142 1.910642,-1.66679 0.808848,0.23723 1.617013,0.47515 2.424496,0.71375 0.288202,0.0852 0.764235,0.253 1.422943,0.50242 0.02322,-0.0201 0.04643,-0.0403 0.06964,-0.0604 -0.213903,-0.28401 -0.288431,-0.55804 -0.223212,-0.82315 0.06854,-0.26798 0.259117,-0.53825 0.572631,-0.81072 0.610268,-0.53039 1.452873,-0.84764 2.53246,-0.95439 1.081798,-0.10954 2.26694,0.0135 3.542491,0.3745 1.285999,0.36395 2.105835,0.81108 2.45777,1.34466 0.350552,0.52906 0.187662,1.0832 -0.483324,1.65961 -0.216712,0.18617 -0.442006,0.34213 -0.674637,0.46772 -0.228108,0.12697 -0.463965,0.23174 -0.707689,0.31387 -0.240267,0.0792 -0.575714,0.15535 -1.006092,0.22838 -0.04111,0.0354 -0.08222,0.0707 -0.123339,0.1061 0.146906,0.16796 0.293328,0.33625 0.439266,0.50486 -0.524813,0.4508 -1.049848,0.90173 -1.575105,1.3528 -3.512973,-1.09771 -7.039288,-2.18212 -10.578944,-3.25325 z m -11.448598,11.52251 c 0.423232,-0.36761 0.846308,-0.73512 1.269228,-1.10253 0.484633,0.17622 0.968983,0.35273 1.453048,0.52952 0.463201,-0.40149 0.926217,-0.80286 1.389049,-1.20411 0.629487,0.22516 1.2585,0.45079 1.88704,0.6769 -0.467649,0.40424 -0.935481,0.8086 -1.403498,1.21307 0.938814,0.34482 1.876557,0.6907 2.813227,1.03766 0.466993,0.17325 0.882503,0.10363 1.246488,-0.20927 0.27096,-0.23292 0.511994,-0.54239 0.721648,-0.92689 0.610266,0.2214 1.220085,0.44325 1.829455,0.66554 -0.127771,0.28733 -0.287244,0.54926 -0.477166,0.78514 -0.18218,0.23447 -0.439691,0.49438 -0.772677,0.77977 -0.683542,0.58582 -1.37898,0.93126 -2.083515,1.03547 -0.70945,0.10274 -1.480923,-0.008 -2.321398,-0.32828 -0.98092,-0.37431 -1.963041,-0.74743 -2.946364,-1.11936 -0.230957,0.19954 -0.461958,0.39911 -0.693004,0.59871 -0.333511,-0.12747 -0.667162,-0.2548 -1.000952,-0.38199 0.03344,-0.35075 0.06545,-0.70058 0.09605,-1.04949 -0.333791,-0.3345 -0.669342,-0.66778 -1.006654,-0.99986 z m 7.655745,-5.00973 c 0.554312,-0.48095 1.199523,-0.85335 1.938899,-1.11869 0.739103,-0.2652 1.51996,-0.40126 2.340891,-0.40803 0.819756,-0.0112 1.625229,0.11072 2.410687,0.36797 1.234592,0.40436 1.940347,0.94034 2.113176,1.61373 0.171816,0.66861 -0.211207,1.40426 -1.142019,2.20265 -0.892725,0.76572 -1.949325,1.25466 -3.161846,1.46298 -1.210296,0.20559 -2.391372,0.0966 -3.558468,-0.32008 -1.191641,-0.42564 -1.868229,-0.97248 -2.032953,-1.63523 -0.165758,-0.66754 0.195758,-1.38799 1.091633,-2.1653 z M 80.99714,142.32345 c 0.841786,-0.73229 1.810943,-1.21404 2.9134,-1.44872 1.099733,-0.2385 2.258905,-0.20704 3.465456,0.0999 0.418306,0.1064 0.836446,0.21297 1.25442,0.31971 -1.176611,1.01686 -2.354385,2.03444 -3.533323,3.05273 0.462218,0.1098 0.930533,0.10471 1.406302,-0.0165 0.478982,-0.12406 0.911017,-0.35208 1.294705,-0.68289 0.349677,-0.30151 0.625253,-0.59003 0.826218,-0.86531 0.199595,-0.27942 0.358079,-0.59582 0.474292,-0.94861 0.673537,0.17356 1.346639,0.34756 2.019305,0.522 -0.08911,0.32877 -0.25929,0.64915 -0.509096,0.96039 -0.249816,0.31125 -0.607744,0.6675 -1.074031,1.06843 -0.97063,0.83459 -2.07914,1.38666 -3.318079,1.6526 -1.241659,0.26194 -2.505404,0.20783 -3.806456,-0.15527 -1.341812,-0.37451 -2.130693,-0.87104 -2.370083,-1.48415 -0.244231,-0.61475 0.0725,-1.30496 0.956978,-2.07439 z m 1.966507,0.44009 c -0.22912,0.19881 -0.317245,0.39345 -0.265169,0.58474 0.05067,0.18709 0.282703,0.35159 0.695659,0.4931 0.561796,-0.48644 1.123323,-0.97271 1.684582,-1.45882 -0.397754,-0.0965 -0.788992,-0.10997 -1.172068,-0.0414 -0.379847,0.0657 -0.69394,0.20631 -0.943004,0.42235 z M 67.314498,156.5206 c -0.301767,0.26108 -0.356443,0.50356 -0.164937,0.72795 0.187084,0.22284 0.598636,0.44467 1.233884,0.66475 0.635607,0.22014 1.185883,0.33152 1.654444,0.33312 0.46393,6e-5 0.854088,-0.1358 1.169252,-0.40687 0.31166,-0.26805 0.364451,-0.51324 0.157692,-0.73529 -0.207737,-0.22656 -0.632159,-0.44767 -1.273469,-0.66423 -0.636521,-0.21506 -1.182751,-0.32184 -1.635204,-0.32101 -0.452727,8.3e-4 -0.833215,0.13473 -1.141662,0.40158 z m 9.488985,-8.08693 c -0.273687,0.23708 -0.343134,0.4493 -0.209049,0.637 0.13407,0.18765 0.480188,0.365 1.038235,0.53196 0.125833,0.0376 0.251648,0.0753 0.377447,0.11296 0.635984,0.19048 1.156502,0.27244 1.564903,0.2448 0.403528,-0.029 0.752343,-0.16981 1.045094,-0.42204 0.23486,-0.20237 0.254614,-0.40552 0.05805,-0.60863 -0.201163,-0.20453 -0.618153,-0.39867 -1.249904,-0.58326 -1.258929,-0.36785 -2.135205,-0.33687 -2.624762,0.0872 z M 76.16705,163.6195 c 0.700111,-0.5948 1.399858,-1.18937 2.099241,-1.78372 0.476212,0.17105 0.952154,0.34237 1.427827,0.51395 0.645214,0.2327 1.353756,0.52239 2.118794,0.87194 0.03279,-0.0277 0.06559,-0.0555 0.09838,-0.0832 -0.173962,-0.30983 -0.200058,-0.61047 -0.07601,-0.90268 0.124059,-0.29223 0.37067,-0.59482 0.740134,-0.90776 0.688079,-0.58281 1.461109,-0.95114 2.323318,-1.10747 0.860784,-0.16077 1.725844,-0.094 2.587527,0.20392 1.612316,0.55752 3.221638,1.11802 4.827967,1.68149 -0.737932,0.61912 -1.476231,1.23846 -2.214899,1.85803 -1.332531,-0.48141 -2.667167,-0.96072 -4.003907,-1.43793 -0.986649,-0.35209 -1.728255,-0.31793 -2.221466,0.0987 -0.351295,0.29673 -0.436754,0.57941 -0.257588,0.84843 0.178417,0.26421 0.668244,0.54328 1.469402,0.83695 1.067047,0.3911 2.132728,0.78356 3.197042,1.17738 -0.735405,0.6167 -1.471174,1.23363 -2.207306,1.85078 -3.289478,-1.25288 -6.592297,-2.49246 -9.908457,-3.71875 z m -2.812603,3.91065 c 0.462396,-0.39195 0.924636,-0.78381 1.38672,-1.17556 0.47672,0.18355 0.953156,0.36738 1.429308,0.5515 0.505413,-0.42764 1.010643,-0.85516 1.515688,-1.28257 0.619294,0.23459 1.238115,0.46965 1.856463,0.70518 -0.509869,0.43041 -1.019922,0.86092 -1.530158,1.29156 0.923431,0.35903 1.845791,0.71913 2.767079,1.0803 0.459302,0.18037 0.886678,0.10465 1.282928,-0.22825 0.295036,-0.24787 0.566756,-0.57628 0.812676,-0.98412 0.600141,0.23056 1.199835,0.46157 1.799081,0.69302 -0.154243,0.30445 -0.337965,0.58184 -0.550799,0.83223 -0.204874,0.24887 -0.488797,0.52543 -0.851046,0.82898 -0.743579,0.62307 -1.478946,0.99225 -2.203339,1.10677 -0.729094,0.11291 -1.503583,0.001 -2.330033,-0.33235 -0.964641,-0.38938 -1.930484,-0.77756 -2.897528,-1.16455 -0.251666,0.21235 -0.503377,0.42472 -0.755133,0.63712 -0.327959,-0.1326 -0.656058,-0.26506 -0.984297,-0.39738 0.06439,-0.3711 0.127357,-0.74129 0.188901,-1.11056 -0.310411,-0.35165 -0.622581,-0.70209 -0.936511,-1.05132 z M 88.960986,155.9173 c 0.924142,-0.7834 1.938499,-1.29186 3.048066,-1.52811 1.107495,-0.24047 2.235168,-0.18545 3.371397,0.17054 0.394048,0.12346 0.787928,0.24707 1.181642,0.37085 -1.289068,1.08664 -2.5793,2.17399 -3.870696,3.26207 0.43675,0.12763 0.894843,0.12996 1.376396,0.006 0.485086,-0.12668 0.938386,-0.36679 1.358414,-0.72014 0.382821,-0.32207 0.691477,-0.63132 0.925477,-0.92748 0.233158,-0.3007 0.431249,-0.64294 0.59309,-1.02509 0.634124,0.20102 1.267813,0.40247 1.901067,0.60436 -0.131895,0.35629 -0.341763,0.70201 -0.628154,1.03634 -0.286378,0.33431 -0.684548,0.7157 -1.194566,1.14376 -1.061736,0.89111 -2.21991,1.47245 -3.467289,1.74037 -1.24941,0.26361 -2.478193,0.1832 -3.701143,-0.23422 -1.261446,-0.43049 -1.965458,-0.9842 -2.11533,-1.65614 -0.154395,-0.67379 0.250589,-1.42036 1.22161,-2.24349 z m 7.931526,-6.72702 c 0.676098,-0.57373 1.455635,-0.94686 2.341324,-1.12116 0.888564,-0.1772 1.800284,-0.13709 2.728214,0.12397 1.72756,0.48601 3.45212,0.97499 5.1737,1.46695 -0.72932,0.61297 -1.459,1.22616 -2.18905,1.83957 -1.42923,-0.42139 -2.86056,-0.8407 -4.294,-1.2579 -0.52409,-0.15256 -0.979027,-0.21604 -1.363411,-0.19133 -0.385558,0.0203 -0.709047,0.1409 -0.970715,0.36233 -0.35977,0.30445 -0.436933,0.57814 -0.233198,0.82179 0.203622,0.24354 0.7464,0.4978 1.62903,0.76207 1.140304,0.34142 2.279244,0.68419 3.416844,1.02831 -0.73048,0.61364 -1.46133,1.22752 -2.19253,1.84161 -2.572312,-0.80233 -5.151695,-1.59763 -7.73815,-2.38587 0.531865,-0.45102 1.063523,-0.90192 1.594974,-1.35269 0.410439,0.021 0.821172,0.0418 1.232197,0.0625 0.04157,-0.0352 0.08313,-0.0704 0.124693,-0.10566 -0.187441,-0.26271 -0.215682,-0.55577 -0.08357,-0.87891 0.135743,-0.32625 0.409944,-0.66455 0.823628,-1.01559 5e-6,0 1.1e-5,1e-5 1.7e-5,1e-5 z m -6.069815,7.24048 c -0.251293,0.21255 -0.364214,0.42364 -0.339609,0.63292 0.02381,0.20467 0.227548,0.38767 0.611852,0.54897 0.61585,-0.51998 1.231432,-1.03979 1.846745,-1.55944 -0.375117,-0.1123 -0.755341,-0.13406 -1.139139,-0.0661 -0.380316,0.065 -0.706644,0.21261 -0.979847,0.44363 0,0 -10e-7,0 -2e-6,0 z m 15.806333,-8.70768 c 0.63134,-0.53206 1.26241,-1.06394 1.89319,-1.59566 0.0806,-0.007 0.16118,-0.0143 0.24179,-0.0214 1.45213,0.78952 2.45073,1.43272 3.00257,1.91632 -0.52445,0.43989 -1.04909,0.87989 -1.57392,1.32001 -0.5377,-0.27467 -1.15391,-0.57034 -1.84977,-0.88624 -0.69615,-0.32007 -1.26981,-0.56445 -1.71384,-0.73306 -1e-5,0 -2e-5,1e-5 -2e-5,1e-5 z m -6.72877,15.87031 c 0.75724,-0.63028 1.51412,-1.26035 2.27064,-1.89018 0.48671,0.16687 0.97316,0.334 1.45933,0.50141 0.65941,0.22712 1.38205,0.51164 2.16015,0.85729 0.0354,-0.0294 0.0708,-0.0587 0.10624,-0.0881 -0.16603,-0.31665 -0.17766,-0.62716 -0.0346,-0.93196 0.14308,-0.3048 0.4136,-0.62251 0.81284,-0.95393 0.74345,-0.61717 1.56521,-1.01468 2.46848,-1.19416 0.90206,-0.18406 1.79658,-0.1323 2.677,0.15822 1.64737,0.54359 3.29175,1.09016 4.93314,1.63971 -0.79522,0.65466 -1.59081,1.30955 -2.38676,1.96467 -1.36208,-0.46977 -2.72626,-0.93746 -4.09255,-1.40304 -1.00823,-0.34355 -1.78049,-0.29282 -2.31304,0.1482 -0.37926,0.31409 -0.48111,0.60772 -0.30764,0.88197 0.17295,0.26934 0.66881,0.54746 1.4878,0.83404 1.09088,0.38174 2.1804,0.76485 3.26855,1.14932 -0.79255,0.6522 -1.58547,1.30462 -2.37876,1.95727 -3.3636,-1.22353 -6.74054,-2.43377 -10.13082,-3.63073 z m 10.68553,-8.32792 c 0.86171,-0.71763 1.762,-1.21242 2.70513,-1.48591 0.94259,-0.27334 1.80681,-0.2945 2.58615,-0.0607 0.55812,0.16752 0.93092,0.40559 1.11651,0.71529 0.1849,0.30505 0.21408,0.71552 0.0857,1.23261 -0.10371,0.43962 -0.13767,0.72666 -0.0988,0.86088 0.0383,0.12931 0.15532,0.22459 0.3511,0.28587 0.11616,0.0363 0.2323,0.0727 0.34843,0.10906 -0.6108,0.50496 -1.22181,1.01006 -1.83306,1.5153 -0.19415,-0.0623 -0.38834,-0.12452 -0.58258,-0.18672 -0.44263,-0.1418 -0.73608,-0.32692 -0.88143,-0.55415 -0.14972,-0.22884 -0.16877,-0.55594 -0.0584,-0.97998 0.0868,-0.33694 0.10489,-0.59094 0.0552,-0.76291 -0.0458,-0.17524 -0.19028,-0.30017 -0.43243,-0.37499 -0.1917,-0.0594 -0.41636,-0.0442 -0.67426,0.0451 -0.26247,0.0879 -0.51297,0.23051 -0.75095,0.42823 -0.58937,0.48964 -1.03396,1.13774 -1.3428,1.94951 -0.88548,0.029 -1.76917,0.057 -2.65108,0.084 0.32891,-1.01103 1.01019,-1.94837 2.05755,-2.8206 -1e-5,10e-6 -3e-5,2e-5 -4e-5,3e-5 z m -12.515699,12.96228 c 1.005215,-0.83371 2.066639,-1.3703 3.190999,-1.61288 1.12297,-0.24723 2.23095,-0.17596 3.31256,0.21925 0.37511,0.13705 0.75005,0.27426 1.12483,0.41164 -1.39975,1.15531 -2.80066,2.31134 -4.20273,3.46808 0.41733,0.1417 0.87018,0.14887 1.36054,0.0209 0.49422,-0.13116 0.97046,-0.38506 1.42631,-0.76065 0.4154,-0.34228 0.7561,-0.67159 1.02141,-0.98757 0.2651,-0.32094 0.50028,-0.68632 0.70432,-1.09566 0.60339,0.22291 1.20634,0.44625 1.80885,0.67002 -0.17125,0.38173 -0.41779,0.75133 -0.73912,1.10774 -0.32136,0.35641 -0.759,0.76202 -1.31209,1.2168 -1.15136,0.94671 -2.36285,1.55955 -3.62729,1.8349 -1.26591,0.27066 -2.472794,0.17205 -3.635171,-0.28883 -1.199055,-0.47533 -1.8312,-1.07788 -1.901903,-1.80222 -0.07497,-0.72635 0.412337,-1.52562 1.468505,-2.40158 -7e-6,0 -1.4e-5,10e-6 -2e-5,10e-6 z m 1.781079,0.57207 c -0.273164,0.22613 -0.409232,0.45148 -0.409055,0.67684 -1.15e-4,0.22044 0.180252,0.41938 0.541796,0.59674 0.669049,-0.55298 1.337819,-1.1058 2.006329,-1.65845 -0.35789,-0.12473 -0.73181,-0.15169 -1.11923,-0.0825 -0.38353,0.0659 -0.72294,0.22162 -1.019837,0.46737 -10e-7,0 -2e-6,0 -3e-6,0 z m 18.07349,-10.85037 c 0.39983,-0.33013 0.82148,-0.54607 1.26574,-0.6483 0.4435,-0.10694 0.87314,-0.0959 1.28738,0.0341 0.41434,0.13006 0.62301,0.3237 0.62406,0.58181 0.005,0.25472 -0.18719,0.54225 -0.5755,0.86197 -0.40042,0.3297 -0.82456,0.55206 -1.27159,0.66691 -0.4517,0.11343 -0.88382,0.10242 -1.29818,-0.0319 -0.4143,-0.13422 -0.62755,-0.32533 -0.64079,-0.57316 -0.009,-0.25118 0.19305,-0.54816 0.60888,-0.89151 z"
       id="rect6263-5-1"
       inkscape:connector-curvature="0"
       inkscape:path-effect="#path-effect4879-4"
       inkscape:original-d="m -78.953222,121.97231 21.813915,-47.35673 -6.185294,-132.14697 -55.501699,2.59782 6.18529,132.146972 26.142008,45.112098 z m 2.65199,-58.762968 -2.35486,0.110226 -0.0722,-1.543423 c -0.0327,-0.698244 -0.0363,-1.495743 -0.0152,-2.392463 l -0.1084,0.0051 c -0.20566,0.420168 -0.45932,0.721127 -0.76062,0.903168 -0.3013,0.182039 -0.65653,0.282662 -1.06607,0.301831 -0.76284,0.03571 -1.36716,-0.192122 -1.81271,-0.684432 -0.4493,-0.487439 -0.69508,-1.190172 -0.73801,-2.107184 l -0.24088,-5.145989 2.36677,-0.110781 0.20199,4.315422 c 0.0497,1.061316 0.3455,1.57928 0.8875,1.553909 0.38544,-0.01805 0.66136,-0.220075 0.82838,-0.605782 0.16324,-0.380839 0.22451,-1.006203 0.18376,-1.876671 l -0.16276,-3.477628 2.35486,-0.110225 z m 13.411111,-1.285761 -2.294493,0.107397 -1.197102,-5.073295 c -0.269777,-1.121006 -0.460306,-2.014885 -0.571982,-2.68146 -0.02994,0.477271 -0.09226,1.126366 -0.18669,1.94718 -0.09832,0.821013 -0.193236,1.502055 -0.284564,2.042806 l -0.596194,3.897534 -2.204151,0.103167 -0.933365,-3.825941 c -0.157425,-0.613069 -0.321734,-1.321682 -0.492112,-2.125422 -0.170405,-0.803767 -0.28688,-1.404821 -0.349758,-1.803099 -0.02794,0.519168 -0.128469,1.42203 -0.301638,2.708389 l -0.735389,5.177706 -2.294493,0.107397 1.690201,-10.309821 2.812259,-0.131633 1.051136,4.408636 c 0.04888,0.184319 0.130755,0.550971 0.244997,1.100799 0.110294,0.549984 0.193831,1.010359 0.251433,1.380884 0.01807,-0.304075 0.05277,-0.683426 0.103971,-1.138354 0.05133,-0.450241 0.104336,-0.865499 0.158946,-1.245912 0.0506,-0.380259 0.269861,-1.920989 0.658511,-4.621617 l 2.812735,-0.131657 z m -34.989511,1.637721 -2.144288,0.100367 0.0747,-3.698269 1.64979,-0.07722 z m 4.40494,-0.920078 -1.54187,0.07217 -0.0742,-1.584746 -1.67403,0.07835 -0.0957,-2.045679 1.67403,-0.07836 -0.14414,-3.079652 c -0.024,-0.512041 -0.24838,-0.757648 -0.67396,-0.73773 -0.31718,0.01484 -0.69234,0.1231 -1.12549,0.325324 l -0.0931,-1.989942 c 0.30977,-0.173112 0.60733,-0.298866 0.89335,-0.377577 0.2818,-0.08317 0.61573,-0.133834 1.00116,-0.151878 0.79094,-0.03701 1.37133,0.159467 1.74154,0.589981 0.37042,0.435192 0.57743,1.118576 0.62101,2.049568 l 0.15263,3.260836 0.82489,-0.03861 0.0519,1.109811 -1.00769,0.908005 z m 5.44896,-1.703581 c -0.87524,0.04097 -1.56366,-0.178266 -2.06496,-0.658635 -0.50533,-0.480185 -0.77912,-1.171811 -0.82139,-2.074865 l -0.24285,-5.188305 1.63222,-0.0764 0.5007,1.026226 0.048,-0.0024 c 0.29583,-0.471038 0.60427,-0.797729 0.92564,-0.980734 0.32138,-0.182983 0.74336,-0.286729 1.26529,-0.311158 0.64242,-0.03008 1.15872,0.169413 1.549,0.59899 0.39032,0.429599 0.60424,1.049796 0.64214,1.859765 0.0395,0.84252 -0.1842,1.480129 -0.67092,1.913427 -0.48645,0.437978 -1.2081,0.70518 -2.16525,0.801319 l -1.13628,0.09508 0.005,0.1115 c 0.0305,0.651669 0.3228,0.964708 0.87684,0.938774 0.49785,-0.02331 1.12106,-0.24829 1.86957,-0.675198 l 0.76471,1.769692 c -0.77276,0.512013 -1.76517,0.796012 -2.97769,0.852768 z m -16.368648,0.766154 c -0.44968,0.02103 -0.87395,-0.01733 -1.27286,-0.115282 -0.40269,-0.09312 -0.82213,-0.238879 -1.25794,-0.43775 l 0.55616,-1.789623 c 0.32081,0.148288 0.65845,0.270049 1.01297,0.365424 0.35474,0.100025 0.64219,0.144798 0.86299,0.134461 0.38543,-0.01804 0.57305,-0.136046 0.5628,-0.354841 -0.006,-0.134977 -0.078,-0.248621 -0.21507,-0.340159 -0.14089,-0.08675 -0.53919,-0.261331 -1.19528,-0.524512 -0.48846,-0.205703 -0.85423,-0.412748 -1.09733,-0.620641 -0.24713,-0.207733 -0.43169,-0.457777 -0.55403,-0.750576 -0.12615,-0.288012 -0.19931,-0.643739 -0.21913,-1.067347 -0.0397,-0.847231 0.17948,-1.499032 0.65708,-1.955213 0.47756,-0.456208 1.18191,-0.706131 2.11338,-0.749731 0.50587,-0.02371 0.947,-0.01188 1.32344,0.03582 0.37623,0.04306 0.76314,0.139338 1.16045,0.288679 l 0.1023,2.185562 c -0.37408,-0.169074 -0.78094,-0.304097 -1.22022,-0.404824 -0.44328,-0.100573 -0.83538,-0.143017 -1.17664,-0.127047 -0.5099,0.02387 -0.7587,0.171042 -0.74606,0.441034 0.007,0.139628 0.0846,0.259667 0.23414,0.359944 0.14574,0.105146 0.56912,0.299715 1.27048,0.58411 0.64027,0.268581 1.09404,0.585931 1.36061,0.95131 0.2668,0.370062 0.41364,0.846031 0.44088,1.427874 0.0344,0.735483 -0.18354,1.319223 -0.65417,1.751798 -0.47065,0.432549 -1.15365,0.669605 -2.04895,0.711542 z m 15.747358,-5.264211 0.5407,-0.05328 c 0.77334,-0.06886 1.14547,-0.417632 1.11606,-1.046044 -0.0225,-0.484108 -0.25681,-0.715864 -0.70247,-0.69501 -0.28506,0.01333 -0.52322,0.129622 -0.71417,0.34848 -0.19495,0.219075 -0.28458,0.495853 -0.2689,0.831025 z m 24.809679,-11.525448 c -0.437613,0.02045 -0.761547,-0.06689 -0.971917,-0.262329 -0.210283,-0.195414 -0.324697,-0.493586 -0.343435,-0.893901 -0.03759,-0.800631 0.36322,-1.2203 1.202293,-1.259575 0.831117,-0.03891 1.265317,0.341686 1.302824,1.14232 0.01918,0.40962 -0.06457,0.719127 -0.251941,0.928494 -0.187338,0.209365 -0.500182,0.324501 -0.937824,0.344991 z m -28.232439,1.321448 c -0.43764,0.02045 -0.7616,-0.06688 -0.97191,-0.262327 -0.21034,-0.195413 -0.32471,-0.49358 -0.34345,-0.893902 -0.0375,-0.800632 0.36318,-1.220293 1.20229,-1.25957 0.83108,-0.03891 1.26534,0.341683 1.30282,1.14232 0.0192,0.40962 -0.0651,0.71915 -0.25247,0.928515 -0.18734,0.209368 -0.49966,0.324482 -0.93728,0.344964 z m 24.171008,-2.734038 -1.541917,0.07217 -0.07417,-1.584722 -1.674029,0.07836 -0.09576,-2.046213 1.674029,-0.07836 -0.144132,-3.079141 c -0.024,-0.512038 -0.248383,-0.758161 -0.673947,-0.73824 -0.317161,0.01484 -0.692319,0.123605 -1.125444,0.325831 l -0.09316,-1.989944 c 0.309766,-0.173112 0.607314,-0.299374 0.893347,-0.378084 0.281742,-0.08317 0.615752,-0.133324 1.001184,-0.151371 0.790897,-0.03701 1.371316,0.159467 1.741503,0.589981 0.370417,0.435189 0.577456,1.118579 0.621003,2.049571 l 0.152625,3.260331 0.824879,-0.03861 0.05187,1.110347 -1.007676,0.907984 z m -10.534618,-0.955452 c -0.12446,0.0058 -0.33985,-5.3e-4 -0.64651,-0.01889 -0.30664,-0.01831 -0.53307,-0.03759 -0.67889,-0.05874 l -2.37865,0.111337 -0.0619,-1.319916 0.91465,-0.44169 c -0.14111,-0.263973 -0.2199,-0.575141 -0.23667,-0.933567 -0.0398,-0.85186 0.18816,-1.524701 0.68411,-2.019088 0.49188,-0.4942 1.24953,-0.765665 2.27332,-0.813583 0.2529,-0.01185 0.45478,-0.0019 0.60503,0.02808 0.0505,-0.123684 0.0731,-0.239138 0.0681,-0.34618 -0.007,-0.134996 -0.10541,-0.235503 -0.2976,-0.301123 -0.19197,-0.061 -0.44049,-0.0844 -0.74566,-0.07011 l -1.13202,0.05298 c -1.52964,0.0716 -2.32943,-0.639729 -2.3994,-2.133955 -0.0452,-0.963549 0.27514,-1.72937 0.96072,-2.297927 0.68156,-0.568399 1.66273,-0.882814 2.94349,-0.942761 0.96757,-0.0453 1.72319,0.108474 2.26675,0.460912 0.53938,0.347948 0.82516,0.87308 0.85807,1.575975 0.0442,0.944943 -0.43313,1.578456 -1.43202,1.900454 0.21355,0.09262 0.40417,0.249627 0.57141,0.470398 0.16324,0.220953 0.24996,0.443119 0.26041,0.666535 0.0116,0.246724 -0.0365,0.465895 -0.14408,0.657556 -0.1075,0.196305 -0.34005,0.433411 -0.69723,0.711383 0.36184,0.164986 0.65433,0.43575 0.87718,0.81253 0.21886,0.376962 0.34101,0.842198 0.36697,1.396156 0.0403,0.861166 -0.18138,1.540938 -0.66506,2.039387 -0.48361,0.498478 -1.19521,0.769874 -2.13467,0.813845 z m -7.85915,0.367855 c -0.67045,0.03139 -1.27004,-0.105944 -1.79944,-0.412409 -0.52936,-0.306429 -0.94741,-0.763013 -1.2534,-1.369157 -0.3098,-0.601277 -0.48364,-1.313567 -0.5222,-2.137487 -0.0606,-1.29404 0.19325,-2.318512 0.76151,-3.072884 0.56442,-0.749501 1.38632,-1.149213 2.46633,-1.199764 1.03584,-0.0485 1.87819,0.282599 2.52713,0.993981 0.64491,0.711573 0.99724,1.698379 1.05628,2.959857 0.0605,1.289413 -0.19225,2.304029 -0.75715,3.044256 -0.5687,0.745038 -1.39505,1.142871 -2.47906,1.193607 z m -13.01386,0.609129 c -0.754798,0.03534 -1.353008,-0.190693 -1.794298,-0.678537 -0.44533,-0.487656 -0.68957,-1.192522 -0.7327,-2.114185 l -0.24087,-5.145995 2.354908,-0.110223 0.20199,4.315421 c 0.0246,0.526018 0.10938,0.918331 0.25429,1.177438 0.14111,0.263977 0.35605,0.389448 0.6451,0.375917 0.39747,-0.0186 0.67575,-0.216125 0.83519,-0.592121 0.15946,-0.375995 0.2186,-1.011066 0.17676,-1.904789 l -0.16209,-3.463197 2.35437,-0.110199 0.37029,7.911282 -1.77622,0.08314 -0.34104,-0.963885 -0.13833,0.0065 c -0.18332,0.381804 -0.44729,0.673981 -0.79187,0.876697 -0.34861,0.202927 -0.75376,0.315153 -1.21548,0.336764 z m -6.733308,0.315164 c -0.12447,0.0058 -0.33985,-5.29e-4 -0.6465,-0.01889 -0.30666,-0.01828 -0.53306,-0.03759 -0.6789,-0.05874 l -2.37864,0.111337 -0.0618,-1.319922 0.91464,-0.441685 c -0.1411,-0.263977 -0.21989,-0.57514 -0.23666,-0.933563 -0.0399,-0.851863 0.18817,-1.524704 0.68409,-2.019094 0.49189,-0.494199 1.24954,-0.765662 2.27334,-0.81358 0.25293,-0.01185 0.45474,-0.0019 0.60505,0.02808 0.0505,-0.123684 0.0731,-0.239138 0.0681,-0.34618 -0.006,-0.135007 -0.10539,-0.235501 -0.29759,-0.30112 -0.19198,-0.061 -0.44052,-0.0844 -0.74566,-0.07011 l -1.13203,0.05298 c -1.52966,0.0716 -2.32946,-0.639728 -2.3994,-2.133957 -0.0451,-0.963552 0.27516,-1.72937 0.96072,-2.29793 0.68156,-0.568397 1.66271,-0.882809 2.94347,-0.942756 0.96759,-0.0453 1.72318,0.108469 2.26677,0.46091 0.53936,0.347953 0.82514,0.873077 0.85804,1.575975 0.0442,0.944943 -0.43309,1.578456 -1.432,1.900457 0.21358,0.09262 0.40418,0.249626 0.57143,0.470392 0.16325,0.220959 0.24993,0.443124 0.26039,0.666538 0.0115,0.24673 -0.0363,0.465905 -0.14408,0.657556 -0.1075,0.196308 -0.34003,0.433409 -0.69719,0.711383 0.36182,0.164988 0.65431,0.43575 0.87715,0.81253 0.21884,0.376967 0.34102,0.842198 0.36695,1.396158 0.0403,0.861161 -0.18136,1.540939 -0.66503,2.039385 -0.48365,0.498475 -1.19521,0.769871 -2.13469,0.813848 z m 43.240071,-2.163562 -2.354834,0.110226 -0.370332,-7.911285 2.35489,-0.11022 z m -28.232963,1.32148 -2.35436,0.110199 -0.3703,-7.911282 2.35437,-0.110199 z m 12.50455,-1.963986 c 0.48579,-0.02275 0.70937,-0.439256 0.67146,-1.249222 -0.0378,-0.809966 -0.29941,-1.203275 -0.78516,-1.180534 -0.22485,0.01053 -0.39317,0.118388 -0.50425,0.324184 -0.11512,0.205988 -0.16293,0.509148 -0.14419,0.909494 0.0384,0.819238 0.29238,1.218065 0.76214,1.196078 z m -27.606308,1.292146 c 0.4858,-0.02275 0.70939,-0.439259 0.67148,-1.249222 -0.0379,-0.809967 -0.29941,-1.20327 -0.78521,-1.180537 -0.22482,0.01053 -0.39316,0.118393 -0.50423,0.324189 -0.1151,0.205983 -0.16292,0.509146 -0.14418,0.909489 0.0383,0.81924 0.29238,1.218065 0.76214,1.196081 z m 19.770998,-1.443257 c 0.36135,-0.01693 0.61222,-0.201282 0.75269,-0.55308 0.14067,-0.347117 0.1951,-0.860343 0.16328,-1.539981 -0.0319,-0.679608 -0.13439,-1.195255 -0.30773,-1.546381 -0.17314,-0.346419 -0.44423,-0.511016 -0.81359,-0.493731 -0.36535,0.01709 -0.61439,0.206047 -0.74638,0.566746 -0.13578,0.365596 -0.18759,0.888441 -0.15577,1.568077 0.0315,0.67496 0.13156,1.180983 0.30025,1.518282 0.16867,0.337333 0.43786,0.497358 0.80725,0.480068 z m 8.0824,-6.682989 c 0.25295,-0.01185 0.4649,-0.0898 0.63528,-0.233071 0.16609,-0.147712 0.24412,-0.321421 0.23475,-0.521581 -0.0105,-0.223436 -0.12291,-0.398011 -0.33801,-0.523246 -0.21529,-0.129863 -0.49776,-0.1862 -0.84707,-0.169852 -0.57009,0.0267 -1.02167,0.131818 -1.35511,0.315365 -0.33766,0.179073 -0.50075,0.398497 -0.48853,0.659154 0.01,0.209463 0.12135,0.353671 0.33423,0.432364 0.21272,0.07401 0.51365,0.102195 0.90306,0.08397 z m -27.606288,1.292146 c 0.25293,-0.01185 0.46491,-0.0898 0.63524,-0.233072 0.16611,-0.147714 0.24415,-0.321421 0.23478,-0.521578 -0.0104,-0.223446 -0.12292,-0.398016 -0.33802,-0.523251 -0.21529,-0.129863 -0.49775,-0.186198 -0.84704,-0.169849 -0.57011,0.02667 -1.02171,0.131818 -1.35515,0.315362 -0.33763,0.179075 -0.50072,0.398497 -0.48852,0.659154 0.01,0.209463 0.12134,0.353671 0.33424,0.432364 0.21271,0.07401 0.5136,0.102197 0.90306,0.08397 z m 17.816808,-7.615616 -2.35489,0.11022 -0.11503,-2.457638 c -0.0137,-0.293243 -0.009,-0.799489 0.0132,-1.51897 l -0.0841,0.0039 c -0.20969,0.420336 -0.45867,0.727771 -0.74728,0.923227 -0.29261,0.195619 -0.62997,0.302641 -1.01137,0.320492 -0.74276,0.03477 -1.34767,-0.298675 -1.81502,-0.999881 -0.47141,-0.701048 -0.73711,-1.689336 -0.79681,-2.964797 -0.0601,-1.284734 0.11387,-2.302898 0.52127,-3.054373 0.40364,-0.746694 0.99654,-1.138235 1.77944,-1.17488 0.25297,-0.01185 0.4795,0.01056 0.67927,0.0665 0.19957,0.05132 0.38041,0.128918 0.54221,0.233307 0.15781,0.104553 0.345,0.282347 0.56198,0.53345 l 0.14454,-0.0068 0.33692,-0.792308 1.83716,-0.08599 z m 15.515372,-2.097678 -1.541382,0.07214 -0.0742,-1.585228 -1.67457,0.07838 -0.0957,-2.045706 1.67454,-0.07838 -0.1441,-3.079138 c -0.0237,-0.512048 -0.24892,-0.758135 -0.67451,-0.738217 -0.31716,0.01484 -0.69235,0.123635 -1.12545,0.325832 l -0.0932,-1.990452 c 0.30974,-0.173139 0.60782,-0.298916 0.89386,-0.377598 0.28177,-0.08315 0.61521,-0.133813 1.00064,-0.151855 0.790931,-0.03701 1.37135,0.159975 1.741542,0.590513 0.370443,0.435166 0.577427,1.118042 0.621001,2.049037 l 0.152625,3.260835 0.825444,-0.03865 0.05187,1.110347 -1.007703,0.908013 z m -7.721882,-1.08708 c -0.67048,0.03138 -1.27056,-0.105952 -1.79996,-0.412385 -0.52936,-0.306461 -0.94691,-0.763098 -1.25287,-1.369184 -0.30982,-0.601303 -0.48418,-1.314079 -0.52276,-2.137997 -0.0606,-1.294096 0.19327,-2.318004 0.76152,-3.072347 0.56445,-0.749557 1.38684,-1.149774 2.46685,-1.200325 1.03584,-0.0485 1.87822,0.283104 2.52713,0.994492 0.64491,0.711542 0.9967,1.69789 1.05577,2.95937 0.0602,1.289391 -0.19175,2.304539 -0.75661,3.04474 -0.56868,0.745009 -1.39503,1.142894 -2.47907,1.193636 z m -18.92229,0.885682 c -1.027798,0.04811 -1.835178,-0.226893 -2.422448,-0.824534 -0.59106,-0.592804 -0.91376,-1.473319 -0.96844,-2.641685 l -0.0569,-1.214654 4.209618,-0.197035 c -0.0368,-0.441457 -0.19152,-0.782069 -0.46425,-1.021204 -0.27677,-0.238925 -0.6423,-0.347594 -1.09599,-0.326361 -0.413538,0.01937 -0.790868,0.08135 -1.132008,0.185973 -0.34494,0.109434 -0.71488,0.282908 -1.11014,0.520626 l -0.0918,-1.962063 c 0.35915,-0.236085 0.73365,-0.405109 1.12319,-0.50731 0.38954,-0.102198 0.85729,-0.166362 1.403328,-0.19192 1.1362,-0.05318 2.03563,0.254637 2.69868,0.92335 0.6592,0.673606 1.01911,1.657488 1.07969,2.951581 0.0625,1.33596 -0.18078,2.373841 -0.72962,3.113288 -0.5486,0.744072 -1.36291,1.141392 -2.44292,1.191948 z m -0.17106,-1.853369 c 0.27704,-0.01299 0.50491,-0.126161 0.68404,-0.339807 0.17531,-0.208799 0.26889,-0.530633 0.28076,-0.965044 l -2.023518,0.09471 c 0.026,0.381334 0.13486,0.681824 0.32622,0.901433 0.187318,0.219803 0.431388,0.322773 0.732498,0.308708 z m 19.02254,-1.065231 c 0.36133,-0.01693 0.61222,-0.201282 0.75266,-0.553053 0.14069,-0.347144 0.1951,-0.860877 0.16326,-1.54051 -0.0319,-0.679611 -0.13436,-1.194752 -0.3077,-1.545847 -0.17315,-0.346448 -0.44473,-0.510995 -0.81413,-0.493707 -0.36531,0.01709 -0.61383,0.205992 -0.7458,0.566722 -0.13581,0.365564 -0.18765,0.887934 -0.15581,1.56754 0.0315,0.674991 0.13157,1.181488 0.30025,1.518819 0.16866,0.337304 0.43793,0.497326 0.80727,0.480036 z m -11.26099,0.414837 c 0.32922,-0.0154 0.56391,-0.159355 0.70406,-0.431807 0.14015,-0.272476 0.19677,-0.692539 0.17019,-1.26042 l -0.018,-0.384055 c -0.0303,-0.647047 -0.12818,-1.108814 -0.29404,-1.385615 -0.16565,-0.272148 -0.42129,-0.400347 -0.76655,-0.384186 -0.27703,0.01299 -0.48236,0.185909 -0.61565,0.518726 -0.1331,0.337439 -0.18434,0.825257 -0.15449,1.462969 0.0595,1.270809 0.38428,1.891979 0.97446,1.864388 z m 14.43147,-13.6495973 -2.35441,0.110202 -0.0722,-1.543452 c -0.0327,-0.698215 -0.0391,-1.495661 -0.0158,-2.392413 l -0.1084,0.0051 c -0.20568,0.420142 -0.45881,0.721611 -0.76011,0.903653 -0.3013,0.182041 -0.65704,0.282686 -1.06654,0.301855 -0.76285,0.03572 -1.36666,-0.192657 -1.81221,-0.684961 -0.44932,-0.487469 -0.69562,-1.189673 -0.73855,-2.106679 l -0.24084,-5.145966 2.36677,-0.110781 0.20195,4.314912 c 0.0498,1.061315 0.34553,1.579253 0.88754,1.553885 0.38543,-0.01804 0.66181,-0.220075 0.82886,-0.605809 0.16323,-0.380807 0.22447,-1.006202 0.18375,-1.876668 l -0.16276,-3.477123 2.35439,-0.110199 z m 4.45889,-1.580139 -1.54192,0.07217 -0.0742,-1.585254 -1.67403,0.07835 -0.0958,-2.045708 1.67403,-0.07835 -0.14413,-3.079115 c -0.0237,-0.51204604 -0.24841,-0.75816104 -0.67395,-0.73824304 -0.31716,0.01484 -0.69238,0.123071 -1.1255,0.325265 l -0.0931,-1.98994096 c 0.30974,-0.173112 0.60734,-0.298866 0.89337,-0.377548 0.28177,-0.08314 0.6157,-0.133836 1.00113,-0.151876 0.79093,-0.03702 1.371345,0.159999 1.741593,0.590516 0.370387,0.43513396 0.577397,1.11806796 0.620974,2.04900696 l 0.152654,3.26086304 0.824849,-0.03861 0.05187,1.110343 -1.007703,0.907507 z m -15.92428,-0.70318 c -1.0278,0.04811 -1.83569,-0.22687 -2.42296,-0.824514 -0.59105,-0.592799 -0.91375,-1.473292 -0.96844,-2.641711 l -0.0569,-1.215133 4.20963,-0.197035 c -0.0367,-0.44146 -0.19151,-0.781529 -0.46424,-1.020697 -0.27676,-0.238953 -0.64183,-0.34812504 -1.0955,-0.32689004 -0.41354,0.01937 -0.79087,0.08134 -1.13202,0.18594104 -0.34493,0.109469 -0.71535,0.283467 -1.11061,0.521243 l -0.0918,-1.96211604 c 0.35912,-0.236059 0.73364,-0.405111 1.12318,-0.507309 0.38952,-0.102201 0.8573,-0.16633296 1.40331,-0.19189196 1.13624,-0.05318 2.03567,0.25460596 2.69867,0.92337496 0.65923,0.673576 1.01915,1.65745504 1.07973,2.95152504 0.0626,1.33596 -0.18026,2.373815 -0.72911,3.113267 -0.54861,0.744099 -1.36291,1.141394 -2.44292,1.191946 z m -8.83472,0.413517 c -0.75481,0.03534 -1.35302,-0.191228 -1.79434,-0.679072 -0.44529,-0.487659 -0.68951,-1.192019 -0.732638,-2.113677 l -0.24087,-5.14597104 2.354908,-0.110223 0.20196,4.31491204 c 0.0246,0.525997 0.10938,0.918308 0.25427,1.177441 0.14113,0.26392 0.35605,0.389419 0.64513,0.375886 0.39746,-0.0186 0.67576,-0.21609 0.83519,-0.592116 0.15943,-0.375995 0.21862,-1.010537 0.17679,-1.904286 l -0.1621,-3.46316904 2.35436,-0.110196 0.37027,7.91074804 -1.77624,0.08314 -0.34101,-0.963855 -0.13833,0.0065 c -0.18333,0.381748 -0.44727,0.674454 -0.79185,0.877194 -0.34861,0.202933 -0.75379,0.315161 -1.21551,0.336772 z m 8.66315,-2.266831 c 0.27701,-0.01299 0.5054,-0.126722 0.68453,-0.340368 0.17531,-0.208804 0.2689,-0.530098 0.28078,-0.964536 l -2.02352,0.09471 c 0.0257,0.381339 0.13436,0.681818 0.32568,0.901454 0.18736,0.219829 0.43141,0.3228 0.73253,0.308737 z m -13.061528,-3.503483 -2.05963,0.09641 -0.0922,-0.156588 c 0.30645,-1.79174804 0.59897,-3.113829 0.87694,-3.966549 l 1.68023,-0.07865 c -0.0864,0.647819 -0.16932,1.37209996 -0.24849,2.17354596 -0.083,0.806273 -0.13514,1.45025804 -0.15687,1.93183204 z m 16.152068,-9.902442 -2.35487,0.110223 -0.0722,-1.54342 c -0.0326,-0.6982437 -0.0391,-1.4956707 -0.0153,-2.3924657 l -0.10839,0.0051 c -0.20568,0.420172 -0.45932,0.721103 -0.76063,0.903171 -0.3013,0.182039 -0.65653,0.282662 -1.06607,0.301831 -0.76283,0.03571 -1.36717,-0.192635 -1.81271,-0.68494 -0.44932,-0.487465 -0.69511,-1.189667 -0.73803,-2.106673 l -0.24086,-5.145992 2.36677,-0.110781 0.20199,4.315417 c 0.0497,1.061323 0.34552,1.579285 0.88753,1.553914 0.38542,-0.01805 0.66134,-0.220078 0.82836,-0.605785 0.16322,-0.380836 0.22452,-1.006205 0.18376,-1.876671 l -0.16278,-3.47763 2.35488,-0.110218 z m -10.60487,-0.01476 c -0.89533,0.04191 -1.60894,-0.152948 -2.14016,-0.585275 -0.53125,-0.432329 -0.81495,-1.042058 -0.85177,-1.8287387 -0.0263,-0.563237 0.0652,-1.057598 0.27462,-1.482579 0.20565,-0.420174 0.54881,-0.825789 1.02943,-1.216848 0.40676,-0.336262 0.66085,-0.581078 0.7623,-0.735116 0.0976,-0.149167 0.14159,-0.323852 0.13223,-0.52401 l -0.0167,-0.356198 1.849,-0.08655 0.0281,0.600361 c 0.0213,0.456168 -0.0413,0.844034 -0.18714,1.163439 -0.14578,0.324051 -0.4166,0.644885 -0.81219,0.961948 -0.31408,0.252622 -0.53675,0.477428 -0.66835,0.674862 -0.13561,0.197591 -0.19761,0.420024 -0.18606,0.666753 0.009,0.195506 0.0924,0.345162 0.25021,0.449747 0.15801,0.10923 0.35951,0.158538 0.60441,0.147076 0.60625,-0.02838 1.30353,-0.310941 2.09122,-0.846984 l 0.92567,1.8599437 c -0.96878,0.707798 -1.99684,1.087239 -3.08485,1.138164 z m 15.03793,-3.0132207 c -1.02782,0.04812 -1.8352,-0.226383 -2.42242,-0.824024 -0.59109,-0.592804 -0.91381,-1.473295 -0.96848,-2.641684 l -0.0569,-1.215131 4.20963,-0.197038 c -0.0367,-0.44146 -0.19152,-0.781529 -0.46426,-1.02067 -0.27672,-0.238977 -0.64231,-0.348101 -1.09601,-0.326866 -0.41351,0.01937 -0.79087,0.08132 -1.13196,0.185912 -0.34496,0.109466 -0.7149,0.282906 -1.11015,0.520682 l -0.0918,-1.961555 c 0.35913,-0.236082 0.73358,-0.405609 1.12313,-0.507841 0.38955,-0.102201 0.85734,-0.165825 1.40335,-0.191384 1.13623,-0.05318 2.03567,0.254606 2.69867,0.923346 0.65924,0.673581 1.01913,1.657461 1.07969,2.951527 0.0626,1.335958 -0.18076,2.373331 -0.72962,3.112778 -0.54862,0.744101 -1.36291,1.141399 -2.44289,1.191948 z m -0.17108,-1.853337 c 0.27703,-0.01299 0.50492,-0.126191 0.68402,-0.339837 0.17532,-0.208803 0.26893,-0.530095 0.28078,-0.964506 l -2.0235,0.09471 c 0.0257,0.381338 0.13487,0.681794 0.32622,0.901432 0.18731,0.219829 0.43138,0.322295 0.73248,0.308198 z m -14.89125,-3.004495 c -0.40148,0.01879 -0.71418,-0.0856 -0.93808,-0.313071 -0.22769,-0.222573 -0.35147,-0.54556 -0.37129,-0.969161 -0.0198,-0.423603 0.077,-0.757399 0.29098,-1.000672 0.20993,-0.243081 0.50777,-0.373484 0.89321,-0.391525 0.39746,-0.0186 0.71381,0.08099 0.94931,0.298558 0.23572,0.222226 0.36345,0.547574 0.3835,0.975826 0.0201,0.428254 -0.0707,0.763349 -0.27263,1.006025 -0.20593,0.242898 -0.51743,0.374473 -0.935,0.39402 z" />
  </g>
</svg>
